G75*
%MOIN*%
%OFA0B0*%
%FSLAX25Y25*%
%IPPOS*%
%LPD*%
%AMOC8*
5,1,8,0,0,1.08239X$1,22.5*
%
%ADD10R,0.05118X0.05906*%
%ADD11R,0.05906X0.05118*%
%ADD12C,0.07400*%
%ADD13R,0.05000X0.02200*%
%ADD14R,0.02200X0.05000*%
%ADD15C,0.00886*%
%ADD16R,0.07480X0.04331*%
%ADD17C,0.01000*%
%ADD18C,0.00800*%
%ADD19C,0.02378*%
D10*
X0052106Y0048200D03*
X0059587Y0048200D03*
X0059587Y0058200D03*
X0052106Y0058200D03*
X0074606Y0070200D03*
X0082087Y0070200D03*
X0112106Y0095700D03*
X0119587Y0095700D03*
D11*
X0098346Y0086940D03*
X0098346Y0079460D03*
X0120846Y0069440D03*
X0120846Y0061960D03*
X0095846Y0059440D03*
X0095846Y0051960D03*
X0145846Y0039440D03*
X0145846Y0031960D03*
X0154346Y0031960D03*
X0154346Y0039440D03*
X0175846Y0071960D03*
X0175846Y0079440D03*
D12*
X0188346Y0079450D03*
X0188346Y0089450D03*
X0188346Y0099450D03*
X0165846Y0100700D03*
X0155846Y0100700D03*
X0145846Y0100700D03*
X0145846Y0110700D03*
X0155846Y0110700D03*
X0165846Y0110700D03*
X0188346Y0069450D03*
X0188346Y0059450D03*
X0188346Y0049450D03*
X0068346Y0038200D03*
X0058346Y0038200D03*
X0048346Y0038200D03*
X0038346Y0038200D03*
X0033346Y0093200D03*
X0023346Y0093200D03*
X0023346Y0103200D03*
X0033346Y0103200D03*
D13*
X0131446Y0081724D03*
X0131446Y0078574D03*
X0131446Y0075424D03*
X0131446Y0072275D03*
X0131446Y0069125D03*
X0131446Y0065976D03*
X0131446Y0062826D03*
X0131446Y0059676D03*
X0165246Y0059676D03*
X0165246Y0062826D03*
X0165246Y0065976D03*
X0165246Y0069125D03*
X0165246Y0072275D03*
X0165246Y0075424D03*
X0165246Y0078574D03*
X0165246Y0081724D03*
D14*
X0159370Y0087600D03*
X0156220Y0087600D03*
X0153071Y0087600D03*
X0149921Y0087600D03*
X0146772Y0087600D03*
X0143622Y0087600D03*
X0140472Y0087600D03*
X0137323Y0087600D03*
X0137323Y0053800D03*
X0140472Y0053800D03*
X0143622Y0053800D03*
X0146772Y0053800D03*
X0149921Y0053800D03*
X0153071Y0053800D03*
X0156220Y0053800D03*
X0159370Y0053800D03*
D15*
X0087352Y0054331D02*
X0085088Y0054331D01*
X0087352Y0054331D02*
X0087352Y0054037D01*
X0085088Y0054037D01*
X0085088Y0054331D01*
X0085088Y0056300D02*
X0087352Y0056300D01*
X0087352Y0056006D01*
X0085088Y0056006D01*
X0085088Y0056300D01*
X0085088Y0058268D02*
X0087352Y0058268D01*
X0087352Y0057974D01*
X0085088Y0057974D01*
X0085088Y0058268D01*
X0083121Y0059942D02*
X0083121Y0062206D01*
X0083415Y0062206D01*
X0083415Y0059942D01*
X0083121Y0059942D01*
X0083121Y0060827D02*
X0083415Y0060827D01*
X0083415Y0061712D02*
X0083121Y0061712D01*
X0081152Y0062206D02*
X0081152Y0059942D01*
X0081152Y0062206D02*
X0081446Y0062206D01*
X0081446Y0059942D01*
X0081152Y0059942D01*
X0081152Y0060827D02*
X0081446Y0060827D01*
X0081446Y0061712D02*
X0081152Y0061712D01*
X0079184Y0062206D02*
X0079184Y0059942D01*
X0079184Y0062206D02*
X0079478Y0062206D01*
X0079478Y0059942D01*
X0079184Y0059942D01*
X0079184Y0060827D02*
X0079478Y0060827D01*
X0079478Y0061712D02*
X0079184Y0061712D01*
X0077215Y0062206D02*
X0077215Y0059942D01*
X0077215Y0062206D02*
X0077509Y0062206D01*
X0077509Y0059942D01*
X0077215Y0059942D01*
X0077215Y0060827D02*
X0077509Y0060827D01*
X0077509Y0061712D02*
X0077215Y0061712D01*
X0075247Y0062206D02*
X0075247Y0059942D01*
X0075247Y0062206D02*
X0075541Y0062206D01*
X0075541Y0059942D01*
X0075247Y0059942D01*
X0075247Y0060827D02*
X0075541Y0060827D01*
X0075541Y0061712D02*
X0075247Y0061712D01*
X0073278Y0062206D02*
X0073278Y0059942D01*
X0073278Y0062206D02*
X0073572Y0062206D01*
X0073572Y0059942D01*
X0073278Y0059942D01*
X0073278Y0060827D02*
X0073572Y0060827D01*
X0073572Y0061712D02*
X0073278Y0061712D01*
X0071604Y0057974D02*
X0069340Y0057974D01*
X0069340Y0058268D01*
X0071604Y0058268D01*
X0071604Y0057974D01*
X0071604Y0056006D02*
X0069340Y0056006D01*
X0069340Y0056300D01*
X0071604Y0056300D01*
X0071604Y0056006D01*
X0071604Y0054037D02*
X0069340Y0054037D01*
X0069340Y0054331D01*
X0071604Y0054331D01*
X0071604Y0054037D01*
X0071604Y0052069D02*
X0069340Y0052069D01*
X0069340Y0052363D01*
X0071604Y0052363D01*
X0071604Y0052069D01*
X0071604Y0050100D02*
X0069340Y0050100D01*
X0069340Y0050394D01*
X0071604Y0050394D01*
X0071604Y0050100D01*
X0071604Y0048132D02*
X0069340Y0048132D01*
X0069340Y0048426D01*
X0071604Y0048426D01*
X0071604Y0048132D01*
X0073572Y0046458D02*
X0073572Y0044194D01*
X0073278Y0044194D01*
X0073278Y0046458D01*
X0073572Y0046458D01*
X0073572Y0045079D02*
X0073278Y0045079D01*
X0073278Y0045964D02*
X0073572Y0045964D01*
X0075541Y0046458D02*
X0075541Y0044194D01*
X0075247Y0044194D01*
X0075247Y0046458D01*
X0075541Y0046458D01*
X0075541Y0045079D02*
X0075247Y0045079D01*
X0075247Y0045964D02*
X0075541Y0045964D01*
X0077509Y0046458D02*
X0077509Y0044194D01*
X0077215Y0044194D01*
X0077215Y0046458D01*
X0077509Y0046458D01*
X0077509Y0045079D02*
X0077215Y0045079D01*
X0077215Y0045964D02*
X0077509Y0045964D01*
X0079478Y0046458D02*
X0079478Y0044194D01*
X0079184Y0044194D01*
X0079184Y0046458D01*
X0079478Y0046458D01*
X0079478Y0045079D02*
X0079184Y0045079D01*
X0079184Y0045964D02*
X0079478Y0045964D01*
X0081446Y0046458D02*
X0081446Y0044194D01*
X0081152Y0044194D01*
X0081152Y0046458D01*
X0081446Y0046458D01*
X0081446Y0045079D02*
X0081152Y0045079D01*
X0081152Y0045964D02*
X0081446Y0045964D01*
X0083415Y0046458D02*
X0083415Y0044194D01*
X0083121Y0044194D01*
X0083121Y0046458D01*
X0083415Y0046458D01*
X0083415Y0045079D02*
X0083121Y0045079D01*
X0083121Y0045964D02*
X0083415Y0045964D01*
X0085088Y0048426D02*
X0087352Y0048426D01*
X0087352Y0048132D01*
X0085088Y0048132D01*
X0085088Y0048426D01*
X0085088Y0050394D02*
X0087352Y0050394D01*
X0087352Y0050100D01*
X0085088Y0050100D01*
X0085088Y0050394D01*
X0085088Y0052363D02*
X0087352Y0052363D01*
X0087352Y0052069D01*
X0085088Y0052069D01*
X0085088Y0052363D01*
D16*
X0108563Y0078672D03*
X0108563Y0087728D03*
X0123130Y0087728D03*
X0123130Y0078672D03*
D17*
X0015346Y0128700D02*
X0015346Y0020200D01*
X0196268Y0020200D01*
X0196268Y0128700D01*
X0015346Y0128700D01*
X0015346Y0128036D02*
X0020400Y0128036D01*
X0021774Y0128605D02*
X0018868Y0127402D01*
X0016644Y0125178D01*
X0015441Y0122273D01*
X0015441Y0119127D01*
X0016644Y0116222D01*
X0018868Y0113998D01*
X0021774Y0112794D01*
X0024919Y0112794D01*
X0027825Y0113998D01*
X0030048Y0116222D01*
X0031252Y0119127D01*
X0031252Y0122273D01*
X0030048Y0125178D01*
X0027825Y0127402D01*
X0024919Y0128605D01*
X0021774Y0128605D01*
X0018504Y0127038D02*
X0015346Y0127038D01*
X0015346Y0126039D02*
X0017506Y0126039D01*
X0016588Y0125041D02*
X0015346Y0125041D01*
X0015346Y0124042D02*
X0016174Y0124042D01*
X0015760Y0123044D02*
X0015346Y0123044D01*
X0015346Y0122045D02*
X0015441Y0122045D01*
X0015441Y0121047D02*
X0015346Y0121047D01*
X0015346Y0120048D02*
X0015441Y0120048D01*
X0015473Y0119050D02*
X0015346Y0119050D01*
X0015346Y0118051D02*
X0015887Y0118051D01*
X0016300Y0117053D02*
X0015346Y0117053D01*
X0015346Y0116054D02*
X0016812Y0116054D01*
X0017811Y0115056D02*
X0015346Y0115056D01*
X0015346Y0114057D02*
X0018809Y0114057D01*
X0021136Y0113059D02*
X0015346Y0113059D01*
X0015346Y0112060D02*
X0059237Y0112060D01*
X0059977Y0112800D02*
X0038353Y0091177D01*
X0038746Y0092126D01*
X0038746Y0094274D01*
X0037924Y0096259D01*
X0036405Y0097778D01*
X0035386Y0098200D01*
X0036405Y0098622D01*
X0037924Y0100141D01*
X0038746Y0102126D01*
X0038746Y0104274D01*
X0037924Y0106259D01*
X0036405Y0107778D01*
X0034421Y0108600D01*
X0032272Y0108600D01*
X0030288Y0107778D01*
X0028769Y0106259D01*
X0028346Y0105240D01*
X0027924Y0106259D01*
X0026405Y0107778D01*
X0024421Y0108600D01*
X0022272Y0108600D01*
X0020288Y0107778D01*
X0018769Y0106259D01*
X0017946Y0104274D01*
X0017946Y0102126D01*
X0018769Y0100141D01*
X0020288Y0098622D01*
X0021571Y0098091D01*
X0021350Y0098019D01*
X0020621Y0097647D01*
X0019959Y0097166D01*
X0019380Y0096588D01*
X0018899Y0095925D01*
X0018527Y0095196D01*
X0018274Y0094418D01*
X0018161Y0093700D01*
X0022846Y0093700D01*
X0022846Y0092700D01*
X0018161Y0092700D01*
X0018274Y0091982D01*
X0018527Y0091204D01*
X0018899Y0090475D01*
X0019380Y0089812D01*
X0019959Y0089234D01*
X0020621Y0088753D01*
X0021350Y0088381D01*
X0022129Y0088128D01*
X0022846Y0088014D01*
X0022846Y0092700D01*
X0023846Y0092700D01*
X0023846Y0088014D01*
X0024564Y0088128D01*
X0025343Y0088381D01*
X0026072Y0088753D01*
X0026734Y0089234D01*
X0027313Y0089812D01*
X0027794Y0090475D01*
X0028165Y0091204D01*
X0028237Y0091424D01*
X0028769Y0090141D01*
X0030288Y0088622D01*
X0032272Y0087800D01*
X0034421Y0087800D01*
X0036246Y0088556D01*
X0036246Y0085186D01*
X0035897Y0084836D01*
X0035457Y0083775D01*
X0035457Y0082625D01*
X0035897Y0081564D01*
X0036710Y0080751D01*
X0037772Y0080311D01*
X0038921Y0080311D01*
X0039983Y0080751D01*
X0040796Y0081564D01*
X0041235Y0082625D01*
X0041235Y0083775D01*
X0040796Y0084836D01*
X0040446Y0085186D01*
X0040446Y0087330D01*
X0061716Y0108600D01*
X0140871Y0108600D01*
X0141203Y0107800D01*
X0139977Y0107800D01*
X0137477Y0105300D01*
X0136246Y0104070D01*
X0136246Y0094830D01*
X0138746Y0092330D01*
X0139277Y0091800D01*
X0135519Y0091800D01*
X0134523Y0090804D01*
X0134523Y0084524D01*
X0133546Y0084524D01*
X0133546Y0090970D01*
X0132316Y0092200D01*
X0127946Y0096570D01*
X0126716Y0097800D01*
X0123846Y0097800D01*
X0123846Y0099357D01*
X0122850Y0100353D01*
X0116323Y0100353D01*
X0115705Y0099734D01*
X0115586Y0099853D01*
X0115244Y0100051D01*
X0114863Y0100153D01*
X0112606Y0100153D01*
X0112606Y0096200D01*
X0111606Y0096200D01*
X0111606Y0095200D01*
X0108047Y0095200D01*
X0108047Y0092550D01*
X0108149Y0092168D01*
X0108347Y0091826D01*
X0108580Y0091593D01*
X0104119Y0091593D01*
X0103123Y0090597D01*
X0103123Y0085300D01*
X0102799Y0085300D01*
X0102799Y0086440D01*
X0098846Y0086440D01*
X0098846Y0087440D01*
X0097846Y0087440D01*
X0097846Y0086440D01*
X0093894Y0086440D01*
X0093894Y0084184D01*
X0093996Y0083802D01*
X0094193Y0083460D01*
X0094312Y0083341D01*
X0093694Y0082723D01*
X0093694Y0076197D01*
X0094690Y0075201D01*
X0102003Y0075201D01*
X0102999Y0076197D01*
X0102999Y0081100D01*
X0103123Y0081100D01*
X0103123Y0075803D01*
X0104119Y0074807D01*
X0105885Y0074807D01*
X0105457Y0073775D01*
X0105457Y0072625D01*
X0105897Y0071564D01*
X0106710Y0070751D01*
X0107772Y0070311D01*
X0108266Y0070311D01*
X0111236Y0067340D01*
X0116194Y0067340D01*
X0116194Y0066177D01*
X0116812Y0065559D01*
X0116693Y0065440D01*
X0116496Y0065098D01*
X0116394Y0064716D01*
X0116394Y0062460D01*
X0120346Y0062460D01*
X0120346Y0061460D01*
X0116394Y0061460D01*
X0116394Y0059203D01*
X0116496Y0058822D01*
X0116693Y0058480D01*
X0116973Y0058200D01*
X0117315Y0058003D01*
X0117696Y0057901D01*
X0120346Y0057901D01*
X0120346Y0061460D01*
X0121346Y0061460D01*
X0121346Y0057901D01*
X0123997Y0057901D01*
X0124378Y0058003D01*
X0124720Y0058200D01*
X0124999Y0058480D01*
X0125197Y0058822D01*
X0125299Y0059203D01*
X0125299Y0061460D01*
X0121346Y0061460D01*
X0121346Y0062460D01*
X0125299Y0062460D01*
X0125299Y0064716D01*
X0125197Y0065098D01*
X0124999Y0065440D01*
X0124881Y0065559D01*
X0125499Y0066177D01*
X0125499Y0067025D01*
X0127446Y0067025D01*
X0127446Y0066026D01*
X0131396Y0066026D01*
X0131396Y0065926D01*
X0127446Y0065926D01*
X0127446Y0064830D01*
X0127246Y0064630D01*
X0127246Y0057872D01*
X0127319Y0057800D01*
X0116716Y0057800D01*
X0103446Y0071070D01*
X0102216Y0072300D01*
X0094716Y0072300D01*
X0088604Y0078412D01*
X0088735Y0078730D01*
X0088735Y0079879D01*
X0088296Y0080941D01*
X0087483Y0081754D01*
X0086421Y0082194D01*
X0085272Y0082194D01*
X0084210Y0081754D01*
X0083486Y0081030D01*
X0081716Y0082800D01*
X0072477Y0082800D01*
X0071246Y0081570D01*
X0066246Y0076570D01*
X0066246Y0059377D01*
X0067198Y0058426D01*
X0067198Y0057086D01*
X0067467Y0056816D01*
X0067398Y0056556D01*
X0067398Y0056284D01*
X0064472Y0056284D01*
X0063846Y0056911D01*
X0063846Y0061857D01*
X0062850Y0062853D01*
X0056323Y0062853D01*
X0055705Y0062234D01*
X0055586Y0062353D01*
X0055244Y0062551D01*
X0054863Y0062653D01*
X0052606Y0062653D01*
X0052606Y0058700D01*
X0051606Y0058700D01*
X0051606Y0057700D01*
X0048047Y0057700D01*
X0048047Y0055050D01*
X0048149Y0054668D01*
X0048347Y0054326D01*
X0048626Y0054047D01*
X0048968Y0053849D01*
X0049350Y0053747D01*
X0051606Y0053747D01*
X0051606Y0057700D01*
X0052606Y0057700D01*
X0052606Y0053747D01*
X0054863Y0053747D01*
X0055244Y0053849D01*
X0055586Y0054047D01*
X0055705Y0054166D01*
X0056323Y0053547D01*
X0061270Y0053547D01*
X0061964Y0052853D01*
X0056323Y0052853D01*
X0055705Y0052234D01*
X0055586Y0052353D01*
X0055244Y0052551D01*
X0054863Y0052653D01*
X0052606Y0052653D01*
X0052606Y0048700D01*
X0051606Y0048700D01*
X0051606Y0047700D01*
X0048047Y0047700D01*
X0048047Y0045050D01*
X0048149Y0044668D01*
X0048347Y0044326D01*
X0048626Y0044047D01*
X0048968Y0043849D01*
X0049350Y0043747D01*
X0051606Y0043747D01*
X0051606Y0047700D01*
X0052606Y0047700D01*
X0052606Y0043747D01*
X0054863Y0043747D01*
X0055244Y0043849D01*
X0055586Y0044047D01*
X0055705Y0044166D01*
X0056323Y0043547D01*
X0057145Y0043547D01*
X0055288Y0042778D01*
X0053769Y0041259D01*
X0053346Y0040240D01*
X0052924Y0041259D01*
X0051405Y0042778D01*
X0049421Y0043600D01*
X0047272Y0043600D01*
X0045288Y0042778D01*
X0043769Y0041259D01*
X0043346Y0040240D01*
X0042924Y0041259D01*
X0041405Y0042778D01*
X0040446Y0043175D01*
X0040446Y0063714D01*
X0040796Y0064064D01*
X0041235Y0065125D01*
X0041235Y0066275D01*
X0040796Y0067336D01*
X0039983Y0068149D01*
X0038921Y0068589D01*
X0037772Y0068589D01*
X0036710Y0068149D01*
X0035897Y0067336D01*
X0035457Y0066275D01*
X0035457Y0065125D01*
X0035897Y0064064D01*
X0036246Y0063714D01*
X0036246Y0043175D01*
X0035288Y0042778D01*
X0033769Y0041259D01*
X0032946Y0039274D01*
X0032946Y0037126D01*
X0033769Y0035141D01*
X0035288Y0033622D01*
X0037272Y0032800D01*
X0039421Y0032800D01*
X0041405Y0033622D01*
X0042924Y0035141D01*
X0043346Y0036160D01*
X0043769Y0035141D01*
X0045288Y0033622D01*
X0047272Y0032800D01*
X0049421Y0032800D01*
X0051405Y0033622D01*
X0052924Y0035141D01*
X0053346Y0036160D01*
X0053769Y0035141D01*
X0055288Y0033622D01*
X0057272Y0032800D01*
X0059421Y0032800D01*
X0061405Y0033622D01*
X0062924Y0035141D01*
X0063456Y0036424D01*
X0063527Y0036204D01*
X0063899Y0035475D01*
X0064380Y0034812D01*
X0064959Y0034234D01*
X0065621Y0033753D01*
X0066350Y0033381D01*
X0067129Y0033128D01*
X0067846Y0033014D01*
X0067846Y0037700D01*
X0068846Y0037700D01*
X0068846Y0033014D01*
X0069564Y0033128D01*
X0070343Y0033381D01*
X0071072Y0033753D01*
X0071734Y0034234D01*
X0072313Y0034812D01*
X0072794Y0035475D01*
X0073165Y0036204D01*
X0073418Y0036982D01*
X0073532Y0037700D01*
X0068847Y0037700D01*
X0068847Y0038700D01*
X0073532Y0038700D01*
X0073418Y0039418D01*
X0073165Y0040196D01*
X0072794Y0040925D01*
X0072313Y0041588D01*
X0071734Y0042166D01*
X0071072Y0042647D01*
X0070343Y0043019D01*
X0069564Y0043272D01*
X0068846Y0043386D01*
X0068846Y0038700D01*
X0067846Y0038700D01*
X0067846Y0043386D01*
X0067129Y0043272D01*
X0066350Y0043019D01*
X0065621Y0042647D01*
X0064959Y0042166D01*
X0064380Y0041588D01*
X0063899Y0040925D01*
X0063527Y0040196D01*
X0063456Y0039976D01*
X0062924Y0041259D01*
X0061405Y0042778D01*
X0059548Y0043547D01*
X0062850Y0043547D01*
X0063846Y0044543D01*
X0063846Y0048147D01*
X0067198Y0048147D01*
X0067198Y0047243D01*
X0068453Y0045988D01*
X0071135Y0045988D01*
X0071135Y0043306D01*
X0072390Y0042051D01*
X0082334Y0042051D01*
X0082604Y0042321D01*
X0082864Y0042251D01*
X0083268Y0042251D01*
X0083671Y0042251D01*
X0084165Y0042384D01*
X0084608Y0042639D01*
X0084970Y0043001D01*
X0085226Y0043444D01*
X0085358Y0043938D01*
X0085358Y0045326D01*
X0085358Y0045988D01*
X0087588Y0045988D01*
X0092477Y0041100D01*
X0134291Y0041100D01*
X0140561Y0034830D01*
X0140561Y0034830D01*
X0141194Y0034197D01*
X0141194Y0032800D01*
X0140332Y0032800D01*
X0139983Y0033149D01*
X0138921Y0033589D01*
X0137772Y0033589D01*
X0136710Y0033149D01*
X0135897Y0032336D01*
X0135457Y0031275D01*
X0135457Y0030125D01*
X0135897Y0029064D01*
X0136710Y0028251D01*
X0137772Y0027811D01*
X0138921Y0027811D01*
X0139983Y0028251D01*
X0140332Y0028600D01*
X0141290Y0028600D01*
X0142190Y0027701D01*
X0149503Y0027701D01*
X0150096Y0028294D01*
X0150690Y0027701D01*
X0158003Y0027701D01*
X0158999Y0028697D01*
X0158999Y0035223D01*
X0158522Y0035700D01*
X0158999Y0036177D01*
X0158999Y0042703D01*
X0158003Y0043699D01*
X0155171Y0043699D01*
X0155171Y0049600D01*
X0161174Y0049600D01*
X0162170Y0050596D01*
X0162170Y0056876D01*
X0168451Y0056876D01*
X0169446Y0057872D01*
X0169446Y0067780D01*
X0169246Y0067980D01*
X0169246Y0069075D01*
X0165297Y0069075D01*
X0165297Y0069175D01*
X0169246Y0069175D01*
X0169246Y0070271D01*
X0169446Y0070471D01*
X0169446Y0076474D01*
X0171194Y0076474D01*
X0171194Y0076177D01*
X0171812Y0075559D01*
X0171693Y0075440D01*
X0171496Y0075098D01*
X0171394Y0074716D01*
X0171394Y0072460D01*
X0175346Y0072460D01*
X0175346Y0071460D01*
X0171394Y0071460D01*
X0171394Y0069203D01*
X0171496Y0068822D01*
X0171693Y0068480D01*
X0171973Y0068200D01*
X0172315Y0068003D01*
X0172696Y0067901D01*
X0175346Y0067901D01*
X0175346Y0071460D01*
X0176346Y0071460D01*
X0176346Y0067901D01*
X0178997Y0067901D01*
X0179378Y0068003D01*
X0179720Y0068200D01*
X0179999Y0068480D01*
X0180197Y0068822D01*
X0180299Y0069203D01*
X0180299Y0071460D01*
X0176346Y0071460D01*
X0176346Y0072460D01*
X0180299Y0072460D01*
X0180299Y0074716D01*
X0180197Y0075098D01*
X0179999Y0075440D01*
X0179881Y0075559D01*
X0180499Y0076177D01*
X0180499Y0082703D01*
X0179503Y0083699D01*
X0179315Y0083699D01*
X0182946Y0087330D01*
X0182946Y0087350D01*
X0183371Y0087350D01*
X0183769Y0086391D01*
X0185288Y0084872D01*
X0186571Y0084341D01*
X0186350Y0084269D01*
X0185621Y0083897D01*
X0184959Y0083416D01*
X0184380Y0082838D01*
X0183899Y0082175D01*
X0183527Y0081446D01*
X0183274Y0080668D01*
X0183161Y0079950D01*
X0187846Y0079950D01*
X0187846Y0078950D01*
X0183161Y0078950D01*
X0183274Y0078232D01*
X0183527Y0077454D01*
X0183899Y0076725D01*
X0184380Y0076062D01*
X0184959Y0075484D01*
X0185621Y0075003D01*
X0186350Y0074631D01*
X0186571Y0074559D01*
X0185288Y0074028D01*
X0183769Y0072509D01*
X0182946Y0070524D01*
X0182946Y0068376D01*
X0183769Y0066391D01*
X0185288Y0064872D01*
X0186571Y0064341D01*
X0186350Y0064269D01*
X0185621Y0063897D01*
X0184959Y0063416D01*
X0184380Y0062838D01*
X0183899Y0062175D01*
X0183527Y0061446D01*
X0183274Y0060668D01*
X0183161Y0059950D01*
X0187846Y0059950D01*
X0187846Y0058950D01*
X0183161Y0058950D01*
X0183274Y0058232D01*
X0183527Y0057454D01*
X0183899Y0056725D01*
X0184380Y0056062D01*
X0184959Y0055484D01*
X0185621Y0055003D01*
X0186350Y0054631D01*
X0186571Y0054559D01*
X0185288Y0054028D01*
X0183769Y0052509D01*
X0182946Y0050524D01*
X0182946Y0048376D01*
X0183769Y0046391D01*
X0185288Y0044872D01*
X0187272Y0044050D01*
X0189421Y0044050D01*
X0191405Y0044872D01*
X0192924Y0046391D01*
X0193746Y0048376D01*
X0193746Y0050524D01*
X0192924Y0052509D01*
X0191405Y0054028D01*
X0190122Y0054559D01*
X0190343Y0054631D01*
X0191072Y0055003D01*
X0191734Y0055484D01*
X0192313Y0056062D01*
X0192794Y0056725D01*
X0193165Y0057454D01*
X0193418Y0058232D01*
X0193532Y0058950D01*
X0188847Y0058950D01*
X0188847Y0059950D01*
X0193532Y0059950D01*
X0193418Y0060668D01*
X0193165Y0061446D01*
X0192794Y0062175D01*
X0192313Y0062838D01*
X0191734Y0063416D01*
X0191072Y0063897D01*
X0190343Y0064269D01*
X0190122Y0064341D01*
X0191405Y0064872D01*
X0192924Y0066391D01*
X0193746Y0068376D01*
X0193746Y0070524D01*
X0192924Y0072509D01*
X0191405Y0074028D01*
X0190122Y0074559D01*
X0190343Y0074631D01*
X0191072Y0075003D01*
X0191734Y0075484D01*
X0192313Y0076062D01*
X0192794Y0076725D01*
X0193165Y0077454D01*
X0193418Y0078232D01*
X0193532Y0078950D01*
X0188847Y0078950D01*
X0188847Y0079950D01*
X0193532Y0079950D01*
X0193418Y0080668D01*
X0193165Y0081446D01*
X0192794Y0082175D01*
X0192313Y0082838D01*
X0191734Y0083416D01*
X0191072Y0083897D01*
X0190343Y0084269D01*
X0190122Y0084341D01*
X0191405Y0084872D01*
X0192924Y0086391D01*
X0193746Y0088376D01*
X0193746Y0090524D01*
X0192924Y0092509D01*
X0191405Y0094028D01*
X0190122Y0094559D01*
X0190343Y0094631D01*
X0191072Y0095003D01*
X0191734Y0095484D01*
X0192313Y0096062D01*
X0192794Y0096725D01*
X0193165Y0097454D01*
X0193418Y0098232D01*
X0193532Y0098950D01*
X0188847Y0098950D01*
X0188847Y0099950D01*
X0193532Y0099950D01*
X0193418Y0100668D01*
X0193165Y0101446D01*
X0192794Y0102175D01*
X0192313Y0102838D01*
X0191734Y0103416D01*
X0191072Y0103897D01*
X0190343Y0104269D01*
X0189564Y0104522D01*
X0188846Y0104636D01*
X0188846Y0099950D01*
X0187846Y0099950D01*
X0187846Y0098950D01*
X0183161Y0098950D01*
X0183274Y0098232D01*
X0183527Y0097454D01*
X0183899Y0096725D01*
X0184380Y0096062D01*
X0184959Y0095484D01*
X0185621Y0095003D01*
X0186350Y0094631D01*
X0186571Y0094559D01*
X0185288Y0094028D01*
X0183769Y0092509D01*
X0183371Y0091550D01*
X0182946Y0091550D01*
X0182946Y0109070D01*
X0172946Y0119070D01*
X0171716Y0120300D01*
X0135332Y0120300D01*
X0134983Y0120649D01*
X0133921Y0121089D01*
X0132772Y0121089D01*
X0131710Y0120649D01*
X0130897Y0119836D01*
X0130457Y0118775D01*
X0130457Y0117625D01*
X0130897Y0116564D01*
X0131710Y0115751D01*
X0132772Y0115311D01*
X0133921Y0115311D01*
X0134983Y0115751D01*
X0135332Y0116100D01*
X0169977Y0116100D01*
X0178746Y0107330D01*
X0178746Y0089070D01*
X0173746Y0084070D01*
X0173746Y0083699D01*
X0172190Y0083699D01*
X0171194Y0082703D01*
X0171194Y0080674D01*
X0169446Y0080674D01*
X0169446Y0083528D01*
X0169295Y0083679D01*
X0175446Y0089830D01*
X0175446Y0104070D01*
X0174216Y0105300D01*
X0171716Y0107800D01*
X0170167Y0107800D01*
X0170294Y0107975D01*
X0170665Y0108704D01*
X0170918Y0109482D01*
X0171032Y0110200D01*
X0166347Y0110200D01*
X0166347Y0111200D01*
X0171032Y0111200D01*
X0170918Y0111918D01*
X0170665Y0112696D01*
X0170294Y0113425D01*
X0169813Y0114088D01*
X0169234Y0114666D01*
X0168572Y0115147D01*
X0167843Y0115519D01*
X0167064Y0115772D01*
X0166346Y0115886D01*
X0166346Y0111200D01*
X0165346Y0111200D01*
X0165346Y0115886D01*
X0164629Y0115772D01*
X0163850Y0115519D01*
X0163121Y0115147D01*
X0162459Y0114666D01*
X0161880Y0114088D01*
X0161399Y0113425D01*
X0161027Y0112696D01*
X0160956Y0112476D01*
X0160424Y0113759D01*
X0158905Y0115278D01*
X0156921Y0116100D01*
X0154772Y0116100D01*
X0152788Y0115278D01*
X0151269Y0113759D01*
X0150846Y0112740D01*
X0150424Y0113759D01*
X0148905Y0115278D01*
X0146921Y0116100D01*
X0144772Y0116100D01*
X0142788Y0115278D01*
X0141269Y0113759D01*
X0140871Y0112800D01*
X0059977Y0112800D01*
X0058238Y0111062D02*
X0015346Y0111062D01*
X0015346Y0110063D02*
X0057240Y0110063D01*
X0056241Y0109065D02*
X0015346Y0109065D01*
X0015346Y0108066D02*
X0020983Y0108066D01*
X0019577Y0107068D02*
X0015346Y0107068D01*
X0015346Y0106069D02*
X0018690Y0106069D01*
X0018276Y0105070D02*
X0015346Y0105070D01*
X0015346Y0104072D02*
X0017946Y0104072D01*
X0017946Y0103073D02*
X0015346Y0103073D01*
X0015346Y0102075D02*
X0017968Y0102075D01*
X0018381Y0101076D02*
X0015346Y0101076D01*
X0015346Y0100078D02*
X0018832Y0100078D01*
X0019830Y0099079D02*
X0015346Y0099079D01*
X0015346Y0098081D02*
X0021541Y0098081D01*
X0019875Y0097082D02*
X0015346Y0097082D01*
X0015346Y0096084D02*
X0019014Y0096084D01*
X0018491Y0095085D02*
X0015346Y0095085D01*
X0015346Y0094087D02*
X0018222Y0094087D01*
X0015346Y0093088D02*
X0022846Y0093088D01*
X0022846Y0092090D02*
X0023846Y0092090D01*
X0023846Y0091091D02*
X0022846Y0091091D01*
X0022846Y0090093D02*
X0023846Y0090093D01*
X0023846Y0089094D02*
X0022846Y0089094D01*
X0022846Y0088096D02*
X0023846Y0088096D01*
X0024361Y0088096D02*
X0031558Y0088096D01*
X0029815Y0089094D02*
X0026542Y0089094D01*
X0027516Y0090093D02*
X0028817Y0090093D01*
X0028375Y0091091D02*
X0028108Y0091091D01*
X0022332Y0088096D02*
X0015346Y0088096D01*
X0015346Y0089094D02*
X0020151Y0089094D01*
X0019176Y0090093D02*
X0015346Y0090093D01*
X0015346Y0091091D02*
X0018585Y0091091D01*
X0018257Y0092090D02*
X0015346Y0092090D01*
X0015346Y0087097D02*
X0036246Y0087097D01*
X0036246Y0086099D02*
X0015346Y0086099D01*
X0015346Y0085100D02*
X0036161Y0085100D01*
X0035593Y0084102D02*
X0015346Y0084102D01*
X0015346Y0083103D02*
X0035457Y0083103D01*
X0035673Y0082105D02*
X0015346Y0082105D01*
X0015346Y0081106D02*
X0036355Y0081106D01*
X0040338Y0081106D02*
X0070783Y0081106D01*
X0069784Y0080108D02*
X0015346Y0080108D01*
X0015346Y0079109D02*
X0068786Y0079109D01*
X0067787Y0078111D02*
X0015346Y0078111D01*
X0015346Y0077112D02*
X0066789Y0077112D01*
X0066246Y0076114D02*
X0015346Y0076114D01*
X0015346Y0075115D02*
X0066246Y0075115D01*
X0066246Y0074117D02*
X0015346Y0074117D01*
X0015346Y0073118D02*
X0066246Y0073118D01*
X0066246Y0072120D02*
X0015346Y0072120D01*
X0015346Y0071121D02*
X0066246Y0071121D01*
X0066246Y0070123D02*
X0015346Y0070123D01*
X0015346Y0069124D02*
X0066246Y0069124D01*
X0066246Y0068126D02*
X0040007Y0068126D01*
X0040882Y0067127D02*
X0066246Y0067127D01*
X0066246Y0066129D02*
X0041235Y0066129D01*
X0041235Y0065130D02*
X0066246Y0065130D01*
X0066246Y0064132D02*
X0040824Y0064132D01*
X0040446Y0063133D02*
X0066246Y0063133D01*
X0066246Y0062134D02*
X0063568Y0062134D01*
X0063846Y0061136D02*
X0066246Y0061136D01*
X0066246Y0060137D02*
X0063846Y0060137D01*
X0063846Y0059139D02*
X0066485Y0059139D01*
X0067198Y0058140D02*
X0063846Y0058140D01*
X0063846Y0057142D02*
X0067198Y0057142D01*
X0061669Y0053148D02*
X0040446Y0053148D01*
X0040446Y0054146D02*
X0048527Y0054146D01*
X0048047Y0055145D02*
X0040446Y0055145D01*
X0040446Y0056143D02*
X0048047Y0056143D01*
X0048047Y0057142D02*
X0040446Y0057142D01*
X0040446Y0058140D02*
X0051606Y0058140D01*
X0051606Y0058700D02*
X0048047Y0058700D01*
X0048047Y0061350D01*
X0048149Y0061732D01*
X0048347Y0062074D01*
X0048626Y0062353D01*
X0048968Y0062551D01*
X0049350Y0062653D01*
X0051606Y0062653D01*
X0051606Y0058700D01*
X0051606Y0059139D02*
X0052606Y0059139D01*
X0052606Y0060137D02*
X0051606Y0060137D01*
X0051606Y0061136D02*
X0052606Y0061136D01*
X0052606Y0062134D02*
X0051606Y0062134D01*
X0048408Y0062134D02*
X0040446Y0062134D01*
X0040446Y0061136D02*
X0048047Y0061136D01*
X0048047Y0060137D02*
X0040446Y0060137D01*
X0040446Y0059139D02*
X0048047Y0059139D01*
X0051606Y0057142D02*
X0052606Y0057142D01*
X0052606Y0056143D02*
X0051606Y0056143D01*
X0051606Y0055145D02*
X0052606Y0055145D01*
X0052606Y0054146D02*
X0051606Y0054146D01*
X0051606Y0052653D02*
X0049350Y0052653D01*
X0048968Y0052551D01*
X0048626Y0052353D01*
X0048347Y0052074D01*
X0048149Y0051732D01*
X0048047Y0051350D01*
X0048047Y0048700D01*
X0051606Y0048700D01*
X0051606Y0052653D01*
X0051606Y0052149D02*
X0052606Y0052149D01*
X0052606Y0051151D02*
X0051606Y0051151D01*
X0051606Y0050152D02*
X0052606Y0050152D01*
X0052606Y0049154D02*
X0051606Y0049154D01*
X0051606Y0048155D02*
X0040446Y0048155D01*
X0040446Y0047157D02*
X0048047Y0047157D01*
X0048047Y0046158D02*
X0040446Y0046158D01*
X0040446Y0045160D02*
X0048047Y0045160D01*
X0048512Y0044161D02*
X0040446Y0044161D01*
X0040476Y0043163D02*
X0046217Y0043163D01*
X0044674Y0042164D02*
X0042019Y0042164D01*
X0042963Y0041166D02*
X0043730Y0041166D01*
X0050476Y0043163D02*
X0056217Y0043163D01*
X0055709Y0044161D02*
X0055701Y0044161D01*
X0054674Y0042164D02*
X0052019Y0042164D01*
X0052963Y0041166D02*
X0053730Y0041166D01*
X0052606Y0044161D02*
X0051606Y0044161D01*
X0051606Y0045160D02*
X0052606Y0045160D01*
X0052606Y0046158D02*
X0051606Y0046158D01*
X0051606Y0047157D02*
X0052606Y0047157D01*
X0048047Y0049154D02*
X0040446Y0049154D01*
X0040446Y0050152D02*
X0048047Y0050152D01*
X0048047Y0051151D02*
X0040446Y0051151D01*
X0040446Y0052149D02*
X0048423Y0052149D01*
X0055686Y0054146D02*
X0055724Y0054146D01*
X0063846Y0047157D02*
X0067284Y0047157D01*
X0068283Y0046158D02*
X0063846Y0046158D01*
X0063846Y0045160D02*
X0071135Y0045160D01*
X0071135Y0044161D02*
X0063464Y0044161D01*
X0060476Y0043163D02*
X0066793Y0043163D01*
X0067846Y0043163D02*
X0068846Y0043163D01*
X0068846Y0042164D02*
X0067846Y0042164D01*
X0067846Y0041166D02*
X0068846Y0041166D01*
X0068846Y0040167D02*
X0067846Y0040167D01*
X0067846Y0039169D02*
X0068846Y0039169D01*
X0068847Y0038170D02*
X0137221Y0038170D01*
X0138219Y0037172D02*
X0073448Y0037172D01*
X0073150Y0036173D02*
X0139218Y0036173D01*
X0140216Y0035175D02*
X0072576Y0035175D01*
X0071655Y0034176D02*
X0141194Y0034176D01*
X0141194Y0033178D02*
X0139914Y0033178D01*
X0136779Y0033178D02*
X0069717Y0033178D01*
X0068846Y0033178D02*
X0067846Y0033178D01*
X0066976Y0033178D02*
X0060332Y0033178D01*
X0061959Y0034176D02*
X0065038Y0034176D01*
X0064117Y0035175D02*
X0062938Y0035175D01*
X0063352Y0036173D02*
X0063543Y0036173D01*
X0067846Y0036173D02*
X0068846Y0036173D01*
X0068846Y0035175D02*
X0067846Y0035175D01*
X0067846Y0034176D02*
X0068846Y0034176D01*
X0068846Y0037172D02*
X0067846Y0037172D01*
X0063518Y0040167D02*
X0063377Y0040167D01*
X0062963Y0041166D02*
X0064074Y0041166D01*
X0064957Y0042164D02*
X0062019Y0042164D01*
X0069900Y0043163D02*
X0071278Y0043163D01*
X0071736Y0042164D02*
X0072277Y0042164D01*
X0072619Y0041166D02*
X0092411Y0041166D01*
X0091412Y0042164D02*
X0082448Y0042164D01*
X0083268Y0042251D02*
X0083268Y0042984D01*
X0083268Y0042984D01*
X0083268Y0042251D01*
X0085063Y0043163D02*
X0090414Y0043163D01*
X0089415Y0044161D02*
X0085358Y0044161D01*
X0085358Y0045160D02*
X0088417Y0045160D01*
X0085358Y0045326D02*
X0083590Y0045326D01*
X0083590Y0045326D01*
X0085358Y0045326D01*
X0090865Y0051151D02*
X0091394Y0051151D01*
X0091394Y0051460D02*
X0091394Y0050623D01*
X0089669Y0052347D01*
X0089495Y0052347D01*
X0089495Y0053251D01*
X0089495Y0054053D01*
X0091394Y0054053D01*
X0091394Y0052460D01*
X0095346Y0052460D01*
X0095346Y0051460D01*
X0091394Y0051460D01*
X0089867Y0052149D02*
X0095346Y0052149D01*
X0095346Y0051460D02*
X0096346Y0051460D01*
X0096346Y0047901D01*
X0098997Y0047901D01*
X0099378Y0048003D01*
X0099720Y0048200D01*
X0099999Y0048480D01*
X0100197Y0048822D01*
X0100299Y0049203D01*
X0100299Y0051460D01*
X0096346Y0051460D01*
X0096346Y0052460D01*
X0100299Y0052460D01*
X0100299Y0054716D01*
X0100197Y0055098D01*
X0099999Y0055440D01*
X0099881Y0055559D01*
X0100499Y0056177D01*
X0100499Y0062703D01*
X0099503Y0063699D01*
X0092190Y0063699D01*
X0091194Y0062703D01*
X0091194Y0058253D01*
X0089495Y0058253D01*
X0089495Y0059157D01*
X0088240Y0060412D01*
X0085358Y0060412D01*
X0085358Y0061074D01*
X0085358Y0062462D01*
X0085226Y0062956D01*
X0084970Y0063399D01*
X0084769Y0063600D01*
X0084861Y0063600D01*
X0085210Y0063251D01*
X0086272Y0062811D01*
X0087421Y0062811D01*
X0088483Y0063251D01*
X0089296Y0064064D01*
X0089735Y0065125D01*
X0089735Y0066275D01*
X0089296Y0067336D01*
X0088483Y0068149D01*
X0087421Y0068589D01*
X0086272Y0068589D01*
X0086146Y0068537D01*
X0086146Y0069700D01*
X0082587Y0069700D01*
X0082587Y0070700D01*
X0086146Y0070700D01*
X0086146Y0072431D01*
X0091246Y0067330D01*
X0092477Y0066100D01*
X0099977Y0066100D01*
X0112571Y0053506D01*
X0111710Y0053149D01*
X0110897Y0052336D01*
X0110457Y0051275D01*
X0110457Y0050125D01*
X0110897Y0049064D01*
X0111710Y0048251D01*
X0112772Y0047811D01*
X0113266Y0047811D01*
X0113277Y0047800D01*
X0094216Y0047800D01*
X0094115Y0047901D01*
X0095346Y0047901D01*
X0095346Y0051460D01*
X0095346Y0051151D02*
X0096346Y0051151D01*
X0096346Y0052149D02*
X0110820Y0052149D01*
X0110457Y0051151D02*
X0100299Y0051151D01*
X0100299Y0050152D02*
X0110457Y0050152D01*
X0110860Y0049154D02*
X0100286Y0049154D01*
X0099642Y0048155D02*
X0111941Y0048155D01*
X0111709Y0053148D02*
X0100299Y0053148D01*
X0100299Y0054146D02*
X0111930Y0054146D01*
X0110932Y0055145D02*
X0100170Y0055145D01*
X0100466Y0056143D02*
X0109933Y0056143D01*
X0108935Y0057142D02*
X0100499Y0057142D01*
X0100499Y0058140D02*
X0107936Y0058140D01*
X0106938Y0059139D02*
X0100499Y0059139D01*
X0100499Y0060137D02*
X0105939Y0060137D01*
X0104941Y0061136D02*
X0100499Y0061136D01*
X0100499Y0062134D02*
X0103942Y0062134D01*
X0102944Y0063133D02*
X0100070Y0063133D01*
X0101945Y0064132D02*
X0089324Y0064132D01*
X0089735Y0065130D02*
X0100947Y0065130D01*
X0105392Y0069124D02*
X0109453Y0069124D01*
X0110451Y0068126D02*
X0106391Y0068126D01*
X0107389Y0067127D02*
X0116194Y0067127D01*
X0116242Y0066129D02*
X0108388Y0066129D01*
X0109386Y0065130D02*
X0116515Y0065130D01*
X0116394Y0064132D02*
X0110385Y0064132D01*
X0111383Y0063133D02*
X0116394Y0063133D01*
X0116394Y0061136D02*
X0113380Y0061136D01*
X0112382Y0062134D02*
X0120346Y0062134D01*
X0120346Y0061136D02*
X0121346Y0061136D01*
X0121346Y0062134D02*
X0127246Y0062134D01*
X0127246Y0061136D02*
X0125299Y0061136D01*
X0125299Y0060137D02*
X0127246Y0060137D01*
X0127246Y0059139D02*
X0125282Y0059139D01*
X0124616Y0058140D02*
X0127246Y0058140D01*
X0121346Y0058140D02*
X0120346Y0058140D01*
X0120346Y0059139D02*
X0121346Y0059139D01*
X0121346Y0060137D02*
X0120346Y0060137D01*
X0117077Y0058140D02*
X0116376Y0058140D01*
X0116411Y0059139D02*
X0115377Y0059139D01*
X0114379Y0060137D02*
X0116394Y0060137D01*
X0125299Y0063133D02*
X0127246Y0063133D01*
X0127246Y0064132D02*
X0125299Y0064132D01*
X0125178Y0065130D02*
X0127446Y0065130D01*
X0127446Y0066129D02*
X0125451Y0066129D01*
X0131497Y0066026D02*
X0135446Y0066026D01*
X0135446Y0067121D01*
X0135646Y0067321D01*
X0135646Y0070929D01*
X0135446Y0071129D01*
X0135446Y0072225D01*
X0131497Y0072225D01*
X0131497Y0072325D01*
X0135446Y0072325D01*
X0135446Y0073420D01*
X0135646Y0073620D01*
X0135646Y0082930D01*
X0138746Y0079830D01*
X0139977Y0078600D01*
X0141361Y0078600D01*
X0141710Y0078251D01*
X0142772Y0077811D01*
X0143921Y0077811D01*
X0144983Y0078251D01*
X0145796Y0079064D01*
X0146235Y0080125D01*
X0146235Y0081275D01*
X0145796Y0082336D01*
X0144983Y0083149D01*
X0144377Y0083400D01*
X0147821Y0083400D01*
X0147821Y0076089D01*
X0147772Y0076089D01*
X0146710Y0075649D01*
X0145897Y0074836D01*
X0145457Y0073775D01*
X0145457Y0072625D01*
X0145897Y0071564D01*
X0146710Y0070751D01*
X0147772Y0070311D01*
X0148921Y0070311D01*
X0149983Y0070751D01*
X0150796Y0071564D01*
X0151235Y0072625D01*
X0151235Y0073119D01*
X0152021Y0073905D01*
X0152021Y0083400D01*
X0158077Y0083400D01*
X0156246Y0081570D01*
X0156246Y0071886D01*
X0156233Y0071899D01*
X0155171Y0072339D01*
X0154022Y0072339D01*
X0152960Y0071899D01*
X0152147Y0071086D01*
X0151707Y0070025D01*
X0151707Y0069531D01*
X0146152Y0063976D01*
X0145796Y0064836D01*
X0144983Y0065649D01*
X0143921Y0066089D01*
X0142772Y0066089D01*
X0141710Y0065649D01*
X0141361Y0065300D01*
X0135446Y0065300D01*
X0135446Y0065926D01*
X0131497Y0065926D01*
X0131497Y0066026D01*
X0135446Y0066129D02*
X0148305Y0066129D01*
X0149304Y0067127D02*
X0135452Y0067127D01*
X0135646Y0068126D02*
X0150302Y0068126D01*
X0151301Y0069124D02*
X0135646Y0069124D01*
X0135646Y0070123D02*
X0151748Y0070123D01*
X0152182Y0071121D02*
X0150353Y0071121D01*
X0151026Y0072120D02*
X0153492Y0072120D01*
X0155701Y0072120D02*
X0156246Y0072120D01*
X0156246Y0073118D02*
X0151235Y0073118D01*
X0152021Y0074117D02*
X0156246Y0074117D01*
X0156246Y0075115D02*
X0152021Y0075115D01*
X0152021Y0076114D02*
X0156246Y0076114D01*
X0156246Y0077112D02*
X0152021Y0077112D01*
X0152021Y0078111D02*
X0156246Y0078111D01*
X0156246Y0079109D02*
X0152021Y0079109D01*
X0152021Y0080108D02*
X0156246Y0080108D01*
X0156246Y0081106D02*
X0152021Y0081106D01*
X0152021Y0082105D02*
X0156781Y0082105D01*
X0157780Y0083103D02*
X0152021Y0083103D01*
X0147821Y0083103D02*
X0145029Y0083103D01*
X0145892Y0082105D02*
X0147821Y0082105D01*
X0147821Y0081106D02*
X0146235Y0081106D01*
X0146228Y0080108D02*
X0147821Y0080108D01*
X0147821Y0079109D02*
X0145815Y0079109D01*
X0144645Y0078111D02*
X0147821Y0078111D01*
X0147821Y0077112D02*
X0135646Y0077112D01*
X0135646Y0076114D02*
X0147821Y0076114D01*
X0146176Y0075115D02*
X0135646Y0075115D01*
X0135646Y0074117D02*
X0145599Y0074117D01*
X0145457Y0073118D02*
X0135446Y0073118D01*
X0135446Y0072120D02*
X0145667Y0072120D01*
X0146340Y0071121D02*
X0135455Y0071121D01*
X0145502Y0065130D02*
X0147307Y0065130D01*
X0146308Y0064132D02*
X0146088Y0064132D01*
X0153254Y0060137D02*
X0161046Y0060137D01*
X0161046Y0059139D02*
X0152255Y0059139D01*
X0151257Y0058140D02*
X0161046Y0058140D01*
X0161046Y0058000D02*
X0151116Y0058000D01*
X0160446Y0067330D01*
X0160446Y0079830D01*
X0161046Y0080430D01*
X0161046Y0080378D01*
X0161046Y0070471D01*
X0161246Y0070271D01*
X0161246Y0069175D01*
X0165196Y0069175D01*
X0165196Y0069075D01*
X0161246Y0069075D01*
X0161246Y0067980D01*
X0161046Y0067780D01*
X0161046Y0058000D01*
X0162170Y0056143D02*
X0184321Y0056143D01*
X0183686Y0057142D02*
X0168716Y0057142D01*
X0169446Y0058140D02*
X0183304Y0058140D01*
X0183191Y0060137D02*
X0169446Y0060137D01*
X0169446Y0059139D02*
X0187846Y0059139D01*
X0188847Y0059139D02*
X0196268Y0059139D01*
X0196268Y0060137D02*
X0193502Y0060137D01*
X0193266Y0061136D02*
X0196268Y0061136D01*
X0196268Y0062134D02*
X0192815Y0062134D01*
X0192017Y0063133D02*
X0196268Y0063133D01*
X0196268Y0064132D02*
X0190612Y0064132D01*
X0191663Y0065130D02*
X0196268Y0065130D01*
X0196268Y0066129D02*
X0192662Y0066129D01*
X0193229Y0067127D02*
X0196268Y0067127D01*
X0196268Y0068126D02*
X0193643Y0068126D01*
X0193746Y0069124D02*
X0196268Y0069124D01*
X0196268Y0070123D02*
X0193746Y0070123D01*
X0193499Y0071121D02*
X0196268Y0071121D01*
X0196268Y0072120D02*
X0193086Y0072120D01*
X0192315Y0073118D02*
X0196268Y0073118D01*
X0196268Y0074117D02*
X0191191Y0074117D01*
X0191227Y0075115D02*
X0196268Y0075115D01*
X0196268Y0076114D02*
X0192350Y0076114D01*
X0192991Y0077112D02*
X0196268Y0077112D01*
X0196268Y0078111D02*
X0193379Y0078111D01*
X0193507Y0080108D02*
X0196268Y0080108D01*
X0196268Y0081106D02*
X0193276Y0081106D01*
X0192830Y0082105D02*
X0196268Y0082105D01*
X0196268Y0083103D02*
X0192047Y0083103D01*
X0190671Y0084102D02*
X0196268Y0084102D01*
X0196268Y0085100D02*
X0191633Y0085100D01*
X0192632Y0086099D02*
X0196268Y0086099D01*
X0196268Y0087097D02*
X0193217Y0087097D01*
X0193630Y0088096D02*
X0196268Y0088096D01*
X0196268Y0089094D02*
X0193746Y0089094D01*
X0193746Y0090093D02*
X0196268Y0090093D01*
X0196268Y0091091D02*
X0193512Y0091091D01*
X0193098Y0092090D02*
X0196268Y0092090D01*
X0196268Y0093088D02*
X0192345Y0093088D01*
X0191263Y0094087D02*
X0196268Y0094087D01*
X0196268Y0095085D02*
X0191186Y0095085D01*
X0192328Y0096084D02*
X0196268Y0096084D01*
X0196268Y0097082D02*
X0192976Y0097082D01*
X0193369Y0098081D02*
X0196268Y0098081D01*
X0196268Y0099079D02*
X0188847Y0099079D01*
X0188846Y0100078D02*
X0187846Y0100078D01*
X0187846Y0099950D02*
X0187846Y0104636D01*
X0187129Y0104522D01*
X0186350Y0104269D01*
X0185621Y0103897D01*
X0184959Y0103416D01*
X0184380Y0102838D01*
X0183899Y0102175D01*
X0183527Y0101446D01*
X0183274Y0100668D01*
X0183161Y0099950D01*
X0187846Y0099950D01*
X0187846Y0099079D02*
X0182946Y0099079D01*
X0182946Y0098081D02*
X0183324Y0098081D01*
X0182946Y0097082D02*
X0183717Y0097082D01*
X0184365Y0096084D02*
X0182946Y0096084D01*
X0182946Y0095085D02*
X0185507Y0095085D01*
X0185430Y0094087D02*
X0182946Y0094087D01*
X0182946Y0093088D02*
X0184348Y0093088D01*
X0183595Y0092090D02*
X0182946Y0092090D01*
X0178746Y0092090D02*
X0175446Y0092090D01*
X0175446Y0093088D02*
X0178746Y0093088D01*
X0178746Y0094087D02*
X0175446Y0094087D01*
X0175446Y0095085D02*
X0178746Y0095085D01*
X0178746Y0096084D02*
X0175446Y0096084D01*
X0175446Y0097082D02*
X0178746Y0097082D01*
X0178746Y0098081D02*
X0175446Y0098081D01*
X0175446Y0099079D02*
X0178746Y0099079D01*
X0178746Y0100078D02*
X0175446Y0100078D01*
X0175446Y0101076D02*
X0178746Y0101076D01*
X0178746Y0102075D02*
X0175446Y0102075D01*
X0175446Y0103073D02*
X0178746Y0103073D01*
X0178746Y0104072D02*
X0175444Y0104072D01*
X0174446Y0105070D02*
X0178746Y0105070D01*
X0178746Y0106069D02*
X0173447Y0106069D01*
X0172449Y0107068D02*
X0178746Y0107068D01*
X0178011Y0108066D02*
X0170340Y0108066D01*
X0170783Y0109065D02*
X0177012Y0109065D01*
X0176014Y0110063D02*
X0171010Y0110063D01*
X0170872Y0112060D02*
X0174017Y0112060D01*
X0175015Y0111062D02*
X0166347Y0111062D01*
X0166346Y0112060D02*
X0165346Y0112060D01*
X0165346Y0113059D02*
X0166346Y0113059D01*
X0166346Y0114057D02*
X0165346Y0114057D01*
X0165346Y0115056D02*
X0166346Y0115056D01*
X0168698Y0115056D02*
X0171021Y0115056D01*
X0170022Y0116054D02*
X0157031Y0116054D01*
X0159128Y0115056D02*
X0162995Y0115056D01*
X0161858Y0114057D02*
X0160126Y0114057D01*
X0160714Y0113059D02*
X0161212Y0113059D01*
X0154662Y0116054D02*
X0147031Y0116054D01*
X0149128Y0115056D02*
X0152565Y0115056D01*
X0151567Y0114057D02*
X0150126Y0114057D01*
X0150714Y0113059D02*
X0150978Y0113059D01*
X0144662Y0116054D02*
X0135286Y0116054D01*
X0131407Y0116054D02*
X0029881Y0116054D01*
X0030393Y0117053D02*
X0130695Y0117053D01*
X0130457Y0118051D02*
X0030806Y0118051D01*
X0031220Y0119050D02*
X0130571Y0119050D01*
X0131109Y0120048D02*
X0031252Y0120048D01*
X0031252Y0121047D02*
X0132670Y0121047D01*
X0134023Y0121047D02*
X0180441Y0121047D01*
X0180441Y0122045D02*
X0031252Y0122045D01*
X0030933Y0123044D02*
X0180760Y0123044D01*
X0180441Y0122273D02*
X0180441Y0119127D01*
X0181644Y0116222D01*
X0183868Y0113998D01*
X0186774Y0112794D01*
X0189919Y0112794D01*
X0192825Y0113998D01*
X0195048Y0116222D01*
X0196252Y0119127D01*
X0196252Y0122273D01*
X0195048Y0125178D01*
X0192825Y0127402D01*
X0189919Y0128605D01*
X0186774Y0128605D01*
X0183868Y0127402D01*
X0181644Y0125178D01*
X0180441Y0122273D01*
X0181174Y0124042D02*
X0030519Y0124042D01*
X0030105Y0125041D02*
X0181588Y0125041D01*
X0182506Y0126039D02*
X0029187Y0126039D01*
X0028189Y0127038D02*
X0183504Y0127038D01*
X0185400Y0128036D02*
X0026293Y0128036D01*
X0028882Y0115056D02*
X0142565Y0115056D01*
X0141567Y0114057D02*
X0027884Y0114057D01*
X0025557Y0113059D02*
X0140978Y0113059D01*
X0141093Y0108066D02*
X0061182Y0108066D01*
X0060184Y0107068D02*
X0139244Y0107068D01*
X0138246Y0106069D02*
X0059185Y0106069D01*
X0058187Y0105070D02*
X0137247Y0105070D01*
X0136249Y0104072D02*
X0057188Y0104072D01*
X0056190Y0103073D02*
X0136246Y0103073D01*
X0136246Y0102075D02*
X0055191Y0102075D01*
X0054193Y0101076D02*
X0136246Y0101076D01*
X0136246Y0100078D02*
X0123125Y0100078D01*
X0123846Y0099079D02*
X0136246Y0099079D01*
X0136246Y0098081D02*
X0123846Y0098081D01*
X0127434Y0097082D02*
X0136246Y0097082D01*
X0136246Y0096084D02*
X0128432Y0096084D01*
X0129431Y0095085D02*
X0136246Y0095085D01*
X0136990Y0094087D02*
X0130429Y0094087D01*
X0131428Y0093088D02*
X0137988Y0093088D01*
X0138987Y0092090D02*
X0132426Y0092090D01*
X0133425Y0091091D02*
X0134810Y0091091D01*
X0134523Y0090093D02*
X0133546Y0090093D01*
X0133546Y0089094D02*
X0134523Y0089094D01*
X0134523Y0088096D02*
X0133546Y0088096D01*
X0133546Y0087097D02*
X0134523Y0087097D01*
X0134523Y0086099D02*
X0133546Y0086099D01*
X0133546Y0085100D02*
X0134523Y0085100D01*
X0135646Y0082105D02*
X0136472Y0082105D01*
X0135646Y0081106D02*
X0137470Y0081106D01*
X0138469Y0080108D02*
X0135646Y0080108D01*
X0135646Y0079109D02*
X0139467Y0079109D01*
X0142048Y0078111D02*
X0135646Y0078111D01*
X0157248Y0064132D02*
X0161046Y0064132D01*
X0161046Y0065130D02*
X0158246Y0065130D01*
X0159245Y0066129D02*
X0161046Y0066129D01*
X0161046Y0067127D02*
X0160243Y0067127D01*
X0160446Y0068126D02*
X0161246Y0068126D01*
X0160446Y0069124D02*
X0165196Y0069124D01*
X0165297Y0069124D02*
X0171415Y0069124D01*
X0171394Y0070123D02*
X0169246Y0070123D01*
X0169446Y0071121D02*
X0171394Y0071121D01*
X0169446Y0072120D02*
X0175346Y0072120D01*
X0175346Y0071121D02*
X0176346Y0071121D01*
X0176346Y0070123D02*
X0175346Y0070123D01*
X0175346Y0069124D02*
X0176346Y0069124D01*
X0176346Y0068126D02*
X0175346Y0068126D01*
X0172102Y0068126D02*
X0169246Y0068126D01*
X0169446Y0067127D02*
X0183464Y0067127D01*
X0183050Y0068126D02*
X0179590Y0068126D01*
X0180278Y0069124D02*
X0182946Y0069124D01*
X0182946Y0070123D02*
X0180299Y0070123D01*
X0180299Y0071121D02*
X0183194Y0071121D01*
X0183607Y0072120D02*
X0176346Y0072120D01*
X0180299Y0073118D02*
X0184378Y0073118D01*
X0185502Y0074117D02*
X0180299Y0074117D01*
X0180187Y0075115D02*
X0185466Y0075115D01*
X0184343Y0076114D02*
X0180436Y0076114D01*
X0180499Y0077112D02*
X0183702Y0077112D01*
X0183314Y0078111D02*
X0180499Y0078111D01*
X0180499Y0079109D02*
X0187846Y0079109D01*
X0188847Y0079109D02*
X0196268Y0079109D01*
X0186022Y0084102D02*
X0179718Y0084102D01*
X0180099Y0083103D02*
X0184646Y0083103D01*
X0183863Y0082105D02*
X0180499Y0082105D01*
X0180499Y0081106D02*
X0183417Y0081106D01*
X0183186Y0080108D02*
X0180499Y0080108D01*
X0180717Y0085100D02*
X0185059Y0085100D01*
X0184061Y0086099D02*
X0181715Y0086099D01*
X0182714Y0087097D02*
X0183476Y0087097D01*
X0178746Y0089094D02*
X0174711Y0089094D01*
X0175446Y0090093D02*
X0178746Y0090093D01*
X0178746Y0091091D02*
X0175446Y0091091D01*
X0173712Y0088096D02*
X0177772Y0088096D01*
X0176774Y0087097D02*
X0172714Y0087097D01*
X0171715Y0086099D02*
X0175775Y0086099D01*
X0174777Y0085100D02*
X0170717Y0085100D01*
X0169718Y0084102D02*
X0173778Y0084102D01*
X0171594Y0083103D02*
X0169446Y0083103D01*
X0169446Y0082105D02*
X0171194Y0082105D01*
X0171194Y0081106D02*
X0169446Y0081106D01*
X0169446Y0076114D02*
X0171257Y0076114D01*
X0171506Y0075115D02*
X0169446Y0075115D01*
X0169446Y0074117D02*
X0171394Y0074117D01*
X0171394Y0073118D02*
X0169446Y0073118D01*
X0161046Y0073118D02*
X0160446Y0073118D01*
X0160446Y0072120D02*
X0161046Y0072120D01*
X0161046Y0071121D02*
X0160446Y0071121D01*
X0160446Y0070123D02*
X0161246Y0070123D01*
X0161046Y0074117D02*
X0160446Y0074117D01*
X0160446Y0075115D02*
X0161046Y0075115D01*
X0161046Y0076114D02*
X0160446Y0076114D01*
X0160446Y0077112D02*
X0161046Y0077112D01*
X0161046Y0078111D02*
X0160446Y0078111D01*
X0160446Y0079109D02*
X0161046Y0079109D01*
X0161046Y0080108D02*
X0160724Y0080108D01*
X0169446Y0066129D02*
X0184031Y0066129D01*
X0185030Y0065130D02*
X0169446Y0065130D01*
X0169446Y0064132D02*
X0186080Y0064132D01*
X0184676Y0063133D02*
X0169446Y0063133D01*
X0169446Y0062134D02*
X0183878Y0062134D01*
X0183427Y0061136D02*
X0169446Y0061136D01*
X0161046Y0061136D02*
X0154252Y0061136D01*
X0155251Y0062134D02*
X0161046Y0062134D01*
X0161046Y0063133D02*
X0156249Y0063133D01*
X0162170Y0055145D02*
X0185425Y0055145D01*
X0185574Y0054146D02*
X0162170Y0054146D01*
X0162170Y0053148D02*
X0184408Y0053148D01*
X0183620Y0052149D02*
X0162170Y0052149D01*
X0162170Y0051151D02*
X0183206Y0051151D01*
X0182946Y0050152D02*
X0161727Y0050152D01*
X0155171Y0049154D02*
X0182946Y0049154D01*
X0183038Y0048155D02*
X0155171Y0048155D01*
X0155171Y0047157D02*
X0183451Y0047157D01*
X0184001Y0046158D02*
X0155171Y0046158D01*
X0155171Y0045160D02*
X0185000Y0045160D01*
X0187004Y0044161D02*
X0155171Y0044161D01*
X0158540Y0043163D02*
X0196268Y0043163D01*
X0196268Y0044161D02*
X0189689Y0044161D01*
X0191693Y0045160D02*
X0196268Y0045160D01*
X0196268Y0046158D02*
X0192692Y0046158D01*
X0193241Y0047157D02*
X0196268Y0047157D01*
X0196268Y0048155D02*
X0193655Y0048155D01*
X0193746Y0049154D02*
X0196268Y0049154D01*
X0196268Y0050152D02*
X0193746Y0050152D01*
X0193487Y0051151D02*
X0196268Y0051151D01*
X0196268Y0052149D02*
X0193073Y0052149D01*
X0192285Y0053148D02*
X0196268Y0053148D01*
X0196268Y0054146D02*
X0191119Y0054146D01*
X0191268Y0055145D02*
X0196268Y0055145D01*
X0196268Y0056143D02*
X0192372Y0056143D01*
X0193007Y0057142D02*
X0196268Y0057142D01*
X0196268Y0058140D02*
X0193389Y0058140D01*
X0196268Y0042164D02*
X0158999Y0042164D01*
X0158999Y0041166D02*
X0196268Y0041166D01*
X0196268Y0040167D02*
X0158999Y0040167D01*
X0158999Y0039169D02*
X0196268Y0039169D01*
X0196268Y0038170D02*
X0158999Y0038170D01*
X0158999Y0037172D02*
X0196268Y0037172D01*
X0196268Y0036173D02*
X0158995Y0036173D01*
X0158999Y0035175D02*
X0184527Y0035175D01*
X0183868Y0034902D02*
X0186774Y0036105D01*
X0189919Y0036105D01*
X0192825Y0034902D01*
X0195048Y0032678D01*
X0196252Y0029773D01*
X0196252Y0026627D01*
X0195048Y0023722D01*
X0192825Y0021498D01*
X0189919Y0020294D01*
X0186774Y0020294D01*
X0183868Y0021498D01*
X0181644Y0023722D01*
X0180441Y0026627D01*
X0180441Y0029773D01*
X0181644Y0032678D01*
X0183868Y0034902D01*
X0183143Y0034176D02*
X0158999Y0034176D01*
X0158999Y0033178D02*
X0182144Y0033178D01*
X0181438Y0032179D02*
X0158999Y0032179D01*
X0158999Y0031181D02*
X0181024Y0031181D01*
X0180611Y0030182D02*
X0158999Y0030182D01*
X0158999Y0029184D02*
X0180441Y0029184D01*
X0180441Y0028185D02*
X0158488Y0028185D01*
X0150205Y0028185D02*
X0149988Y0028185D01*
X0141705Y0028185D02*
X0139824Y0028185D01*
X0136869Y0028185D02*
X0031252Y0028185D01*
X0031252Y0027187D02*
X0180441Y0027187D01*
X0180623Y0026188D02*
X0031070Y0026188D01*
X0031252Y0026627D02*
X0030048Y0023722D01*
X0027825Y0021498D01*
X0024919Y0020294D01*
X0021774Y0020294D01*
X0018868Y0021498D01*
X0016644Y0023722D01*
X0015441Y0026627D01*
X0015441Y0029773D01*
X0016644Y0032678D01*
X0018868Y0034902D01*
X0021774Y0036105D01*
X0024919Y0036105D01*
X0027825Y0034902D01*
X0030048Y0032678D01*
X0031252Y0029773D01*
X0031252Y0026627D01*
X0030656Y0025190D02*
X0181037Y0025190D01*
X0181450Y0024191D02*
X0030243Y0024191D01*
X0029519Y0023193D02*
X0182174Y0023193D01*
X0183172Y0022194D02*
X0028521Y0022194D01*
X0027094Y0021196D02*
X0184599Y0021196D01*
X0192094Y0021196D02*
X0196268Y0021196D01*
X0196268Y0022194D02*
X0193521Y0022194D01*
X0194519Y0023193D02*
X0196268Y0023193D01*
X0196268Y0024191D02*
X0195243Y0024191D01*
X0195656Y0025190D02*
X0196268Y0025190D01*
X0196268Y0026188D02*
X0196070Y0026188D01*
X0196252Y0027187D02*
X0196268Y0027187D01*
X0196252Y0028185D02*
X0196268Y0028185D01*
X0196252Y0029184D02*
X0196268Y0029184D01*
X0196268Y0030182D02*
X0196082Y0030182D01*
X0196268Y0031181D02*
X0195669Y0031181D01*
X0195255Y0032179D02*
X0196268Y0032179D01*
X0196268Y0033178D02*
X0194549Y0033178D01*
X0193550Y0034176D02*
X0196268Y0034176D01*
X0196268Y0035175D02*
X0192166Y0035175D01*
X0136222Y0039169D02*
X0073458Y0039169D01*
X0073175Y0040167D02*
X0135223Y0040167D01*
X0135832Y0032179D02*
X0030255Y0032179D01*
X0030669Y0031181D02*
X0135457Y0031181D01*
X0135457Y0030182D02*
X0031082Y0030182D01*
X0031252Y0029184D02*
X0135848Y0029184D01*
X0096346Y0048155D02*
X0095346Y0048155D01*
X0095346Y0049154D02*
X0096346Y0049154D01*
X0096346Y0050152D02*
X0095346Y0050152D01*
X0091394Y0053148D02*
X0089495Y0053148D01*
X0089495Y0059139D02*
X0091194Y0059139D01*
X0091194Y0060137D02*
X0088514Y0060137D01*
X0091194Y0061136D02*
X0085358Y0061136D01*
X0085358Y0061074D02*
X0083590Y0061074D01*
X0083590Y0061074D01*
X0085358Y0061074D01*
X0085358Y0062134D02*
X0091194Y0062134D01*
X0091623Y0063133D02*
X0088198Y0063133D01*
X0085494Y0063133D02*
X0085124Y0063133D01*
X0089735Y0066129D02*
X0092448Y0066129D01*
X0091450Y0067127D02*
X0089382Y0067127D01*
X0088507Y0068126D02*
X0090451Y0068126D01*
X0089453Y0069124D02*
X0086146Y0069124D01*
X0086146Y0071121D02*
X0087455Y0071121D01*
X0086457Y0072120D02*
X0086146Y0072120D01*
X0088454Y0070123D02*
X0082587Y0070123D01*
X0082587Y0070700D02*
X0081587Y0070700D01*
X0081587Y0074653D01*
X0079330Y0074653D01*
X0078949Y0074551D01*
X0078607Y0074353D01*
X0078488Y0074234D01*
X0077870Y0074853D01*
X0071343Y0074853D01*
X0070446Y0073956D01*
X0070446Y0074830D01*
X0074216Y0078600D01*
X0079977Y0078600D01*
X0083924Y0074653D01*
X0082587Y0074653D01*
X0082587Y0070700D01*
X0082587Y0071121D02*
X0081587Y0071121D01*
X0081587Y0072120D02*
X0082587Y0072120D01*
X0082587Y0073118D02*
X0081587Y0073118D01*
X0081587Y0074117D02*
X0082587Y0074117D01*
X0083461Y0075115D02*
X0070731Y0075115D01*
X0070607Y0074117D02*
X0070446Y0074117D01*
X0071730Y0076114D02*
X0082463Y0076114D01*
X0081464Y0077112D02*
X0072728Y0077112D01*
X0073727Y0078111D02*
X0080466Y0078111D01*
X0083410Y0081106D02*
X0083562Y0081106D01*
X0082412Y0082105D02*
X0085057Y0082105D01*
X0086636Y0082105D02*
X0093694Y0082105D01*
X0093694Y0081106D02*
X0088131Y0081106D01*
X0088641Y0080108D02*
X0093694Y0080108D01*
X0093694Y0079109D02*
X0088735Y0079109D01*
X0088906Y0078111D02*
X0093694Y0078111D01*
X0093694Y0077112D02*
X0089904Y0077112D01*
X0090903Y0076114D02*
X0093777Y0076114D01*
X0091901Y0075115D02*
X0103811Y0075115D01*
X0103123Y0076114D02*
X0102916Y0076114D01*
X0102999Y0077112D02*
X0103123Y0077112D01*
X0103123Y0078111D02*
X0102999Y0078111D01*
X0102999Y0079109D02*
X0103123Y0079109D01*
X0103123Y0080108D02*
X0102999Y0080108D01*
X0105599Y0074117D02*
X0092900Y0074117D01*
X0093898Y0073118D02*
X0105457Y0073118D01*
X0105667Y0072120D02*
X0102397Y0072120D01*
X0103395Y0071121D02*
X0106340Y0071121D01*
X0104394Y0070123D02*
X0108454Y0070123D01*
X0094074Y0083103D02*
X0041235Y0083103D01*
X0041100Y0084102D02*
X0093916Y0084102D01*
X0093894Y0085100D02*
X0040532Y0085100D01*
X0040446Y0086099D02*
X0093894Y0086099D01*
X0093894Y0087440D02*
X0097846Y0087440D01*
X0097846Y0090999D01*
X0095196Y0090999D01*
X0094815Y0090897D01*
X0094473Y0090699D01*
X0094193Y0090420D01*
X0093996Y0090078D01*
X0093894Y0089697D01*
X0093894Y0087440D01*
X0093894Y0088096D02*
X0041212Y0088096D01*
X0040446Y0087097D02*
X0097846Y0087097D01*
X0097846Y0088096D02*
X0098846Y0088096D01*
X0098846Y0087440D02*
X0098846Y0090999D01*
X0101497Y0090999D01*
X0101878Y0090897D01*
X0102220Y0090699D01*
X0102499Y0090420D01*
X0102697Y0090078D01*
X0102799Y0089697D01*
X0102799Y0087440D01*
X0098846Y0087440D01*
X0098846Y0087097D02*
X0103123Y0087097D01*
X0103123Y0086099D02*
X0102799Y0086099D01*
X0102799Y0088096D02*
X0103123Y0088096D01*
X0103123Y0089094D02*
X0102799Y0089094D01*
X0102689Y0090093D02*
X0103123Y0090093D01*
X0103617Y0091091D02*
X0044208Y0091091D01*
X0045206Y0092090D02*
X0108195Y0092090D01*
X0108047Y0093088D02*
X0046205Y0093088D01*
X0047203Y0094087D02*
X0108047Y0094087D01*
X0108047Y0095085D02*
X0048202Y0095085D01*
X0049200Y0096084D02*
X0111606Y0096084D01*
X0111606Y0096200D02*
X0108047Y0096200D01*
X0108047Y0098850D01*
X0108149Y0099232D01*
X0108347Y0099574D01*
X0108626Y0099853D01*
X0108968Y0100051D01*
X0109350Y0100153D01*
X0111606Y0100153D01*
X0111606Y0096200D01*
X0111606Y0097082D02*
X0112606Y0097082D01*
X0112606Y0098081D02*
X0111606Y0098081D01*
X0111606Y0099079D02*
X0112606Y0099079D01*
X0112606Y0100078D02*
X0111606Y0100078D01*
X0115142Y0100078D02*
X0116049Y0100078D01*
X0109071Y0100078D02*
X0053194Y0100078D01*
X0052196Y0099079D02*
X0108109Y0099079D01*
X0108047Y0098081D02*
X0051197Y0098081D01*
X0050199Y0097082D02*
X0108047Y0097082D01*
X0098846Y0090093D02*
X0097846Y0090093D01*
X0097846Y0089094D02*
X0098846Y0089094D01*
X0094004Y0090093D02*
X0043209Y0090093D01*
X0042211Y0089094D02*
X0093894Y0089094D01*
X0071781Y0082105D02*
X0041020Y0082105D01*
X0036246Y0088096D02*
X0035135Y0088096D01*
X0038732Y0092090D02*
X0039266Y0092090D01*
X0038746Y0093088D02*
X0040265Y0093088D01*
X0041263Y0094087D02*
X0038746Y0094087D01*
X0038410Y0095085D02*
X0042262Y0095085D01*
X0043260Y0096084D02*
X0037997Y0096084D01*
X0037101Y0097082D02*
X0044259Y0097082D01*
X0045258Y0098081D02*
X0035674Y0098081D01*
X0036863Y0099079D02*
X0046256Y0099079D01*
X0047255Y0100078D02*
X0037861Y0100078D01*
X0038312Y0101076D02*
X0048253Y0101076D01*
X0049252Y0102075D02*
X0038725Y0102075D01*
X0038746Y0103073D02*
X0050250Y0103073D01*
X0051249Y0104072D02*
X0038746Y0104072D01*
X0038417Y0105070D02*
X0052247Y0105070D01*
X0053246Y0106069D02*
X0038003Y0106069D01*
X0037116Y0107068D02*
X0054244Y0107068D01*
X0055243Y0108066D02*
X0035710Y0108066D01*
X0030983Y0108066D02*
X0025710Y0108066D01*
X0027116Y0107068D02*
X0029577Y0107068D01*
X0028690Y0106069D02*
X0028003Y0106069D01*
X0029277Y0067854D02*
X0027927Y0067294D01*
X0026894Y0066261D01*
X0026335Y0064911D01*
X0026335Y0063450D01*
X0026894Y0062100D01*
X0027927Y0061066D01*
X0029277Y0060507D01*
X0030739Y0060507D01*
X0032089Y0061066D01*
X0033122Y0062100D01*
X0033681Y0063450D01*
X0033681Y0064911D01*
X0033122Y0066261D01*
X0032089Y0067294D01*
X0030739Y0067854D01*
X0029277Y0067854D01*
X0027760Y0067127D02*
X0015346Y0067127D01*
X0015346Y0066129D02*
X0026839Y0066129D01*
X0026425Y0065130D02*
X0015346Y0065130D01*
X0015346Y0064132D02*
X0026335Y0064132D01*
X0026466Y0063133D02*
X0015346Y0063133D01*
X0015346Y0062134D02*
X0026879Y0062134D01*
X0027857Y0061136D02*
X0015346Y0061136D01*
X0015346Y0060137D02*
X0036246Y0060137D01*
X0036246Y0059139D02*
X0015346Y0059139D01*
X0015346Y0058140D02*
X0036246Y0058140D01*
X0036246Y0057142D02*
X0015346Y0057142D01*
X0015346Y0056143D02*
X0036246Y0056143D01*
X0036246Y0055145D02*
X0015346Y0055145D01*
X0015346Y0054146D02*
X0036246Y0054146D01*
X0036246Y0053148D02*
X0015346Y0053148D01*
X0015346Y0052149D02*
X0027743Y0052149D01*
X0027927Y0052334D02*
X0026894Y0051300D01*
X0026335Y0049950D01*
X0026335Y0048489D01*
X0026894Y0047139D01*
X0027927Y0046106D01*
X0029277Y0045546D01*
X0030739Y0045546D01*
X0032089Y0046106D01*
X0033122Y0047139D01*
X0033681Y0048489D01*
X0033681Y0049950D01*
X0033122Y0051300D01*
X0032089Y0052334D01*
X0030739Y0052893D01*
X0029277Y0052893D01*
X0027927Y0052334D01*
X0026832Y0051151D02*
X0015346Y0051151D01*
X0015346Y0050152D02*
X0026418Y0050152D01*
X0026335Y0049154D02*
X0015346Y0049154D01*
X0015346Y0048155D02*
X0026473Y0048155D01*
X0026886Y0047157D02*
X0015346Y0047157D01*
X0015346Y0046158D02*
X0027875Y0046158D01*
X0032141Y0046158D02*
X0036246Y0046158D01*
X0036246Y0045160D02*
X0015346Y0045160D01*
X0015346Y0044161D02*
X0036246Y0044161D01*
X0036217Y0043163D02*
X0015346Y0043163D01*
X0015346Y0042164D02*
X0034674Y0042164D01*
X0033730Y0041166D02*
X0015346Y0041166D01*
X0015346Y0040167D02*
X0033316Y0040167D01*
X0032946Y0039169D02*
X0015346Y0039169D01*
X0015346Y0038170D02*
X0032946Y0038170D01*
X0032946Y0037172D02*
X0015346Y0037172D01*
X0015346Y0036173D02*
X0033341Y0036173D01*
X0033755Y0035175D02*
X0027166Y0035175D01*
X0028550Y0034176D02*
X0034734Y0034176D01*
X0036361Y0033178D02*
X0029549Y0033178D01*
X0019527Y0035175D02*
X0015346Y0035175D01*
X0015346Y0034176D02*
X0018143Y0034176D01*
X0017144Y0033178D02*
X0015346Y0033178D01*
X0015346Y0032179D02*
X0016438Y0032179D01*
X0016024Y0031181D02*
X0015346Y0031181D01*
X0015346Y0030182D02*
X0015611Y0030182D01*
X0015441Y0029184D02*
X0015346Y0029184D01*
X0015346Y0028185D02*
X0015441Y0028185D01*
X0015441Y0027187D02*
X0015346Y0027187D01*
X0015346Y0026188D02*
X0015623Y0026188D01*
X0015346Y0025190D02*
X0016037Y0025190D01*
X0016450Y0024191D02*
X0015346Y0024191D01*
X0015346Y0023193D02*
X0017174Y0023193D01*
X0018172Y0022194D02*
X0015346Y0022194D01*
X0015346Y0021196D02*
X0019599Y0021196D01*
X0040332Y0033178D02*
X0046361Y0033178D01*
X0044734Y0034176D02*
X0041959Y0034176D01*
X0042938Y0035175D02*
X0043755Y0035175D01*
X0050332Y0033178D02*
X0056361Y0033178D01*
X0054734Y0034176D02*
X0051959Y0034176D01*
X0052938Y0035175D02*
X0053755Y0035175D01*
X0036246Y0047157D02*
X0033129Y0047157D01*
X0033543Y0048155D02*
X0036246Y0048155D01*
X0036246Y0049154D02*
X0033681Y0049154D01*
X0033597Y0050152D02*
X0036246Y0050152D01*
X0036246Y0051151D02*
X0033184Y0051151D01*
X0032273Y0052149D02*
X0036246Y0052149D01*
X0036246Y0061136D02*
X0032158Y0061136D01*
X0033136Y0062134D02*
X0036246Y0062134D01*
X0036246Y0063133D02*
X0033550Y0063133D01*
X0033681Y0064132D02*
X0035869Y0064132D01*
X0035457Y0065130D02*
X0033590Y0065130D01*
X0033177Y0066129D02*
X0035457Y0066129D01*
X0035811Y0067127D02*
X0032256Y0067127D01*
X0036686Y0068126D02*
X0015346Y0068126D01*
X0169835Y0114057D02*
X0172020Y0114057D01*
X0173018Y0113059D02*
X0170481Y0113059D01*
X0175962Y0116054D02*
X0181812Y0116054D01*
X0181300Y0117053D02*
X0174964Y0117053D01*
X0173965Y0118051D02*
X0180887Y0118051D01*
X0180473Y0119050D02*
X0172967Y0119050D01*
X0171968Y0120048D02*
X0180441Y0120048D01*
X0182811Y0115056D02*
X0176961Y0115056D01*
X0177959Y0114057D02*
X0183809Y0114057D01*
X0186136Y0113059D02*
X0178958Y0113059D01*
X0179956Y0112060D02*
X0196268Y0112060D01*
X0196268Y0111062D02*
X0180955Y0111062D01*
X0181953Y0110063D02*
X0196268Y0110063D01*
X0196268Y0109065D02*
X0182946Y0109065D01*
X0182946Y0108066D02*
X0196268Y0108066D01*
X0196268Y0107068D02*
X0182946Y0107068D01*
X0182946Y0106069D02*
X0196268Y0106069D01*
X0196268Y0105070D02*
X0182946Y0105070D01*
X0182946Y0104072D02*
X0185964Y0104072D01*
X0184616Y0103073D02*
X0182946Y0103073D01*
X0182946Y0102075D02*
X0183848Y0102075D01*
X0183407Y0101076D02*
X0182946Y0101076D01*
X0182946Y0100078D02*
X0183181Y0100078D01*
X0187846Y0101076D02*
X0188846Y0101076D01*
X0188846Y0102075D02*
X0187846Y0102075D01*
X0187846Y0103073D02*
X0188846Y0103073D01*
X0188846Y0104072D02*
X0187846Y0104072D01*
X0190729Y0104072D02*
X0196268Y0104072D01*
X0196268Y0103073D02*
X0192077Y0103073D01*
X0192845Y0102075D02*
X0196268Y0102075D01*
X0196268Y0101076D02*
X0193286Y0101076D01*
X0193512Y0100078D02*
X0196268Y0100078D01*
X0196268Y0113059D02*
X0190557Y0113059D01*
X0192884Y0114057D02*
X0196268Y0114057D01*
X0196268Y0115056D02*
X0193882Y0115056D01*
X0194881Y0116054D02*
X0196268Y0116054D01*
X0196268Y0117053D02*
X0195393Y0117053D01*
X0195806Y0118051D02*
X0196268Y0118051D01*
X0196268Y0119050D02*
X0196220Y0119050D01*
X0196252Y0120048D02*
X0196268Y0120048D01*
X0196252Y0121047D02*
X0196268Y0121047D01*
X0196252Y0122045D02*
X0196268Y0122045D01*
X0196268Y0123044D02*
X0195933Y0123044D01*
X0196268Y0124042D02*
X0195519Y0124042D01*
X0195105Y0125041D02*
X0196268Y0125041D01*
X0196268Y0126039D02*
X0194187Y0126039D01*
X0193189Y0127038D02*
X0196268Y0127038D01*
X0196268Y0128036D02*
X0191293Y0128036D01*
D18*
X0180846Y0108200D02*
X0170846Y0118200D01*
X0133346Y0118200D01*
X0145846Y0110700D02*
X0060846Y0110700D01*
X0038346Y0088200D01*
X0038346Y0083200D01*
X0038346Y0065700D02*
X0038346Y0038200D01*
X0052106Y0048200D02*
X0056122Y0052216D01*
X0070472Y0052216D01*
X0070472Y0054184D02*
X0063602Y0054184D01*
X0059587Y0058200D01*
X0065846Y0058200D02*
X0067894Y0056153D01*
X0070472Y0056153D01*
X0070472Y0058121D02*
X0068346Y0060247D01*
X0068346Y0075700D01*
X0073346Y0080700D01*
X0080846Y0080700D01*
X0093346Y0068200D01*
X0100846Y0068200D01*
X0115846Y0053200D01*
X0136723Y0053200D01*
X0137323Y0053800D01*
X0140472Y0053800D02*
X0140472Y0056074D01*
X0138346Y0058200D01*
X0135846Y0058200D01*
X0133346Y0055700D01*
X0115846Y0055700D01*
X0101346Y0070200D01*
X0093846Y0070200D01*
X0085846Y0078200D01*
X0085846Y0079305D01*
X0098346Y0079460D02*
X0102087Y0083200D01*
X0115846Y0083200D01*
X0120374Y0078672D01*
X0123130Y0078672D01*
X0131348Y0078672D01*
X0131446Y0078574D01*
X0131446Y0075424D02*
X0128071Y0075424D01*
X0125846Y0073200D01*
X0125846Y0069125D01*
X0131446Y0069125D01*
X0125846Y0069125D02*
X0121161Y0069125D01*
X0120846Y0069440D01*
X0112106Y0069440D01*
X0108346Y0073200D01*
X0108563Y0087728D02*
X0111614Y0087728D01*
X0119587Y0095700D01*
X0125846Y0095700D01*
X0131446Y0090100D01*
X0131446Y0081724D01*
X0137323Y0084224D02*
X0140846Y0080700D01*
X0143346Y0080700D01*
X0137323Y0084224D02*
X0137323Y0087600D01*
X0140846Y0093200D02*
X0153346Y0093200D01*
X0156220Y0090326D01*
X0156220Y0087600D01*
X0159370Y0087600D02*
X0159370Y0089676D01*
X0153346Y0095700D01*
X0148346Y0095700D01*
X0145846Y0098200D01*
X0145846Y0100700D01*
X0140846Y0105700D02*
X0138346Y0103200D01*
X0138346Y0095700D01*
X0140846Y0093200D01*
X0149921Y0087600D02*
X0149921Y0074775D01*
X0148346Y0073200D01*
X0154596Y0069450D02*
X0144823Y0059676D01*
X0131446Y0059676D01*
X0131446Y0062826D02*
X0131820Y0063200D01*
X0143346Y0063200D01*
X0146772Y0056625D02*
X0158346Y0068200D01*
X0158346Y0080700D01*
X0165846Y0088200D01*
X0165846Y0100700D01*
X0160846Y0105700D02*
X0170846Y0105700D01*
X0173346Y0103200D01*
X0173346Y0090700D01*
X0165246Y0082600D01*
X0165246Y0081724D01*
X0165246Y0078574D02*
X0174980Y0078574D01*
X0175846Y0079440D01*
X0175846Y0083200D01*
X0180846Y0088200D01*
X0180846Y0089450D01*
X0188346Y0089450D01*
X0180846Y0089450D02*
X0180846Y0108200D01*
X0160846Y0105700D02*
X0155846Y0100700D01*
X0150846Y0105700D02*
X0140846Y0105700D01*
X0150846Y0105700D02*
X0155846Y0110700D01*
X0086846Y0065700D02*
X0078346Y0065700D01*
X0074606Y0069440D01*
X0074606Y0070200D01*
X0073425Y0069519D01*
X0073425Y0061074D01*
X0086220Y0056153D02*
X0092559Y0056153D01*
X0095846Y0059440D01*
X0088799Y0050247D02*
X0086220Y0050247D01*
X0088799Y0050247D02*
X0093346Y0045700D01*
X0145846Y0045700D01*
X0145846Y0039440D01*
X0142661Y0035700D02*
X0135161Y0043200D01*
X0093346Y0043200D01*
X0088268Y0048279D01*
X0086220Y0048279D01*
X0070472Y0050247D02*
X0061634Y0050247D01*
X0059587Y0048200D01*
X0113346Y0050700D02*
X0115846Y0048200D01*
X0140846Y0048200D01*
X0143622Y0050976D01*
X0143622Y0053800D01*
X0146772Y0053800D02*
X0146772Y0056625D01*
X0149921Y0053800D02*
X0149921Y0049775D01*
X0145846Y0045700D01*
X0153071Y0040716D02*
X0153071Y0053800D01*
X0153071Y0040716D02*
X0154346Y0039440D01*
X0154346Y0039200D01*
X0150846Y0035700D01*
X0142661Y0035700D01*
X0145846Y0031960D02*
X0144587Y0030700D01*
X0138346Y0030700D01*
X0145846Y0031960D02*
X0154346Y0031960D01*
X0153346Y0038200D02*
X0154346Y0039440D01*
D19*
X0138346Y0030700D03*
X0113346Y0050700D03*
X0090846Y0065700D03*
X0086846Y0065700D03*
X0085846Y0079305D03*
X0080846Y0091950D03*
X0108346Y0073200D03*
X0143346Y0080700D03*
X0148346Y0073200D03*
X0154596Y0069450D03*
X0143346Y0063200D03*
X0064346Y0071700D03*
X0038346Y0065700D03*
X0038346Y0083200D03*
X0133346Y0118200D03*
M02*
