G75*
%MOIN*%
%OFA0B0*%
%FSLAX25Y25*%
%IPPOS*%
%LPD*%
%AMOC8*
5,1,8,0,0,1.08239X$1,22.5*
%
%ADD10R,0.05118X0.05906*%
%ADD11R,0.05906X0.05118*%
%ADD12R,0.05000X0.02200*%
%ADD13R,0.02200X0.05000*%
%ADD14C,0.00886*%
%ADD15R,0.07480X0.04331*%
D10*
X0052106Y0048200D03*
X0059587Y0048200D03*
X0059587Y0058200D03*
X0052106Y0058200D03*
X0074606Y0070200D03*
X0082087Y0070200D03*
X0112106Y0095700D03*
X0119587Y0095700D03*
D11*
X0098346Y0086940D03*
X0098346Y0079460D03*
X0120846Y0069440D03*
X0120846Y0061960D03*
X0095846Y0059440D03*
X0095846Y0051960D03*
X0145846Y0039440D03*
X0145846Y0031960D03*
X0154346Y0031960D03*
X0154346Y0039440D03*
X0175846Y0071960D03*
X0175846Y0079440D03*
D12*
X0165246Y0078574D03*
X0165246Y0075424D03*
X0165246Y0072275D03*
X0165246Y0069125D03*
X0165246Y0065976D03*
X0165246Y0062826D03*
X0165246Y0059676D03*
X0165246Y0081724D03*
X0131446Y0081724D03*
X0131446Y0078574D03*
X0131446Y0075424D03*
X0131446Y0072275D03*
X0131446Y0069125D03*
X0131446Y0065976D03*
X0131446Y0062826D03*
X0131446Y0059676D03*
D13*
X0137323Y0053800D03*
X0140472Y0053800D03*
X0143622Y0053800D03*
X0146772Y0053800D03*
X0149921Y0053800D03*
X0153071Y0053800D03*
X0156220Y0053800D03*
X0159370Y0053800D03*
X0159370Y0087600D03*
X0156220Y0087600D03*
X0153071Y0087600D03*
X0149921Y0087600D03*
X0146772Y0087600D03*
X0143622Y0087600D03*
X0140472Y0087600D03*
X0137323Y0087600D03*
D14*
X0087352Y0058268D02*
X0085088Y0058268D01*
X0087352Y0058268D02*
X0087352Y0057974D01*
X0085088Y0057974D01*
X0085088Y0058268D01*
X0085088Y0056300D02*
X0087352Y0056300D01*
X0087352Y0056006D01*
X0085088Y0056006D01*
X0085088Y0056300D01*
X0085088Y0054331D02*
X0087352Y0054331D01*
X0087352Y0054037D01*
X0085088Y0054037D01*
X0085088Y0054331D01*
X0085088Y0052363D02*
X0087352Y0052363D01*
X0087352Y0052069D01*
X0085088Y0052069D01*
X0085088Y0052363D01*
X0085088Y0050394D02*
X0087352Y0050394D01*
X0087352Y0050100D01*
X0085088Y0050100D01*
X0085088Y0050394D01*
X0085088Y0048426D02*
X0087352Y0048426D01*
X0087352Y0048132D01*
X0085088Y0048132D01*
X0085088Y0048426D01*
X0083415Y0046458D02*
X0083415Y0044194D01*
X0083121Y0044194D01*
X0083121Y0046458D01*
X0083415Y0046458D01*
X0083415Y0045079D02*
X0083121Y0045079D01*
X0083121Y0045964D02*
X0083415Y0045964D01*
X0081446Y0046458D02*
X0081446Y0044194D01*
X0081152Y0044194D01*
X0081152Y0046458D01*
X0081446Y0046458D01*
X0081446Y0045079D02*
X0081152Y0045079D01*
X0081152Y0045964D02*
X0081446Y0045964D01*
X0079478Y0046458D02*
X0079478Y0044194D01*
X0079184Y0044194D01*
X0079184Y0046458D01*
X0079478Y0046458D01*
X0079478Y0045079D02*
X0079184Y0045079D01*
X0079184Y0045964D02*
X0079478Y0045964D01*
X0077509Y0046458D02*
X0077509Y0044194D01*
X0077215Y0044194D01*
X0077215Y0046458D01*
X0077509Y0046458D01*
X0077509Y0045079D02*
X0077215Y0045079D01*
X0077215Y0045964D02*
X0077509Y0045964D01*
X0075541Y0046458D02*
X0075541Y0044194D01*
X0075247Y0044194D01*
X0075247Y0046458D01*
X0075541Y0046458D01*
X0075541Y0045079D02*
X0075247Y0045079D01*
X0075247Y0045964D02*
X0075541Y0045964D01*
X0073572Y0046458D02*
X0073572Y0044194D01*
X0073278Y0044194D01*
X0073278Y0046458D01*
X0073572Y0046458D01*
X0073572Y0045079D02*
X0073278Y0045079D01*
X0073278Y0045964D02*
X0073572Y0045964D01*
X0071604Y0048132D02*
X0069340Y0048132D01*
X0069340Y0048426D01*
X0071604Y0048426D01*
X0071604Y0048132D01*
X0071604Y0050100D02*
X0069340Y0050100D01*
X0069340Y0050394D01*
X0071604Y0050394D01*
X0071604Y0050100D01*
X0071604Y0052069D02*
X0069340Y0052069D01*
X0069340Y0052363D01*
X0071604Y0052363D01*
X0071604Y0052069D01*
X0071604Y0054037D02*
X0069340Y0054037D01*
X0069340Y0054331D01*
X0071604Y0054331D01*
X0071604Y0054037D01*
X0071604Y0056006D02*
X0069340Y0056006D01*
X0069340Y0056300D01*
X0071604Y0056300D01*
X0071604Y0056006D01*
X0071604Y0057974D02*
X0069340Y0057974D01*
X0069340Y0058268D01*
X0071604Y0058268D01*
X0071604Y0057974D01*
X0073278Y0059942D02*
X0073278Y0062206D01*
X0073572Y0062206D01*
X0073572Y0059942D01*
X0073278Y0059942D01*
X0073278Y0060827D02*
X0073572Y0060827D01*
X0073572Y0061712D02*
X0073278Y0061712D01*
X0075247Y0062206D02*
X0075247Y0059942D01*
X0075247Y0062206D02*
X0075541Y0062206D01*
X0075541Y0059942D01*
X0075247Y0059942D01*
X0075247Y0060827D02*
X0075541Y0060827D01*
X0075541Y0061712D02*
X0075247Y0061712D01*
X0077215Y0062206D02*
X0077215Y0059942D01*
X0077215Y0062206D02*
X0077509Y0062206D01*
X0077509Y0059942D01*
X0077215Y0059942D01*
X0077215Y0060827D02*
X0077509Y0060827D01*
X0077509Y0061712D02*
X0077215Y0061712D01*
X0079184Y0062206D02*
X0079184Y0059942D01*
X0079184Y0062206D02*
X0079478Y0062206D01*
X0079478Y0059942D01*
X0079184Y0059942D01*
X0079184Y0060827D02*
X0079478Y0060827D01*
X0079478Y0061712D02*
X0079184Y0061712D01*
X0081152Y0062206D02*
X0081152Y0059942D01*
X0081152Y0062206D02*
X0081446Y0062206D01*
X0081446Y0059942D01*
X0081152Y0059942D01*
X0081152Y0060827D02*
X0081446Y0060827D01*
X0081446Y0061712D02*
X0081152Y0061712D01*
X0083121Y0062206D02*
X0083121Y0059942D01*
X0083121Y0062206D02*
X0083415Y0062206D01*
X0083415Y0059942D01*
X0083121Y0059942D01*
X0083121Y0060827D02*
X0083415Y0060827D01*
X0083415Y0061712D02*
X0083121Y0061712D01*
D15*
X0108563Y0078672D03*
X0108563Y0087728D03*
X0123130Y0087728D03*
X0123130Y0078672D03*
M02*
