%
M48
M72
T01C0.0138
T02C0.0335
T03C0.0400
T04C0.1181
%
T01
X3835Y6570
X3835Y8320
X6435Y7170
X8585Y7930
X8085Y9195
X10835Y7320
X9085Y6570
X8685Y6570
X11335Y5070
X13835Y3070
X14335Y6320
X15460Y6945
X14835Y7320
X14335Y8070
X13335Y11820
T02
X3001Y6418
X3001Y4922
T03
X3835Y3820
X4835Y3820
X5835Y3820
X6835Y3820
X3335Y9320
X2335Y9320
X2335Y10320
X3335Y10320
X14585Y10070
X15585Y10070
X16585Y10070
X16585Y11070
X15585Y11070
X14585Y11070
X18835Y9945
X18835Y8945
X18835Y7945
X18835Y6945
X18835Y5945
X18835Y4945
T04
X2335Y2820
X2335Y12070
X18835Y12070
X18835Y2820
M30
