G75*
%MOIN*%
%OFA0B0*%
%FSLAX25Y25*%
%IPPOS*%
%LPD*%
%AMOC8*
5,1,8,0,0,1.08239X$1,22.5*
%
%ADD10C,0.01400*%
%ADD11C,0.01300*%
%ADD12C,0.02100*%
%ADD13C,0.01500*%
%ADD14C,0.01000*%
%ADD15C,0.01900*%
%ADD16C,0.00800*%
%ADD17C,0.01100*%
%ADD18C,0.00400*%
%ADD19C,0.00700*%
%ADD20C,0.00500*%
%ADD21C,0.00300*%
%ADD22R,0.01575X0.01575*%
D10*
X0055980Y0118627D02*
X0073346Y0114000D01*
X0090713Y0118627D01*
X0090767Y0118646D01*
X0090820Y0118669D01*
X0090872Y0118695D01*
X0090921Y0118724D01*
X0090968Y0118757D01*
X0091013Y0118793D01*
X0091056Y0118831D01*
X0091096Y0118873D01*
X0091133Y0118917D01*
X0091167Y0118963D01*
X0091198Y0119011D01*
X0091226Y0119062D01*
X0091250Y0119114D01*
X0091270Y0119168D01*
X0091287Y0119223D01*
X0091301Y0119279D01*
X0091310Y0119335D01*
X0091316Y0119393D01*
X0091318Y0119450D01*
X0091316Y0119507D01*
X0091310Y0119565D01*
X0091301Y0119621D01*
X0091287Y0119677D01*
X0091270Y0119732D01*
X0091250Y0119786D01*
X0091226Y0119838D01*
X0091198Y0119889D01*
X0091167Y0119937D01*
X0091133Y0119983D01*
X0091096Y0120027D01*
X0091056Y0120069D01*
X0091013Y0120107D01*
X0090968Y0120143D01*
X0090921Y0120176D01*
X0090872Y0120205D01*
X0090820Y0120231D01*
X0090767Y0120254D01*
X0090713Y0120273D01*
X0073346Y0125700D01*
X0055980Y0120273D01*
X0055926Y0120254D01*
X0055873Y0120231D01*
X0055821Y0120205D01*
X0055772Y0120176D01*
X0055725Y0120143D01*
X0055680Y0120107D01*
X0055637Y0120069D01*
X0055597Y0120027D01*
X0055560Y0119983D01*
X0055526Y0119937D01*
X0055495Y0119889D01*
X0055467Y0119838D01*
X0055443Y0119786D01*
X0055423Y0119732D01*
X0055406Y0119677D01*
X0055392Y0119621D01*
X0055383Y0119565D01*
X0055377Y0119507D01*
X0055375Y0119450D01*
X0055377Y0119393D01*
X0055383Y0119335D01*
X0055392Y0119279D01*
X0055406Y0119223D01*
X0055423Y0119168D01*
X0055443Y0119114D01*
X0055467Y0119062D01*
X0055495Y0119011D01*
X0055526Y0118963D01*
X0055560Y0118917D01*
X0055597Y0118873D01*
X0055637Y0118831D01*
X0055680Y0118793D01*
X0055725Y0118757D01*
X0055772Y0118724D01*
X0055821Y0118695D01*
X0055873Y0118669D01*
X0055926Y0118646D01*
X0055980Y0118627D01*
D11*
X0087046Y0112600D02*
X0087046Y0110200D01*
X0090246Y0110200D01*
X0090246Y0112600D01*
X0088646Y0115000D01*
X0087046Y0112600D01*
X0088646Y0115000D02*
X0088646Y0118200D01*
D12*
X0078246Y0111100D02*
X0078248Y0111203D01*
X0078254Y0111307D01*
X0078264Y0111410D01*
X0078278Y0111512D01*
X0078295Y0111614D01*
X0078317Y0111715D01*
X0078343Y0111815D01*
X0078372Y0111915D01*
X0078405Y0112013D01*
X0078442Y0112109D01*
X0078482Y0112204D01*
X0078526Y0112298D01*
X0078574Y0112390D01*
X0078625Y0112480D01*
X0078680Y0112568D01*
X0078738Y0112653D01*
X0078799Y0112737D01*
X0078863Y0112818D01*
X0078930Y0112896D01*
X0079001Y0112972D01*
X0079074Y0113045D01*
X0079150Y0113116D01*
X0079228Y0113183D01*
X0079309Y0113247D01*
X0079393Y0113308D01*
X0079478Y0113366D01*
X0079566Y0113421D01*
X0079656Y0113472D01*
X0079748Y0113520D01*
X0079842Y0113564D01*
X0079937Y0113604D01*
X0080033Y0113641D01*
X0080131Y0113674D01*
X0080231Y0113703D01*
X0080331Y0113729D01*
X0080432Y0113751D01*
X0080534Y0113768D01*
X0080636Y0113782D01*
X0080739Y0113792D01*
X0080843Y0113798D01*
X0080946Y0113800D01*
X0081049Y0113798D01*
X0081153Y0113792D01*
X0081256Y0113782D01*
X0081358Y0113768D01*
X0081460Y0113751D01*
X0081561Y0113729D01*
X0081661Y0113703D01*
X0081761Y0113674D01*
X0081859Y0113641D01*
X0081955Y0113604D01*
X0082050Y0113564D01*
X0082144Y0113520D01*
X0082236Y0113472D01*
X0082326Y0113421D01*
X0082414Y0113366D01*
X0082499Y0113308D01*
X0082583Y0113247D01*
X0082664Y0113183D01*
X0082742Y0113116D01*
X0082818Y0113045D01*
X0082891Y0112972D01*
X0082962Y0112896D01*
X0083029Y0112818D01*
X0083093Y0112737D01*
X0083154Y0112653D01*
X0083212Y0112568D01*
X0083267Y0112480D01*
X0083318Y0112390D01*
X0083366Y0112298D01*
X0083410Y0112204D01*
X0083450Y0112109D01*
X0083487Y0112013D01*
X0083520Y0111915D01*
X0083549Y0111815D01*
X0083575Y0111715D01*
X0083597Y0111614D01*
X0083614Y0111512D01*
X0083628Y0111410D01*
X0083638Y0111307D01*
X0083644Y0111203D01*
X0083646Y0111100D01*
X0083644Y0110997D01*
X0083638Y0110893D01*
X0083628Y0110790D01*
X0083614Y0110688D01*
X0083597Y0110586D01*
X0083575Y0110485D01*
X0083549Y0110385D01*
X0083520Y0110285D01*
X0083487Y0110187D01*
X0083450Y0110091D01*
X0083410Y0109996D01*
X0083366Y0109902D01*
X0083318Y0109810D01*
X0083267Y0109720D01*
X0083212Y0109632D01*
X0083154Y0109547D01*
X0083093Y0109463D01*
X0083029Y0109382D01*
X0082962Y0109304D01*
X0082891Y0109228D01*
X0082818Y0109155D01*
X0082742Y0109084D01*
X0082664Y0109017D01*
X0082583Y0108953D01*
X0082499Y0108892D01*
X0082414Y0108834D01*
X0082326Y0108779D01*
X0082236Y0108728D01*
X0082144Y0108680D01*
X0082050Y0108636D01*
X0081955Y0108596D01*
X0081859Y0108559D01*
X0081761Y0108526D01*
X0081661Y0108497D01*
X0081561Y0108471D01*
X0081460Y0108449D01*
X0081358Y0108432D01*
X0081256Y0108418D01*
X0081153Y0108408D01*
X0081049Y0108402D01*
X0080946Y0108400D01*
X0080843Y0108402D01*
X0080739Y0108408D01*
X0080636Y0108418D01*
X0080534Y0108432D01*
X0080432Y0108449D01*
X0080331Y0108471D01*
X0080231Y0108497D01*
X0080131Y0108526D01*
X0080033Y0108559D01*
X0079937Y0108596D01*
X0079842Y0108636D01*
X0079748Y0108680D01*
X0079656Y0108728D01*
X0079566Y0108779D01*
X0079478Y0108834D01*
X0079393Y0108892D01*
X0079309Y0108953D01*
X0079228Y0109017D01*
X0079150Y0109084D01*
X0079074Y0109155D01*
X0079001Y0109228D01*
X0078930Y0109304D01*
X0078863Y0109382D01*
X0078799Y0109463D01*
X0078738Y0109547D01*
X0078680Y0109632D01*
X0078625Y0109720D01*
X0078574Y0109810D01*
X0078526Y0109902D01*
X0078482Y0109996D01*
X0078442Y0110091D01*
X0078405Y0110187D01*
X0078372Y0110285D01*
X0078343Y0110385D01*
X0078317Y0110485D01*
X0078295Y0110586D01*
X0078278Y0110688D01*
X0078264Y0110790D01*
X0078254Y0110893D01*
X0078248Y0110997D01*
X0078246Y0111100D01*
X0057346Y0111100D02*
X0057348Y0111203D01*
X0057354Y0111307D01*
X0057364Y0111410D01*
X0057378Y0111512D01*
X0057395Y0111614D01*
X0057417Y0111715D01*
X0057443Y0111815D01*
X0057472Y0111915D01*
X0057505Y0112013D01*
X0057542Y0112109D01*
X0057582Y0112204D01*
X0057626Y0112298D01*
X0057674Y0112390D01*
X0057725Y0112480D01*
X0057780Y0112568D01*
X0057838Y0112653D01*
X0057899Y0112737D01*
X0057963Y0112818D01*
X0058030Y0112896D01*
X0058101Y0112972D01*
X0058174Y0113045D01*
X0058250Y0113116D01*
X0058328Y0113183D01*
X0058409Y0113247D01*
X0058493Y0113308D01*
X0058578Y0113366D01*
X0058666Y0113421D01*
X0058756Y0113472D01*
X0058848Y0113520D01*
X0058942Y0113564D01*
X0059037Y0113604D01*
X0059133Y0113641D01*
X0059231Y0113674D01*
X0059331Y0113703D01*
X0059431Y0113729D01*
X0059532Y0113751D01*
X0059634Y0113768D01*
X0059736Y0113782D01*
X0059839Y0113792D01*
X0059943Y0113798D01*
X0060046Y0113800D01*
X0060149Y0113798D01*
X0060253Y0113792D01*
X0060356Y0113782D01*
X0060458Y0113768D01*
X0060560Y0113751D01*
X0060661Y0113729D01*
X0060761Y0113703D01*
X0060861Y0113674D01*
X0060959Y0113641D01*
X0061055Y0113604D01*
X0061150Y0113564D01*
X0061244Y0113520D01*
X0061336Y0113472D01*
X0061426Y0113421D01*
X0061514Y0113366D01*
X0061599Y0113308D01*
X0061683Y0113247D01*
X0061764Y0113183D01*
X0061842Y0113116D01*
X0061918Y0113045D01*
X0061991Y0112972D01*
X0062062Y0112896D01*
X0062129Y0112818D01*
X0062193Y0112737D01*
X0062254Y0112653D01*
X0062312Y0112568D01*
X0062367Y0112480D01*
X0062418Y0112390D01*
X0062466Y0112298D01*
X0062510Y0112204D01*
X0062550Y0112109D01*
X0062587Y0112013D01*
X0062620Y0111915D01*
X0062649Y0111815D01*
X0062675Y0111715D01*
X0062697Y0111614D01*
X0062714Y0111512D01*
X0062728Y0111410D01*
X0062738Y0111307D01*
X0062744Y0111203D01*
X0062746Y0111100D01*
X0062744Y0110997D01*
X0062738Y0110893D01*
X0062728Y0110790D01*
X0062714Y0110688D01*
X0062697Y0110586D01*
X0062675Y0110485D01*
X0062649Y0110385D01*
X0062620Y0110285D01*
X0062587Y0110187D01*
X0062550Y0110091D01*
X0062510Y0109996D01*
X0062466Y0109902D01*
X0062418Y0109810D01*
X0062367Y0109720D01*
X0062312Y0109632D01*
X0062254Y0109547D01*
X0062193Y0109463D01*
X0062129Y0109382D01*
X0062062Y0109304D01*
X0061991Y0109228D01*
X0061918Y0109155D01*
X0061842Y0109084D01*
X0061764Y0109017D01*
X0061683Y0108953D01*
X0061599Y0108892D01*
X0061514Y0108834D01*
X0061426Y0108779D01*
X0061336Y0108728D01*
X0061244Y0108680D01*
X0061150Y0108636D01*
X0061055Y0108596D01*
X0060959Y0108559D01*
X0060861Y0108526D01*
X0060761Y0108497D01*
X0060661Y0108471D01*
X0060560Y0108449D01*
X0060458Y0108432D01*
X0060356Y0108418D01*
X0060253Y0108408D01*
X0060149Y0108402D01*
X0060046Y0108400D01*
X0059943Y0108402D01*
X0059839Y0108408D01*
X0059736Y0108418D01*
X0059634Y0108432D01*
X0059532Y0108449D01*
X0059431Y0108471D01*
X0059331Y0108497D01*
X0059231Y0108526D01*
X0059133Y0108559D01*
X0059037Y0108596D01*
X0058942Y0108636D01*
X0058848Y0108680D01*
X0058756Y0108728D01*
X0058666Y0108779D01*
X0058578Y0108834D01*
X0058493Y0108892D01*
X0058409Y0108953D01*
X0058328Y0109017D01*
X0058250Y0109084D01*
X0058174Y0109155D01*
X0058101Y0109228D01*
X0058030Y0109304D01*
X0057963Y0109382D01*
X0057899Y0109463D01*
X0057838Y0109547D01*
X0057780Y0109632D01*
X0057725Y0109720D01*
X0057674Y0109810D01*
X0057626Y0109902D01*
X0057582Y0109996D01*
X0057542Y0110091D01*
X0057505Y0110187D01*
X0057472Y0110285D01*
X0057443Y0110385D01*
X0057417Y0110485D01*
X0057395Y0110586D01*
X0057378Y0110688D01*
X0057364Y0110790D01*
X0057354Y0110893D01*
X0057348Y0110997D01*
X0057346Y0111100D01*
D13*
X0056246Y0111000D02*
X0054646Y0110200D01*
X0053846Y0110200D01*
X0052646Y0110600D01*
X0051446Y0109800D01*
X0053446Y0111400D02*
X0056246Y0112200D01*
X0056246Y0111000D01*
X0053446Y0111400D02*
X0057046Y0113800D01*
X0059046Y0115000D02*
X0064646Y0115000D01*
X0064646Y0115800D01*
X0064646Y0115000D02*
X0067046Y0115000D01*
X0066246Y0114200D02*
X0071046Y0114200D01*
X0071846Y0114200D01*
X0073446Y0111800D01*
X0076646Y0111800D01*
X0077446Y0112600D01*
X0073446Y0111000D01*
X0073446Y0111800D02*
X0078246Y0114200D01*
X0083046Y0114200D01*
X0083846Y0115000D01*
X0080646Y0115000D01*
X0083346Y0115700D01*
X0081446Y0115800D02*
X0073446Y0113400D01*
X0078346Y0110700D02*
X0063346Y0110700D01*
X0063846Y0111000D02*
X0063846Y0113400D01*
X0064646Y0111800D01*
X0062246Y0114200D01*
X0063846Y0114200D02*
X0066246Y0114200D01*
X0083846Y0112600D02*
X0083907Y0112730D01*
X0083964Y0112861D01*
X0084018Y0112993D01*
X0084068Y0113127D01*
X0084115Y0113262D01*
X0084158Y0113399D01*
X0084197Y0113536D01*
X0084233Y0113675D01*
X0084265Y0113814D01*
X0084293Y0113955D01*
X0084317Y0114096D01*
X0084338Y0114237D01*
X0084354Y0114379D01*
X0084367Y0114522D01*
X0084376Y0114665D01*
X0084382Y0114807D01*
X0084383Y0114950D01*
X0084380Y0115094D01*
X0084374Y0115236D01*
X0084364Y0115379D01*
X0084350Y0115521D01*
X0084332Y0115663D01*
X0084311Y0115805D01*
X0084285Y0115946D01*
X0084256Y0116086D01*
X0084223Y0116225D01*
X0084186Y0116363D01*
X0084146Y0116500D01*
D14*
X0073446Y0111000D02*
X0071046Y0114200D01*
X0068646Y0114200D02*
X0071046Y0111000D01*
X0068646Y0111000D02*
X0066246Y0114200D01*
X0064646Y0113400D02*
X0066246Y0111000D01*
X0065046Y0109000D02*
X0075846Y0109000D01*
X0056646Y0110200D02*
X0057046Y0113800D01*
D15*
X0059147Y0114800D02*
X0058933Y0114803D01*
X0058719Y0114801D01*
X0058505Y0114794D01*
X0058291Y0114781D01*
X0058078Y0114764D01*
X0057865Y0114741D01*
X0057652Y0114714D01*
X0057441Y0114681D01*
X0057230Y0114643D01*
X0057020Y0114600D01*
X0056812Y0114552D01*
X0056604Y0114499D01*
X0056398Y0114441D01*
X0056194Y0114378D01*
X0055990Y0114311D01*
X0055789Y0114238D01*
X0055589Y0114161D01*
X0055392Y0114078D01*
X0055196Y0113991D01*
X0055003Y0113900D01*
X0054811Y0113803D01*
X0054623Y0113703D01*
X0054436Y0113597D01*
X0054252Y0113487D01*
X0054071Y0113373D01*
X0053893Y0113255D01*
X0053718Y0113132D01*
X0053545Y0113005D01*
X0053376Y0112874D01*
X0053210Y0112739D01*
X0053047Y0112600D01*
D16*
X0069685Y0044539D02*
X0071654Y0044539D01*
X0069685Y0044539D02*
X0069685Y0046507D01*
X0085039Y0044539D02*
X0087008Y0044539D01*
X0087008Y0046507D01*
X0087008Y0059893D02*
X0087008Y0061861D01*
X0085039Y0061861D01*
X0071654Y0061861D02*
X0069685Y0061861D01*
X0069685Y0059893D01*
X0105610Y0082019D02*
X0105610Y0084381D01*
X0113484Y0089893D02*
X0118209Y0089893D01*
X0126083Y0084381D02*
X0126083Y0082019D01*
X0134547Y0084499D02*
X0134547Y0058298D01*
X0135945Y0056901D01*
X0162146Y0056901D01*
X0162146Y0084499D01*
X0134547Y0084499D01*
X0118209Y0076507D02*
X0113484Y0076507D01*
X0133346Y0056200D02*
X0133348Y0056249D01*
X0133354Y0056297D01*
X0133364Y0056345D01*
X0133378Y0056392D01*
X0133395Y0056438D01*
X0133416Y0056482D01*
X0133441Y0056524D01*
X0133469Y0056564D01*
X0133501Y0056602D01*
X0133535Y0056637D01*
X0133572Y0056669D01*
X0133611Y0056698D01*
X0133653Y0056724D01*
X0133697Y0056746D01*
X0133742Y0056764D01*
X0133789Y0056779D01*
X0133836Y0056790D01*
X0133885Y0056797D01*
X0133934Y0056800D01*
X0133983Y0056799D01*
X0134031Y0056794D01*
X0134080Y0056785D01*
X0134127Y0056772D01*
X0134173Y0056755D01*
X0134217Y0056735D01*
X0134260Y0056711D01*
X0134301Y0056684D01*
X0134339Y0056653D01*
X0134375Y0056620D01*
X0134407Y0056584D01*
X0134437Y0056545D01*
X0134464Y0056504D01*
X0134487Y0056460D01*
X0134506Y0056415D01*
X0134522Y0056369D01*
X0134534Y0056322D01*
X0134542Y0056273D01*
X0134546Y0056224D01*
X0134546Y0056176D01*
X0134542Y0056127D01*
X0134534Y0056078D01*
X0134522Y0056031D01*
X0134506Y0055985D01*
X0134487Y0055940D01*
X0134464Y0055896D01*
X0134437Y0055855D01*
X0134407Y0055816D01*
X0134375Y0055780D01*
X0134339Y0055747D01*
X0134301Y0055716D01*
X0134260Y0055689D01*
X0134217Y0055665D01*
X0134173Y0055645D01*
X0134127Y0055628D01*
X0134080Y0055615D01*
X0134031Y0055606D01*
X0133983Y0055601D01*
X0133934Y0055600D01*
X0133885Y0055603D01*
X0133836Y0055610D01*
X0133789Y0055621D01*
X0133742Y0055636D01*
X0133697Y0055654D01*
X0133653Y0055676D01*
X0133611Y0055702D01*
X0133572Y0055731D01*
X0133535Y0055763D01*
X0133501Y0055798D01*
X0133469Y0055836D01*
X0133441Y0055876D01*
X0133416Y0055918D01*
X0133395Y0055962D01*
X0133378Y0056008D01*
X0133364Y0056055D01*
X0133354Y0056103D01*
X0133348Y0056151D01*
X0133346Y0056200D01*
X0052546Y0111500D02*
X0052424Y0111448D01*
X0052303Y0111394D01*
X0052184Y0111335D01*
X0052067Y0111273D01*
X0051951Y0111208D01*
X0051838Y0111139D01*
X0051727Y0111067D01*
X0051618Y0110992D01*
X0051511Y0110913D01*
X0051407Y0110831D01*
X0051305Y0110746D01*
X0051206Y0110658D01*
X0051109Y0110567D01*
X0051015Y0110474D01*
X0050924Y0110377D01*
X0050836Y0110278D01*
X0050751Y0110176D01*
X0050669Y0110072D01*
X0050590Y0109965D01*
X0050515Y0109857D01*
X0050443Y0109745D01*
X0050374Y0109632D01*
X0050308Y0109517D01*
X0050246Y0109400D01*
X0055046Y0109400D01*
X0056646Y0110200D01*
X0052646Y0111800D02*
X0052246Y0112600D01*
X0053346Y0113200D01*
D17*
X0053354Y0105650D02*
X0053354Y0102472D01*
X0053353Y0102472D02*
X0053351Y0102403D01*
X0053345Y0102335D01*
X0053336Y0102267D01*
X0053322Y0102200D01*
X0053305Y0102134D01*
X0053284Y0102068D01*
X0053260Y0102004D01*
X0053232Y0101942D01*
X0053201Y0101881D01*
X0053166Y0101822D01*
X0053128Y0101765D01*
X0053086Y0101710D01*
X0053042Y0101658D01*
X0052995Y0101608D01*
X0052945Y0101561D01*
X0052893Y0101517D01*
X0052838Y0101475D01*
X0052781Y0101437D01*
X0052722Y0101402D01*
X0052661Y0101371D01*
X0052599Y0101343D01*
X0052535Y0101319D01*
X0052469Y0101298D01*
X0052403Y0101281D01*
X0052336Y0101267D01*
X0052268Y0101258D01*
X0052200Y0101252D01*
X0052131Y0101250D01*
X0052062Y0101252D01*
X0051994Y0101258D01*
X0051926Y0101267D01*
X0051859Y0101281D01*
X0051793Y0101298D01*
X0051727Y0101319D01*
X0051663Y0101343D01*
X0051601Y0101371D01*
X0051540Y0101402D01*
X0051481Y0101437D01*
X0051424Y0101475D01*
X0051369Y0101517D01*
X0051317Y0101561D01*
X0051267Y0101608D01*
X0051220Y0101658D01*
X0051176Y0101710D01*
X0051134Y0101765D01*
X0051096Y0101822D01*
X0051061Y0101881D01*
X0051030Y0101942D01*
X0051002Y0102004D01*
X0050978Y0102068D01*
X0050957Y0102134D01*
X0050940Y0102200D01*
X0050926Y0102267D01*
X0050917Y0102335D01*
X0050911Y0102403D01*
X0050909Y0102472D01*
X0050909Y0105650D01*
X0048018Y0105650D02*
X0046796Y0105650D01*
X0048018Y0105650D02*
X0048018Y0101250D01*
X0045573Y0101250D02*
X0046551Y0103206D01*
X0046796Y0103206D02*
X0048018Y0103206D01*
X0046796Y0103206D02*
X0046727Y0103208D01*
X0046659Y0103214D01*
X0046591Y0103223D01*
X0046524Y0103237D01*
X0046458Y0103254D01*
X0046392Y0103275D01*
X0046328Y0103299D01*
X0046266Y0103327D01*
X0046205Y0103358D01*
X0046146Y0103393D01*
X0046089Y0103431D01*
X0046034Y0103473D01*
X0045982Y0103517D01*
X0045932Y0103564D01*
X0045885Y0103614D01*
X0045841Y0103666D01*
X0045799Y0103721D01*
X0045761Y0103778D01*
X0045726Y0103837D01*
X0045695Y0103898D01*
X0045667Y0103960D01*
X0045643Y0104024D01*
X0045622Y0104090D01*
X0045605Y0104156D01*
X0045591Y0104223D01*
X0045582Y0104291D01*
X0045576Y0104359D01*
X0045574Y0104428D01*
X0045576Y0104497D01*
X0045582Y0104565D01*
X0045591Y0104633D01*
X0045605Y0104700D01*
X0045622Y0104766D01*
X0045643Y0104832D01*
X0045667Y0104896D01*
X0045695Y0104958D01*
X0045726Y0105019D01*
X0045761Y0105078D01*
X0045799Y0105135D01*
X0045841Y0105190D01*
X0045885Y0105242D01*
X0045932Y0105292D01*
X0045982Y0105339D01*
X0046034Y0105383D01*
X0046089Y0105425D01*
X0046146Y0105463D01*
X0046205Y0105498D01*
X0046266Y0105529D01*
X0046328Y0105557D01*
X0046392Y0105581D01*
X0046458Y0105602D01*
X0046524Y0105619D01*
X0046591Y0105633D01*
X0046659Y0105642D01*
X0046727Y0105648D01*
X0046796Y0105650D01*
X0042678Y0103817D02*
X0041333Y0103083D01*
X0041822Y0101250D02*
X0041913Y0101252D01*
X0042003Y0101258D01*
X0042093Y0101268D01*
X0042183Y0101282D01*
X0042272Y0101299D01*
X0042360Y0101321D01*
X0042446Y0101347D01*
X0042532Y0101376D01*
X0042617Y0101409D01*
X0042699Y0101446D01*
X0042781Y0101486D01*
X0042860Y0101530D01*
X0042937Y0101577D01*
X0043013Y0101627D01*
X0043085Y0101681D01*
X0043156Y0101738D01*
X0043224Y0101798D01*
X0043289Y0101861D01*
X0041333Y0103084D02*
X0041282Y0103051D01*
X0041232Y0103016D01*
X0041185Y0102977D01*
X0041141Y0102936D01*
X0041099Y0102892D01*
X0041060Y0102846D01*
X0041024Y0102797D01*
X0040990Y0102747D01*
X0040960Y0102694D01*
X0040933Y0102640D01*
X0040910Y0102584D01*
X0040890Y0102527D01*
X0040873Y0102468D01*
X0040861Y0102409D01*
X0040851Y0102349D01*
X0040846Y0102289D01*
X0040844Y0102228D01*
X0040846Y0102167D01*
X0040852Y0102105D01*
X0040861Y0102045D01*
X0040875Y0101985D01*
X0040892Y0101926D01*
X0040913Y0101868D01*
X0040937Y0101812D01*
X0040965Y0101757D01*
X0040996Y0101704D01*
X0041031Y0101653D01*
X0041068Y0101605D01*
X0041109Y0101559D01*
X0041153Y0101515D01*
X0041199Y0101474D01*
X0041247Y0101437D01*
X0041298Y0101402D01*
X0041351Y0101371D01*
X0041406Y0101343D01*
X0041462Y0101319D01*
X0041520Y0101298D01*
X0041579Y0101281D01*
X0041639Y0101267D01*
X0041699Y0101258D01*
X0041761Y0101252D01*
X0041822Y0101250D01*
X0041089Y0105283D02*
X0041158Y0105332D01*
X0041228Y0105378D01*
X0041301Y0105421D01*
X0041376Y0105460D01*
X0041452Y0105495D01*
X0041530Y0105527D01*
X0041609Y0105556D01*
X0041690Y0105581D01*
X0041771Y0105602D01*
X0041854Y0105619D01*
X0041937Y0105633D01*
X0042021Y0105642D01*
X0042105Y0105648D01*
X0042189Y0105650D01*
X0042250Y0105648D01*
X0042312Y0105642D01*
X0042372Y0105633D01*
X0042432Y0105619D01*
X0042491Y0105602D01*
X0042549Y0105581D01*
X0042605Y0105557D01*
X0042660Y0105529D01*
X0042713Y0105498D01*
X0042764Y0105463D01*
X0042812Y0105426D01*
X0042858Y0105385D01*
X0042902Y0105341D01*
X0042943Y0105295D01*
X0042980Y0105247D01*
X0043015Y0105196D01*
X0043046Y0105143D01*
X0043074Y0105088D01*
X0043098Y0105032D01*
X0043119Y0104974D01*
X0043136Y0104915D01*
X0043150Y0104855D01*
X0043159Y0104795D01*
X0043165Y0104733D01*
X0043167Y0104672D01*
X0043166Y0104672D02*
X0043164Y0104611D01*
X0043159Y0104551D01*
X0043149Y0104491D01*
X0043137Y0104432D01*
X0043120Y0104373D01*
X0043100Y0104316D01*
X0043077Y0104260D01*
X0043050Y0104206D01*
X0043020Y0104153D01*
X0042986Y0104103D01*
X0042950Y0104054D01*
X0042911Y0104008D01*
X0042869Y0103964D01*
X0042825Y0103923D01*
X0042778Y0103884D01*
X0042728Y0103849D01*
X0042677Y0103816D01*
X0056024Y0104428D02*
X0056024Y0102472D01*
X0056026Y0102403D01*
X0056032Y0102335D01*
X0056041Y0102267D01*
X0056055Y0102200D01*
X0056072Y0102134D01*
X0056093Y0102068D01*
X0056117Y0102004D01*
X0056145Y0101942D01*
X0056176Y0101881D01*
X0056211Y0101822D01*
X0056249Y0101765D01*
X0056291Y0101710D01*
X0056335Y0101658D01*
X0056382Y0101608D01*
X0056432Y0101561D01*
X0056484Y0101517D01*
X0056539Y0101475D01*
X0056596Y0101437D01*
X0056655Y0101402D01*
X0056716Y0101371D01*
X0056778Y0101343D01*
X0056842Y0101319D01*
X0056908Y0101298D01*
X0056974Y0101281D01*
X0057041Y0101267D01*
X0057109Y0101258D01*
X0057177Y0101252D01*
X0057246Y0101250D01*
X0057315Y0101252D01*
X0057383Y0101258D01*
X0057451Y0101267D01*
X0057518Y0101281D01*
X0057584Y0101298D01*
X0057650Y0101319D01*
X0057714Y0101343D01*
X0057776Y0101371D01*
X0057837Y0101402D01*
X0057896Y0101437D01*
X0057953Y0101475D01*
X0058008Y0101517D01*
X0058060Y0101561D01*
X0058110Y0101608D01*
X0058157Y0101658D01*
X0058201Y0101710D01*
X0058243Y0101765D01*
X0058281Y0101822D01*
X0058316Y0101881D01*
X0058347Y0101942D01*
X0058375Y0102004D01*
X0058399Y0102068D01*
X0058420Y0102134D01*
X0058437Y0102200D01*
X0058451Y0102267D01*
X0058460Y0102335D01*
X0058466Y0102403D01*
X0058468Y0102472D01*
X0058469Y0102472D02*
X0058469Y0104428D01*
X0058468Y0104428D02*
X0058466Y0104497D01*
X0058460Y0104565D01*
X0058451Y0104633D01*
X0058437Y0104700D01*
X0058420Y0104766D01*
X0058399Y0104832D01*
X0058375Y0104896D01*
X0058347Y0104958D01*
X0058316Y0105019D01*
X0058281Y0105078D01*
X0058243Y0105135D01*
X0058201Y0105190D01*
X0058157Y0105242D01*
X0058110Y0105292D01*
X0058060Y0105339D01*
X0058008Y0105383D01*
X0057953Y0105425D01*
X0057896Y0105463D01*
X0057837Y0105498D01*
X0057776Y0105529D01*
X0057714Y0105557D01*
X0057650Y0105581D01*
X0057584Y0105602D01*
X0057518Y0105619D01*
X0057451Y0105633D01*
X0057383Y0105642D01*
X0057315Y0105648D01*
X0057246Y0105650D01*
X0057177Y0105648D01*
X0057109Y0105642D01*
X0057041Y0105633D01*
X0056974Y0105619D01*
X0056908Y0105602D01*
X0056842Y0105581D01*
X0056778Y0105557D01*
X0056716Y0105529D01*
X0056655Y0105498D01*
X0056596Y0105463D01*
X0056539Y0105425D01*
X0056484Y0105383D01*
X0056432Y0105339D01*
X0056382Y0105292D01*
X0056335Y0105242D01*
X0056291Y0105190D01*
X0056249Y0105135D01*
X0056211Y0105078D01*
X0056176Y0105019D01*
X0056145Y0104958D01*
X0056117Y0104896D01*
X0056093Y0104832D01*
X0056072Y0104766D01*
X0056055Y0104700D01*
X0056041Y0104633D01*
X0056032Y0104565D01*
X0056026Y0104497D01*
X0056024Y0104428D01*
X0060663Y0105650D02*
X0061641Y0105650D01*
X0061702Y0105648D01*
X0061764Y0105642D01*
X0061824Y0105633D01*
X0061884Y0105619D01*
X0061943Y0105602D01*
X0062001Y0105581D01*
X0062057Y0105557D01*
X0062112Y0105529D01*
X0062165Y0105498D01*
X0062216Y0105463D01*
X0062264Y0105426D01*
X0062310Y0105385D01*
X0062354Y0105341D01*
X0062395Y0105295D01*
X0062432Y0105247D01*
X0062467Y0105196D01*
X0062498Y0105143D01*
X0062526Y0105088D01*
X0062550Y0105032D01*
X0062571Y0104974D01*
X0062588Y0104915D01*
X0062602Y0104855D01*
X0062611Y0104795D01*
X0062617Y0104733D01*
X0062619Y0104672D01*
X0062619Y0102228D01*
X0062617Y0102167D01*
X0062611Y0102105D01*
X0062602Y0102045D01*
X0062588Y0101985D01*
X0062571Y0101926D01*
X0062550Y0101868D01*
X0062526Y0101812D01*
X0062498Y0101757D01*
X0062467Y0101704D01*
X0062432Y0101653D01*
X0062395Y0101605D01*
X0062354Y0101559D01*
X0062310Y0101515D01*
X0062264Y0101474D01*
X0062216Y0101437D01*
X0062165Y0101402D01*
X0062112Y0101371D01*
X0062057Y0101343D01*
X0062001Y0101319D01*
X0061943Y0101298D01*
X0061884Y0101281D01*
X0061824Y0101267D01*
X0061764Y0101258D01*
X0061702Y0101252D01*
X0061641Y0101250D01*
X0060663Y0101250D01*
X0067904Y0101250D02*
X0067904Y0105650D01*
X0070349Y0105650D02*
X0067904Y0101250D01*
X0070349Y0101250D02*
X0070349Y0105650D01*
X0072666Y0105650D02*
X0074621Y0105650D01*
X0074621Y0101250D01*
X0072666Y0101250D01*
X0073155Y0103694D02*
X0074621Y0103694D01*
X0079596Y0105650D02*
X0081551Y0105650D01*
X0081551Y0101250D01*
X0079596Y0101250D01*
X0080085Y0103694D02*
X0081551Y0103694D01*
X0084563Y0103083D02*
X0085907Y0103817D01*
X0085419Y0105650D02*
X0085335Y0105648D01*
X0085251Y0105642D01*
X0085167Y0105633D01*
X0085084Y0105619D01*
X0085001Y0105602D01*
X0084920Y0105581D01*
X0084839Y0105556D01*
X0084760Y0105527D01*
X0084682Y0105495D01*
X0084606Y0105460D01*
X0084531Y0105421D01*
X0084458Y0105378D01*
X0084388Y0105332D01*
X0084319Y0105283D01*
X0085907Y0103816D02*
X0085958Y0103849D01*
X0086008Y0103884D01*
X0086055Y0103923D01*
X0086099Y0103964D01*
X0086141Y0104008D01*
X0086180Y0104054D01*
X0086216Y0104103D01*
X0086250Y0104153D01*
X0086280Y0104206D01*
X0086307Y0104260D01*
X0086330Y0104316D01*
X0086350Y0104373D01*
X0086367Y0104432D01*
X0086379Y0104491D01*
X0086389Y0104551D01*
X0086394Y0104611D01*
X0086396Y0104672D01*
X0086397Y0104672D02*
X0086395Y0104733D01*
X0086389Y0104795D01*
X0086380Y0104855D01*
X0086366Y0104915D01*
X0086349Y0104974D01*
X0086328Y0105032D01*
X0086304Y0105088D01*
X0086276Y0105143D01*
X0086245Y0105196D01*
X0086210Y0105247D01*
X0086173Y0105295D01*
X0086132Y0105341D01*
X0086088Y0105385D01*
X0086042Y0105426D01*
X0085994Y0105463D01*
X0085943Y0105498D01*
X0085890Y0105529D01*
X0085835Y0105557D01*
X0085779Y0105581D01*
X0085721Y0105602D01*
X0085662Y0105619D01*
X0085602Y0105633D01*
X0085542Y0105642D01*
X0085480Y0105648D01*
X0085419Y0105650D01*
X0086519Y0101861D02*
X0086454Y0101798D01*
X0086386Y0101738D01*
X0086315Y0101681D01*
X0086243Y0101627D01*
X0086167Y0101577D01*
X0086090Y0101530D01*
X0086011Y0101486D01*
X0085929Y0101446D01*
X0085847Y0101409D01*
X0085762Y0101376D01*
X0085676Y0101347D01*
X0085590Y0101321D01*
X0085502Y0101299D01*
X0085413Y0101282D01*
X0085323Y0101268D01*
X0085233Y0101258D01*
X0085143Y0101252D01*
X0085052Y0101250D01*
X0084991Y0101252D01*
X0084929Y0101258D01*
X0084869Y0101267D01*
X0084809Y0101281D01*
X0084750Y0101298D01*
X0084692Y0101319D01*
X0084636Y0101343D01*
X0084581Y0101371D01*
X0084528Y0101402D01*
X0084477Y0101437D01*
X0084429Y0101474D01*
X0084383Y0101515D01*
X0084339Y0101559D01*
X0084298Y0101605D01*
X0084261Y0101653D01*
X0084226Y0101704D01*
X0084195Y0101757D01*
X0084167Y0101812D01*
X0084143Y0101868D01*
X0084122Y0101926D01*
X0084105Y0101985D01*
X0084091Y0102045D01*
X0084082Y0102105D01*
X0084076Y0102167D01*
X0084074Y0102228D01*
X0084076Y0102289D01*
X0084081Y0102349D01*
X0084091Y0102409D01*
X0084103Y0102468D01*
X0084120Y0102527D01*
X0084140Y0102584D01*
X0084163Y0102640D01*
X0084190Y0102694D01*
X0084220Y0102747D01*
X0084254Y0102797D01*
X0084290Y0102846D01*
X0084329Y0102892D01*
X0084371Y0102936D01*
X0084415Y0102977D01*
X0084462Y0103016D01*
X0084512Y0103051D01*
X0084563Y0103084D01*
X0088803Y0101250D02*
X0089781Y0103206D01*
X0090026Y0103206D02*
X0091248Y0103206D01*
X0090026Y0103206D02*
X0089957Y0103208D01*
X0089889Y0103214D01*
X0089821Y0103223D01*
X0089754Y0103237D01*
X0089688Y0103254D01*
X0089622Y0103275D01*
X0089558Y0103299D01*
X0089496Y0103327D01*
X0089435Y0103358D01*
X0089376Y0103393D01*
X0089319Y0103431D01*
X0089264Y0103473D01*
X0089212Y0103517D01*
X0089162Y0103564D01*
X0089115Y0103614D01*
X0089071Y0103666D01*
X0089029Y0103721D01*
X0088991Y0103778D01*
X0088956Y0103837D01*
X0088925Y0103898D01*
X0088897Y0103960D01*
X0088873Y0104024D01*
X0088852Y0104090D01*
X0088835Y0104156D01*
X0088821Y0104223D01*
X0088812Y0104291D01*
X0088806Y0104359D01*
X0088804Y0104428D01*
X0088806Y0104497D01*
X0088812Y0104565D01*
X0088821Y0104633D01*
X0088835Y0104700D01*
X0088852Y0104766D01*
X0088873Y0104832D01*
X0088897Y0104896D01*
X0088925Y0104958D01*
X0088956Y0105019D01*
X0088991Y0105078D01*
X0089029Y0105135D01*
X0089071Y0105190D01*
X0089115Y0105242D01*
X0089162Y0105292D01*
X0089212Y0105339D01*
X0089264Y0105383D01*
X0089319Y0105425D01*
X0089376Y0105463D01*
X0089435Y0105498D01*
X0089496Y0105529D01*
X0089558Y0105557D01*
X0089622Y0105581D01*
X0089688Y0105602D01*
X0089754Y0105619D01*
X0089821Y0105633D01*
X0089889Y0105642D01*
X0089957Y0105648D01*
X0090026Y0105650D01*
X0091248Y0105650D01*
X0091248Y0101250D01*
X0094139Y0102472D02*
X0094139Y0105650D01*
X0096584Y0105650D02*
X0096584Y0102472D01*
X0096583Y0102472D02*
X0096581Y0102403D01*
X0096575Y0102335D01*
X0096566Y0102267D01*
X0096552Y0102200D01*
X0096535Y0102134D01*
X0096514Y0102068D01*
X0096490Y0102004D01*
X0096462Y0101942D01*
X0096431Y0101881D01*
X0096396Y0101822D01*
X0096358Y0101765D01*
X0096316Y0101710D01*
X0096272Y0101658D01*
X0096225Y0101608D01*
X0096175Y0101561D01*
X0096123Y0101517D01*
X0096068Y0101475D01*
X0096011Y0101437D01*
X0095952Y0101402D01*
X0095891Y0101371D01*
X0095829Y0101343D01*
X0095765Y0101319D01*
X0095699Y0101298D01*
X0095633Y0101281D01*
X0095566Y0101267D01*
X0095498Y0101258D01*
X0095430Y0101252D01*
X0095361Y0101250D01*
X0095292Y0101252D01*
X0095224Y0101258D01*
X0095156Y0101267D01*
X0095089Y0101281D01*
X0095023Y0101298D01*
X0094957Y0101319D01*
X0094893Y0101343D01*
X0094831Y0101371D01*
X0094770Y0101402D01*
X0094711Y0101437D01*
X0094654Y0101475D01*
X0094599Y0101517D01*
X0094547Y0101561D01*
X0094497Y0101608D01*
X0094450Y0101658D01*
X0094406Y0101710D01*
X0094364Y0101765D01*
X0094326Y0101822D01*
X0094291Y0101881D01*
X0094260Y0101942D01*
X0094232Y0102004D01*
X0094208Y0102068D01*
X0094187Y0102134D01*
X0094170Y0102200D01*
X0094156Y0102267D01*
X0094147Y0102335D01*
X0094141Y0102403D01*
X0094139Y0102472D01*
X0099254Y0102472D02*
X0099254Y0104428D01*
X0099256Y0104497D01*
X0099262Y0104565D01*
X0099271Y0104633D01*
X0099285Y0104700D01*
X0099302Y0104766D01*
X0099323Y0104832D01*
X0099347Y0104896D01*
X0099375Y0104958D01*
X0099406Y0105019D01*
X0099441Y0105078D01*
X0099479Y0105135D01*
X0099521Y0105190D01*
X0099565Y0105242D01*
X0099612Y0105292D01*
X0099662Y0105339D01*
X0099714Y0105383D01*
X0099769Y0105425D01*
X0099826Y0105463D01*
X0099885Y0105498D01*
X0099946Y0105529D01*
X0100008Y0105557D01*
X0100072Y0105581D01*
X0100138Y0105602D01*
X0100204Y0105619D01*
X0100271Y0105633D01*
X0100339Y0105642D01*
X0100407Y0105648D01*
X0100476Y0105650D01*
X0100545Y0105648D01*
X0100613Y0105642D01*
X0100681Y0105633D01*
X0100748Y0105619D01*
X0100814Y0105602D01*
X0100880Y0105581D01*
X0100944Y0105557D01*
X0101006Y0105529D01*
X0101067Y0105498D01*
X0101126Y0105463D01*
X0101183Y0105425D01*
X0101238Y0105383D01*
X0101290Y0105339D01*
X0101340Y0105292D01*
X0101387Y0105242D01*
X0101431Y0105190D01*
X0101473Y0105135D01*
X0101511Y0105078D01*
X0101546Y0105019D01*
X0101577Y0104958D01*
X0101605Y0104896D01*
X0101629Y0104832D01*
X0101650Y0104766D01*
X0101667Y0104700D01*
X0101681Y0104633D01*
X0101690Y0104565D01*
X0101696Y0104497D01*
X0101698Y0104428D01*
X0101699Y0104428D02*
X0101699Y0102472D01*
X0101698Y0102472D02*
X0101696Y0102403D01*
X0101690Y0102335D01*
X0101681Y0102267D01*
X0101667Y0102200D01*
X0101650Y0102134D01*
X0101629Y0102068D01*
X0101605Y0102004D01*
X0101577Y0101942D01*
X0101546Y0101881D01*
X0101511Y0101822D01*
X0101473Y0101765D01*
X0101431Y0101710D01*
X0101387Y0101658D01*
X0101340Y0101608D01*
X0101290Y0101561D01*
X0101238Y0101517D01*
X0101183Y0101475D01*
X0101126Y0101437D01*
X0101067Y0101402D01*
X0101006Y0101371D01*
X0100944Y0101343D01*
X0100880Y0101319D01*
X0100814Y0101298D01*
X0100748Y0101281D01*
X0100681Y0101267D01*
X0100613Y0101258D01*
X0100545Y0101252D01*
X0100476Y0101250D01*
X0100407Y0101252D01*
X0100339Y0101258D01*
X0100271Y0101267D01*
X0100204Y0101281D01*
X0100138Y0101298D01*
X0100072Y0101319D01*
X0100008Y0101343D01*
X0099946Y0101371D01*
X0099885Y0101402D01*
X0099826Y0101437D01*
X0099769Y0101475D01*
X0099714Y0101517D01*
X0099662Y0101561D01*
X0099612Y0101608D01*
X0099565Y0101658D01*
X0099521Y0101710D01*
X0099479Y0101765D01*
X0099441Y0101822D01*
X0099406Y0101881D01*
X0099375Y0101942D01*
X0099347Y0102004D01*
X0099323Y0102068D01*
X0099302Y0102134D01*
X0099285Y0102200D01*
X0099271Y0102267D01*
X0099262Y0102335D01*
X0099256Y0102403D01*
X0099254Y0102472D01*
X0103893Y0101250D02*
X0104871Y0101250D01*
X0104932Y0101252D01*
X0104994Y0101258D01*
X0105054Y0101267D01*
X0105114Y0101281D01*
X0105173Y0101298D01*
X0105231Y0101319D01*
X0105287Y0101343D01*
X0105342Y0101371D01*
X0105395Y0101402D01*
X0105446Y0101437D01*
X0105494Y0101474D01*
X0105540Y0101515D01*
X0105584Y0101559D01*
X0105625Y0101605D01*
X0105662Y0101653D01*
X0105697Y0101704D01*
X0105728Y0101757D01*
X0105756Y0101812D01*
X0105780Y0101868D01*
X0105801Y0101926D01*
X0105818Y0101985D01*
X0105832Y0102045D01*
X0105841Y0102105D01*
X0105847Y0102167D01*
X0105849Y0102228D01*
X0105849Y0104672D01*
X0105847Y0104733D01*
X0105841Y0104795D01*
X0105832Y0104855D01*
X0105818Y0104915D01*
X0105801Y0104974D01*
X0105780Y0105032D01*
X0105756Y0105088D01*
X0105728Y0105143D01*
X0105697Y0105196D01*
X0105662Y0105247D01*
X0105625Y0105295D01*
X0105584Y0105341D01*
X0105540Y0105385D01*
X0105494Y0105426D01*
X0105446Y0105463D01*
X0105395Y0105498D01*
X0105342Y0105529D01*
X0105287Y0105557D01*
X0105231Y0105581D01*
X0105173Y0105602D01*
X0105114Y0105619D01*
X0105054Y0105633D01*
X0104994Y0105642D01*
X0104932Y0105648D01*
X0104871Y0105650D01*
X0103893Y0105650D01*
D18*
X0103965Y0098100D02*
X0103354Y0098100D01*
X0103306Y0098098D01*
X0103258Y0098092D01*
X0103211Y0098083D01*
X0103165Y0098070D01*
X0103120Y0098053D01*
X0103077Y0098033D01*
X0103035Y0098010D01*
X0102995Y0097983D01*
X0102957Y0097954D01*
X0102922Y0097921D01*
X0102889Y0097886D01*
X0102860Y0097848D01*
X0102833Y0097808D01*
X0102810Y0097766D01*
X0102790Y0097723D01*
X0102773Y0097678D01*
X0102760Y0097632D01*
X0102751Y0097585D01*
X0102745Y0097537D01*
X0102743Y0097489D01*
X0102745Y0097441D01*
X0102751Y0097393D01*
X0102760Y0097346D01*
X0102773Y0097300D01*
X0102790Y0097255D01*
X0102810Y0097212D01*
X0102833Y0097170D01*
X0102860Y0097130D01*
X0102889Y0097092D01*
X0102922Y0097057D01*
X0102957Y0097024D01*
X0102995Y0096995D01*
X0103035Y0096968D01*
X0103077Y0096945D01*
X0103120Y0096925D01*
X0103165Y0096908D01*
X0103211Y0096895D01*
X0103258Y0096886D01*
X0103306Y0096880D01*
X0103354Y0096878D01*
X0103965Y0096878D01*
X0103232Y0096878D02*
X0102743Y0095900D01*
X0101770Y0095900D02*
X0101036Y0098100D01*
X0100303Y0095900D01*
X0100486Y0096450D02*
X0101586Y0096450D01*
X0103965Y0095900D02*
X0103965Y0098100D01*
X0105261Y0098100D02*
X0105994Y0098100D01*
X0106037Y0098098D01*
X0106079Y0098093D01*
X0106121Y0098083D01*
X0106161Y0098071D01*
X0106201Y0098054D01*
X0106239Y0098034D01*
X0106274Y0098012D01*
X0106308Y0097986D01*
X0106340Y0097957D01*
X0106369Y0097925D01*
X0106395Y0097891D01*
X0106417Y0097856D01*
X0106437Y0097818D01*
X0106454Y0097778D01*
X0106466Y0097738D01*
X0106476Y0097696D01*
X0106481Y0097654D01*
X0106483Y0097611D01*
X0106483Y0096389D01*
X0106481Y0096346D01*
X0106476Y0096304D01*
X0106466Y0096262D01*
X0106454Y0096222D01*
X0106437Y0096182D01*
X0106417Y0096145D01*
X0106395Y0096109D01*
X0106369Y0096075D01*
X0106340Y0096043D01*
X0106308Y0096014D01*
X0106274Y0095988D01*
X0106239Y0095966D01*
X0106201Y0095946D01*
X0106161Y0095929D01*
X0106121Y0095917D01*
X0106079Y0095907D01*
X0106037Y0095902D01*
X0105994Y0095900D01*
X0105261Y0095900D01*
X0105261Y0097122D01*
X0105628Y0097122D01*
X0099229Y0098100D02*
X0098007Y0095900D01*
X0098007Y0098100D01*
X0099229Y0098100D02*
X0099229Y0095900D01*
X0096733Y0095900D02*
X0096122Y0095900D01*
X0096074Y0095902D01*
X0096026Y0095908D01*
X0095979Y0095917D01*
X0095933Y0095930D01*
X0095888Y0095947D01*
X0095845Y0095967D01*
X0095803Y0095990D01*
X0095763Y0096017D01*
X0095725Y0096046D01*
X0095690Y0096079D01*
X0095657Y0096114D01*
X0095628Y0096152D01*
X0095601Y0096192D01*
X0095578Y0096234D01*
X0095558Y0096277D01*
X0095541Y0096322D01*
X0095528Y0096368D01*
X0095519Y0096415D01*
X0095513Y0096463D01*
X0095511Y0096511D01*
X0095511Y0097489D01*
X0095513Y0097537D01*
X0095519Y0097585D01*
X0095528Y0097632D01*
X0095541Y0097678D01*
X0095558Y0097723D01*
X0095578Y0097766D01*
X0095601Y0097808D01*
X0095628Y0097848D01*
X0095657Y0097886D01*
X0095690Y0097921D01*
X0095725Y0097954D01*
X0095763Y0097983D01*
X0095803Y0098010D01*
X0095845Y0098033D01*
X0095888Y0098053D01*
X0095933Y0098070D01*
X0095979Y0098083D01*
X0096026Y0098092D01*
X0096074Y0098098D01*
X0096122Y0098100D01*
X0096733Y0098100D01*
X0096733Y0095900D01*
X0092939Y0095900D02*
X0092939Y0098100D01*
X0092328Y0098100D01*
X0092280Y0098098D01*
X0092232Y0098092D01*
X0092185Y0098083D01*
X0092139Y0098070D01*
X0092094Y0098053D01*
X0092051Y0098033D01*
X0092009Y0098010D01*
X0091969Y0097983D01*
X0091931Y0097954D01*
X0091896Y0097921D01*
X0091863Y0097886D01*
X0091834Y0097848D01*
X0091807Y0097808D01*
X0091784Y0097766D01*
X0091764Y0097723D01*
X0091747Y0097678D01*
X0091734Y0097632D01*
X0091725Y0097585D01*
X0091719Y0097537D01*
X0091717Y0097489D01*
X0091719Y0097441D01*
X0091725Y0097393D01*
X0091734Y0097346D01*
X0091747Y0097300D01*
X0091764Y0097255D01*
X0091784Y0097212D01*
X0091807Y0097170D01*
X0091834Y0097130D01*
X0091863Y0097092D01*
X0091896Y0097057D01*
X0091931Y0097024D01*
X0091969Y0096995D01*
X0092009Y0096968D01*
X0092051Y0096945D01*
X0092094Y0096925D01*
X0092139Y0096908D01*
X0092185Y0096895D01*
X0092232Y0096886D01*
X0092280Y0096880D01*
X0092328Y0096878D01*
X0092939Y0096878D01*
X0090627Y0096878D02*
X0090016Y0096878D01*
X0089894Y0096878D02*
X0089405Y0095900D01*
X0088411Y0095900D02*
X0087922Y0095900D01*
X0088166Y0095900D02*
X0088166Y0098100D01*
X0087922Y0098100D02*
X0088411Y0098100D01*
X0087028Y0098100D02*
X0085561Y0095900D01*
X0087028Y0095900D02*
X0085561Y0098100D01*
X0083239Y0098100D02*
X0082628Y0098100D01*
X0082580Y0098098D01*
X0082532Y0098092D01*
X0082485Y0098083D01*
X0082439Y0098070D01*
X0082394Y0098053D01*
X0082351Y0098033D01*
X0082309Y0098010D01*
X0082269Y0097983D01*
X0082231Y0097954D01*
X0082196Y0097921D01*
X0082163Y0097886D01*
X0082134Y0097848D01*
X0082107Y0097808D01*
X0082084Y0097766D01*
X0082064Y0097723D01*
X0082047Y0097678D01*
X0082034Y0097632D01*
X0082025Y0097585D01*
X0082019Y0097537D01*
X0082017Y0097489D01*
X0082017Y0096511D01*
X0082019Y0096463D01*
X0082025Y0096415D01*
X0082034Y0096368D01*
X0082047Y0096322D01*
X0082064Y0096277D01*
X0082084Y0096234D01*
X0082107Y0096192D01*
X0082134Y0096152D01*
X0082163Y0096114D01*
X0082196Y0096079D01*
X0082231Y0096046D01*
X0082269Y0096017D01*
X0082309Y0095990D01*
X0082351Y0095967D01*
X0082394Y0095947D01*
X0082439Y0095930D01*
X0082485Y0095917D01*
X0082532Y0095908D01*
X0082580Y0095902D01*
X0082628Y0095900D01*
X0083239Y0095900D01*
X0083239Y0098100D01*
X0080737Y0098100D02*
X0080737Y0095900D01*
X0079759Y0095900D01*
X0080003Y0097122D02*
X0080737Y0097122D01*
X0080737Y0098100D02*
X0079759Y0098100D01*
X0078566Y0097183D02*
X0077894Y0096817D01*
X0078138Y0095900D02*
X0078201Y0095902D01*
X0078263Y0095908D01*
X0078325Y0095917D01*
X0078387Y0095930D01*
X0078447Y0095947D01*
X0078506Y0095968D01*
X0078564Y0095992D01*
X0078620Y0096020D01*
X0078675Y0096051D01*
X0078728Y0096085D01*
X0078778Y0096122D01*
X0078826Y0096162D01*
X0078871Y0096206D01*
X0077894Y0096817D02*
X0077858Y0096794D01*
X0077824Y0096767D01*
X0077792Y0096738D01*
X0077763Y0096706D01*
X0077737Y0096672D01*
X0077714Y0096636D01*
X0077695Y0096597D01*
X0077678Y0096558D01*
X0077666Y0096517D01*
X0077656Y0096475D01*
X0077651Y0096432D01*
X0077649Y0096389D01*
X0077651Y0096346D01*
X0077656Y0096304D01*
X0077666Y0096262D01*
X0077678Y0096222D01*
X0077695Y0096182D01*
X0077715Y0096144D01*
X0077737Y0096109D01*
X0077763Y0096075D01*
X0077792Y0096043D01*
X0077824Y0096014D01*
X0077858Y0095988D01*
X0077894Y0095966D01*
X0077931Y0095946D01*
X0077971Y0095929D01*
X0078011Y0095917D01*
X0078053Y0095907D01*
X0078095Y0095902D01*
X0078138Y0095900D01*
X0077771Y0097917D02*
X0077819Y0097950D01*
X0077869Y0097981D01*
X0077922Y0098009D01*
X0077976Y0098032D01*
X0078031Y0098053D01*
X0078088Y0098070D01*
X0078145Y0098083D01*
X0078203Y0098092D01*
X0078262Y0098098D01*
X0078321Y0098100D01*
X0078364Y0098098D01*
X0078406Y0098093D01*
X0078448Y0098083D01*
X0078488Y0098071D01*
X0078528Y0098054D01*
X0078566Y0098034D01*
X0078601Y0098012D01*
X0078635Y0097986D01*
X0078667Y0097957D01*
X0078696Y0097925D01*
X0078722Y0097891D01*
X0078744Y0097856D01*
X0078764Y0097818D01*
X0078781Y0097778D01*
X0078793Y0097738D01*
X0078803Y0097696D01*
X0078808Y0097654D01*
X0078810Y0097611D01*
X0078811Y0097611D02*
X0078809Y0097568D01*
X0078804Y0097525D01*
X0078794Y0097483D01*
X0078782Y0097442D01*
X0078765Y0097403D01*
X0078746Y0097364D01*
X0078723Y0097328D01*
X0078697Y0097294D01*
X0078668Y0097262D01*
X0078636Y0097233D01*
X0078602Y0097206D01*
X0078566Y0097183D01*
X0075371Y0097611D02*
X0075371Y0096389D01*
X0075372Y0096389D02*
X0075370Y0096346D01*
X0075365Y0096304D01*
X0075355Y0096262D01*
X0075343Y0096222D01*
X0075326Y0096182D01*
X0075306Y0096145D01*
X0075284Y0096109D01*
X0075258Y0096075D01*
X0075229Y0096043D01*
X0075197Y0096014D01*
X0075163Y0095988D01*
X0075128Y0095966D01*
X0075090Y0095946D01*
X0075050Y0095929D01*
X0075010Y0095917D01*
X0074968Y0095907D01*
X0074926Y0095902D01*
X0074883Y0095900D01*
X0074394Y0095900D01*
X0073412Y0096511D02*
X0073412Y0097489D01*
X0073411Y0097489D02*
X0073409Y0097537D01*
X0073403Y0097585D01*
X0073394Y0097632D01*
X0073381Y0097678D01*
X0073364Y0097723D01*
X0073344Y0097766D01*
X0073321Y0097808D01*
X0073294Y0097848D01*
X0073265Y0097886D01*
X0073232Y0097921D01*
X0073197Y0097954D01*
X0073159Y0097983D01*
X0073119Y0098010D01*
X0073077Y0098033D01*
X0073034Y0098053D01*
X0072989Y0098070D01*
X0072943Y0098083D01*
X0072896Y0098092D01*
X0072848Y0098098D01*
X0072800Y0098100D01*
X0072752Y0098098D01*
X0072704Y0098092D01*
X0072657Y0098083D01*
X0072611Y0098070D01*
X0072566Y0098053D01*
X0072523Y0098033D01*
X0072481Y0098010D01*
X0072441Y0097983D01*
X0072403Y0097954D01*
X0072368Y0097921D01*
X0072335Y0097886D01*
X0072306Y0097848D01*
X0072279Y0097808D01*
X0072256Y0097766D01*
X0072236Y0097723D01*
X0072219Y0097678D01*
X0072206Y0097632D01*
X0072197Y0097585D01*
X0072191Y0097537D01*
X0072189Y0097489D01*
X0072189Y0096511D01*
X0072191Y0096463D01*
X0072197Y0096415D01*
X0072206Y0096368D01*
X0072219Y0096322D01*
X0072236Y0096277D01*
X0072256Y0096234D01*
X0072279Y0096192D01*
X0072306Y0096152D01*
X0072335Y0096114D01*
X0072368Y0096079D01*
X0072403Y0096046D01*
X0072441Y0096017D01*
X0072481Y0095990D01*
X0072523Y0095967D01*
X0072566Y0095947D01*
X0072611Y0095930D01*
X0072657Y0095917D01*
X0072704Y0095908D01*
X0072752Y0095902D01*
X0072800Y0095900D01*
X0072848Y0095902D01*
X0072896Y0095908D01*
X0072943Y0095917D01*
X0072989Y0095930D01*
X0073034Y0095947D01*
X0073077Y0095967D01*
X0073119Y0095990D01*
X0073159Y0096017D01*
X0073197Y0096046D01*
X0073232Y0096079D01*
X0073265Y0096114D01*
X0073294Y0096152D01*
X0073321Y0096192D01*
X0073344Y0096234D01*
X0073364Y0096277D01*
X0073381Y0096322D01*
X0073394Y0096368D01*
X0073403Y0096415D01*
X0073409Y0096463D01*
X0073411Y0096511D01*
X0074883Y0098100D02*
X0074926Y0098098D01*
X0074968Y0098093D01*
X0075010Y0098083D01*
X0075050Y0098071D01*
X0075090Y0098054D01*
X0075128Y0098034D01*
X0075163Y0098012D01*
X0075197Y0097986D01*
X0075229Y0097957D01*
X0075258Y0097925D01*
X0075284Y0097891D01*
X0075306Y0097856D01*
X0075326Y0097818D01*
X0075343Y0097778D01*
X0075355Y0097738D01*
X0075365Y0097696D01*
X0075370Y0097654D01*
X0075372Y0097611D01*
X0074883Y0098100D02*
X0074394Y0098100D01*
X0070987Y0098100D02*
X0070987Y0095900D01*
X0070009Y0095900D01*
X0068959Y0095900D02*
X0067981Y0095900D01*
X0068959Y0095900D02*
X0068959Y0098100D01*
X0066931Y0098100D02*
X0065953Y0098100D01*
X0066931Y0098100D02*
X0066931Y0095900D01*
X0065953Y0095900D01*
X0064910Y0096389D02*
X0064910Y0097611D01*
X0064908Y0097654D01*
X0064903Y0097696D01*
X0064893Y0097738D01*
X0064881Y0097778D01*
X0064864Y0097818D01*
X0064844Y0097856D01*
X0064822Y0097891D01*
X0064796Y0097925D01*
X0064767Y0097957D01*
X0064735Y0097986D01*
X0064701Y0098012D01*
X0064666Y0098034D01*
X0064628Y0098054D01*
X0064588Y0098071D01*
X0064548Y0098083D01*
X0064506Y0098093D01*
X0064464Y0098098D01*
X0064421Y0098100D01*
X0063687Y0098100D01*
X0063687Y0097122D02*
X0063687Y0095900D01*
X0064421Y0095900D01*
X0064464Y0095902D01*
X0064506Y0095907D01*
X0064548Y0095917D01*
X0064588Y0095929D01*
X0064628Y0095946D01*
X0064666Y0095966D01*
X0064701Y0095988D01*
X0064735Y0096014D01*
X0064767Y0096043D01*
X0064796Y0096075D01*
X0064822Y0096109D01*
X0064844Y0096145D01*
X0064864Y0096182D01*
X0064881Y0096222D01*
X0064893Y0096262D01*
X0064903Y0096304D01*
X0064908Y0096346D01*
X0064910Y0096389D01*
X0064054Y0097122D02*
X0063687Y0097122D01*
X0062407Y0097122D02*
X0061674Y0097122D01*
X0061429Y0098100D02*
X0062407Y0098100D01*
X0062407Y0095900D01*
X0061429Y0095900D01*
X0059564Y0096817D02*
X0059528Y0096794D01*
X0059494Y0096767D01*
X0059462Y0096738D01*
X0059433Y0096706D01*
X0059407Y0096672D01*
X0059384Y0096636D01*
X0059365Y0096597D01*
X0059348Y0096558D01*
X0059336Y0096517D01*
X0059326Y0096475D01*
X0059321Y0096432D01*
X0059319Y0096389D01*
X0059321Y0096346D01*
X0059326Y0096304D01*
X0059336Y0096262D01*
X0059348Y0096222D01*
X0059365Y0096182D01*
X0059385Y0096144D01*
X0059407Y0096109D01*
X0059433Y0096075D01*
X0059462Y0096043D01*
X0059494Y0096014D01*
X0059528Y0095988D01*
X0059564Y0095966D01*
X0059601Y0095946D01*
X0059641Y0095929D01*
X0059681Y0095917D01*
X0059723Y0095907D01*
X0059765Y0095902D01*
X0059808Y0095900D01*
X0059564Y0096817D02*
X0060236Y0097183D01*
X0059992Y0098100D02*
X0059933Y0098098D01*
X0059874Y0098092D01*
X0059816Y0098083D01*
X0059759Y0098070D01*
X0059702Y0098053D01*
X0059647Y0098032D01*
X0059593Y0098009D01*
X0059540Y0097981D01*
X0059490Y0097950D01*
X0059442Y0097917D01*
X0060236Y0097183D02*
X0060272Y0097206D01*
X0060306Y0097233D01*
X0060338Y0097262D01*
X0060367Y0097294D01*
X0060393Y0097328D01*
X0060416Y0097364D01*
X0060435Y0097403D01*
X0060452Y0097442D01*
X0060464Y0097483D01*
X0060474Y0097525D01*
X0060479Y0097568D01*
X0060481Y0097611D01*
X0060479Y0097654D01*
X0060474Y0097696D01*
X0060464Y0097738D01*
X0060452Y0097778D01*
X0060435Y0097818D01*
X0060415Y0097856D01*
X0060393Y0097891D01*
X0060367Y0097925D01*
X0060338Y0097957D01*
X0060306Y0097986D01*
X0060272Y0098012D01*
X0060237Y0098034D01*
X0060199Y0098054D01*
X0060159Y0098071D01*
X0060119Y0098083D01*
X0060077Y0098093D01*
X0060035Y0098098D01*
X0059992Y0098100D01*
X0060541Y0096206D02*
X0060496Y0096162D01*
X0060448Y0096122D01*
X0060398Y0096085D01*
X0060345Y0096051D01*
X0060290Y0096020D01*
X0060234Y0095992D01*
X0060176Y0095968D01*
X0060117Y0095947D01*
X0060057Y0095930D01*
X0059995Y0095917D01*
X0059933Y0095908D01*
X0059871Y0095902D01*
X0059808Y0095900D01*
X0056947Y0095900D02*
X0056947Y0098100D01*
X0055969Y0098100D01*
X0055160Y0098100D02*
X0053937Y0098100D01*
X0054549Y0098100D02*
X0054549Y0095900D01*
X0055969Y0095900D02*
X0056947Y0095900D01*
X0056947Y0097122D02*
X0056214Y0097122D01*
X0051643Y0098100D02*
X0051643Y0095900D01*
X0050665Y0095900D01*
X0049089Y0095900D02*
X0049089Y0097061D01*
X0048355Y0098100D01*
X0047370Y0097611D02*
X0047370Y0096389D01*
X0047368Y0096346D01*
X0047363Y0096304D01*
X0047353Y0096262D01*
X0047341Y0096222D01*
X0047324Y0096182D01*
X0047304Y0096145D01*
X0047282Y0096109D01*
X0047256Y0096075D01*
X0047227Y0096043D01*
X0047195Y0096014D01*
X0047161Y0095988D01*
X0047126Y0095966D01*
X0047088Y0095946D01*
X0047048Y0095929D01*
X0047008Y0095917D01*
X0046966Y0095907D01*
X0046924Y0095902D01*
X0046881Y0095900D01*
X0046392Y0095900D01*
X0045325Y0095900D02*
X0045325Y0098100D01*
X0044347Y0098100D01*
X0044592Y0097122D02*
X0045325Y0097122D01*
X0045325Y0095900D02*
X0044347Y0095900D01*
X0043297Y0095900D02*
X0043297Y0098100D01*
X0042319Y0098100D01*
X0042564Y0097122D02*
X0043297Y0097122D01*
X0043297Y0095900D02*
X0042319Y0095900D01*
X0040454Y0096817D02*
X0040418Y0096794D01*
X0040384Y0096767D01*
X0040352Y0096738D01*
X0040323Y0096706D01*
X0040297Y0096672D01*
X0040274Y0096636D01*
X0040255Y0096597D01*
X0040238Y0096558D01*
X0040226Y0096517D01*
X0040216Y0096475D01*
X0040211Y0096432D01*
X0040209Y0096389D01*
X0040211Y0096346D01*
X0040216Y0096304D01*
X0040226Y0096262D01*
X0040238Y0096222D01*
X0040255Y0096182D01*
X0040275Y0096144D01*
X0040297Y0096109D01*
X0040323Y0096075D01*
X0040352Y0096043D01*
X0040384Y0096014D01*
X0040418Y0095988D01*
X0040454Y0095966D01*
X0040491Y0095946D01*
X0040531Y0095929D01*
X0040571Y0095917D01*
X0040613Y0095907D01*
X0040655Y0095902D01*
X0040698Y0095900D01*
X0040454Y0096817D02*
X0041126Y0097183D01*
X0040882Y0098100D02*
X0040823Y0098098D01*
X0040764Y0098092D01*
X0040706Y0098083D01*
X0040649Y0098070D01*
X0040592Y0098053D01*
X0040537Y0098032D01*
X0040483Y0098009D01*
X0040430Y0097981D01*
X0040380Y0097950D01*
X0040332Y0097917D01*
X0041126Y0097183D02*
X0041162Y0097206D01*
X0041196Y0097233D01*
X0041228Y0097262D01*
X0041257Y0097294D01*
X0041283Y0097328D01*
X0041306Y0097364D01*
X0041325Y0097403D01*
X0041342Y0097442D01*
X0041354Y0097483D01*
X0041364Y0097525D01*
X0041369Y0097568D01*
X0041371Y0097611D01*
X0041369Y0097654D01*
X0041364Y0097696D01*
X0041354Y0097738D01*
X0041342Y0097778D01*
X0041325Y0097818D01*
X0041305Y0097856D01*
X0041283Y0097891D01*
X0041257Y0097925D01*
X0041228Y0097957D01*
X0041196Y0097986D01*
X0041162Y0098012D01*
X0041127Y0098034D01*
X0041089Y0098054D01*
X0041049Y0098071D01*
X0041009Y0098083D01*
X0040967Y0098093D01*
X0040925Y0098098D01*
X0040882Y0098100D01*
X0041431Y0096206D02*
X0041386Y0096162D01*
X0041338Y0096122D01*
X0041288Y0096085D01*
X0041235Y0096051D01*
X0041180Y0096020D01*
X0041124Y0095992D01*
X0041066Y0095968D01*
X0041007Y0095947D01*
X0040947Y0095930D01*
X0040885Y0095917D01*
X0040823Y0095908D01*
X0040761Y0095902D01*
X0040698Y0095900D01*
X0046392Y0098100D02*
X0046881Y0098100D01*
X0046924Y0098098D01*
X0046966Y0098093D01*
X0047008Y0098083D01*
X0047048Y0098071D01*
X0047088Y0098054D01*
X0047126Y0098034D01*
X0047161Y0098012D01*
X0047195Y0097986D01*
X0047227Y0097957D01*
X0047256Y0097925D01*
X0047282Y0097891D01*
X0047304Y0097856D01*
X0047324Y0097818D01*
X0047341Y0097778D01*
X0047353Y0097738D01*
X0047363Y0097696D01*
X0047368Y0097654D01*
X0047370Y0097611D01*
X0049089Y0097061D02*
X0049822Y0098100D01*
X0066197Y0097122D02*
X0066931Y0097122D01*
X0090016Y0096878D02*
X0089968Y0096880D01*
X0089920Y0096886D01*
X0089873Y0096895D01*
X0089827Y0096908D01*
X0089782Y0096925D01*
X0089739Y0096945D01*
X0089697Y0096968D01*
X0089657Y0096995D01*
X0089619Y0097024D01*
X0089584Y0097057D01*
X0089551Y0097092D01*
X0089522Y0097130D01*
X0089495Y0097170D01*
X0089472Y0097212D01*
X0089452Y0097255D01*
X0089435Y0097300D01*
X0089422Y0097346D01*
X0089413Y0097393D01*
X0089407Y0097441D01*
X0089405Y0097489D01*
X0089407Y0097537D01*
X0089413Y0097585D01*
X0089422Y0097632D01*
X0089435Y0097678D01*
X0089452Y0097723D01*
X0089472Y0097766D01*
X0089495Y0097808D01*
X0089522Y0097848D01*
X0089551Y0097886D01*
X0089584Y0097921D01*
X0089619Y0097954D01*
X0089657Y0097983D01*
X0089697Y0098010D01*
X0089739Y0098033D01*
X0089782Y0098053D01*
X0089827Y0098070D01*
X0089873Y0098083D01*
X0089920Y0098092D01*
X0089968Y0098098D01*
X0090016Y0098100D01*
X0090627Y0098100D01*
X0090627Y0095900D01*
X0108977Y0075500D02*
X0108977Y0071963D01*
X0109959Y0071963D02*
X0107994Y0071963D01*
X0109959Y0074714D02*
X0108977Y0075500D01*
X0111341Y0075500D02*
X0112520Y0073830D01*
X0112520Y0071963D01*
X0112520Y0073830D02*
X0113699Y0075500D01*
X0163033Y0085463D02*
X0164998Y0085463D01*
X0163328Y0087428D01*
X0163918Y0089000D02*
X0163983Y0088998D01*
X0164048Y0088993D01*
X0164112Y0088983D01*
X0164175Y0088970D01*
X0164238Y0088954D01*
X0164300Y0088934D01*
X0164361Y0088910D01*
X0164420Y0088883D01*
X0164477Y0088853D01*
X0164533Y0088819D01*
X0164586Y0088783D01*
X0164638Y0088743D01*
X0164687Y0088700D01*
X0164733Y0088655D01*
X0164777Y0088607D01*
X0164818Y0088557D01*
X0164856Y0088504D01*
X0164891Y0088450D01*
X0164923Y0088393D01*
X0164952Y0088335D01*
X0164977Y0088275D01*
X0164999Y0088214D01*
X0163328Y0087428D02*
X0163286Y0087470D01*
X0163247Y0087515D01*
X0163211Y0087562D01*
X0163178Y0087611D01*
X0163149Y0087662D01*
X0163122Y0087715D01*
X0163099Y0087769D01*
X0163079Y0087825D01*
X0163062Y0087882D01*
X0163050Y0087940D01*
X0163040Y0087998D01*
X0163035Y0088057D01*
X0163033Y0088116D01*
X0163034Y0088116D02*
X0163036Y0088174D01*
X0163042Y0088231D01*
X0163051Y0088288D01*
X0163064Y0088345D01*
X0163081Y0088400D01*
X0163101Y0088454D01*
X0163125Y0088507D01*
X0163152Y0088558D01*
X0163183Y0088607D01*
X0163217Y0088654D01*
X0163253Y0088699D01*
X0163293Y0088741D01*
X0163335Y0088781D01*
X0163380Y0088817D01*
X0163427Y0088851D01*
X0163476Y0088882D01*
X0163527Y0088909D01*
X0163580Y0088933D01*
X0163634Y0088953D01*
X0163689Y0088970D01*
X0163746Y0088983D01*
X0163803Y0088992D01*
X0163860Y0088998D01*
X0163918Y0089000D01*
X0166695Y0089000D02*
X0166695Y0086445D01*
X0166694Y0086445D02*
X0166696Y0086383D01*
X0166702Y0086322D01*
X0166711Y0086261D01*
X0166725Y0086201D01*
X0166742Y0086141D01*
X0166763Y0086083D01*
X0166788Y0086026D01*
X0166816Y0085971D01*
X0166847Y0085918D01*
X0166882Y0085867D01*
X0166920Y0085818D01*
X0166960Y0085772D01*
X0167004Y0085728D01*
X0167050Y0085688D01*
X0167099Y0085650D01*
X0167150Y0085615D01*
X0167203Y0085584D01*
X0167258Y0085556D01*
X0167315Y0085531D01*
X0167373Y0085510D01*
X0167433Y0085493D01*
X0167493Y0085479D01*
X0167554Y0085470D01*
X0167615Y0085464D01*
X0167677Y0085462D01*
X0167739Y0085464D01*
X0167800Y0085470D01*
X0167861Y0085479D01*
X0167921Y0085493D01*
X0167981Y0085510D01*
X0168039Y0085531D01*
X0168096Y0085556D01*
X0168151Y0085584D01*
X0168204Y0085615D01*
X0168255Y0085650D01*
X0168304Y0085688D01*
X0168350Y0085728D01*
X0168394Y0085772D01*
X0168434Y0085818D01*
X0168472Y0085867D01*
X0168507Y0085918D01*
X0168538Y0085971D01*
X0168566Y0086026D01*
X0168591Y0086083D01*
X0168612Y0086141D01*
X0168629Y0086201D01*
X0168643Y0086261D01*
X0168652Y0086322D01*
X0168658Y0086383D01*
X0168660Y0086445D01*
X0168660Y0089000D01*
D19*
X0091282Y0042023D02*
X0091282Y0039685D01*
X0091280Y0039626D01*
X0091274Y0039568D01*
X0091265Y0039510D01*
X0091251Y0039452D01*
X0091234Y0039396D01*
X0091214Y0039341D01*
X0091189Y0039287D01*
X0091162Y0039236D01*
X0091130Y0039186D01*
X0091096Y0039138D01*
X0091059Y0039092D01*
X0091019Y0039049D01*
X0090976Y0039009D01*
X0090930Y0038972D01*
X0090882Y0038938D01*
X0090833Y0038906D01*
X0090781Y0038879D01*
X0090727Y0038854D01*
X0090672Y0038834D01*
X0090616Y0038817D01*
X0090558Y0038803D01*
X0090500Y0038794D01*
X0090442Y0038788D01*
X0090383Y0038786D01*
X0090324Y0038788D01*
X0090266Y0038794D01*
X0090208Y0038803D01*
X0090150Y0038817D01*
X0090094Y0038834D01*
X0090039Y0038854D01*
X0089985Y0038879D01*
X0089934Y0038906D01*
X0089884Y0038938D01*
X0089836Y0038972D01*
X0089790Y0039009D01*
X0089747Y0039049D01*
X0089707Y0039092D01*
X0089670Y0039138D01*
X0089636Y0039186D01*
X0089604Y0039236D01*
X0089577Y0039287D01*
X0089552Y0039341D01*
X0089532Y0039396D01*
X0089515Y0039452D01*
X0089501Y0039510D01*
X0089492Y0039568D01*
X0089486Y0039626D01*
X0089484Y0039685D01*
X0089484Y0042023D01*
X0086901Y0042023D02*
X0087621Y0039506D01*
X0085822Y0039506D01*
X0086362Y0040225D02*
X0086362Y0038786D01*
X0153296Y0023550D02*
X0154396Y0026850D01*
X0155496Y0023550D01*
X0155221Y0024375D02*
X0153571Y0024375D01*
X0158965Y0024008D02*
X0158965Y0023825D01*
X0159148Y0023825D01*
X0159148Y0024008D01*
X0158965Y0024008D01*
X0158965Y0025292D02*
X0159148Y0025292D01*
X0159148Y0025475D01*
X0158965Y0025475D01*
X0158965Y0025292D01*
X0162523Y0025750D02*
X0163257Y0023550D01*
X0163990Y0025750D01*
X0165523Y0025017D02*
X0165523Y0024650D01*
X0166990Y0024650D01*
X0166990Y0025017D02*
X0166990Y0024100D01*
X0166988Y0024055D01*
X0166982Y0024009D01*
X0166973Y0023965D01*
X0166960Y0023921D01*
X0166944Y0023879D01*
X0166924Y0023838D01*
X0166900Y0023799D01*
X0166874Y0023762D01*
X0166845Y0023727D01*
X0166813Y0023695D01*
X0166778Y0023666D01*
X0166741Y0023640D01*
X0166702Y0023616D01*
X0166661Y0023596D01*
X0166619Y0023580D01*
X0166575Y0023567D01*
X0166531Y0023558D01*
X0166485Y0023552D01*
X0166440Y0023550D01*
X0165523Y0023550D01*
X0165524Y0025017D02*
X0165526Y0025069D01*
X0165531Y0025121D01*
X0165541Y0025173D01*
X0165554Y0025224D01*
X0165570Y0025273D01*
X0165590Y0025321D01*
X0165614Y0025368D01*
X0165640Y0025413D01*
X0165670Y0025456D01*
X0165703Y0025497D01*
X0165739Y0025535D01*
X0165777Y0025571D01*
X0165818Y0025604D01*
X0165861Y0025634D01*
X0165906Y0025660D01*
X0165953Y0025684D01*
X0166001Y0025704D01*
X0166050Y0025720D01*
X0166101Y0025733D01*
X0166153Y0025743D01*
X0166205Y0025748D01*
X0166257Y0025750D01*
X0166309Y0025748D01*
X0166361Y0025743D01*
X0166413Y0025733D01*
X0166464Y0025720D01*
X0166513Y0025704D01*
X0166561Y0025684D01*
X0166608Y0025660D01*
X0166653Y0025634D01*
X0166696Y0025604D01*
X0166737Y0025571D01*
X0166775Y0025535D01*
X0166811Y0025497D01*
X0166844Y0025456D01*
X0166874Y0025413D01*
X0166900Y0025368D01*
X0166924Y0025321D01*
X0166944Y0025273D01*
X0166960Y0025224D01*
X0166973Y0025173D01*
X0166983Y0025121D01*
X0166988Y0025069D01*
X0166990Y0025017D01*
X0168663Y0023550D02*
X0169396Y0025017D01*
X0169580Y0025017D02*
X0170496Y0025017D01*
X0169580Y0025016D02*
X0169521Y0025018D01*
X0169463Y0025024D01*
X0169405Y0025033D01*
X0169347Y0025046D01*
X0169291Y0025063D01*
X0169236Y0025083D01*
X0169182Y0025107D01*
X0169130Y0025134D01*
X0169080Y0025164D01*
X0169032Y0025198D01*
X0168986Y0025235D01*
X0168942Y0025274D01*
X0168901Y0025317D01*
X0168863Y0025361D01*
X0168828Y0025408D01*
X0168796Y0025458D01*
X0168767Y0025509D01*
X0168741Y0025562D01*
X0168719Y0025616D01*
X0168701Y0025672D01*
X0168686Y0025729D01*
X0168675Y0025787D01*
X0168667Y0025845D01*
X0168663Y0025904D01*
X0168663Y0025962D01*
X0168667Y0026021D01*
X0168675Y0026079D01*
X0168686Y0026137D01*
X0168701Y0026194D01*
X0168719Y0026250D01*
X0168741Y0026304D01*
X0168767Y0026357D01*
X0168796Y0026408D01*
X0168828Y0026458D01*
X0168863Y0026505D01*
X0168901Y0026549D01*
X0168942Y0026592D01*
X0168986Y0026631D01*
X0169032Y0026668D01*
X0169080Y0026702D01*
X0169130Y0026732D01*
X0169182Y0026759D01*
X0169236Y0026783D01*
X0169291Y0026803D01*
X0169347Y0026820D01*
X0169405Y0026833D01*
X0169463Y0026842D01*
X0169521Y0026848D01*
X0169580Y0026850D01*
X0170496Y0026850D01*
X0170496Y0023550D01*
D20*
X0056696Y0069006D02*
X0056696Y0070394D01*
X0056697Y0070394D02*
X0056695Y0070440D01*
X0056689Y0070486D01*
X0056680Y0070530D01*
X0056667Y0070575D01*
X0056650Y0070617D01*
X0056630Y0070659D01*
X0056606Y0070698D01*
X0056580Y0070735D01*
X0056550Y0070771D01*
X0056518Y0070803D01*
X0056483Y0070833D01*
X0056445Y0070859D01*
X0056406Y0070883D01*
X0056364Y0070903D01*
X0056322Y0070920D01*
X0056278Y0070933D01*
X0056233Y0070942D01*
X0056187Y0070948D01*
X0056141Y0070950D01*
X0055307Y0070950D01*
X0055307Y0069839D02*
X0055307Y0068450D01*
X0056141Y0068450D01*
X0056187Y0068452D01*
X0056233Y0068458D01*
X0056277Y0068467D01*
X0056322Y0068480D01*
X0056364Y0068497D01*
X0056406Y0068517D01*
X0056445Y0068541D01*
X0056483Y0068567D01*
X0056518Y0068597D01*
X0056550Y0068629D01*
X0056580Y0068665D01*
X0056606Y0068702D01*
X0056630Y0068741D01*
X0056650Y0068783D01*
X0056667Y0068825D01*
X0056680Y0068870D01*
X0056689Y0068914D01*
X0056695Y0068960D01*
X0056697Y0069006D01*
X0055724Y0069839D02*
X0055307Y0069839D01*
X0053754Y0069561D02*
X0053060Y0069561D01*
X0053060Y0069562D02*
X0053008Y0069564D01*
X0052957Y0069570D01*
X0052906Y0069579D01*
X0052855Y0069593D01*
X0052806Y0069610D01*
X0052759Y0069631D01*
X0052713Y0069655D01*
X0052669Y0069683D01*
X0052627Y0069713D01*
X0052588Y0069747D01*
X0052551Y0069784D01*
X0052517Y0069823D01*
X0052487Y0069865D01*
X0052459Y0069909D01*
X0052435Y0069955D01*
X0052414Y0070002D01*
X0052397Y0070051D01*
X0052383Y0070102D01*
X0052374Y0070153D01*
X0052368Y0070204D01*
X0052366Y0070256D01*
X0052368Y0070308D01*
X0052374Y0070359D01*
X0052383Y0070410D01*
X0052397Y0070461D01*
X0052414Y0070510D01*
X0052435Y0070557D01*
X0052459Y0070603D01*
X0052487Y0070647D01*
X0052517Y0070689D01*
X0052551Y0070728D01*
X0052588Y0070765D01*
X0052627Y0070799D01*
X0052669Y0070829D01*
X0052713Y0070857D01*
X0052759Y0070881D01*
X0052806Y0070902D01*
X0052855Y0070919D01*
X0052906Y0070933D01*
X0052957Y0070942D01*
X0053008Y0070948D01*
X0053060Y0070950D01*
X0053754Y0070950D01*
X0053754Y0068450D01*
X0051108Y0068450D02*
X0049997Y0068450D01*
X0051108Y0068450D02*
X0051108Y0070950D01*
D21*
X0050757Y0071948D02*
X0049761Y0072461D01*
X0047287Y0070444D01*
X0045591Y0072140D01*
X0047608Y0074614D01*
X0047095Y0075611D01*
X0046753Y0076678D01*
X0043577Y0077000D01*
X0043577Y0079400D01*
X0046753Y0079722D01*
X0047095Y0080789D01*
X0047608Y0081786D01*
X0045591Y0084260D01*
X0047287Y0085956D01*
X0049761Y0083939D01*
X0050757Y0084452D01*
X0051824Y0084793D01*
X0052147Y0087969D01*
X0054546Y0087969D01*
X0054869Y0084793D01*
X0055936Y0084452D01*
X0056932Y0083939D01*
X0059406Y0085956D01*
X0061102Y0084260D01*
X0059085Y0081786D01*
X0059598Y0080789D01*
X0059940Y0079722D01*
X0063116Y0079400D01*
X0063116Y0077000D01*
X0059940Y0076678D01*
X0059598Y0075611D01*
X0059085Y0074614D01*
X0061102Y0072140D01*
X0059406Y0070444D01*
X0056932Y0072461D01*
X0055936Y0071948D01*
X0054524Y0075358D01*
X0055055Y0075642D01*
X0055522Y0076025D01*
X0055904Y0076491D01*
X0056188Y0077023D01*
X0056363Y0077600D01*
X0056422Y0078200D01*
X0056358Y0078828D01*
X0056166Y0079430D01*
X0055855Y0079980D01*
X0055439Y0080455D01*
X0054934Y0080835D01*
X0054362Y0081103D01*
X0053748Y0081250D01*
X0053117Y0081267D01*
X0052495Y0081156D01*
X0051909Y0080920D01*
X0051384Y0080569D01*
X0050942Y0080118D01*
X0050601Y0079586D01*
X0050375Y0078996D01*
X0050275Y0078373D01*
X0050305Y0077742D01*
X0050463Y0077130D01*
X0050742Y0076564D01*
X0051131Y0076066D01*
X0051614Y0075659D01*
X0052169Y0075358D01*
X0050757Y0071948D01*
X0050874Y0072231D02*
X0050209Y0072231D01*
X0049477Y0072231D02*
X0045664Y0072231D01*
X0045799Y0071932D02*
X0049111Y0071932D01*
X0048745Y0071634D02*
X0046097Y0071634D01*
X0046396Y0071335D02*
X0048379Y0071335D01*
X0048013Y0071037D02*
X0046694Y0071037D01*
X0046993Y0070738D02*
X0047647Y0070738D01*
X0045908Y0072529D02*
X0050997Y0072529D01*
X0051121Y0072828D02*
X0046151Y0072828D01*
X0046394Y0073126D02*
X0051245Y0073126D01*
X0051368Y0073425D02*
X0046638Y0073425D01*
X0046881Y0073723D02*
X0051492Y0073723D01*
X0051616Y0074022D02*
X0047125Y0074022D01*
X0047368Y0074320D02*
X0051739Y0074320D01*
X0051863Y0074619D02*
X0047606Y0074619D01*
X0047452Y0074917D02*
X0051987Y0074917D01*
X0052110Y0075216D02*
X0047298Y0075216D01*
X0047144Y0075514D02*
X0051881Y0075514D01*
X0051431Y0075813D02*
X0047030Y0075813D01*
X0046935Y0076111D02*
X0051096Y0076111D01*
X0050862Y0076410D02*
X0046839Y0076410D01*
X0046455Y0076708D02*
X0050671Y0076708D01*
X0050523Y0077007D02*
X0043577Y0077007D01*
X0043577Y0077305D02*
X0050417Y0077305D01*
X0050341Y0077604D02*
X0043577Y0077604D01*
X0043577Y0077902D02*
X0050297Y0077902D01*
X0050283Y0078201D02*
X0043577Y0078201D01*
X0043577Y0078499D02*
X0050296Y0078499D01*
X0050344Y0078798D02*
X0043577Y0078798D01*
X0043577Y0079096D02*
X0050414Y0079096D01*
X0050528Y0079395D02*
X0043577Y0079395D01*
X0046470Y0079693D02*
X0050669Y0079693D01*
X0050861Y0079992D02*
X0046839Y0079992D01*
X0046935Y0080290D02*
X0051111Y0080290D01*
X0051414Y0080589D02*
X0047031Y0080589D01*
X0047145Y0080887D02*
X0051861Y0080887D01*
X0052663Y0081186D02*
X0047299Y0081186D01*
X0047453Y0081484D02*
X0059240Y0081484D01*
X0059394Y0081186D02*
X0054016Y0081186D01*
X0054822Y0080887D02*
X0059548Y0080887D01*
X0059662Y0080589D02*
X0055261Y0080589D01*
X0055583Y0080290D02*
X0059758Y0080290D01*
X0059853Y0079992D02*
X0055845Y0079992D01*
X0056017Y0079693D02*
X0060223Y0079693D01*
X0059087Y0081783D02*
X0047606Y0081783D01*
X0047367Y0082081D02*
X0059326Y0082081D01*
X0059569Y0082380D02*
X0047123Y0082380D01*
X0046880Y0082678D02*
X0059813Y0082678D01*
X0060056Y0082977D02*
X0046637Y0082977D01*
X0046393Y0083275D02*
X0060300Y0083275D01*
X0060543Y0083574D02*
X0046150Y0083574D01*
X0045906Y0083872D02*
X0060787Y0083872D01*
X0061030Y0084171D02*
X0057217Y0084171D01*
X0057583Y0084470D02*
X0060893Y0084470D01*
X0060594Y0084768D02*
X0057949Y0084768D01*
X0058316Y0085067D02*
X0060296Y0085067D01*
X0059997Y0085365D02*
X0058682Y0085365D01*
X0059048Y0085664D02*
X0059699Y0085664D01*
X0056481Y0084171D02*
X0050212Y0084171D01*
X0050813Y0084470D02*
X0055880Y0084470D01*
X0054948Y0084768D02*
X0051745Y0084768D01*
X0051852Y0085067D02*
X0054841Y0085067D01*
X0054810Y0085365D02*
X0051882Y0085365D01*
X0051913Y0085664D02*
X0054780Y0085664D01*
X0054750Y0085962D02*
X0051943Y0085962D01*
X0051973Y0086261D02*
X0054720Y0086261D01*
X0054689Y0086559D02*
X0052004Y0086559D01*
X0052034Y0086858D02*
X0054659Y0086858D01*
X0054629Y0087156D02*
X0052064Y0087156D01*
X0052095Y0087455D02*
X0054598Y0087455D01*
X0054568Y0087753D02*
X0052125Y0087753D01*
X0048743Y0084768D02*
X0046099Y0084768D01*
X0046397Y0085067D02*
X0048377Y0085067D01*
X0048011Y0085365D02*
X0046696Y0085365D01*
X0046994Y0085664D02*
X0047645Y0085664D01*
X0049109Y0084470D02*
X0045800Y0084470D01*
X0045663Y0084171D02*
X0049476Y0084171D01*
X0056177Y0079395D02*
X0063116Y0079395D01*
X0063116Y0079096D02*
X0056272Y0079096D01*
X0056361Y0078798D02*
X0063116Y0078798D01*
X0063116Y0078499D02*
X0056392Y0078499D01*
X0056422Y0078201D02*
X0063116Y0078201D01*
X0063116Y0077902D02*
X0056393Y0077902D01*
X0056364Y0077604D02*
X0063116Y0077604D01*
X0063116Y0077305D02*
X0056274Y0077305D01*
X0056180Y0077007D02*
X0063116Y0077007D01*
X0060238Y0076708D02*
X0056020Y0076708D01*
X0055837Y0076410D02*
X0059854Y0076410D01*
X0059758Y0076111D02*
X0055592Y0076111D01*
X0055263Y0075813D02*
X0059663Y0075813D01*
X0059549Y0075514D02*
X0054815Y0075514D01*
X0054583Y0075216D02*
X0059395Y0075216D01*
X0059241Y0074917D02*
X0054706Y0074917D01*
X0054830Y0074619D02*
X0059087Y0074619D01*
X0059325Y0074320D02*
X0054954Y0074320D01*
X0055077Y0074022D02*
X0059568Y0074022D01*
X0059812Y0073723D02*
X0055201Y0073723D01*
X0055325Y0073425D02*
X0060055Y0073425D01*
X0060298Y0073126D02*
X0055448Y0073126D01*
X0055572Y0072828D02*
X0060542Y0072828D01*
X0060785Y0072529D02*
X0055696Y0072529D01*
X0055819Y0072231D02*
X0056484Y0072231D01*
X0057215Y0072231D02*
X0061029Y0072231D01*
X0060894Y0071932D02*
X0057582Y0071932D01*
X0057948Y0071634D02*
X0060596Y0071634D01*
X0060297Y0071335D02*
X0058314Y0071335D01*
X0058680Y0071037D02*
X0059999Y0071037D01*
X0059700Y0070738D02*
X0059046Y0070738D01*
X0047388Y0059987D02*
X0046580Y0059987D01*
X0047388Y0059987D02*
X0047443Y0059985D01*
X0047498Y0059979D01*
X0047552Y0059970D01*
X0047606Y0059957D01*
X0047659Y0059940D01*
X0047710Y0059920D01*
X0047760Y0059896D01*
X0047808Y0059869D01*
X0047854Y0059839D01*
X0047898Y0059806D01*
X0047940Y0059770D01*
X0047979Y0059731D01*
X0048015Y0059689D01*
X0048048Y0059645D01*
X0048078Y0059599D01*
X0048105Y0059551D01*
X0048129Y0059501D01*
X0048149Y0059450D01*
X0048166Y0059397D01*
X0048179Y0059343D01*
X0048188Y0059289D01*
X0048194Y0059234D01*
X0048196Y0059179D01*
X0048196Y0057158D01*
X0048194Y0057103D01*
X0048188Y0057048D01*
X0048179Y0056994D01*
X0048166Y0056940D01*
X0048149Y0056887D01*
X0048129Y0056836D01*
X0048105Y0056786D01*
X0048078Y0056738D01*
X0048048Y0056692D01*
X0048015Y0056648D01*
X0047979Y0056606D01*
X0047940Y0056567D01*
X0047898Y0056531D01*
X0047854Y0056498D01*
X0047808Y0056468D01*
X0047760Y0056441D01*
X0047710Y0056417D01*
X0047659Y0056397D01*
X0047606Y0056380D01*
X0047552Y0056367D01*
X0047498Y0056358D01*
X0047443Y0056352D01*
X0047388Y0056350D01*
X0046580Y0056350D01*
X0045234Y0056350D02*
X0043213Y0056350D01*
X0044223Y0056350D02*
X0044223Y0059987D01*
X0045234Y0059179D01*
X0039670Y0058169D02*
X0039672Y0058064D01*
X0039677Y0057960D01*
X0039686Y0057856D01*
X0039699Y0057752D01*
X0039715Y0057649D01*
X0039735Y0057546D01*
X0039759Y0057444D01*
X0039786Y0057343D01*
X0039817Y0057243D01*
X0039851Y0057144D01*
X0039888Y0057047D01*
X0039929Y0056950D01*
X0039973Y0056856D01*
X0039972Y0056855D02*
X0039992Y0056804D01*
X0040015Y0056755D01*
X0040042Y0056708D01*
X0040072Y0056662D01*
X0040106Y0056619D01*
X0040142Y0056578D01*
X0040181Y0056540D01*
X0040223Y0056506D01*
X0040268Y0056474D01*
X0040314Y0056445D01*
X0040363Y0056421D01*
X0040413Y0056399D01*
X0040465Y0056382D01*
X0040518Y0056368D01*
X0040571Y0056358D01*
X0040625Y0056352D01*
X0040680Y0056350D01*
X0040735Y0056352D01*
X0040789Y0056358D01*
X0040842Y0056368D01*
X0040895Y0056382D01*
X0040947Y0056399D01*
X0040997Y0056421D01*
X0041046Y0056445D01*
X0041092Y0056474D01*
X0041137Y0056506D01*
X0041179Y0056540D01*
X0041218Y0056578D01*
X0041254Y0056619D01*
X0041288Y0056662D01*
X0041318Y0056708D01*
X0041345Y0056755D01*
X0041368Y0056804D01*
X0041388Y0056855D01*
X0041488Y0057158D02*
X0039872Y0059179D01*
X0039972Y0059482D02*
X0039992Y0059533D01*
X0040015Y0059582D01*
X0040042Y0059629D01*
X0040072Y0059675D01*
X0040106Y0059718D01*
X0040142Y0059759D01*
X0040181Y0059797D01*
X0040223Y0059831D01*
X0040268Y0059863D01*
X0040314Y0059892D01*
X0040363Y0059916D01*
X0040413Y0059938D01*
X0040465Y0059955D01*
X0040518Y0059969D01*
X0040571Y0059979D01*
X0040625Y0059985D01*
X0040680Y0059987D01*
X0040735Y0059985D01*
X0040789Y0059979D01*
X0040842Y0059969D01*
X0040895Y0059955D01*
X0040947Y0059938D01*
X0040997Y0059916D01*
X0041046Y0059892D01*
X0041092Y0059863D01*
X0041137Y0059831D01*
X0041179Y0059797D01*
X0041218Y0059759D01*
X0041254Y0059718D01*
X0041288Y0059675D01*
X0041318Y0059629D01*
X0041345Y0059582D01*
X0041368Y0059533D01*
X0041388Y0059482D01*
X0039973Y0059482D02*
X0039929Y0059388D01*
X0039888Y0059291D01*
X0039851Y0059194D01*
X0039817Y0059095D01*
X0039786Y0058995D01*
X0039759Y0058894D01*
X0039735Y0058792D01*
X0039715Y0058689D01*
X0039699Y0058586D01*
X0039686Y0058482D01*
X0039677Y0058378D01*
X0039672Y0058274D01*
X0039670Y0058169D01*
X0041690Y0058169D02*
X0041688Y0058274D01*
X0041683Y0058378D01*
X0041674Y0058482D01*
X0041661Y0058586D01*
X0041645Y0058689D01*
X0041625Y0058792D01*
X0041601Y0058894D01*
X0041574Y0058995D01*
X0041543Y0059095D01*
X0041509Y0059194D01*
X0041472Y0059291D01*
X0041431Y0059387D01*
X0041387Y0059482D01*
X0041690Y0058169D02*
X0041688Y0058064D01*
X0041683Y0057960D01*
X0041674Y0057856D01*
X0041661Y0057752D01*
X0041645Y0057649D01*
X0041625Y0057546D01*
X0041601Y0057444D01*
X0041574Y0057343D01*
X0041543Y0057243D01*
X0041509Y0057144D01*
X0041472Y0057047D01*
X0041431Y0056951D01*
X0041387Y0056856D01*
X0044223Y0049987D02*
X0044223Y0046350D01*
X0043213Y0046350D02*
X0045234Y0046350D01*
X0046580Y0046350D02*
X0047388Y0046350D01*
X0047443Y0046352D01*
X0047498Y0046358D01*
X0047552Y0046367D01*
X0047606Y0046380D01*
X0047659Y0046397D01*
X0047710Y0046417D01*
X0047760Y0046441D01*
X0047808Y0046468D01*
X0047854Y0046498D01*
X0047898Y0046531D01*
X0047940Y0046567D01*
X0047979Y0046606D01*
X0048015Y0046648D01*
X0048048Y0046692D01*
X0048078Y0046738D01*
X0048105Y0046786D01*
X0048129Y0046836D01*
X0048149Y0046887D01*
X0048166Y0046940D01*
X0048179Y0046994D01*
X0048188Y0047048D01*
X0048194Y0047103D01*
X0048196Y0047158D01*
X0048196Y0049179D01*
X0048194Y0049234D01*
X0048188Y0049289D01*
X0048179Y0049343D01*
X0048166Y0049397D01*
X0048149Y0049450D01*
X0048129Y0049501D01*
X0048105Y0049551D01*
X0048078Y0049599D01*
X0048048Y0049645D01*
X0048015Y0049689D01*
X0047979Y0049731D01*
X0047940Y0049770D01*
X0047898Y0049806D01*
X0047854Y0049839D01*
X0047808Y0049869D01*
X0047760Y0049896D01*
X0047710Y0049920D01*
X0047659Y0049940D01*
X0047606Y0049957D01*
X0047552Y0049970D01*
X0047498Y0049979D01*
X0047443Y0049985D01*
X0047388Y0049987D01*
X0046580Y0049987D01*
X0045234Y0049179D02*
X0044223Y0049987D01*
X0039972Y0048370D02*
X0039929Y0048414D01*
X0039890Y0048460D01*
X0039853Y0048508D01*
X0039819Y0048559D01*
X0039788Y0048611D01*
X0039760Y0048665D01*
X0039736Y0048721D01*
X0039716Y0048779D01*
X0039699Y0048837D01*
X0039686Y0048896D01*
X0039677Y0048957D01*
X0039671Y0049017D01*
X0039669Y0049078D01*
X0039973Y0048371D02*
X0041690Y0046350D01*
X0039670Y0046350D01*
X0041690Y0049179D02*
X0041668Y0049242D01*
X0041642Y0049303D01*
X0041612Y0049363D01*
X0041580Y0049421D01*
X0041544Y0049478D01*
X0041504Y0049532D01*
X0041462Y0049583D01*
X0041417Y0049633D01*
X0041369Y0049679D01*
X0041319Y0049723D01*
X0041266Y0049764D01*
X0041211Y0049801D01*
X0041154Y0049836D01*
X0041095Y0049867D01*
X0041034Y0049895D01*
X0040972Y0049919D01*
X0040908Y0049940D01*
X0040844Y0049957D01*
X0040778Y0049970D01*
X0040712Y0049979D01*
X0040646Y0049985D01*
X0040579Y0049987D01*
X0040520Y0049985D01*
X0040460Y0049979D01*
X0040402Y0049970D01*
X0040344Y0049956D01*
X0040287Y0049939D01*
X0040231Y0049918D01*
X0040177Y0049893D01*
X0040124Y0049865D01*
X0040074Y0049834D01*
X0040026Y0049799D01*
X0039980Y0049761D01*
X0039936Y0049721D01*
X0039896Y0049677D01*
X0039858Y0049631D01*
X0039823Y0049583D01*
X0039792Y0049532D01*
X0039764Y0049480D01*
X0039739Y0049426D01*
X0039718Y0049370D01*
X0039701Y0049313D01*
X0039687Y0049255D01*
X0039678Y0049197D01*
X0039672Y0049137D01*
X0039670Y0049078D01*
X0075713Y0076466D02*
X0075713Y0077477D01*
X0075715Y0077539D01*
X0075721Y0077601D01*
X0075730Y0077663D01*
X0075744Y0077723D01*
X0075761Y0077783D01*
X0075781Y0077842D01*
X0075805Y0077899D01*
X0075833Y0077955D01*
X0075864Y0078009D01*
X0075899Y0078061D01*
X0075936Y0078110D01*
X0075977Y0078157D01*
X0076020Y0078202D01*
X0076066Y0078244D01*
X0076114Y0078283D01*
X0076165Y0078319D01*
X0076218Y0078352D01*
X0076273Y0078381D01*
X0076329Y0078407D01*
X0076387Y0078430D01*
X0076447Y0078448D01*
X0076507Y0078464D01*
X0076568Y0078475D01*
X0076630Y0078483D01*
X0076692Y0078487D01*
X0076754Y0078487D01*
X0076816Y0078483D01*
X0076878Y0078475D01*
X0076939Y0078464D01*
X0076999Y0078448D01*
X0077059Y0078430D01*
X0077117Y0078407D01*
X0077173Y0078381D01*
X0077228Y0078352D01*
X0077281Y0078319D01*
X0077332Y0078283D01*
X0077380Y0078244D01*
X0077426Y0078202D01*
X0077469Y0078157D01*
X0077510Y0078110D01*
X0077547Y0078061D01*
X0077582Y0078009D01*
X0077613Y0077955D01*
X0077641Y0077899D01*
X0077665Y0077842D01*
X0077685Y0077783D01*
X0077702Y0077723D01*
X0077716Y0077663D01*
X0077725Y0077601D01*
X0077731Y0077539D01*
X0077733Y0077477D01*
X0077734Y0077477D02*
X0077734Y0077275D01*
X0077733Y0077275D02*
X0077731Y0077220D01*
X0077725Y0077165D01*
X0077716Y0077111D01*
X0077703Y0077057D01*
X0077686Y0077004D01*
X0077666Y0076953D01*
X0077642Y0076903D01*
X0077615Y0076855D01*
X0077585Y0076809D01*
X0077552Y0076765D01*
X0077516Y0076724D01*
X0077477Y0076684D01*
X0077435Y0076648D01*
X0077391Y0076615D01*
X0077345Y0076585D01*
X0077297Y0076558D01*
X0077247Y0076534D01*
X0077196Y0076514D01*
X0077143Y0076497D01*
X0077089Y0076484D01*
X0077035Y0076475D01*
X0076980Y0076469D01*
X0076925Y0076467D01*
X0076925Y0076466D02*
X0075713Y0076466D01*
X0075714Y0076466D02*
X0075716Y0076387D01*
X0075722Y0076308D01*
X0075731Y0076229D01*
X0075745Y0076151D01*
X0075762Y0076073D01*
X0075784Y0075997D01*
X0075808Y0075922D01*
X0075837Y0075848D01*
X0075869Y0075775D01*
X0075905Y0075704D01*
X0075944Y0075635D01*
X0075986Y0075568D01*
X0076032Y0075503D01*
X0076081Y0075441D01*
X0076133Y0075381D01*
X0076187Y0075323D01*
X0076245Y0075269D01*
X0076305Y0075217D01*
X0076367Y0075168D01*
X0076432Y0075122D01*
X0076499Y0075080D01*
X0076568Y0075041D01*
X0076639Y0075005D01*
X0076712Y0074973D01*
X0076786Y0074944D01*
X0076861Y0074920D01*
X0076937Y0074898D01*
X0077015Y0074881D01*
X0077093Y0074867D01*
X0077172Y0074858D01*
X0077251Y0074852D01*
X0077330Y0074850D01*
X0079080Y0074850D02*
X0079888Y0074850D01*
X0079943Y0074852D01*
X0079998Y0074858D01*
X0080052Y0074867D01*
X0080106Y0074880D01*
X0080159Y0074897D01*
X0080210Y0074917D01*
X0080260Y0074941D01*
X0080308Y0074968D01*
X0080354Y0074998D01*
X0080398Y0075031D01*
X0080440Y0075067D01*
X0080479Y0075106D01*
X0080515Y0075148D01*
X0080548Y0075192D01*
X0080578Y0075238D01*
X0080605Y0075286D01*
X0080629Y0075336D01*
X0080649Y0075387D01*
X0080666Y0075440D01*
X0080679Y0075494D01*
X0080688Y0075548D01*
X0080694Y0075603D01*
X0080696Y0075658D01*
X0080696Y0077679D01*
X0080694Y0077734D01*
X0080688Y0077789D01*
X0080679Y0077843D01*
X0080666Y0077897D01*
X0080649Y0077950D01*
X0080629Y0078001D01*
X0080605Y0078051D01*
X0080578Y0078099D01*
X0080548Y0078145D01*
X0080515Y0078189D01*
X0080479Y0078231D01*
X0080440Y0078270D01*
X0080398Y0078306D01*
X0080354Y0078339D01*
X0080308Y0078369D01*
X0080260Y0078396D01*
X0080210Y0078420D01*
X0080159Y0078440D01*
X0080106Y0078457D01*
X0080052Y0078470D01*
X0079998Y0078479D01*
X0079943Y0078485D01*
X0079888Y0078487D01*
X0079080Y0078487D01*
X0089559Y0081375D02*
X0089559Y0082183D01*
X0089560Y0081375D02*
X0089562Y0081320D01*
X0089568Y0081265D01*
X0089577Y0081211D01*
X0089590Y0081157D01*
X0089607Y0081104D01*
X0089627Y0081053D01*
X0089651Y0081003D01*
X0089678Y0080955D01*
X0089708Y0080909D01*
X0089741Y0080865D01*
X0089777Y0080823D01*
X0089816Y0080784D01*
X0089858Y0080748D01*
X0089902Y0080715D01*
X0089948Y0080685D01*
X0089996Y0080658D01*
X0090046Y0080634D01*
X0090097Y0080614D01*
X0090150Y0080597D01*
X0090204Y0080584D01*
X0090258Y0080575D01*
X0090313Y0080569D01*
X0090368Y0080567D01*
X0092388Y0080567D01*
X0092443Y0080569D01*
X0092498Y0080575D01*
X0092552Y0080584D01*
X0092606Y0080597D01*
X0092659Y0080614D01*
X0092710Y0080634D01*
X0092760Y0080658D01*
X0092808Y0080685D01*
X0092854Y0080715D01*
X0092898Y0080748D01*
X0092939Y0080784D01*
X0092979Y0080823D01*
X0093015Y0080865D01*
X0093048Y0080909D01*
X0093078Y0080955D01*
X0093105Y0081003D01*
X0093129Y0081053D01*
X0093149Y0081104D01*
X0093166Y0081157D01*
X0093179Y0081211D01*
X0093188Y0081265D01*
X0093194Y0081320D01*
X0093196Y0081375D01*
X0093196Y0082183D01*
X0092388Y0083529D02*
X0093196Y0084540D01*
X0089559Y0084540D01*
X0089559Y0085550D02*
X0089559Y0083529D01*
X0112868Y0068050D02*
X0113272Y0068050D01*
X0113327Y0068048D01*
X0113382Y0068042D01*
X0113436Y0068033D01*
X0113490Y0068020D01*
X0113543Y0068003D01*
X0113594Y0067983D01*
X0113644Y0067959D01*
X0113692Y0067932D01*
X0113738Y0067902D01*
X0113782Y0067869D01*
X0113824Y0067833D01*
X0113863Y0067794D01*
X0113899Y0067752D01*
X0113932Y0067708D01*
X0113962Y0067662D01*
X0113989Y0067614D01*
X0114013Y0067564D01*
X0114033Y0067513D01*
X0114050Y0067460D01*
X0114063Y0067406D01*
X0114072Y0067352D01*
X0114078Y0067297D01*
X0114080Y0067242D01*
X0114080Y0066029D01*
X0115696Y0066029D01*
X0115696Y0068050D01*
X0112868Y0068050D02*
X0112813Y0068048D01*
X0112758Y0068042D01*
X0112704Y0068033D01*
X0112650Y0068020D01*
X0112597Y0068003D01*
X0112546Y0067983D01*
X0112496Y0067959D01*
X0112448Y0067932D01*
X0112402Y0067902D01*
X0112358Y0067869D01*
X0112316Y0067833D01*
X0112277Y0067793D01*
X0112241Y0067752D01*
X0112208Y0067708D01*
X0112178Y0067662D01*
X0112151Y0067614D01*
X0112127Y0067564D01*
X0112107Y0067513D01*
X0112090Y0067460D01*
X0112077Y0067406D01*
X0112068Y0067352D01*
X0112062Y0067297D01*
X0112060Y0067242D01*
X0112059Y0067242D02*
X0112059Y0066029D01*
X0112059Y0064683D02*
X0112059Y0063875D01*
X0112060Y0063875D02*
X0112062Y0063820D01*
X0112068Y0063765D01*
X0112077Y0063711D01*
X0112090Y0063657D01*
X0112107Y0063604D01*
X0112127Y0063553D01*
X0112151Y0063503D01*
X0112178Y0063455D01*
X0112208Y0063409D01*
X0112241Y0063365D01*
X0112277Y0063323D01*
X0112316Y0063284D01*
X0112358Y0063248D01*
X0112402Y0063215D01*
X0112448Y0063185D01*
X0112496Y0063158D01*
X0112546Y0063134D01*
X0112597Y0063114D01*
X0112650Y0063097D01*
X0112704Y0063084D01*
X0112758Y0063075D01*
X0112813Y0063069D01*
X0112868Y0063067D01*
X0114888Y0063067D01*
X0114943Y0063069D01*
X0114998Y0063075D01*
X0115052Y0063084D01*
X0115106Y0063097D01*
X0115159Y0063114D01*
X0115210Y0063134D01*
X0115260Y0063158D01*
X0115308Y0063185D01*
X0115354Y0063215D01*
X0115398Y0063248D01*
X0115439Y0063284D01*
X0115479Y0063323D01*
X0115515Y0063365D01*
X0115548Y0063409D01*
X0115578Y0063455D01*
X0115605Y0063503D01*
X0115629Y0063553D01*
X0115649Y0063604D01*
X0115666Y0063657D01*
X0115679Y0063711D01*
X0115688Y0063765D01*
X0115694Y0063820D01*
X0115696Y0063875D01*
X0115696Y0064683D01*
X0103633Y0059366D02*
X0099996Y0059366D01*
X0099996Y0058356D02*
X0099996Y0060377D01*
X0102825Y0058356D02*
X0103633Y0059366D01*
X0103633Y0055823D02*
X0099996Y0055823D01*
X0099996Y0054813D02*
X0099996Y0056833D01*
X0102825Y0054813D02*
X0103633Y0055823D01*
X0103633Y0053466D02*
X0103633Y0052658D01*
X0103631Y0052603D01*
X0103625Y0052548D01*
X0103616Y0052494D01*
X0103603Y0052440D01*
X0103586Y0052387D01*
X0103566Y0052336D01*
X0103542Y0052286D01*
X0103515Y0052238D01*
X0103485Y0052192D01*
X0103452Y0052148D01*
X0103416Y0052106D01*
X0103376Y0052067D01*
X0103335Y0052031D01*
X0103291Y0051998D01*
X0103245Y0051968D01*
X0103197Y0051941D01*
X0103147Y0051917D01*
X0103096Y0051897D01*
X0103043Y0051880D01*
X0102989Y0051867D01*
X0102935Y0051858D01*
X0102880Y0051852D01*
X0102825Y0051850D01*
X0100805Y0051850D01*
X0100750Y0051852D01*
X0100695Y0051858D01*
X0100641Y0051867D01*
X0100587Y0051880D01*
X0100534Y0051897D01*
X0100483Y0051917D01*
X0100433Y0051941D01*
X0100385Y0051968D01*
X0100339Y0051998D01*
X0100295Y0052031D01*
X0100253Y0052067D01*
X0100214Y0052106D01*
X0100178Y0052148D01*
X0100145Y0052192D01*
X0100115Y0052238D01*
X0100088Y0052286D01*
X0100064Y0052336D01*
X0100044Y0052387D01*
X0100027Y0052440D01*
X0100014Y0052494D01*
X0100005Y0052548D01*
X0099999Y0052603D01*
X0099997Y0052658D01*
X0099996Y0052658D02*
X0099996Y0053466D01*
X0137559Y0035529D02*
X0139176Y0034721D01*
X0139176Y0034519D02*
X0139176Y0033508D01*
X0139176Y0034519D02*
X0139178Y0034581D01*
X0139184Y0034643D01*
X0139193Y0034705D01*
X0139207Y0034765D01*
X0139224Y0034825D01*
X0139244Y0034884D01*
X0139268Y0034941D01*
X0139296Y0034997D01*
X0139327Y0035051D01*
X0139362Y0035103D01*
X0139399Y0035152D01*
X0139440Y0035199D01*
X0139483Y0035244D01*
X0139529Y0035286D01*
X0139577Y0035325D01*
X0139628Y0035361D01*
X0139681Y0035394D01*
X0139736Y0035423D01*
X0139792Y0035449D01*
X0139850Y0035472D01*
X0139910Y0035490D01*
X0139970Y0035506D01*
X0140031Y0035517D01*
X0140093Y0035525D01*
X0140155Y0035529D01*
X0140217Y0035529D01*
X0140279Y0035525D01*
X0140341Y0035517D01*
X0140402Y0035506D01*
X0140462Y0035490D01*
X0140522Y0035472D01*
X0140580Y0035449D01*
X0140636Y0035423D01*
X0140691Y0035394D01*
X0140744Y0035361D01*
X0140795Y0035325D01*
X0140843Y0035286D01*
X0140889Y0035244D01*
X0140932Y0035199D01*
X0140973Y0035152D01*
X0141010Y0035103D01*
X0141045Y0035051D01*
X0141076Y0034997D01*
X0141104Y0034941D01*
X0141128Y0034884D01*
X0141148Y0034825D01*
X0141165Y0034765D01*
X0141179Y0034705D01*
X0141188Y0034643D01*
X0141194Y0034581D01*
X0141196Y0034519D01*
X0141196Y0033508D01*
X0137559Y0033508D01*
X0138570Y0037030D02*
X0138508Y0037032D01*
X0138446Y0037038D01*
X0138384Y0037047D01*
X0138324Y0037061D01*
X0138264Y0037078D01*
X0138205Y0037098D01*
X0138148Y0037122D01*
X0138092Y0037150D01*
X0138038Y0037181D01*
X0137986Y0037216D01*
X0137937Y0037253D01*
X0137890Y0037294D01*
X0137845Y0037337D01*
X0137803Y0037383D01*
X0137764Y0037431D01*
X0137728Y0037482D01*
X0137695Y0037535D01*
X0137666Y0037590D01*
X0137640Y0037646D01*
X0137617Y0037704D01*
X0137599Y0037764D01*
X0137583Y0037824D01*
X0137572Y0037885D01*
X0137564Y0037947D01*
X0137560Y0038009D01*
X0137560Y0038071D01*
X0137564Y0038133D01*
X0137572Y0038195D01*
X0137583Y0038256D01*
X0137599Y0038316D01*
X0137617Y0038376D01*
X0137640Y0038434D01*
X0137666Y0038490D01*
X0137695Y0038545D01*
X0137728Y0038598D01*
X0137764Y0038649D01*
X0137803Y0038697D01*
X0137845Y0038743D01*
X0137890Y0038786D01*
X0137937Y0038827D01*
X0137986Y0038864D01*
X0138038Y0038899D01*
X0138092Y0038930D01*
X0138148Y0038958D01*
X0138205Y0038982D01*
X0138264Y0039002D01*
X0138324Y0039019D01*
X0138384Y0039033D01*
X0138446Y0039042D01*
X0138508Y0039048D01*
X0138570Y0039050D01*
X0138632Y0039048D01*
X0138694Y0039042D01*
X0138756Y0039033D01*
X0138816Y0039019D01*
X0138876Y0039002D01*
X0138935Y0038982D01*
X0138992Y0038958D01*
X0139048Y0038930D01*
X0139102Y0038899D01*
X0139154Y0038864D01*
X0139203Y0038827D01*
X0139250Y0038786D01*
X0139295Y0038743D01*
X0139337Y0038697D01*
X0139376Y0038649D01*
X0139412Y0038598D01*
X0139445Y0038545D01*
X0139474Y0038490D01*
X0139500Y0038434D01*
X0139523Y0038376D01*
X0139541Y0038316D01*
X0139557Y0038256D01*
X0139568Y0038195D01*
X0139576Y0038133D01*
X0139580Y0038071D01*
X0139580Y0038009D01*
X0139576Y0037947D01*
X0139568Y0037885D01*
X0139557Y0037824D01*
X0139541Y0037764D01*
X0139523Y0037704D01*
X0139500Y0037646D01*
X0139474Y0037590D01*
X0139445Y0037535D01*
X0139412Y0037482D01*
X0139376Y0037431D01*
X0139337Y0037383D01*
X0139295Y0037337D01*
X0139250Y0037294D01*
X0139203Y0037253D01*
X0139154Y0037216D01*
X0139102Y0037181D01*
X0139048Y0037150D01*
X0138992Y0037122D01*
X0138935Y0037098D01*
X0138876Y0037078D01*
X0138816Y0037061D01*
X0138756Y0037047D01*
X0138694Y0037038D01*
X0138632Y0037032D01*
X0138570Y0037030D01*
X0140388Y0037232D02*
X0140333Y0037234D01*
X0140278Y0037240D01*
X0140224Y0037249D01*
X0140170Y0037262D01*
X0140117Y0037279D01*
X0140066Y0037299D01*
X0140016Y0037323D01*
X0139968Y0037350D01*
X0139922Y0037380D01*
X0139878Y0037413D01*
X0139836Y0037449D01*
X0139797Y0037488D01*
X0139761Y0037530D01*
X0139728Y0037574D01*
X0139698Y0037620D01*
X0139671Y0037668D01*
X0139647Y0037718D01*
X0139627Y0037769D01*
X0139610Y0037822D01*
X0139597Y0037876D01*
X0139588Y0037930D01*
X0139582Y0037985D01*
X0139580Y0038040D01*
X0139582Y0038095D01*
X0139588Y0038150D01*
X0139597Y0038204D01*
X0139610Y0038258D01*
X0139627Y0038311D01*
X0139647Y0038362D01*
X0139671Y0038412D01*
X0139698Y0038460D01*
X0139728Y0038506D01*
X0139761Y0038550D01*
X0139797Y0038592D01*
X0139836Y0038631D01*
X0139878Y0038667D01*
X0139922Y0038700D01*
X0139968Y0038730D01*
X0140016Y0038757D01*
X0140066Y0038781D01*
X0140117Y0038801D01*
X0140170Y0038818D01*
X0140224Y0038831D01*
X0140278Y0038840D01*
X0140333Y0038846D01*
X0140388Y0038848D01*
X0140443Y0038846D01*
X0140498Y0038840D01*
X0140552Y0038831D01*
X0140606Y0038818D01*
X0140659Y0038801D01*
X0140710Y0038781D01*
X0140760Y0038757D01*
X0140808Y0038730D01*
X0140854Y0038700D01*
X0140898Y0038667D01*
X0140940Y0038631D01*
X0140979Y0038592D01*
X0141015Y0038550D01*
X0141048Y0038506D01*
X0141078Y0038460D01*
X0141105Y0038412D01*
X0141129Y0038362D01*
X0141149Y0038311D01*
X0141166Y0038258D01*
X0141179Y0038204D01*
X0141188Y0038150D01*
X0141194Y0038095D01*
X0141196Y0038040D01*
X0141194Y0037985D01*
X0141188Y0037930D01*
X0141179Y0037876D01*
X0141166Y0037822D01*
X0141149Y0037769D01*
X0141129Y0037718D01*
X0141105Y0037668D01*
X0141078Y0037620D01*
X0141048Y0037574D01*
X0141015Y0037530D01*
X0140979Y0037488D01*
X0140940Y0037449D01*
X0140898Y0037413D01*
X0140854Y0037380D01*
X0140808Y0037350D01*
X0140760Y0037323D01*
X0140710Y0037299D01*
X0140659Y0037279D01*
X0140606Y0037262D01*
X0140552Y0037249D01*
X0140498Y0037240D01*
X0140443Y0037234D01*
X0140388Y0037232D01*
X0159059Y0035529D02*
X0160676Y0034721D01*
X0160676Y0034519D02*
X0160676Y0033508D01*
X0160676Y0034519D02*
X0160678Y0034581D01*
X0160684Y0034643D01*
X0160693Y0034705D01*
X0160707Y0034765D01*
X0160724Y0034825D01*
X0160744Y0034884D01*
X0160768Y0034941D01*
X0160796Y0034997D01*
X0160827Y0035051D01*
X0160862Y0035103D01*
X0160899Y0035152D01*
X0160940Y0035199D01*
X0160983Y0035244D01*
X0161029Y0035286D01*
X0161077Y0035325D01*
X0161128Y0035361D01*
X0161181Y0035394D01*
X0161236Y0035423D01*
X0161292Y0035449D01*
X0161350Y0035472D01*
X0161410Y0035490D01*
X0161470Y0035506D01*
X0161531Y0035517D01*
X0161593Y0035525D01*
X0161655Y0035529D01*
X0161717Y0035529D01*
X0161779Y0035525D01*
X0161841Y0035517D01*
X0161902Y0035506D01*
X0161962Y0035490D01*
X0162022Y0035472D01*
X0162080Y0035449D01*
X0162136Y0035423D01*
X0162191Y0035394D01*
X0162244Y0035361D01*
X0162295Y0035325D01*
X0162343Y0035286D01*
X0162389Y0035244D01*
X0162432Y0035199D01*
X0162473Y0035152D01*
X0162510Y0035103D01*
X0162545Y0035051D01*
X0162576Y0034997D01*
X0162604Y0034941D01*
X0162628Y0034884D01*
X0162648Y0034825D01*
X0162665Y0034765D01*
X0162679Y0034705D01*
X0162688Y0034643D01*
X0162694Y0034581D01*
X0162696Y0034519D01*
X0162696Y0033508D01*
X0159059Y0033508D01*
X0159060Y0037434D02*
X0159062Y0037513D01*
X0159068Y0037592D01*
X0159077Y0037671D01*
X0159091Y0037749D01*
X0159108Y0037827D01*
X0159130Y0037903D01*
X0159154Y0037978D01*
X0159183Y0038052D01*
X0159215Y0038125D01*
X0159251Y0038196D01*
X0159290Y0038265D01*
X0159332Y0038332D01*
X0159378Y0038397D01*
X0159427Y0038459D01*
X0159479Y0038519D01*
X0159533Y0038577D01*
X0159591Y0038631D01*
X0159651Y0038683D01*
X0159713Y0038732D01*
X0159778Y0038778D01*
X0159845Y0038820D01*
X0159914Y0038859D01*
X0159985Y0038895D01*
X0160058Y0038927D01*
X0160132Y0038956D01*
X0160207Y0038980D01*
X0160283Y0039002D01*
X0160361Y0039019D01*
X0160439Y0039033D01*
X0160518Y0039042D01*
X0160597Y0039048D01*
X0160676Y0039050D01*
X0161686Y0039050D01*
X0160676Y0039050D02*
X0160676Y0037838D01*
X0160678Y0037783D01*
X0160684Y0037728D01*
X0160693Y0037674D01*
X0160706Y0037620D01*
X0160723Y0037567D01*
X0160743Y0037516D01*
X0160767Y0037466D01*
X0160794Y0037418D01*
X0160824Y0037372D01*
X0160857Y0037328D01*
X0160893Y0037286D01*
X0160933Y0037247D01*
X0160974Y0037211D01*
X0161018Y0037178D01*
X0161064Y0037148D01*
X0161112Y0037121D01*
X0161162Y0037097D01*
X0161213Y0037077D01*
X0161266Y0037060D01*
X0161320Y0037047D01*
X0161374Y0037038D01*
X0161429Y0037032D01*
X0161484Y0037030D01*
X0161484Y0037029D02*
X0161686Y0037029D01*
X0161686Y0037030D02*
X0161748Y0037032D01*
X0161810Y0037038D01*
X0161872Y0037047D01*
X0161932Y0037061D01*
X0161992Y0037078D01*
X0162051Y0037098D01*
X0162108Y0037122D01*
X0162164Y0037150D01*
X0162218Y0037181D01*
X0162270Y0037216D01*
X0162319Y0037253D01*
X0162366Y0037294D01*
X0162411Y0037337D01*
X0162453Y0037383D01*
X0162492Y0037431D01*
X0162528Y0037482D01*
X0162561Y0037535D01*
X0162590Y0037590D01*
X0162616Y0037646D01*
X0162639Y0037704D01*
X0162657Y0037764D01*
X0162673Y0037824D01*
X0162684Y0037885D01*
X0162692Y0037947D01*
X0162696Y0038009D01*
X0162696Y0038071D01*
X0162692Y0038133D01*
X0162684Y0038195D01*
X0162673Y0038256D01*
X0162657Y0038316D01*
X0162639Y0038376D01*
X0162616Y0038434D01*
X0162590Y0038490D01*
X0162561Y0038545D01*
X0162528Y0038598D01*
X0162492Y0038649D01*
X0162453Y0038697D01*
X0162411Y0038743D01*
X0162366Y0038786D01*
X0162319Y0038827D01*
X0162270Y0038864D01*
X0162218Y0038899D01*
X0162164Y0038930D01*
X0162108Y0038958D01*
X0162051Y0038982D01*
X0161992Y0039002D01*
X0161932Y0039019D01*
X0161872Y0039033D01*
X0161810Y0039042D01*
X0161748Y0039048D01*
X0161686Y0039050D01*
X0180805Y0073850D02*
X0182825Y0073850D01*
X0182880Y0073852D01*
X0182935Y0073858D01*
X0182989Y0073867D01*
X0183043Y0073880D01*
X0183096Y0073897D01*
X0183147Y0073917D01*
X0183197Y0073941D01*
X0183245Y0073968D01*
X0183291Y0073998D01*
X0183335Y0074031D01*
X0183376Y0074067D01*
X0183416Y0074106D01*
X0183452Y0074148D01*
X0183485Y0074192D01*
X0183515Y0074238D01*
X0183542Y0074286D01*
X0183566Y0074336D01*
X0183586Y0074387D01*
X0183603Y0074440D01*
X0183616Y0074494D01*
X0183625Y0074548D01*
X0183631Y0074603D01*
X0183633Y0074658D01*
X0183633Y0075466D01*
X0183633Y0077621D02*
X0180805Y0076813D01*
X0180805Y0078833D01*
X0181613Y0078227D02*
X0179996Y0078227D01*
X0179996Y0075466D02*
X0179996Y0074658D01*
X0179997Y0074658D02*
X0179999Y0074603D01*
X0180005Y0074548D01*
X0180014Y0074494D01*
X0180027Y0074440D01*
X0180044Y0074387D01*
X0180064Y0074336D01*
X0180088Y0074286D01*
X0180115Y0074238D01*
X0180145Y0074192D01*
X0180178Y0074148D01*
X0180214Y0074106D01*
X0180253Y0074067D01*
X0180295Y0074031D01*
X0180339Y0073998D01*
X0180385Y0073968D01*
X0180433Y0073941D01*
X0180483Y0073917D01*
X0180534Y0073897D01*
X0180587Y0073880D01*
X0180641Y0073867D01*
X0180695Y0073858D01*
X0180750Y0073852D01*
X0180805Y0073850D01*
X0117696Y0100658D02*
X0117696Y0102679D01*
X0117694Y0102734D01*
X0117688Y0102789D01*
X0117679Y0102843D01*
X0117666Y0102897D01*
X0117649Y0102950D01*
X0117629Y0103001D01*
X0117605Y0103051D01*
X0117578Y0103099D01*
X0117548Y0103145D01*
X0117515Y0103189D01*
X0117479Y0103231D01*
X0117440Y0103270D01*
X0117398Y0103306D01*
X0117354Y0103339D01*
X0117308Y0103369D01*
X0117260Y0103396D01*
X0117210Y0103420D01*
X0117159Y0103440D01*
X0117106Y0103457D01*
X0117052Y0103470D01*
X0116998Y0103479D01*
X0116943Y0103485D01*
X0116888Y0103487D01*
X0116080Y0103487D01*
X0113016Y0101870D02*
X0112973Y0101914D01*
X0112934Y0101960D01*
X0112897Y0102008D01*
X0112863Y0102059D01*
X0112832Y0102111D01*
X0112804Y0102165D01*
X0112780Y0102221D01*
X0112760Y0102279D01*
X0112743Y0102337D01*
X0112730Y0102396D01*
X0112721Y0102457D01*
X0112715Y0102517D01*
X0112713Y0102578D01*
X0113016Y0101871D02*
X0114734Y0099850D01*
X0112713Y0099850D01*
X0114733Y0102679D02*
X0114711Y0102742D01*
X0114685Y0102803D01*
X0114655Y0102863D01*
X0114623Y0102921D01*
X0114587Y0102978D01*
X0114547Y0103032D01*
X0114505Y0103083D01*
X0114460Y0103133D01*
X0114412Y0103179D01*
X0114362Y0103223D01*
X0114309Y0103264D01*
X0114254Y0103301D01*
X0114197Y0103336D01*
X0114138Y0103367D01*
X0114077Y0103395D01*
X0114015Y0103419D01*
X0113951Y0103440D01*
X0113887Y0103457D01*
X0113821Y0103470D01*
X0113755Y0103479D01*
X0113689Y0103485D01*
X0113622Y0103487D01*
X0113563Y0103485D01*
X0113503Y0103479D01*
X0113445Y0103470D01*
X0113387Y0103456D01*
X0113330Y0103439D01*
X0113274Y0103418D01*
X0113220Y0103393D01*
X0113167Y0103365D01*
X0113117Y0103334D01*
X0113069Y0103299D01*
X0113023Y0103261D01*
X0112979Y0103221D01*
X0112939Y0103177D01*
X0112901Y0103131D01*
X0112866Y0103083D01*
X0112835Y0103032D01*
X0112807Y0102980D01*
X0112782Y0102926D01*
X0112761Y0102870D01*
X0112744Y0102813D01*
X0112730Y0102755D01*
X0112721Y0102697D01*
X0112715Y0102637D01*
X0112713Y0102578D01*
X0116080Y0099850D02*
X0116888Y0099850D01*
X0116943Y0099852D01*
X0116998Y0099858D01*
X0117052Y0099867D01*
X0117106Y0099880D01*
X0117159Y0099897D01*
X0117210Y0099917D01*
X0117260Y0099941D01*
X0117308Y0099968D01*
X0117354Y0099998D01*
X0117398Y0100031D01*
X0117440Y0100067D01*
X0117479Y0100106D01*
X0117515Y0100148D01*
X0117548Y0100192D01*
X0117578Y0100238D01*
X0117605Y0100286D01*
X0117629Y0100336D01*
X0117649Y0100387D01*
X0117666Y0100440D01*
X0117679Y0100494D01*
X0117688Y0100548D01*
X0117694Y0100603D01*
X0117696Y0100658D01*
D22*
X0086220Y0045326D03*
M02*
