G75*
%MOIN*%
%OFA0B0*%
%FSLAX25Y25*%
%IPPOS*%
%LPD*%
%AMOC8*
5,1,8,0,0,1.08239X$1,22.5*
%
%ADD10C,0.00900*%
%ADD11C,0.00400*%
%ADD12C,0.01000*%
%ADD13C,0.01500*%
%ADD14C,0.00300*%
%ADD15C,0.01200*%
%ADD16C,0.00800*%
%ADD17R,0.00787X0.00787*%
%ADD18C,0.00600*%
%ADD19C,0.02828*%
D10*
X0105017Y0116283D02*
X0105806Y0116283D01*
X0108173Y0123383D01*
X0105017Y0123383D02*
X0106595Y0118650D01*
X0110849Y0119833D02*
X0110849Y0125750D01*
X0114781Y0123383D02*
X0116359Y0123383D01*
X0116425Y0123381D01*
X0116491Y0123376D01*
X0116557Y0123366D01*
X0116622Y0123353D01*
X0116686Y0123337D01*
X0116750Y0123317D01*
X0116812Y0123293D01*
X0116872Y0123266D01*
X0116931Y0123235D01*
X0116988Y0123202D01*
X0117044Y0123165D01*
X0117097Y0123125D01*
X0117147Y0123082D01*
X0117196Y0123037D01*
X0117241Y0122988D01*
X0117284Y0122938D01*
X0117324Y0122885D01*
X0117361Y0122829D01*
X0117394Y0122772D01*
X0117425Y0122713D01*
X0117452Y0122653D01*
X0117476Y0122591D01*
X0117496Y0122527D01*
X0117512Y0122463D01*
X0117525Y0122398D01*
X0117535Y0122332D01*
X0117540Y0122266D01*
X0117542Y0122200D01*
X0117542Y0118650D01*
X0115767Y0118650D01*
X0115694Y0118652D01*
X0115620Y0118658D01*
X0115547Y0118668D01*
X0115475Y0118681D01*
X0115404Y0118699D01*
X0115333Y0118720D01*
X0115264Y0118745D01*
X0115196Y0118773D01*
X0115130Y0118806D01*
X0115066Y0118841D01*
X0115004Y0118880D01*
X0114943Y0118922D01*
X0114886Y0118968D01*
X0114830Y0119016D01*
X0114778Y0119068D01*
X0114728Y0119122D01*
X0114681Y0119178D01*
X0114637Y0119237D01*
X0114596Y0119298D01*
X0114559Y0119362D01*
X0114525Y0119427D01*
X0114495Y0119494D01*
X0114468Y0119563D01*
X0114445Y0119632D01*
X0114425Y0119703D01*
X0114410Y0119775D01*
X0114398Y0119848D01*
X0114390Y0119921D01*
X0114386Y0119994D01*
X0114386Y0120068D01*
X0114390Y0120141D01*
X0114398Y0120214D01*
X0114410Y0120287D01*
X0114425Y0120359D01*
X0114445Y0120430D01*
X0114468Y0120499D01*
X0114495Y0120568D01*
X0114525Y0120635D01*
X0114559Y0120700D01*
X0114596Y0120764D01*
X0114637Y0120825D01*
X0114681Y0120884D01*
X0114728Y0120940D01*
X0114778Y0120994D01*
X0114830Y0121046D01*
X0114886Y0121094D01*
X0114943Y0121140D01*
X0115004Y0121182D01*
X0115066Y0121221D01*
X0115130Y0121256D01*
X0115196Y0121289D01*
X0115264Y0121317D01*
X0115333Y0121342D01*
X0115404Y0121363D01*
X0115475Y0121381D01*
X0115547Y0121394D01*
X0115620Y0121404D01*
X0115694Y0121410D01*
X0115767Y0121412D01*
X0115767Y0121411D02*
X0117542Y0121411D01*
X0120843Y0123383D02*
X0120843Y0118650D01*
X0123998Y0118650D02*
X0123998Y0122200D01*
X0123996Y0122266D01*
X0123991Y0122332D01*
X0123981Y0122398D01*
X0123968Y0122463D01*
X0123952Y0122527D01*
X0123932Y0122591D01*
X0123908Y0122653D01*
X0123881Y0122713D01*
X0123850Y0122772D01*
X0123817Y0122829D01*
X0123780Y0122885D01*
X0123740Y0122938D01*
X0123697Y0122988D01*
X0123652Y0123037D01*
X0123603Y0123082D01*
X0123553Y0123125D01*
X0123500Y0123165D01*
X0123444Y0123202D01*
X0123387Y0123235D01*
X0123328Y0123266D01*
X0123268Y0123293D01*
X0123206Y0123317D01*
X0123142Y0123337D01*
X0123078Y0123353D01*
X0123013Y0123366D01*
X0122947Y0123376D01*
X0122881Y0123381D01*
X0122815Y0123383D01*
X0120843Y0123383D01*
X0112033Y0118650D02*
X0111967Y0118652D01*
X0111901Y0118657D01*
X0111835Y0118667D01*
X0111770Y0118680D01*
X0111706Y0118696D01*
X0111642Y0118716D01*
X0111580Y0118740D01*
X0111520Y0118767D01*
X0111461Y0118798D01*
X0111404Y0118831D01*
X0111348Y0118868D01*
X0111295Y0118908D01*
X0111245Y0118951D01*
X0111196Y0118996D01*
X0111151Y0119045D01*
X0111108Y0119095D01*
X0111068Y0119148D01*
X0111031Y0119204D01*
X0110998Y0119261D01*
X0110967Y0119320D01*
X0110940Y0119380D01*
X0110916Y0119442D01*
X0110896Y0119506D01*
X0110880Y0119570D01*
X0110867Y0119635D01*
X0110857Y0119701D01*
X0110852Y0119767D01*
X0110850Y0119833D01*
X0102145Y0120622D02*
X0102145Y0123778D01*
X0102143Y0123864D01*
X0102137Y0123950D01*
X0102128Y0124035D01*
X0102115Y0124120D01*
X0102098Y0124205D01*
X0102078Y0124288D01*
X0102054Y0124371D01*
X0102026Y0124452D01*
X0101995Y0124533D01*
X0101960Y0124611D01*
X0101922Y0124689D01*
X0101881Y0124764D01*
X0101836Y0124838D01*
X0101788Y0124909D01*
X0101737Y0124978D01*
X0101684Y0125046D01*
X0101627Y0125110D01*
X0101567Y0125172D01*
X0101505Y0125232D01*
X0101441Y0125289D01*
X0101373Y0125342D01*
X0101304Y0125393D01*
X0101233Y0125441D01*
X0101159Y0125486D01*
X0101084Y0125527D01*
X0101006Y0125565D01*
X0100928Y0125600D01*
X0100847Y0125631D01*
X0100766Y0125659D01*
X0100683Y0125683D01*
X0100600Y0125703D01*
X0100515Y0125720D01*
X0100430Y0125733D01*
X0100345Y0125742D01*
X0100259Y0125748D01*
X0100173Y0125750D01*
X0098201Y0125750D01*
X0098201Y0118650D01*
X0100173Y0118650D01*
X0100259Y0118652D01*
X0100345Y0118658D01*
X0100430Y0118667D01*
X0100515Y0118680D01*
X0100600Y0118697D01*
X0100683Y0118717D01*
X0100766Y0118741D01*
X0100847Y0118769D01*
X0100928Y0118800D01*
X0101006Y0118835D01*
X0101084Y0118873D01*
X0101159Y0118914D01*
X0101233Y0118959D01*
X0101304Y0119007D01*
X0101373Y0119058D01*
X0101441Y0119111D01*
X0101505Y0119168D01*
X0101567Y0119228D01*
X0101627Y0119290D01*
X0101684Y0119354D01*
X0101737Y0119422D01*
X0101788Y0119491D01*
X0101836Y0119562D01*
X0101881Y0119636D01*
X0101922Y0119711D01*
X0101960Y0119789D01*
X0101995Y0119867D01*
X0102026Y0119948D01*
X0102054Y0120029D01*
X0102078Y0120112D01*
X0102098Y0120195D01*
X0102115Y0120280D01*
X0102128Y0120365D01*
X0102137Y0120450D01*
X0102143Y0120536D01*
X0102145Y0120622D01*
X0092296Y0121017D02*
X0089338Y0118847D01*
X0089290Y0118814D01*
X0089241Y0118784D01*
X0089191Y0118756D01*
X0089139Y0118732D01*
X0089085Y0118710D01*
X0089030Y0118692D01*
X0088975Y0118677D01*
X0088918Y0118665D01*
X0088861Y0118657D01*
X0088804Y0118652D01*
X0088746Y0118650D01*
X0088680Y0118652D01*
X0088614Y0118657D01*
X0088548Y0118667D01*
X0088483Y0118680D01*
X0088419Y0118696D01*
X0088355Y0118716D01*
X0088293Y0118740D01*
X0088233Y0118767D01*
X0088174Y0118798D01*
X0088117Y0118831D01*
X0088061Y0118868D01*
X0088008Y0118908D01*
X0087958Y0118951D01*
X0087909Y0118996D01*
X0087864Y0119045D01*
X0087821Y0119095D01*
X0087781Y0119148D01*
X0087744Y0119204D01*
X0087711Y0119261D01*
X0087680Y0119320D01*
X0087653Y0119380D01*
X0087629Y0119442D01*
X0087609Y0119506D01*
X0087593Y0119570D01*
X0087580Y0119635D01*
X0087570Y0119701D01*
X0087565Y0119767D01*
X0087563Y0119833D01*
X0087760Y0120425D02*
X0090126Y0123975D01*
X0090126Y0123976D02*
X0090159Y0124033D01*
X0090190Y0124093D01*
X0090216Y0124154D01*
X0090240Y0124217D01*
X0090259Y0124280D01*
X0090275Y0124345D01*
X0090287Y0124411D01*
X0090296Y0124477D01*
X0090300Y0124544D01*
X0090301Y0124610D01*
X0090298Y0124677D01*
X0090291Y0124743D01*
X0090280Y0124809D01*
X0090265Y0124874D01*
X0090247Y0124939D01*
X0090225Y0125002D01*
X0090200Y0125063D01*
X0090171Y0125123D01*
X0090138Y0125182D01*
X0090103Y0125238D01*
X0090064Y0125292D01*
X0090022Y0125344D01*
X0089977Y0125394D01*
X0089929Y0125440D01*
X0089879Y0125484D01*
X0089826Y0125525D01*
X0089771Y0125563D01*
X0089714Y0125598D01*
X0089655Y0125629D01*
X0089595Y0125657D01*
X0089533Y0125682D01*
X0089469Y0125702D01*
X0089405Y0125719D01*
X0089339Y0125733D01*
X0089273Y0125742D01*
X0089207Y0125748D01*
X0089140Y0125750D01*
X0089073Y0125748D01*
X0089007Y0125742D01*
X0088941Y0125733D01*
X0088875Y0125719D01*
X0088811Y0125702D01*
X0088747Y0125682D01*
X0088685Y0125657D01*
X0088625Y0125629D01*
X0088566Y0125598D01*
X0088509Y0125563D01*
X0088454Y0125525D01*
X0088401Y0125484D01*
X0088351Y0125440D01*
X0088303Y0125394D01*
X0088258Y0125344D01*
X0088216Y0125292D01*
X0088177Y0125238D01*
X0088142Y0125182D01*
X0088109Y0125123D01*
X0088080Y0125063D01*
X0088055Y0125002D01*
X0088033Y0124939D01*
X0088015Y0124874D01*
X0088000Y0124809D01*
X0087989Y0124743D01*
X0087982Y0124677D01*
X0087979Y0124610D01*
X0087980Y0124544D01*
X0087984Y0124477D01*
X0087993Y0124411D01*
X0088005Y0124345D01*
X0088021Y0124280D01*
X0088040Y0124217D01*
X0088064Y0124154D01*
X0088090Y0124093D01*
X0088121Y0124033D01*
X0088154Y0123976D01*
X0088154Y0123975D02*
X0091507Y0118650D01*
X0087563Y0119833D02*
X0087565Y0119891D01*
X0087570Y0119948D01*
X0087578Y0120005D01*
X0087590Y0120062D01*
X0087605Y0120117D01*
X0087623Y0120172D01*
X0087645Y0120226D01*
X0087669Y0120278D01*
X0087697Y0120328D01*
X0087727Y0120377D01*
X0087760Y0120425D01*
X0081759Y0123383D02*
X0079392Y0123383D01*
X0080181Y0124567D02*
X0080181Y0118650D01*
X0076980Y0118650D02*
X0075007Y0118650D01*
X0074941Y0118652D01*
X0074875Y0118657D01*
X0074809Y0118667D01*
X0074744Y0118680D01*
X0074680Y0118696D01*
X0074616Y0118716D01*
X0074554Y0118740D01*
X0074494Y0118767D01*
X0074435Y0118798D01*
X0074378Y0118831D01*
X0074322Y0118868D01*
X0074269Y0118908D01*
X0074219Y0118951D01*
X0074170Y0118996D01*
X0074125Y0119045D01*
X0074082Y0119095D01*
X0074042Y0119148D01*
X0074005Y0119204D01*
X0073972Y0119261D01*
X0073941Y0119320D01*
X0073914Y0119380D01*
X0073890Y0119442D01*
X0073870Y0119506D01*
X0073854Y0119570D01*
X0073841Y0119635D01*
X0073831Y0119701D01*
X0073826Y0119767D01*
X0073824Y0119833D01*
X0073824Y0121806D01*
X0073824Y0121017D02*
X0076980Y0121017D01*
X0076980Y0121806D01*
X0076978Y0121885D01*
X0076972Y0121963D01*
X0076962Y0122041D01*
X0076949Y0122119D01*
X0076931Y0122195D01*
X0076910Y0122271D01*
X0076885Y0122346D01*
X0076856Y0122419D01*
X0076824Y0122491D01*
X0076788Y0122561D01*
X0076748Y0122629D01*
X0076706Y0122695D01*
X0076660Y0122759D01*
X0076611Y0122820D01*
X0076559Y0122879D01*
X0076504Y0122936D01*
X0076446Y0122989D01*
X0076386Y0123040D01*
X0076323Y0123087D01*
X0076258Y0123132D01*
X0076191Y0123173D01*
X0076122Y0123210D01*
X0076051Y0123244D01*
X0075979Y0123275D01*
X0075905Y0123302D01*
X0075829Y0123325D01*
X0075753Y0123344D01*
X0075676Y0123360D01*
X0075598Y0123372D01*
X0075520Y0123380D01*
X0075441Y0123384D01*
X0075363Y0123384D01*
X0075284Y0123380D01*
X0075206Y0123372D01*
X0075128Y0123360D01*
X0075051Y0123344D01*
X0074975Y0123325D01*
X0074899Y0123302D01*
X0074825Y0123275D01*
X0074753Y0123244D01*
X0074682Y0123210D01*
X0074613Y0123173D01*
X0074546Y0123132D01*
X0074481Y0123087D01*
X0074418Y0123040D01*
X0074358Y0122989D01*
X0074300Y0122936D01*
X0074245Y0122879D01*
X0074193Y0122820D01*
X0074144Y0122759D01*
X0074098Y0122695D01*
X0074056Y0122629D01*
X0074016Y0122561D01*
X0073980Y0122491D01*
X0073948Y0122419D01*
X0073919Y0122346D01*
X0073894Y0122271D01*
X0073873Y0122195D01*
X0073855Y0122119D01*
X0073842Y0122041D01*
X0073832Y0121963D01*
X0073826Y0121885D01*
X0073824Y0121806D01*
X0071044Y0123383D02*
X0071044Y0118650D01*
X0068572Y0122594D02*
X0065417Y0122594D01*
X0070847Y0125356D02*
X0071241Y0125356D01*
X0071241Y0125750D01*
X0070847Y0125750D01*
X0070847Y0125356D01*
X0068572Y0125750D02*
X0065417Y0125750D01*
X0065417Y0118650D01*
X0059051Y0118650D02*
X0058985Y0118652D01*
X0058919Y0118657D01*
X0058853Y0118667D01*
X0058788Y0118680D01*
X0058724Y0118696D01*
X0058660Y0118716D01*
X0058598Y0118740D01*
X0058538Y0118767D01*
X0058479Y0118798D01*
X0058422Y0118831D01*
X0058366Y0118868D01*
X0058313Y0118908D01*
X0058263Y0118951D01*
X0058214Y0118996D01*
X0058169Y0119045D01*
X0058126Y0119095D01*
X0058086Y0119148D01*
X0058049Y0119204D01*
X0058016Y0119261D01*
X0057985Y0119320D01*
X0057958Y0119380D01*
X0057934Y0119442D01*
X0057914Y0119506D01*
X0057898Y0119570D01*
X0057885Y0119635D01*
X0057875Y0119701D01*
X0057870Y0119767D01*
X0057868Y0119833D01*
X0057867Y0119833D02*
X0057867Y0125750D01*
X0054961Y0121806D02*
X0054961Y0120228D01*
X0054959Y0120149D01*
X0054953Y0120071D01*
X0054943Y0119993D01*
X0054930Y0119915D01*
X0054912Y0119839D01*
X0054891Y0119763D01*
X0054866Y0119688D01*
X0054837Y0119615D01*
X0054805Y0119543D01*
X0054769Y0119473D01*
X0054729Y0119405D01*
X0054687Y0119339D01*
X0054641Y0119275D01*
X0054592Y0119214D01*
X0054540Y0119155D01*
X0054485Y0119098D01*
X0054427Y0119045D01*
X0054367Y0118994D01*
X0054304Y0118947D01*
X0054239Y0118902D01*
X0054172Y0118861D01*
X0054103Y0118824D01*
X0054032Y0118790D01*
X0053960Y0118759D01*
X0053886Y0118732D01*
X0053810Y0118709D01*
X0053734Y0118690D01*
X0053657Y0118674D01*
X0053579Y0118662D01*
X0053501Y0118654D01*
X0053422Y0118650D01*
X0053344Y0118650D01*
X0053265Y0118654D01*
X0053187Y0118662D01*
X0053109Y0118674D01*
X0053032Y0118690D01*
X0052956Y0118709D01*
X0052880Y0118732D01*
X0052806Y0118759D01*
X0052734Y0118790D01*
X0052663Y0118824D01*
X0052594Y0118861D01*
X0052527Y0118902D01*
X0052462Y0118947D01*
X0052399Y0118994D01*
X0052339Y0119045D01*
X0052281Y0119098D01*
X0052226Y0119155D01*
X0052174Y0119214D01*
X0052125Y0119275D01*
X0052079Y0119339D01*
X0052037Y0119405D01*
X0051997Y0119473D01*
X0051961Y0119543D01*
X0051929Y0119615D01*
X0051900Y0119688D01*
X0051875Y0119763D01*
X0051854Y0119839D01*
X0051836Y0119915D01*
X0051823Y0119993D01*
X0051813Y0120071D01*
X0051807Y0120149D01*
X0051805Y0120228D01*
X0051806Y0120228D02*
X0051806Y0121806D01*
X0051805Y0121806D02*
X0051807Y0121885D01*
X0051813Y0121963D01*
X0051823Y0122041D01*
X0051836Y0122119D01*
X0051854Y0122195D01*
X0051875Y0122271D01*
X0051900Y0122346D01*
X0051929Y0122419D01*
X0051961Y0122491D01*
X0051997Y0122561D01*
X0052037Y0122629D01*
X0052079Y0122695D01*
X0052125Y0122759D01*
X0052174Y0122820D01*
X0052226Y0122879D01*
X0052281Y0122936D01*
X0052339Y0122989D01*
X0052399Y0123040D01*
X0052462Y0123087D01*
X0052527Y0123132D01*
X0052594Y0123173D01*
X0052663Y0123210D01*
X0052734Y0123244D01*
X0052806Y0123275D01*
X0052880Y0123302D01*
X0052956Y0123325D01*
X0053032Y0123344D01*
X0053109Y0123360D01*
X0053187Y0123372D01*
X0053265Y0123380D01*
X0053344Y0123384D01*
X0053422Y0123384D01*
X0053501Y0123380D01*
X0053579Y0123372D01*
X0053657Y0123360D01*
X0053734Y0123344D01*
X0053810Y0123325D01*
X0053886Y0123302D01*
X0053960Y0123275D01*
X0054032Y0123244D01*
X0054103Y0123210D01*
X0054172Y0123173D01*
X0054239Y0123132D01*
X0054304Y0123087D01*
X0054367Y0123040D01*
X0054427Y0122989D01*
X0054485Y0122936D01*
X0054540Y0122879D01*
X0054592Y0122820D01*
X0054641Y0122759D01*
X0054687Y0122695D01*
X0054729Y0122629D01*
X0054769Y0122561D01*
X0054805Y0122491D01*
X0054837Y0122419D01*
X0054866Y0122346D01*
X0054891Y0122271D01*
X0054912Y0122195D01*
X0054930Y0122119D01*
X0054943Y0122041D01*
X0054953Y0121963D01*
X0054959Y0121885D01*
X0054961Y0121806D01*
X0048998Y0121806D02*
X0048998Y0121017D01*
X0045842Y0121017D01*
X0045842Y0121806D02*
X0045842Y0119833D01*
X0045843Y0119833D02*
X0045845Y0119767D01*
X0045850Y0119701D01*
X0045860Y0119635D01*
X0045873Y0119570D01*
X0045889Y0119506D01*
X0045909Y0119442D01*
X0045933Y0119380D01*
X0045960Y0119320D01*
X0045991Y0119261D01*
X0046024Y0119204D01*
X0046061Y0119148D01*
X0046101Y0119095D01*
X0046144Y0119045D01*
X0046189Y0118996D01*
X0046238Y0118951D01*
X0046288Y0118908D01*
X0046341Y0118868D01*
X0046397Y0118831D01*
X0046454Y0118798D01*
X0046513Y0118767D01*
X0046573Y0118740D01*
X0046635Y0118716D01*
X0046699Y0118696D01*
X0046763Y0118680D01*
X0046828Y0118667D01*
X0046894Y0118657D01*
X0046960Y0118652D01*
X0047026Y0118650D01*
X0048998Y0118650D01*
X0048998Y0121806D02*
X0048996Y0121885D01*
X0048990Y0121963D01*
X0048980Y0122041D01*
X0048967Y0122119D01*
X0048949Y0122195D01*
X0048928Y0122271D01*
X0048903Y0122346D01*
X0048874Y0122419D01*
X0048842Y0122491D01*
X0048806Y0122561D01*
X0048766Y0122629D01*
X0048724Y0122695D01*
X0048678Y0122759D01*
X0048629Y0122820D01*
X0048577Y0122879D01*
X0048522Y0122936D01*
X0048464Y0122989D01*
X0048404Y0123040D01*
X0048341Y0123087D01*
X0048276Y0123132D01*
X0048209Y0123173D01*
X0048140Y0123210D01*
X0048069Y0123244D01*
X0047997Y0123275D01*
X0047923Y0123302D01*
X0047847Y0123325D01*
X0047771Y0123344D01*
X0047694Y0123360D01*
X0047616Y0123372D01*
X0047538Y0123380D01*
X0047459Y0123384D01*
X0047381Y0123384D01*
X0047302Y0123380D01*
X0047224Y0123372D01*
X0047146Y0123360D01*
X0047069Y0123344D01*
X0046993Y0123325D01*
X0046917Y0123302D01*
X0046843Y0123275D01*
X0046771Y0123244D01*
X0046700Y0123210D01*
X0046631Y0123173D01*
X0046564Y0123132D01*
X0046499Y0123087D01*
X0046436Y0123040D01*
X0046376Y0122989D01*
X0046318Y0122936D01*
X0046263Y0122879D01*
X0046211Y0122820D01*
X0046162Y0122759D01*
X0046116Y0122695D01*
X0046074Y0122629D01*
X0046034Y0122561D01*
X0045998Y0122491D01*
X0045966Y0122419D01*
X0045937Y0122346D01*
X0045912Y0122271D01*
X0045891Y0122195D01*
X0045873Y0122119D01*
X0045860Y0122041D01*
X0045850Y0121963D01*
X0045844Y0121885D01*
X0045842Y0121806D01*
X0042741Y0122594D02*
X0038796Y0122594D01*
X0038796Y0125750D02*
X0038796Y0118650D01*
X0042741Y0118650D02*
X0042741Y0125750D01*
X0081364Y0125750D02*
X0081759Y0125750D01*
X0081364Y0125750D02*
X0081298Y0125748D01*
X0081232Y0125743D01*
X0081166Y0125733D01*
X0081101Y0125720D01*
X0081037Y0125704D01*
X0080973Y0125684D01*
X0080911Y0125660D01*
X0080851Y0125633D01*
X0080792Y0125602D01*
X0080735Y0125569D01*
X0080679Y0125532D01*
X0080626Y0125492D01*
X0080576Y0125449D01*
X0080527Y0125404D01*
X0080482Y0125355D01*
X0080439Y0125305D01*
X0080399Y0125252D01*
X0080362Y0125196D01*
X0080329Y0125139D01*
X0080298Y0125080D01*
X0080271Y0125020D01*
X0080247Y0124958D01*
X0080227Y0124894D01*
X0080211Y0124830D01*
X0080198Y0124765D01*
X0080188Y0124699D01*
X0080183Y0124633D01*
X0080181Y0124567D01*
X0130999Y0124172D02*
X0130999Y0120228D01*
X0131001Y0120151D01*
X0131007Y0120073D01*
X0131016Y0119996D01*
X0131029Y0119920D01*
X0131046Y0119845D01*
X0131067Y0119770D01*
X0131091Y0119696D01*
X0131119Y0119624D01*
X0131151Y0119553D01*
X0131185Y0119484D01*
X0131224Y0119417D01*
X0131265Y0119351D01*
X0131310Y0119288D01*
X0131357Y0119227D01*
X0131408Y0119168D01*
X0131461Y0119112D01*
X0131517Y0119059D01*
X0131576Y0119008D01*
X0131637Y0118961D01*
X0131700Y0118916D01*
X0131766Y0118875D01*
X0131833Y0118836D01*
X0131902Y0118802D01*
X0131973Y0118770D01*
X0132045Y0118742D01*
X0132119Y0118718D01*
X0132194Y0118697D01*
X0132269Y0118680D01*
X0132345Y0118667D01*
X0132422Y0118658D01*
X0132500Y0118652D01*
X0132577Y0118650D01*
X0134943Y0118650D01*
X0134943Y0122594D01*
X0133760Y0122594D01*
X0130999Y0124172D02*
X0131001Y0124249D01*
X0131007Y0124327D01*
X0131016Y0124404D01*
X0131029Y0124480D01*
X0131046Y0124555D01*
X0131067Y0124630D01*
X0131091Y0124704D01*
X0131119Y0124776D01*
X0131151Y0124847D01*
X0131185Y0124916D01*
X0131224Y0124983D01*
X0131265Y0125049D01*
X0131310Y0125112D01*
X0131357Y0125173D01*
X0131408Y0125232D01*
X0131461Y0125288D01*
X0131517Y0125341D01*
X0131576Y0125392D01*
X0131637Y0125439D01*
X0131700Y0125484D01*
X0131766Y0125525D01*
X0131833Y0125564D01*
X0131902Y0125598D01*
X0131973Y0125630D01*
X0132045Y0125658D01*
X0132119Y0125682D01*
X0132194Y0125703D01*
X0132269Y0125720D01*
X0132345Y0125733D01*
X0132422Y0125742D01*
X0132500Y0125748D01*
X0132577Y0125750D01*
X0134943Y0125750D01*
X0138405Y0123383D02*
X0139983Y0123383D01*
X0140049Y0123381D01*
X0140115Y0123376D01*
X0140181Y0123366D01*
X0140246Y0123353D01*
X0140310Y0123337D01*
X0140374Y0123317D01*
X0140436Y0123293D01*
X0140496Y0123266D01*
X0140555Y0123235D01*
X0140612Y0123202D01*
X0140668Y0123165D01*
X0140721Y0123125D01*
X0140771Y0123082D01*
X0140820Y0123037D01*
X0140865Y0122988D01*
X0140908Y0122938D01*
X0140948Y0122885D01*
X0140985Y0122829D01*
X0141018Y0122772D01*
X0141049Y0122713D01*
X0141076Y0122653D01*
X0141100Y0122591D01*
X0141120Y0122527D01*
X0141136Y0122463D01*
X0141149Y0122398D01*
X0141159Y0122332D01*
X0141164Y0122266D01*
X0141166Y0122200D01*
X0141166Y0118650D01*
X0139391Y0118650D01*
X0139318Y0118652D01*
X0139244Y0118658D01*
X0139171Y0118668D01*
X0139099Y0118681D01*
X0139028Y0118699D01*
X0138957Y0118720D01*
X0138888Y0118745D01*
X0138820Y0118773D01*
X0138754Y0118806D01*
X0138690Y0118841D01*
X0138628Y0118880D01*
X0138567Y0118922D01*
X0138510Y0118968D01*
X0138454Y0119016D01*
X0138402Y0119068D01*
X0138352Y0119122D01*
X0138305Y0119178D01*
X0138261Y0119237D01*
X0138220Y0119298D01*
X0138183Y0119362D01*
X0138149Y0119427D01*
X0138119Y0119494D01*
X0138092Y0119563D01*
X0138069Y0119632D01*
X0138049Y0119703D01*
X0138034Y0119775D01*
X0138022Y0119848D01*
X0138014Y0119921D01*
X0138010Y0119994D01*
X0138010Y0120068D01*
X0138014Y0120141D01*
X0138022Y0120214D01*
X0138034Y0120287D01*
X0138049Y0120359D01*
X0138069Y0120430D01*
X0138092Y0120499D01*
X0138119Y0120568D01*
X0138149Y0120635D01*
X0138183Y0120700D01*
X0138220Y0120764D01*
X0138261Y0120825D01*
X0138305Y0120884D01*
X0138352Y0120940D01*
X0138402Y0120994D01*
X0138454Y0121046D01*
X0138510Y0121094D01*
X0138567Y0121140D01*
X0138628Y0121182D01*
X0138690Y0121221D01*
X0138754Y0121256D01*
X0138820Y0121289D01*
X0138888Y0121317D01*
X0138957Y0121342D01*
X0139028Y0121363D01*
X0139099Y0121381D01*
X0139171Y0121394D01*
X0139244Y0121404D01*
X0139318Y0121410D01*
X0139391Y0121412D01*
X0139391Y0121411D02*
X0141166Y0121411D01*
X0144203Y0122200D02*
X0144203Y0119833D01*
X0144204Y0119833D02*
X0144206Y0119767D01*
X0144211Y0119701D01*
X0144221Y0119635D01*
X0144234Y0119570D01*
X0144250Y0119506D01*
X0144270Y0119442D01*
X0144294Y0119380D01*
X0144321Y0119320D01*
X0144352Y0119261D01*
X0144385Y0119204D01*
X0144422Y0119148D01*
X0144462Y0119095D01*
X0144505Y0119045D01*
X0144550Y0118996D01*
X0144599Y0118951D01*
X0144649Y0118908D01*
X0144702Y0118868D01*
X0144758Y0118831D01*
X0144815Y0118798D01*
X0144874Y0118767D01*
X0144934Y0118740D01*
X0144996Y0118716D01*
X0145060Y0118696D01*
X0145124Y0118680D01*
X0145189Y0118667D01*
X0145255Y0118657D01*
X0145321Y0118652D01*
X0145387Y0118650D01*
X0147359Y0118650D01*
X0147359Y0117467D02*
X0147359Y0123383D01*
X0145387Y0123383D01*
X0145321Y0123381D01*
X0145255Y0123376D01*
X0145189Y0123366D01*
X0145124Y0123353D01*
X0145060Y0123337D01*
X0144996Y0123317D01*
X0144934Y0123293D01*
X0144874Y0123266D01*
X0144815Y0123235D01*
X0144758Y0123202D01*
X0144702Y0123165D01*
X0144649Y0123125D01*
X0144599Y0123082D01*
X0144550Y0123037D01*
X0144505Y0122988D01*
X0144462Y0122938D01*
X0144422Y0122885D01*
X0144385Y0122829D01*
X0144352Y0122772D01*
X0144321Y0122713D01*
X0144294Y0122653D01*
X0144270Y0122591D01*
X0144250Y0122527D01*
X0144234Y0122463D01*
X0144221Y0122398D01*
X0144211Y0122332D01*
X0144206Y0122266D01*
X0144204Y0122200D01*
X0150430Y0121806D02*
X0150430Y0119833D01*
X0150432Y0119767D01*
X0150437Y0119701D01*
X0150447Y0119635D01*
X0150460Y0119570D01*
X0150476Y0119506D01*
X0150496Y0119442D01*
X0150520Y0119380D01*
X0150547Y0119320D01*
X0150578Y0119261D01*
X0150611Y0119204D01*
X0150648Y0119148D01*
X0150688Y0119095D01*
X0150731Y0119045D01*
X0150776Y0118996D01*
X0150825Y0118951D01*
X0150875Y0118908D01*
X0150928Y0118868D01*
X0150984Y0118831D01*
X0151041Y0118798D01*
X0151100Y0118767D01*
X0151160Y0118740D01*
X0151222Y0118716D01*
X0151286Y0118696D01*
X0151350Y0118680D01*
X0151415Y0118667D01*
X0151481Y0118657D01*
X0151547Y0118652D01*
X0151613Y0118650D01*
X0153586Y0118650D01*
X0153586Y0121017D02*
X0150430Y0121017D01*
X0150430Y0121806D02*
X0150432Y0121885D01*
X0150438Y0121963D01*
X0150448Y0122041D01*
X0150461Y0122119D01*
X0150479Y0122195D01*
X0150500Y0122271D01*
X0150525Y0122346D01*
X0150554Y0122419D01*
X0150586Y0122491D01*
X0150622Y0122561D01*
X0150662Y0122629D01*
X0150704Y0122695D01*
X0150750Y0122759D01*
X0150799Y0122820D01*
X0150851Y0122879D01*
X0150906Y0122936D01*
X0150964Y0122989D01*
X0151024Y0123040D01*
X0151087Y0123087D01*
X0151152Y0123132D01*
X0151219Y0123173D01*
X0151288Y0123210D01*
X0151359Y0123244D01*
X0151431Y0123275D01*
X0151505Y0123302D01*
X0151581Y0123325D01*
X0151657Y0123344D01*
X0151734Y0123360D01*
X0151812Y0123372D01*
X0151890Y0123380D01*
X0151969Y0123384D01*
X0152047Y0123384D01*
X0152126Y0123380D01*
X0152204Y0123372D01*
X0152282Y0123360D01*
X0152359Y0123344D01*
X0152435Y0123325D01*
X0152511Y0123302D01*
X0152585Y0123275D01*
X0152657Y0123244D01*
X0152728Y0123210D01*
X0152797Y0123173D01*
X0152864Y0123132D01*
X0152929Y0123087D01*
X0152992Y0123040D01*
X0153052Y0122989D01*
X0153110Y0122936D01*
X0153165Y0122879D01*
X0153217Y0122820D01*
X0153266Y0122759D01*
X0153312Y0122695D01*
X0153354Y0122629D01*
X0153394Y0122561D01*
X0153430Y0122491D01*
X0153462Y0122419D01*
X0153491Y0122346D01*
X0153516Y0122271D01*
X0153537Y0122195D01*
X0153555Y0122119D01*
X0153568Y0122041D01*
X0153578Y0121963D01*
X0153584Y0121885D01*
X0153586Y0121806D01*
X0153586Y0121017D01*
X0156394Y0120228D02*
X0156394Y0121806D01*
X0156393Y0121806D02*
X0156395Y0121885D01*
X0156401Y0121963D01*
X0156411Y0122041D01*
X0156424Y0122119D01*
X0156442Y0122195D01*
X0156463Y0122271D01*
X0156488Y0122346D01*
X0156517Y0122419D01*
X0156549Y0122491D01*
X0156585Y0122561D01*
X0156625Y0122629D01*
X0156667Y0122695D01*
X0156713Y0122759D01*
X0156762Y0122820D01*
X0156814Y0122879D01*
X0156869Y0122936D01*
X0156927Y0122989D01*
X0156987Y0123040D01*
X0157050Y0123087D01*
X0157115Y0123132D01*
X0157182Y0123173D01*
X0157251Y0123210D01*
X0157322Y0123244D01*
X0157394Y0123275D01*
X0157468Y0123302D01*
X0157544Y0123325D01*
X0157620Y0123344D01*
X0157697Y0123360D01*
X0157775Y0123372D01*
X0157853Y0123380D01*
X0157932Y0123384D01*
X0158010Y0123384D01*
X0158089Y0123380D01*
X0158167Y0123372D01*
X0158245Y0123360D01*
X0158322Y0123344D01*
X0158398Y0123325D01*
X0158474Y0123302D01*
X0158548Y0123275D01*
X0158620Y0123244D01*
X0158691Y0123210D01*
X0158760Y0123173D01*
X0158827Y0123132D01*
X0158892Y0123087D01*
X0158955Y0123040D01*
X0159015Y0122989D01*
X0159073Y0122936D01*
X0159128Y0122879D01*
X0159180Y0122820D01*
X0159229Y0122759D01*
X0159275Y0122695D01*
X0159317Y0122629D01*
X0159357Y0122561D01*
X0159393Y0122491D01*
X0159425Y0122419D01*
X0159454Y0122346D01*
X0159479Y0122271D01*
X0159500Y0122195D01*
X0159518Y0122119D01*
X0159531Y0122041D01*
X0159541Y0121963D01*
X0159547Y0121885D01*
X0159549Y0121806D01*
X0159549Y0120228D01*
X0159547Y0120149D01*
X0159541Y0120071D01*
X0159531Y0119993D01*
X0159518Y0119915D01*
X0159500Y0119839D01*
X0159479Y0119763D01*
X0159454Y0119688D01*
X0159425Y0119615D01*
X0159393Y0119543D01*
X0159357Y0119473D01*
X0159317Y0119405D01*
X0159275Y0119339D01*
X0159229Y0119275D01*
X0159180Y0119214D01*
X0159128Y0119155D01*
X0159073Y0119098D01*
X0159015Y0119045D01*
X0158955Y0118994D01*
X0158892Y0118947D01*
X0158827Y0118902D01*
X0158760Y0118861D01*
X0158691Y0118824D01*
X0158620Y0118790D01*
X0158548Y0118759D01*
X0158474Y0118732D01*
X0158398Y0118709D01*
X0158322Y0118690D01*
X0158245Y0118674D01*
X0158167Y0118662D01*
X0158089Y0118654D01*
X0158010Y0118650D01*
X0157932Y0118650D01*
X0157853Y0118654D01*
X0157775Y0118662D01*
X0157697Y0118674D01*
X0157620Y0118690D01*
X0157544Y0118709D01*
X0157468Y0118732D01*
X0157394Y0118759D01*
X0157322Y0118790D01*
X0157251Y0118824D01*
X0157182Y0118861D01*
X0157115Y0118902D01*
X0157050Y0118947D01*
X0156987Y0118994D01*
X0156927Y0119045D01*
X0156869Y0119098D01*
X0156814Y0119155D01*
X0156762Y0119214D01*
X0156713Y0119275D01*
X0156667Y0119339D01*
X0156625Y0119405D01*
X0156585Y0119473D01*
X0156549Y0119543D01*
X0156517Y0119615D01*
X0156488Y0119688D01*
X0156463Y0119763D01*
X0156442Y0119839D01*
X0156424Y0119915D01*
X0156411Y0119993D01*
X0156401Y0120071D01*
X0156395Y0120149D01*
X0156393Y0120228D01*
X0162568Y0119833D02*
X0162568Y0125750D01*
X0161779Y0123383D02*
X0164146Y0123383D01*
X0162568Y0119833D02*
X0162570Y0119767D01*
X0162575Y0119701D01*
X0162585Y0119635D01*
X0162598Y0119570D01*
X0162614Y0119506D01*
X0162634Y0119442D01*
X0162658Y0119380D01*
X0162685Y0119320D01*
X0162716Y0119261D01*
X0162749Y0119204D01*
X0162786Y0119148D01*
X0162826Y0119095D01*
X0162869Y0119045D01*
X0162914Y0118996D01*
X0162963Y0118951D01*
X0163013Y0118908D01*
X0163066Y0118868D01*
X0163122Y0118831D01*
X0163179Y0118798D01*
X0163238Y0118767D01*
X0163298Y0118740D01*
X0163360Y0118716D01*
X0163424Y0118696D01*
X0163488Y0118680D01*
X0163553Y0118667D01*
X0163619Y0118657D01*
X0163685Y0118652D01*
X0163751Y0118650D01*
X0164146Y0118650D01*
X0147358Y0117467D02*
X0147356Y0117401D01*
X0147351Y0117335D01*
X0147341Y0117269D01*
X0147328Y0117204D01*
X0147312Y0117140D01*
X0147292Y0117076D01*
X0147268Y0117014D01*
X0147241Y0116954D01*
X0147210Y0116895D01*
X0147177Y0116838D01*
X0147140Y0116782D01*
X0147100Y0116729D01*
X0147057Y0116679D01*
X0147012Y0116630D01*
X0146963Y0116585D01*
X0146913Y0116542D01*
X0146860Y0116502D01*
X0146804Y0116465D01*
X0146747Y0116432D01*
X0146688Y0116401D01*
X0146628Y0116374D01*
X0146566Y0116350D01*
X0146503Y0116330D01*
X0146438Y0116314D01*
X0146373Y0116301D01*
X0146307Y0116291D01*
X0146241Y0116286D01*
X0146175Y0116284D01*
X0146175Y0116283D02*
X0144598Y0116283D01*
D11*
X0036578Y0026760D02*
X0036578Y0024795D01*
X0038150Y0024795D01*
X0038150Y0025974D01*
X0038152Y0026028D01*
X0038157Y0026081D01*
X0038166Y0026134D01*
X0038179Y0026186D01*
X0038195Y0026237D01*
X0038215Y0026287D01*
X0038238Y0026336D01*
X0038264Y0026382D01*
X0038294Y0026427D01*
X0038326Y0026470D01*
X0038362Y0026510D01*
X0038400Y0026548D01*
X0038440Y0026584D01*
X0038483Y0026616D01*
X0038528Y0026646D01*
X0038574Y0026672D01*
X0038623Y0026695D01*
X0038673Y0026715D01*
X0038724Y0026731D01*
X0038776Y0026744D01*
X0038829Y0026753D01*
X0038882Y0026758D01*
X0038936Y0026760D01*
X0039329Y0026760D01*
X0039383Y0026758D01*
X0039436Y0026753D01*
X0039489Y0026744D01*
X0039541Y0026731D01*
X0039592Y0026715D01*
X0039642Y0026695D01*
X0039691Y0026672D01*
X0039737Y0026646D01*
X0039782Y0026616D01*
X0039825Y0026584D01*
X0039865Y0026548D01*
X0039903Y0026510D01*
X0039939Y0026470D01*
X0039971Y0026427D01*
X0040001Y0026382D01*
X0040027Y0026336D01*
X0040050Y0026287D01*
X0040070Y0026237D01*
X0040086Y0026186D01*
X0040099Y0026134D01*
X0040108Y0026081D01*
X0040113Y0026028D01*
X0040115Y0025974D01*
X0040115Y0024795D01*
X0040115Y0029321D02*
X0036578Y0028142D01*
X0036578Y0030500D02*
X0040115Y0029321D01*
X0046578Y0025423D02*
X0046578Y0024441D01*
X0050115Y0024441D01*
X0050115Y0025423D01*
X0050114Y0025423D02*
X0050112Y0025485D01*
X0050106Y0025546D01*
X0050097Y0025607D01*
X0050083Y0025667D01*
X0050066Y0025726D01*
X0050045Y0025784D01*
X0050021Y0025841D01*
X0049993Y0025896D01*
X0049961Y0025949D01*
X0049926Y0026000D01*
X0049889Y0026049D01*
X0049848Y0026095D01*
X0049804Y0026139D01*
X0049758Y0026180D01*
X0049709Y0026217D01*
X0049658Y0026252D01*
X0049605Y0026284D01*
X0049550Y0026312D01*
X0049494Y0026336D01*
X0049435Y0026357D01*
X0049376Y0026374D01*
X0049316Y0026388D01*
X0049255Y0026397D01*
X0049194Y0026403D01*
X0049132Y0026405D01*
X0049132Y0026406D02*
X0047560Y0026406D01*
X0047498Y0026404D01*
X0047437Y0026398D01*
X0047376Y0026389D01*
X0047316Y0026375D01*
X0047256Y0026358D01*
X0047198Y0026337D01*
X0047141Y0026312D01*
X0047086Y0026284D01*
X0047033Y0026253D01*
X0046982Y0026218D01*
X0046933Y0026180D01*
X0046887Y0026140D01*
X0046843Y0026096D01*
X0046803Y0026050D01*
X0046765Y0026001D01*
X0046730Y0025950D01*
X0046699Y0025897D01*
X0046671Y0025842D01*
X0046646Y0025785D01*
X0046625Y0025727D01*
X0046608Y0025667D01*
X0046594Y0025607D01*
X0046585Y0025546D01*
X0046579Y0025485D01*
X0046577Y0025423D01*
X0048739Y0028142D02*
X0048739Y0030500D01*
X0049918Y0029321D02*
X0047560Y0029321D01*
X0056578Y0025423D02*
X0056578Y0024441D01*
X0060115Y0024441D01*
X0060115Y0025423D01*
X0060114Y0025423D02*
X0060112Y0025485D01*
X0060106Y0025546D01*
X0060097Y0025607D01*
X0060083Y0025667D01*
X0060066Y0025726D01*
X0060045Y0025784D01*
X0060021Y0025841D01*
X0059993Y0025896D01*
X0059961Y0025949D01*
X0059926Y0026000D01*
X0059889Y0026049D01*
X0059848Y0026095D01*
X0059804Y0026139D01*
X0059758Y0026180D01*
X0059709Y0026217D01*
X0059658Y0026252D01*
X0059605Y0026284D01*
X0059550Y0026312D01*
X0059494Y0026336D01*
X0059435Y0026357D01*
X0059376Y0026374D01*
X0059316Y0026388D01*
X0059255Y0026397D01*
X0059194Y0026403D01*
X0059132Y0026405D01*
X0059132Y0026406D02*
X0057560Y0026406D01*
X0057498Y0026404D01*
X0057437Y0026398D01*
X0057376Y0026389D01*
X0057316Y0026375D01*
X0057256Y0026358D01*
X0057198Y0026337D01*
X0057141Y0026312D01*
X0057086Y0026284D01*
X0057033Y0026253D01*
X0056982Y0026218D01*
X0056933Y0026180D01*
X0056887Y0026140D01*
X0056843Y0026096D01*
X0056803Y0026050D01*
X0056765Y0026001D01*
X0056730Y0025950D01*
X0056699Y0025897D01*
X0056671Y0025842D01*
X0056646Y0025785D01*
X0056625Y0025727D01*
X0056608Y0025667D01*
X0056594Y0025607D01*
X0056585Y0025546D01*
X0056579Y0025485D01*
X0056577Y0025423D01*
X0058739Y0028142D02*
X0058739Y0030500D01*
X0066578Y0029517D02*
X0066578Y0028535D01*
X0070115Y0028535D01*
X0070115Y0029517D01*
X0070114Y0029518D02*
X0070112Y0029580D01*
X0070106Y0029641D01*
X0070097Y0029702D01*
X0070083Y0029762D01*
X0070066Y0029821D01*
X0070045Y0029879D01*
X0070021Y0029936D01*
X0069993Y0029991D01*
X0069961Y0030044D01*
X0069926Y0030095D01*
X0069889Y0030144D01*
X0069848Y0030190D01*
X0069804Y0030234D01*
X0069758Y0030275D01*
X0069709Y0030312D01*
X0069658Y0030347D01*
X0069605Y0030379D01*
X0069550Y0030407D01*
X0069494Y0030431D01*
X0069435Y0030452D01*
X0069376Y0030469D01*
X0069316Y0030483D01*
X0069255Y0030492D01*
X0069194Y0030498D01*
X0069132Y0030500D01*
X0067560Y0030500D01*
X0067498Y0030498D01*
X0067437Y0030492D01*
X0067376Y0030483D01*
X0067316Y0030469D01*
X0067256Y0030452D01*
X0067198Y0030431D01*
X0067141Y0030406D01*
X0067086Y0030378D01*
X0067033Y0030347D01*
X0066982Y0030312D01*
X0066933Y0030274D01*
X0066887Y0030234D01*
X0066843Y0030190D01*
X0066803Y0030144D01*
X0066765Y0030095D01*
X0066730Y0030044D01*
X0066699Y0029991D01*
X0066671Y0029936D01*
X0066646Y0029879D01*
X0066625Y0029821D01*
X0066608Y0029761D01*
X0066594Y0029701D01*
X0066585Y0029640D01*
X0066579Y0029579D01*
X0066577Y0029517D01*
X0066578Y0026720D02*
X0070115Y0026720D01*
X0066578Y0024755D01*
X0070115Y0024755D01*
X0070115Y0022941D02*
X0068150Y0022941D01*
X0068150Y0022351D01*
X0067364Y0020976D02*
X0067310Y0020978D01*
X0067257Y0020983D01*
X0067204Y0020992D01*
X0067152Y0021005D01*
X0067101Y0021021D01*
X0067051Y0021041D01*
X0067002Y0021064D01*
X0066956Y0021090D01*
X0066911Y0021120D01*
X0066868Y0021152D01*
X0066828Y0021188D01*
X0066790Y0021226D01*
X0066754Y0021266D01*
X0066722Y0021309D01*
X0066692Y0021354D01*
X0066666Y0021400D01*
X0066643Y0021449D01*
X0066623Y0021499D01*
X0066607Y0021550D01*
X0066594Y0021602D01*
X0066585Y0021655D01*
X0066580Y0021708D01*
X0066578Y0021762D01*
X0066578Y0022941D01*
X0067364Y0020976D02*
X0069329Y0020976D01*
X0069383Y0020978D01*
X0069436Y0020983D01*
X0069489Y0020992D01*
X0069541Y0021005D01*
X0069592Y0021021D01*
X0069642Y0021041D01*
X0069691Y0021064D01*
X0069737Y0021090D01*
X0069782Y0021120D01*
X0069825Y0021152D01*
X0069865Y0021188D01*
X0069903Y0021226D01*
X0069939Y0021266D01*
X0069971Y0021309D01*
X0070001Y0021354D01*
X0070027Y0021400D01*
X0070050Y0021449D01*
X0070070Y0021499D01*
X0070086Y0021550D01*
X0070099Y0021602D01*
X0070108Y0021655D01*
X0070113Y0021708D01*
X0070115Y0021762D01*
X0070115Y0022941D01*
X0064215Y0045963D02*
X0063822Y0045963D01*
X0064215Y0045963D02*
X0064269Y0045965D01*
X0064322Y0045970D01*
X0064375Y0045979D01*
X0064427Y0045992D01*
X0064478Y0046008D01*
X0064528Y0046028D01*
X0064577Y0046051D01*
X0064623Y0046077D01*
X0064668Y0046107D01*
X0064711Y0046139D01*
X0064751Y0046175D01*
X0064789Y0046213D01*
X0064825Y0046253D01*
X0064857Y0046296D01*
X0064887Y0046341D01*
X0064913Y0046387D01*
X0064936Y0046436D01*
X0064956Y0046486D01*
X0064972Y0046537D01*
X0064985Y0046589D01*
X0064994Y0046642D01*
X0064999Y0046695D01*
X0065001Y0046749D01*
X0065001Y0049500D01*
X0066681Y0048517D02*
X0066681Y0048321D01*
X0066683Y0048267D01*
X0066688Y0048214D01*
X0066697Y0048161D01*
X0066710Y0048109D01*
X0066726Y0048058D01*
X0066746Y0048008D01*
X0066769Y0047959D01*
X0066795Y0047913D01*
X0066825Y0047868D01*
X0066857Y0047825D01*
X0066893Y0047785D01*
X0066931Y0047747D01*
X0066971Y0047711D01*
X0067014Y0047679D01*
X0067059Y0047649D01*
X0067105Y0047623D01*
X0067154Y0047600D01*
X0067204Y0047580D01*
X0067255Y0047564D01*
X0067307Y0047551D01*
X0067360Y0047542D01*
X0067413Y0047537D01*
X0067467Y0047535D01*
X0068646Y0047535D01*
X0068646Y0048517D01*
X0068644Y0048579D01*
X0068638Y0048640D01*
X0068629Y0048701D01*
X0068615Y0048761D01*
X0068598Y0048820D01*
X0068577Y0048878D01*
X0068553Y0048935D01*
X0068525Y0048990D01*
X0068493Y0049043D01*
X0068458Y0049094D01*
X0068421Y0049143D01*
X0068380Y0049189D01*
X0068336Y0049233D01*
X0068290Y0049274D01*
X0068241Y0049311D01*
X0068190Y0049346D01*
X0068137Y0049378D01*
X0068082Y0049406D01*
X0068025Y0049430D01*
X0067967Y0049451D01*
X0067908Y0049468D01*
X0067848Y0049482D01*
X0067787Y0049491D01*
X0067726Y0049497D01*
X0067664Y0049499D01*
X0067602Y0049497D01*
X0067541Y0049491D01*
X0067480Y0049482D01*
X0067420Y0049468D01*
X0067361Y0049451D01*
X0067303Y0049430D01*
X0067246Y0049406D01*
X0067191Y0049378D01*
X0067138Y0049346D01*
X0067087Y0049311D01*
X0067038Y0049274D01*
X0066992Y0049233D01*
X0066948Y0049189D01*
X0066907Y0049143D01*
X0066870Y0049094D01*
X0066835Y0049043D01*
X0066803Y0048990D01*
X0066775Y0048935D01*
X0066751Y0048878D01*
X0066730Y0048820D01*
X0066713Y0048761D01*
X0066699Y0048701D01*
X0066690Y0048640D01*
X0066684Y0048579D01*
X0066682Y0048517D01*
X0068646Y0047535D02*
X0068644Y0047458D01*
X0068638Y0047381D01*
X0068629Y0047304D01*
X0068616Y0047228D01*
X0068599Y0047153D01*
X0068578Y0047079D01*
X0068554Y0047005D01*
X0068526Y0046933D01*
X0068495Y0046863D01*
X0068460Y0046794D01*
X0068422Y0046727D01*
X0068381Y0046662D01*
X0068337Y0046599D01*
X0068289Y0046538D01*
X0068239Y0046479D01*
X0068186Y0046423D01*
X0068130Y0046370D01*
X0068071Y0046320D01*
X0068010Y0046272D01*
X0067947Y0046228D01*
X0067882Y0046187D01*
X0067815Y0046149D01*
X0067746Y0046114D01*
X0067676Y0046083D01*
X0067604Y0046055D01*
X0067530Y0046031D01*
X0067456Y0046010D01*
X0067381Y0045993D01*
X0067305Y0045980D01*
X0067228Y0045971D01*
X0067151Y0045965D01*
X0067074Y0045963D01*
X0032871Y0074400D02*
X0030906Y0074400D01*
X0031888Y0074400D02*
X0031888Y0077937D01*
X0030906Y0077151D01*
X0029225Y0077937D02*
X0029225Y0075186D01*
X0029223Y0075132D01*
X0029218Y0075079D01*
X0029209Y0075026D01*
X0029196Y0074974D01*
X0029180Y0074923D01*
X0029160Y0074873D01*
X0029137Y0074824D01*
X0029111Y0074778D01*
X0029081Y0074733D01*
X0029049Y0074690D01*
X0029013Y0074650D01*
X0028975Y0074612D01*
X0028935Y0074576D01*
X0028892Y0074544D01*
X0028847Y0074514D01*
X0028801Y0074488D01*
X0028752Y0074465D01*
X0028702Y0074445D01*
X0028651Y0074429D01*
X0028599Y0074416D01*
X0028546Y0074407D01*
X0028493Y0074402D01*
X0028439Y0074400D01*
X0028046Y0074400D01*
X0073033Y0091257D02*
X0073033Y0093812D01*
X0074998Y0093812D02*
X0074998Y0091257D01*
X0074996Y0091195D01*
X0074990Y0091134D01*
X0074981Y0091073D01*
X0074967Y0091013D01*
X0074950Y0090954D01*
X0074929Y0090896D01*
X0074905Y0090839D01*
X0074877Y0090784D01*
X0074845Y0090731D01*
X0074810Y0090680D01*
X0074773Y0090631D01*
X0074732Y0090585D01*
X0074688Y0090541D01*
X0074642Y0090500D01*
X0074593Y0090463D01*
X0074542Y0090428D01*
X0074489Y0090396D01*
X0074434Y0090368D01*
X0074377Y0090344D01*
X0074319Y0090323D01*
X0074260Y0090306D01*
X0074200Y0090292D01*
X0074139Y0090283D01*
X0074078Y0090277D01*
X0074016Y0090275D01*
X0073954Y0090277D01*
X0073893Y0090283D01*
X0073832Y0090292D01*
X0073772Y0090306D01*
X0073713Y0090323D01*
X0073655Y0090344D01*
X0073598Y0090368D01*
X0073543Y0090396D01*
X0073490Y0090428D01*
X0073439Y0090463D01*
X0073390Y0090500D01*
X0073344Y0090541D01*
X0073300Y0090585D01*
X0073259Y0090631D01*
X0073222Y0090680D01*
X0073187Y0090731D01*
X0073155Y0090784D01*
X0073127Y0090839D01*
X0073103Y0090896D01*
X0073082Y0090954D01*
X0073065Y0091013D01*
X0073051Y0091073D01*
X0073042Y0091134D01*
X0073036Y0091195D01*
X0073034Y0091257D01*
X0076695Y0090275D02*
X0077677Y0090275D01*
X0077739Y0090277D01*
X0077800Y0090283D01*
X0077861Y0090292D01*
X0077921Y0090306D01*
X0077980Y0090323D01*
X0078038Y0090344D01*
X0078095Y0090368D01*
X0078150Y0090396D01*
X0078203Y0090428D01*
X0078254Y0090463D01*
X0078303Y0090500D01*
X0078349Y0090541D01*
X0078393Y0090585D01*
X0078434Y0090631D01*
X0078471Y0090680D01*
X0078506Y0090731D01*
X0078538Y0090784D01*
X0078566Y0090839D01*
X0078590Y0090896D01*
X0078611Y0090954D01*
X0078628Y0091013D01*
X0078642Y0091073D01*
X0078651Y0091134D01*
X0078657Y0091195D01*
X0078659Y0091257D01*
X0078657Y0091319D01*
X0078651Y0091380D01*
X0078642Y0091441D01*
X0078628Y0091501D01*
X0078611Y0091560D01*
X0078590Y0091618D01*
X0078566Y0091675D01*
X0078538Y0091730D01*
X0078506Y0091783D01*
X0078471Y0091834D01*
X0078434Y0091883D01*
X0078393Y0091929D01*
X0078349Y0091973D01*
X0078303Y0092014D01*
X0078254Y0092051D01*
X0078203Y0092086D01*
X0078150Y0092118D01*
X0078095Y0092146D01*
X0078038Y0092170D01*
X0077980Y0092191D01*
X0077921Y0092208D01*
X0077861Y0092222D01*
X0077800Y0092231D01*
X0077739Y0092237D01*
X0077677Y0092239D01*
X0077874Y0092240D02*
X0077088Y0092240D01*
X0077874Y0092240D02*
X0077929Y0092242D01*
X0077983Y0092248D01*
X0078037Y0092257D01*
X0078091Y0092270D01*
X0078143Y0092287D01*
X0078194Y0092308D01*
X0078243Y0092332D01*
X0078291Y0092359D01*
X0078336Y0092390D01*
X0078379Y0092424D01*
X0078420Y0092461D01*
X0078458Y0092500D01*
X0078493Y0092542D01*
X0078526Y0092586D01*
X0078555Y0092633D01*
X0078580Y0092681D01*
X0078603Y0092732D01*
X0078622Y0092783D01*
X0078637Y0092836D01*
X0078648Y0092890D01*
X0078656Y0092944D01*
X0078660Y0092999D01*
X0078660Y0093053D01*
X0078656Y0093108D01*
X0078648Y0093162D01*
X0078637Y0093216D01*
X0078622Y0093269D01*
X0078603Y0093320D01*
X0078580Y0093371D01*
X0078555Y0093419D01*
X0078526Y0093466D01*
X0078493Y0093510D01*
X0078458Y0093552D01*
X0078420Y0093591D01*
X0078379Y0093628D01*
X0078336Y0093662D01*
X0078291Y0093693D01*
X0078243Y0093720D01*
X0078194Y0093744D01*
X0078143Y0093765D01*
X0078091Y0093782D01*
X0078037Y0093795D01*
X0077983Y0093804D01*
X0077929Y0093810D01*
X0077874Y0093812D01*
X0076695Y0093812D01*
X0035871Y0109882D02*
X0035869Y0109820D01*
X0035863Y0109759D01*
X0035854Y0109698D01*
X0035840Y0109638D01*
X0035823Y0109578D01*
X0035802Y0109520D01*
X0035777Y0109463D01*
X0035749Y0109408D01*
X0035718Y0109355D01*
X0035683Y0109304D01*
X0035645Y0109255D01*
X0035605Y0109209D01*
X0035561Y0109165D01*
X0035515Y0109125D01*
X0035466Y0109087D01*
X0035415Y0109052D01*
X0035362Y0109021D01*
X0035307Y0108993D01*
X0035250Y0108968D01*
X0035192Y0108947D01*
X0035132Y0108930D01*
X0035072Y0108916D01*
X0035011Y0108907D01*
X0034950Y0108901D01*
X0034888Y0108899D01*
X0034826Y0108901D01*
X0034765Y0108907D01*
X0034704Y0108916D01*
X0034644Y0108930D01*
X0034584Y0108947D01*
X0034526Y0108968D01*
X0034469Y0108993D01*
X0034414Y0109021D01*
X0034361Y0109052D01*
X0034310Y0109087D01*
X0034261Y0109125D01*
X0034215Y0109165D01*
X0034171Y0109209D01*
X0034131Y0109255D01*
X0034093Y0109304D01*
X0034058Y0109355D01*
X0034027Y0109408D01*
X0033999Y0109463D01*
X0033974Y0109520D01*
X0033953Y0109578D01*
X0033936Y0109638D01*
X0033922Y0109698D01*
X0033913Y0109759D01*
X0033907Y0109820D01*
X0033905Y0109882D01*
X0033906Y0109882D02*
X0033908Y0109944D01*
X0033914Y0110005D01*
X0033923Y0110066D01*
X0033937Y0110126D01*
X0033954Y0110185D01*
X0033975Y0110243D01*
X0033999Y0110300D01*
X0034027Y0110355D01*
X0034059Y0110408D01*
X0034094Y0110459D01*
X0034131Y0110508D01*
X0034172Y0110554D01*
X0034216Y0110598D01*
X0034262Y0110639D01*
X0034311Y0110676D01*
X0034362Y0110711D01*
X0034415Y0110743D01*
X0034470Y0110771D01*
X0034527Y0110795D01*
X0034585Y0110816D01*
X0034644Y0110833D01*
X0034704Y0110847D01*
X0034765Y0110856D01*
X0034826Y0110862D01*
X0034888Y0110864D01*
X0034950Y0110862D01*
X0035011Y0110856D01*
X0035072Y0110847D01*
X0035132Y0110833D01*
X0035191Y0110816D01*
X0035249Y0110795D01*
X0035306Y0110771D01*
X0035361Y0110743D01*
X0035414Y0110711D01*
X0035465Y0110676D01*
X0035514Y0110639D01*
X0035560Y0110598D01*
X0035604Y0110554D01*
X0035645Y0110508D01*
X0035682Y0110459D01*
X0035717Y0110408D01*
X0035749Y0110355D01*
X0035777Y0110300D01*
X0035801Y0110243D01*
X0035822Y0110185D01*
X0035839Y0110126D01*
X0035853Y0110066D01*
X0035862Y0110005D01*
X0035868Y0109944D01*
X0035870Y0109882D01*
X0035674Y0111651D02*
X0035672Y0111596D01*
X0035666Y0111542D01*
X0035657Y0111488D01*
X0035644Y0111434D01*
X0035627Y0111382D01*
X0035606Y0111331D01*
X0035582Y0111282D01*
X0035555Y0111234D01*
X0035524Y0111189D01*
X0035490Y0111146D01*
X0035453Y0111105D01*
X0035414Y0111067D01*
X0035372Y0111032D01*
X0035328Y0110999D01*
X0035281Y0110970D01*
X0035233Y0110945D01*
X0035182Y0110922D01*
X0035131Y0110903D01*
X0035078Y0110888D01*
X0035024Y0110877D01*
X0034970Y0110869D01*
X0034915Y0110865D01*
X0034861Y0110865D01*
X0034806Y0110869D01*
X0034752Y0110877D01*
X0034698Y0110888D01*
X0034645Y0110903D01*
X0034594Y0110922D01*
X0034543Y0110945D01*
X0034495Y0110970D01*
X0034448Y0110999D01*
X0034404Y0111032D01*
X0034362Y0111067D01*
X0034323Y0111105D01*
X0034286Y0111146D01*
X0034252Y0111189D01*
X0034221Y0111234D01*
X0034194Y0111282D01*
X0034170Y0111331D01*
X0034149Y0111382D01*
X0034132Y0111434D01*
X0034119Y0111488D01*
X0034110Y0111542D01*
X0034104Y0111596D01*
X0034102Y0111651D01*
X0034104Y0111706D01*
X0034110Y0111760D01*
X0034119Y0111814D01*
X0034132Y0111868D01*
X0034149Y0111920D01*
X0034170Y0111971D01*
X0034194Y0112020D01*
X0034221Y0112068D01*
X0034252Y0112113D01*
X0034286Y0112156D01*
X0034323Y0112197D01*
X0034362Y0112235D01*
X0034404Y0112270D01*
X0034448Y0112303D01*
X0034495Y0112332D01*
X0034543Y0112357D01*
X0034594Y0112380D01*
X0034645Y0112399D01*
X0034698Y0112414D01*
X0034752Y0112425D01*
X0034806Y0112433D01*
X0034861Y0112437D01*
X0034915Y0112437D01*
X0034970Y0112433D01*
X0035024Y0112425D01*
X0035078Y0112414D01*
X0035131Y0112399D01*
X0035182Y0112380D01*
X0035233Y0112357D01*
X0035281Y0112332D01*
X0035328Y0112303D01*
X0035372Y0112270D01*
X0035414Y0112235D01*
X0035453Y0112197D01*
X0035490Y0112156D01*
X0035524Y0112113D01*
X0035555Y0112068D01*
X0035582Y0112020D01*
X0035606Y0111971D01*
X0035627Y0111920D01*
X0035644Y0111868D01*
X0035657Y0111814D01*
X0035666Y0111760D01*
X0035672Y0111706D01*
X0035674Y0111651D01*
X0032225Y0112437D02*
X0032225Y0109686D01*
X0032223Y0109632D01*
X0032218Y0109579D01*
X0032209Y0109526D01*
X0032196Y0109474D01*
X0032180Y0109423D01*
X0032160Y0109373D01*
X0032137Y0109324D01*
X0032111Y0109278D01*
X0032081Y0109233D01*
X0032049Y0109190D01*
X0032013Y0109150D01*
X0031975Y0109112D01*
X0031935Y0109076D01*
X0031892Y0109044D01*
X0031847Y0109014D01*
X0031801Y0108988D01*
X0031752Y0108965D01*
X0031702Y0108945D01*
X0031651Y0108929D01*
X0031599Y0108916D01*
X0031546Y0108907D01*
X0031493Y0108902D01*
X0031439Y0108900D01*
X0031046Y0108900D01*
X0025871Y0109686D02*
X0025871Y0110079D01*
X0025869Y0110133D01*
X0025864Y0110186D01*
X0025855Y0110239D01*
X0025842Y0110291D01*
X0025826Y0110342D01*
X0025806Y0110392D01*
X0025783Y0110441D01*
X0025757Y0110487D01*
X0025727Y0110532D01*
X0025695Y0110575D01*
X0025659Y0110615D01*
X0025621Y0110653D01*
X0025581Y0110689D01*
X0025538Y0110721D01*
X0025493Y0110751D01*
X0025447Y0110777D01*
X0025398Y0110800D01*
X0025348Y0110820D01*
X0025297Y0110836D01*
X0025245Y0110849D01*
X0025192Y0110858D01*
X0025139Y0110863D01*
X0025085Y0110865D01*
X0023906Y0110865D01*
X0023906Y0112437D01*
X0025871Y0112437D01*
X0022225Y0112437D02*
X0022225Y0109686D01*
X0022223Y0109632D01*
X0022218Y0109579D01*
X0022209Y0109526D01*
X0022196Y0109474D01*
X0022180Y0109423D01*
X0022160Y0109373D01*
X0022137Y0109324D01*
X0022111Y0109278D01*
X0022081Y0109233D01*
X0022049Y0109190D01*
X0022013Y0109150D01*
X0021975Y0109112D01*
X0021935Y0109076D01*
X0021892Y0109044D01*
X0021847Y0109014D01*
X0021801Y0108988D01*
X0021752Y0108965D01*
X0021702Y0108945D01*
X0021651Y0108929D01*
X0021599Y0108916D01*
X0021546Y0108907D01*
X0021493Y0108902D01*
X0021439Y0108900D01*
X0021046Y0108900D01*
X0023906Y0108900D02*
X0025085Y0108900D01*
X0025139Y0108902D01*
X0025192Y0108907D01*
X0025245Y0108916D01*
X0025297Y0108929D01*
X0025348Y0108945D01*
X0025398Y0108965D01*
X0025447Y0108988D01*
X0025493Y0109014D01*
X0025538Y0109044D01*
X0025581Y0109076D01*
X0025621Y0109112D01*
X0025659Y0109150D01*
X0025695Y0109190D01*
X0025727Y0109233D01*
X0025757Y0109278D01*
X0025783Y0109324D01*
X0025806Y0109373D01*
X0025826Y0109423D01*
X0025842Y0109474D01*
X0025855Y0109526D01*
X0025864Y0109579D01*
X0025869Y0109632D01*
X0025871Y0109686D01*
X0131822Y0093463D02*
X0132215Y0093463D01*
X0132269Y0093465D01*
X0132322Y0093470D01*
X0132375Y0093479D01*
X0132427Y0093492D01*
X0132478Y0093508D01*
X0132528Y0093528D01*
X0132577Y0093551D01*
X0132623Y0093577D01*
X0132668Y0093607D01*
X0132711Y0093639D01*
X0132751Y0093675D01*
X0132789Y0093713D01*
X0132825Y0093753D01*
X0132857Y0093796D01*
X0132887Y0093841D01*
X0132913Y0093887D01*
X0132936Y0093936D01*
X0132956Y0093986D01*
X0132972Y0094037D01*
X0132985Y0094089D01*
X0132994Y0094142D01*
X0132999Y0094195D01*
X0133001Y0094249D01*
X0133001Y0097000D01*
X0136352Y0095428D02*
X0136394Y0095470D01*
X0136433Y0095515D01*
X0136469Y0095562D01*
X0136502Y0095611D01*
X0136531Y0095662D01*
X0136558Y0095715D01*
X0136581Y0095769D01*
X0136601Y0095825D01*
X0136618Y0095882D01*
X0136630Y0095940D01*
X0136640Y0095998D01*
X0136645Y0096057D01*
X0136647Y0096116D01*
X0136352Y0095428D02*
X0134681Y0093463D01*
X0136646Y0093463D01*
X0134681Y0096214D02*
X0134703Y0096275D01*
X0134728Y0096335D01*
X0134757Y0096393D01*
X0134789Y0096450D01*
X0134824Y0096505D01*
X0134862Y0096557D01*
X0134903Y0096607D01*
X0134947Y0096655D01*
X0134993Y0096701D01*
X0135042Y0096743D01*
X0135094Y0096783D01*
X0135147Y0096819D01*
X0135203Y0096853D01*
X0135260Y0096883D01*
X0135319Y0096910D01*
X0135380Y0096934D01*
X0135442Y0096954D01*
X0135505Y0096970D01*
X0135568Y0096983D01*
X0135632Y0096993D01*
X0135697Y0096998D01*
X0135762Y0097000D01*
X0135820Y0096998D01*
X0135877Y0096992D01*
X0135934Y0096983D01*
X0135991Y0096970D01*
X0136046Y0096953D01*
X0136100Y0096933D01*
X0136153Y0096909D01*
X0136204Y0096882D01*
X0136253Y0096851D01*
X0136300Y0096817D01*
X0136345Y0096781D01*
X0136387Y0096741D01*
X0136427Y0096699D01*
X0136463Y0096654D01*
X0136497Y0096607D01*
X0136528Y0096558D01*
X0136555Y0096507D01*
X0136579Y0096454D01*
X0136599Y0096400D01*
X0136616Y0096345D01*
X0136629Y0096288D01*
X0136638Y0096231D01*
X0136644Y0096174D01*
X0136646Y0096116D01*
X0164822Y0089463D02*
X0165215Y0089463D01*
X0165269Y0089465D01*
X0165322Y0089470D01*
X0165375Y0089479D01*
X0165427Y0089492D01*
X0165478Y0089508D01*
X0165528Y0089528D01*
X0165577Y0089551D01*
X0165623Y0089577D01*
X0165668Y0089607D01*
X0165711Y0089639D01*
X0165751Y0089675D01*
X0165789Y0089713D01*
X0165825Y0089753D01*
X0165857Y0089796D01*
X0165887Y0089841D01*
X0165913Y0089887D01*
X0165936Y0089936D01*
X0165956Y0089986D01*
X0165972Y0090037D01*
X0165985Y0090089D01*
X0165994Y0090142D01*
X0165999Y0090195D01*
X0166001Y0090249D01*
X0166001Y0093000D01*
X0167681Y0093000D02*
X0169646Y0093000D01*
X0168664Y0089463D01*
X0167681Y0092607D02*
X0167681Y0093000D01*
X0179046Y0093605D02*
X0181797Y0093605D01*
X0181851Y0093603D01*
X0181904Y0093598D01*
X0181957Y0093589D01*
X0182009Y0093576D01*
X0182060Y0093560D01*
X0182110Y0093540D01*
X0182159Y0093517D01*
X0182205Y0093491D01*
X0182250Y0093461D01*
X0182293Y0093429D01*
X0182333Y0093393D01*
X0182371Y0093355D01*
X0182407Y0093315D01*
X0182439Y0093272D01*
X0182469Y0093227D01*
X0182495Y0093181D01*
X0182518Y0093132D01*
X0182538Y0093082D01*
X0182554Y0093031D01*
X0182567Y0092979D01*
X0182576Y0092926D01*
X0182581Y0092873D01*
X0182583Y0092819D01*
X0182583Y0092426D01*
X0182583Y0095285D02*
X0182583Y0096267D01*
X0182584Y0096267D02*
X0182582Y0096329D01*
X0182576Y0096390D01*
X0182567Y0096451D01*
X0182553Y0096511D01*
X0182536Y0096571D01*
X0182515Y0096629D01*
X0182490Y0096686D01*
X0182462Y0096741D01*
X0182431Y0096794D01*
X0182396Y0096845D01*
X0182358Y0096894D01*
X0182318Y0096940D01*
X0182274Y0096984D01*
X0182228Y0097024D01*
X0182179Y0097062D01*
X0182128Y0097097D01*
X0182075Y0097128D01*
X0182020Y0097156D01*
X0181963Y0097181D01*
X0181905Y0097202D01*
X0181845Y0097219D01*
X0181785Y0097233D01*
X0181724Y0097242D01*
X0181663Y0097248D01*
X0181601Y0097250D01*
X0181539Y0097248D01*
X0181478Y0097242D01*
X0181417Y0097233D01*
X0181357Y0097219D01*
X0181297Y0097202D01*
X0181239Y0097181D01*
X0181182Y0097156D01*
X0181127Y0097128D01*
X0181074Y0097097D01*
X0181023Y0097062D01*
X0180974Y0097024D01*
X0180928Y0096984D01*
X0180884Y0096940D01*
X0180844Y0096894D01*
X0180806Y0096845D01*
X0180771Y0096794D01*
X0180740Y0096741D01*
X0180712Y0096686D01*
X0180687Y0096629D01*
X0180666Y0096571D01*
X0180649Y0096511D01*
X0180635Y0096451D01*
X0180626Y0096390D01*
X0180620Y0096329D01*
X0180618Y0096267D01*
X0180618Y0096464D02*
X0180618Y0095678D01*
X0180618Y0096464D02*
X0180616Y0096519D01*
X0180610Y0096573D01*
X0180601Y0096627D01*
X0180588Y0096681D01*
X0180571Y0096733D01*
X0180550Y0096784D01*
X0180526Y0096833D01*
X0180499Y0096881D01*
X0180468Y0096926D01*
X0180434Y0096969D01*
X0180397Y0097010D01*
X0180358Y0097048D01*
X0180316Y0097083D01*
X0180272Y0097116D01*
X0180225Y0097145D01*
X0180177Y0097170D01*
X0180126Y0097193D01*
X0180075Y0097212D01*
X0180022Y0097227D01*
X0179968Y0097238D01*
X0179914Y0097246D01*
X0179859Y0097250D01*
X0179805Y0097250D01*
X0179750Y0097246D01*
X0179696Y0097238D01*
X0179642Y0097227D01*
X0179589Y0097212D01*
X0179538Y0097193D01*
X0179487Y0097170D01*
X0179439Y0097145D01*
X0179392Y0097116D01*
X0179348Y0097083D01*
X0179306Y0097048D01*
X0179267Y0097010D01*
X0179230Y0096969D01*
X0179196Y0096926D01*
X0179165Y0096881D01*
X0179138Y0096833D01*
X0179114Y0096784D01*
X0179093Y0096733D01*
X0179076Y0096681D01*
X0179063Y0096627D01*
X0179054Y0096573D01*
X0179048Y0096519D01*
X0179046Y0096464D01*
X0179046Y0095285D01*
X0181797Y0076750D02*
X0181797Y0074785D01*
X0179046Y0075571D01*
X0181011Y0076160D02*
X0182583Y0076160D01*
X0181797Y0073105D02*
X0179046Y0073105D01*
X0181797Y0073105D02*
X0181851Y0073103D01*
X0181904Y0073098D01*
X0181957Y0073089D01*
X0182009Y0073076D01*
X0182060Y0073060D01*
X0182110Y0073040D01*
X0182159Y0073017D01*
X0182205Y0072991D01*
X0182250Y0072961D01*
X0182293Y0072929D01*
X0182333Y0072893D01*
X0182371Y0072855D01*
X0182407Y0072815D01*
X0182439Y0072772D01*
X0182469Y0072727D01*
X0182495Y0072681D01*
X0182518Y0072632D01*
X0182538Y0072582D01*
X0182554Y0072531D01*
X0182567Y0072479D01*
X0182576Y0072426D01*
X0182581Y0072373D01*
X0182583Y0072319D01*
X0182583Y0071926D01*
X0181601Y0059250D02*
X0181404Y0059250D01*
X0181350Y0059248D01*
X0181297Y0059243D01*
X0181244Y0059234D01*
X0181192Y0059221D01*
X0181141Y0059205D01*
X0181091Y0059185D01*
X0181042Y0059162D01*
X0180996Y0059136D01*
X0180951Y0059106D01*
X0180908Y0059074D01*
X0180868Y0059038D01*
X0180830Y0059000D01*
X0180794Y0058960D01*
X0180762Y0058917D01*
X0180732Y0058872D01*
X0180706Y0058826D01*
X0180683Y0058777D01*
X0180663Y0058727D01*
X0180647Y0058676D01*
X0180634Y0058624D01*
X0180625Y0058571D01*
X0180620Y0058518D01*
X0180618Y0058464D01*
X0180618Y0057285D01*
X0181601Y0057285D01*
X0181601Y0057284D02*
X0181663Y0057286D01*
X0181724Y0057292D01*
X0181785Y0057301D01*
X0181845Y0057315D01*
X0181905Y0057332D01*
X0181963Y0057353D01*
X0182020Y0057378D01*
X0182075Y0057406D01*
X0182128Y0057437D01*
X0182179Y0057472D01*
X0182228Y0057510D01*
X0182274Y0057550D01*
X0182318Y0057594D01*
X0182358Y0057640D01*
X0182396Y0057689D01*
X0182431Y0057740D01*
X0182462Y0057793D01*
X0182490Y0057848D01*
X0182515Y0057905D01*
X0182536Y0057963D01*
X0182553Y0058023D01*
X0182567Y0058083D01*
X0182576Y0058144D01*
X0182582Y0058205D01*
X0182584Y0058267D01*
X0182582Y0058329D01*
X0182576Y0058390D01*
X0182567Y0058451D01*
X0182553Y0058511D01*
X0182536Y0058571D01*
X0182515Y0058629D01*
X0182490Y0058686D01*
X0182462Y0058741D01*
X0182431Y0058794D01*
X0182396Y0058845D01*
X0182358Y0058894D01*
X0182318Y0058940D01*
X0182274Y0058984D01*
X0182228Y0059024D01*
X0182179Y0059062D01*
X0182128Y0059097D01*
X0182075Y0059128D01*
X0182020Y0059156D01*
X0181963Y0059181D01*
X0181905Y0059202D01*
X0181845Y0059219D01*
X0181785Y0059233D01*
X0181724Y0059242D01*
X0181663Y0059248D01*
X0181601Y0059250D01*
X0180618Y0057285D02*
X0180541Y0057287D01*
X0180464Y0057293D01*
X0180387Y0057302D01*
X0180311Y0057315D01*
X0180236Y0057332D01*
X0180162Y0057353D01*
X0180088Y0057377D01*
X0180016Y0057405D01*
X0179946Y0057436D01*
X0179877Y0057471D01*
X0179810Y0057509D01*
X0179745Y0057550D01*
X0179682Y0057594D01*
X0179621Y0057642D01*
X0179562Y0057692D01*
X0179506Y0057745D01*
X0179453Y0057801D01*
X0179403Y0057860D01*
X0179355Y0057921D01*
X0179311Y0057984D01*
X0179270Y0058049D01*
X0179232Y0058116D01*
X0179197Y0058185D01*
X0179166Y0058255D01*
X0179138Y0058327D01*
X0179114Y0058401D01*
X0179093Y0058475D01*
X0179076Y0058550D01*
X0179063Y0058626D01*
X0179054Y0058703D01*
X0179048Y0058780D01*
X0179046Y0058857D01*
X0179046Y0055605D02*
X0181797Y0055605D01*
X0181851Y0055603D01*
X0181904Y0055598D01*
X0181957Y0055589D01*
X0182009Y0055576D01*
X0182060Y0055560D01*
X0182110Y0055540D01*
X0182159Y0055517D01*
X0182205Y0055491D01*
X0182250Y0055461D01*
X0182293Y0055429D01*
X0182333Y0055393D01*
X0182371Y0055355D01*
X0182407Y0055315D01*
X0182439Y0055272D01*
X0182469Y0055227D01*
X0182495Y0055181D01*
X0182518Y0055132D01*
X0182538Y0055082D01*
X0182554Y0055031D01*
X0182567Y0054979D01*
X0182576Y0054926D01*
X0182581Y0054873D01*
X0182583Y0054819D01*
X0182583Y0054426D01*
D12*
X0058627Y0049750D02*
X0057294Y0049750D01*
X0057294Y0044950D01*
X0058627Y0044950D01*
X0058699Y0044952D01*
X0058771Y0044958D01*
X0058843Y0044968D01*
X0058914Y0044981D01*
X0058984Y0044999D01*
X0059053Y0045020D01*
X0059120Y0045045D01*
X0059187Y0045073D01*
X0059251Y0045105D01*
X0059314Y0045141D01*
X0059375Y0045180D01*
X0059434Y0045222D01*
X0059490Y0045267D01*
X0059544Y0045315D01*
X0059595Y0045366D01*
X0059643Y0045420D01*
X0059688Y0045476D01*
X0059730Y0045535D01*
X0059769Y0045596D01*
X0059805Y0045659D01*
X0059837Y0045723D01*
X0059865Y0045790D01*
X0059890Y0045857D01*
X0059911Y0045926D01*
X0059929Y0045996D01*
X0059942Y0046067D01*
X0059952Y0046139D01*
X0059958Y0046211D01*
X0059960Y0046283D01*
X0059958Y0046355D01*
X0059952Y0046427D01*
X0059942Y0046499D01*
X0059929Y0046570D01*
X0059911Y0046640D01*
X0059890Y0046709D01*
X0059865Y0046776D01*
X0059837Y0046843D01*
X0059805Y0046907D01*
X0059769Y0046970D01*
X0059730Y0047031D01*
X0059688Y0047090D01*
X0059643Y0047146D01*
X0059595Y0047200D01*
X0059544Y0047251D01*
X0059490Y0047299D01*
X0059434Y0047344D01*
X0059375Y0047386D01*
X0059314Y0047425D01*
X0059251Y0047461D01*
X0059187Y0047493D01*
X0059120Y0047521D01*
X0059053Y0047546D01*
X0058984Y0047567D01*
X0058914Y0047585D01*
X0058843Y0047598D01*
X0058771Y0047608D01*
X0058699Y0047614D01*
X0058627Y0047616D01*
X0058627Y0047617D02*
X0057294Y0047617D01*
X0058627Y0047616D02*
X0058691Y0047618D01*
X0058756Y0047624D01*
X0058819Y0047633D01*
X0058882Y0047647D01*
X0058944Y0047664D01*
X0059005Y0047685D01*
X0059065Y0047710D01*
X0059123Y0047738D01*
X0059179Y0047770D01*
X0059233Y0047805D01*
X0059285Y0047843D01*
X0059335Y0047884D01*
X0059381Y0047929D01*
X0059426Y0047975D01*
X0059467Y0048025D01*
X0059505Y0048077D01*
X0059540Y0048131D01*
X0059572Y0048187D01*
X0059600Y0048245D01*
X0059625Y0048305D01*
X0059646Y0048366D01*
X0059663Y0048428D01*
X0059677Y0048491D01*
X0059686Y0048554D01*
X0059692Y0048619D01*
X0059694Y0048683D01*
X0059692Y0048747D01*
X0059686Y0048812D01*
X0059677Y0048875D01*
X0059663Y0048938D01*
X0059646Y0049000D01*
X0059625Y0049061D01*
X0059600Y0049121D01*
X0059572Y0049179D01*
X0059540Y0049235D01*
X0059505Y0049289D01*
X0059467Y0049341D01*
X0059426Y0049391D01*
X0059381Y0049437D01*
X0059335Y0049482D01*
X0059285Y0049523D01*
X0059233Y0049561D01*
X0059179Y0049596D01*
X0059123Y0049628D01*
X0059065Y0049656D01*
X0059005Y0049681D01*
X0058944Y0049702D01*
X0058882Y0049719D01*
X0058819Y0049733D01*
X0058756Y0049742D01*
X0058691Y0049748D01*
X0058627Y0049750D01*
X0054085Y0046950D02*
X0052619Y0047750D01*
X0053152Y0049750D02*
X0053238Y0049748D01*
X0053323Y0049743D01*
X0053409Y0049733D01*
X0053494Y0049721D01*
X0053578Y0049704D01*
X0053661Y0049684D01*
X0053744Y0049660D01*
X0053825Y0049633D01*
X0053905Y0049603D01*
X0053984Y0049569D01*
X0054061Y0049531D01*
X0054137Y0049491D01*
X0054210Y0049447D01*
X0054282Y0049400D01*
X0054352Y0049350D01*
X0052619Y0047750D02*
X0052566Y0047783D01*
X0052515Y0047819D01*
X0052467Y0047859D01*
X0052420Y0047900D01*
X0052376Y0047945D01*
X0052335Y0047992D01*
X0052297Y0048041D01*
X0052261Y0048092D01*
X0052229Y0048146D01*
X0052199Y0048201D01*
X0052173Y0048257D01*
X0052150Y0048316D01*
X0052131Y0048375D01*
X0052115Y0048435D01*
X0052102Y0048497D01*
X0052093Y0048558D01*
X0052088Y0048621D01*
X0052086Y0048683D01*
X0052085Y0048683D02*
X0052087Y0048747D01*
X0052093Y0048812D01*
X0052102Y0048875D01*
X0052116Y0048938D01*
X0052133Y0049000D01*
X0052154Y0049061D01*
X0052179Y0049121D01*
X0052207Y0049179D01*
X0052239Y0049235D01*
X0052274Y0049289D01*
X0052312Y0049341D01*
X0052353Y0049391D01*
X0052398Y0049437D01*
X0052444Y0049482D01*
X0052494Y0049523D01*
X0052546Y0049561D01*
X0052600Y0049596D01*
X0052656Y0049628D01*
X0052714Y0049656D01*
X0052774Y0049681D01*
X0052835Y0049702D01*
X0052897Y0049719D01*
X0052960Y0049733D01*
X0053023Y0049742D01*
X0053088Y0049748D01*
X0053152Y0049750D01*
X0051952Y0045617D02*
X0052020Y0045551D01*
X0052089Y0045489D01*
X0052162Y0045430D01*
X0052237Y0045374D01*
X0052314Y0045321D01*
X0052393Y0045271D01*
X0052474Y0045224D01*
X0052558Y0045181D01*
X0052642Y0045142D01*
X0052729Y0045106D01*
X0052817Y0045073D01*
X0052906Y0045045D01*
X0052996Y0045020D01*
X0053087Y0044998D01*
X0053179Y0044981D01*
X0053272Y0044967D01*
X0053365Y0044958D01*
X0053458Y0044952D01*
X0053552Y0044950D01*
X0053616Y0044952D01*
X0053681Y0044958D01*
X0053744Y0044967D01*
X0053807Y0044981D01*
X0053869Y0044998D01*
X0053930Y0045019D01*
X0053990Y0045044D01*
X0054048Y0045072D01*
X0054104Y0045104D01*
X0054158Y0045139D01*
X0054210Y0045177D01*
X0054260Y0045218D01*
X0054306Y0045263D01*
X0054351Y0045309D01*
X0054392Y0045359D01*
X0054430Y0045411D01*
X0054465Y0045465D01*
X0054497Y0045521D01*
X0054525Y0045579D01*
X0054550Y0045639D01*
X0054571Y0045700D01*
X0054588Y0045762D01*
X0054602Y0045825D01*
X0054611Y0045888D01*
X0054617Y0045953D01*
X0054619Y0046017D01*
X0054618Y0046017D02*
X0054616Y0046079D01*
X0054611Y0046142D01*
X0054602Y0046203D01*
X0054589Y0046265D01*
X0054573Y0046325D01*
X0054554Y0046384D01*
X0054531Y0046443D01*
X0054505Y0046499D01*
X0054475Y0046554D01*
X0054443Y0046608D01*
X0054407Y0046659D01*
X0054369Y0046708D01*
X0054328Y0046755D01*
X0054284Y0046800D01*
X0054237Y0046841D01*
X0054189Y0046881D01*
X0054138Y0046917D01*
X0054085Y0046950D01*
X0049399Y0046283D02*
X0049399Y0049750D01*
X0046732Y0049750D02*
X0046732Y0046283D01*
X0046734Y0046211D01*
X0046740Y0046139D01*
X0046750Y0046067D01*
X0046763Y0045996D01*
X0046781Y0045926D01*
X0046802Y0045857D01*
X0046827Y0045790D01*
X0046855Y0045723D01*
X0046887Y0045659D01*
X0046923Y0045596D01*
X0046962Y0045535D01*
X0047004Y0045476D01*
X0047049Y0045420D01*
X0047097Y0045366D01*
X0047148Y0045315D01*
X0047202Y0045267D01*
X0047258Y0045222D01*
X0047317Y0045180D01*
X0047378Y0045141D01*
X0047441Y0045105D01*
X0047505Y0045073D01*
X0047572Y0045045D01*
X0047639Y0045020D01*
X0047708Y0044999D01*
X0047778Y0044981D01*
X0047849Y0044968D01*
X0047921Y0044958D01*
X0047993Y0044952D01*
X0048065Y0044950D01*
X0048137Y0044952D01*
X0048209Y0044958D01*
X0048281Y0044968D01*
X0048352Y0044981D01*
X0048422Y0044999D01*
X0048491Y0045020D01*
X0048558Y0045045D01*
X0048625Y0045073D01*
X0048689Y0045105D01*
X0048752Y0045141D01*
X0048813Y0045180D01*
X0048872Y0045222D01*
X0048928Y0045267D01*
X0048982Y0045315D01*
X0049033Y0045366D01*
X0049081Y0045420D01*
X0049126Y0045476D01*
X0049168Y0045535D01*
X0049207Y0045596D01*
X0049243Y0045659D01*
X0049275Y0045723D01*
X0049303Y0045790D01*
X0049328Y0045857D01*
X0049349Y0045926D01*
X0049367Y0045996D01*
X0049380Y0046067D01*
X0049390Y0046139D01*
X0049396Y0046211D01*
X0049398Y0046283D01*
D13*
X0138996Y0096950D02*
X0138998Y0096999D01*
X0139004Y0097047D01*
X0139014Y0097095D01*
X0139028Y0097142D01*
X0139045Y0097188D01*
X0139066Y0097232D01*
X0139091Y0097274D01*
X0139119Y0097314D01*
X0139151Y0097352D01*
X0139185Y0097387D01*
X0139222Y0097419D01*
X0139261Y0097448D01*
X0139303Y0097474D01*
X0139347Y0097496D01*
X0139392Y0097514D01*
X0139439Y0097529D01*
X0139486Y0097540D01*
X0139535Y0097547D01*
X0139584Y0097550D01*
X0139633Y0097549D01*
X0139681Y0097544D01*
X0139730Y0097535D01*
X0139777Y0097522D01*
X0139823Y0097505D01*
X0139867Y0097485D01*
X0139910Y0097461D01*
X0139951Y0097434D01*
X0139989Y0097403D01*
X0140025Y0097370D01*
X0140057Y0097334D01*
X0140087Y0097295D01*
X0140114Y0097254D01*
X0140137Y0097210D01*
X0140156Y0097165D01*
X0140172Y0097119D01*
X0140184Y0097072D01*
X0140192Y0097023D01*
X0140196Y0096974D01*
X0140196Y0096926D01*
X0140192Y0096877D01*
X0140184Y0096828D01*
X0140172Y0096781D01*
X0140156Y0096735D01*
X0140137Y0096690D01*
X0140114Y0096646D01*
X0140087Y0096605D01*
X0140057Y0096566D01*
X0140025Y0096530D01*
X0139989Y0096497D01*
X0139951Y0096466D01*
X0139910Y0096439D01*
X0139867Y0096415D01*
X0139823Y0096395D01*
X0139777Y0096378D01*
X0139730Y0096365D01*
X0139681Y0096356D01*
X0139633Y0096351D01*
X0139584Y0096350D01*
X0139535Y0096353D01*
X0139486Y0096360D01*
X0139439Y0096371D01*
X0139392Y0096386D01*
X0139347Y0096404D01*
X0139303Y0096426D01*
X0139261Y0096452D01*
X0139222Y0096481D01*
X0139185Y0096513D01*
X0139151Y0096548D01*
X0139119Y0096586D01*
X0139091Y0096626D01*
X0139066Y0096668D01*
X0139045Y0096712D01*
X0139028Y0096758D01*
X0139014Y0096805D01*
X0139004Y0096853D01*
X0138998Y0096901D01*
X0138996Y0096950D01*
D14*
X0135633Y0102965D02*
X0131996Y0102965D01*
X0131996Y0103975D01*
X0131997Y0103975D02*
X0131999Y0104037D01*
X0132005Y0104099D01*
X0132014Y0104161D01*
X0132028Y0104221D01*
X0132045Y0104281D01*
X0132065Y0104340D01*
X0132089Y0104397D01*
X0132117Y0104453D01*
X0132148Y0104507D01*
X0132183Y0104559D01*
X0132220Y0104608D01*
X0132261Y0104655D01*
X0132304Y0104700D01*
X0132350Y0104742D01*
X0132398Y0104781D01*
X0132449Y0104817D01*
X0132502Y0104850D01*
X0132557Y0104879D01*
X0132613Y0104905D01*
X0132671Y0104928D01*
X0132731Y0104946D01*
X0132791Y0104962D01*
X0132852Y0104973D01*
X0132914Y0104981D01*
X0132976Y0104985D01*
X0133038Y0104985D01*
X0133100Y0104981D01*
X0133162Y0104973D01*
X0133223Y0104962D01*
X0133283Y0104946D01*
X0133343Y0104928D01*
X0133401Y0104905D01*
X0133457Y0104879D01*
X0133512Y0104850D01*
X0133565Y0104817D01*
X0133616Y0104781D01*
X0133664Y0104742D01*
X0133710Y0104700D01*
X0133753Y0104655D01*
X0133794Y0104608D01*
X0133831Y0104559D01*
X0133866Y0104507D01*
X0133897Y0104453D01*
X0133925Y0104397D01*
X0133949Y0104340D01*
X0133969Y0104281D01*
X0133986Y0104221D01*
X0134000Y0104161D01*
X0134009Y0104099D01*
X0134015Y0104037D01*
X0134017Y0103975D01*
X0134017Y0102965D01*
X0134017Y0104177D02*
X0135633Y0104986D01*
X0135633Y0106486D02*
X0135633Y0108507D01*
X0135633Y0107496D02*
X0131996Y0107496D01*
X0132805Y0106486D01*
X0132805Y0110029D02*
X0131996Y0111040D01*
X0135633Y0111040D01*
X0135633Y0112050D02*
X0135633Y0110029D01*
X0122778Y0099371D02*
X0121061Y0097350D01*
X0123081Y0097350D01*
X0121061Y0100179D02*
X0121083Y0100242D01*
X0121109Y0100303D01*
X0121139Y0100363D01*
X0121171Y0100421D01*
X0121207Y0100478D01*
X0121247Y0100532D01*
X0121289Y0100583D01*
X0121334Y0100633D01*
X0121382Y0100679D01*
X0121432Y0100723D01*
X0121485Y0100764D01*
X0121540Y0100801D01*
X0121597Y0100836D01*
X0121656Y0100867D01*
X0121717Y0100895D01*
X0121779Y0100919D01*
X0121843Y0100940D01*
X0121907Y0100957D01*
X0121973Y0100970D01*
X0122039Y0100979D01*
X0122105Y0100985D01*
X0122172Y0100987D01*
X0122231Y0100985D01*
X0122291Y0100979D01*
X0122349Y0100970D01*
X0122407Y0100956D01*
X0122464Y0100939D01*
X0122520Y0100918D01*
X0122574Y0100893D01*
X0122627Y0100865D01*
X0122677Y0100834D01*
X0122725Y0100799D01*
X0122771Y0100761D01*
X0122815Y0100721D01*
X0122855Y0100677D01*
X0122893Y0100631D01*
X0122928Y0100583D01*
X0122959Y0100533D01*
X0122987Y0100480D01*
X0123012Y0100426D01*
X0123033Y0100370D01*
X0123050Y0100313D01*
X0123064Y0100255D01*
X0123073Y0100197D01*
X0123079Y0100137D01*
X0123081Y0100078D01*
X0123082Y0100078D02*
X0123080Y0100017D01*
X0123074Y0099957D01*
X0123065Y0099896D01*
X0123052Y0099837D01*
X0123035Y0099779D01*
X0123015Y0099721D01*
X0122991Y0099665D01*
X0122963Y0099611D01*
X0122932Y0099559D01*
X0122898Y0099508D01*
X0122861Y0099460D01*
X0122822Y0099414D01*
X0122779Y0099371D01*
X0119538Y0097350D02*
X0117517Y0097350D01*
X0118528Y0097350D02*
X0118528Y0100987D01*
X0117517Y0100179D01*
X0115007Y0100987D02*
X0115069Y0100985D01*
X0115131Y0100979D01*
X0115193Y0100970D01*
X0115253Y0100956D01*
X0115313Y0100939D01*
X0115372Y0100919D01*
X0115429Y0100895D01*
X0115485Y0100867D01*
X0115539Y0100836D01*
X0115591Y0100801D01*
X0115640Y0100764D01*
X0115687Y0100723D01*
X0115732Y0100680D01*
X0115774Y0100634D01*
X0115813Y0100586D01*
X0115849Y0100535D01*
X0115882Y0100482D01*
X0115911Y0100427D01*
X0115937Y0100371D01*
X0115960Y0100313D01*
X0115978Y0100253D01*
X0115994Y0100193D01*
X0116005Y0100132D01*
X0116013Y0100070D01*
X0116017Y0100008D01*
X0116017Y0099946D01*
X0116013Y0099884D01*
X0116005Y0099822D01*
X0115994Y0099761D01*
X0115978Y0099701D01*
X0115960Y0099641D01*
X0115937Y0099583D01*
X0115911Y0099527D01*
X0115882Y0099472D01*
X0115849Y0099419D01*
X0115813Y0099368D01*
X0115774Y0099320D01*
X0115732Y0099274D01*
X0115687Y0099231D01*
X0115640Y0099190D01*
X0115591Y0099153D01*
X0115539Y0099118D01*
X0115485Y0099087D01*
X0115429Y0099059D01*
X0115372Y0099035D01*
X0115313Y0099015D01*
X0115253Y0098998D01*
X0115193Y0098984D01*
X0115131Y0098975D01*
X0115069Y0098969D01*
X0115007Y0098967D01*
X0115007Y0098966D02*
X0113996Y0098966D01*
X0115209Y0098966D02*
X0116017Y0097350D01*
X0113996Y0097350D02*
X0113996Y0100987D01*
X0115007Y0100987D01*
X0108038Y0103987D02*
X0107028Y0100350D01*
X0104517Y0100350D02*
X0103709Y0101966D01*
X0103507Y0101966D02*
X0102496Y0101966D01*
X0103507Y0101967D02*
X0103569Y0101969D01*
X0103631Y0101975D01*
X0103693Y0101984D01*
X0103753Y0101998D01*
X0103813Y0102015D01*
X0103872Y0102035D01*
X0103929Y0102059D01*
X0103985Y0102087D01*
X0104039Y0102118D01*
X0104091Y0102153D01*
X0104140Y0102190D01*
X0104187Y0102231D01*
X0104232Y0102274D01*
X0104274Y0102320D01*
X0104313Y0102368D01*
X0104349Y0102419D01*
X0104382Y0102472D01*
X0104411Y0102527D01*
X0104437Y0102583D01*
X0104460Y0102641D01*
X0104478Y0102701D01*
X0104494Y0102761D01*
X0104505Y0102822D01*
X0104513Y0102884D01*
X0104517Y0102946D01*
X0104517Y0103008D01*
X0104513Y0103070D01*
X0104505Y0103132D01*
X0104494Y0103193D01*
X0104478Y0103253D01*
X0104460Y0103313D01*
X0104437Y0103371D01*
X0104411Y0103427D01*
X0104382Y0103482D01*
X0104349Y0103535D01*
X0104313Y0103586D01*
X0104274Y0103634D01*
X0104232Y0103680D01*
X0104187Y0103723D01*
X0104140Y0103764D01*
X0104091Y0103801D01*
X0104039Y0103836D01*
X0103985Y0103867D01*
X0103929Y0103895D01*
X0103872Y0103919D01*
X0103813Y0103939D01*
X0103753Y0103956D01*
X0103693Y0103970D01*
X0103631Y0103979D01*
X0103569Y0103985D01*
X0103507Y0103987D01*
X0102496Y0103987D01*
X0102496Y0100350D01*
X0106017Y0103583D02*
X0106017Y0103987D01*
X0108038Y0103987D01*
X0089633Y0106008D02*
X0085996Y0106008D01*
X0085996Y0107019D01*
X0085997Y0107019D02*
X0085999Y0107081D01*
X0086005Y0107143D01*
X0086014Y0107205D01*
X0086028Y0107265D01*
X0086045Y0107325D01*
X0086065Y0107384D01*
X0086089Y0107441D01*
X0086117Y0107497D01*
X0086148Y0107551D01*
X0086183Y0107603D01*
X0086220Y0107652D01*
X0086261Y0107699D01*
X0086304Y0107744D01*
X0086350Y0107786D01*
X0086398Y0107825D01*
X0086449Y0107861D01*
X0086502Y0107894D01*
X0086557Y0107923D01*
X0086613Y0107949D01*
X0086671Y0107972D01*
X0086731Y0107990D01*
X0086791Y0108006D01*
X0086852Y0108017D01*
X0086914Y0108025D01*
X0086976Y0108029D01*
X0087038Y0108029D01*
X0087100Y0108025D01*
X0087162Y0108017D01*
X0087223Y0108006D01*
X0087283Y0107990D01*
X0087343Y0107972D01*
X0087401Y0107949D01*
X0087457Y0107923D01*
X0087512Y0107894D01*
X0087565Y0107861D01*
X0087616Y0107825D01*
X0087664Y0107786D01*
X0087710Y0107744D01*
X0087753Y0107699D01*
X0087794Y0107652D01*
X0087831Y0107603D01*
X0087866Y0107551D01*
X0087897Y0107497D01*
X0087925Y0107441D01*
X0087949Y0107384D01*
X0087969Y0107325D01*
X0087986Y0107265D01*
X0088000Y0107205D01*
X0088009Y0107143D01*
X0088015Y0107081D01*
X0088017Y0107019D01*
X0088017Y0106008D01*
X0088017Y0107221D02*
X0089633Y0108029D01*
X0088623Y0109529D02*
X0087613Y0109529D01*
X0087613Y0110742D01*
X0087613Y0109530D02*
X0087534Y0109532D01*
X0087455Y0109538D01*
X0087376Y0109547D01*
X0087298Y0109561D01*
X0087220Y0109578D01*
X0087144Y0109600D01*
X0087069Y0109624D01*
X0086995Y0109653D01*
X0086922Y0109685D01*
X0086851Y0109721D01*
X0086782Y0109760D01*
X0086715Y0109802D01*
X0086650Y0109848D01*
X0086588Y0109897D01*
X0086528Y0109949D01*
X0086470Y0110003D01*
X0086416Y0110061D01*
X0086364Y0110121D01*
X0086315Y0110183D01*
X0086269Y0110248D01*
X0086227Y0110315D01*
X0086188Y0110384D01*
X0086152Y0110455D01*
X0086120Y0110528D01*
X0086091Y0110602D01*
X0086067Y0110677D01*
X0086045Y0110753D01*
X0086028Y0110831D01*
X0086014Y0110909D01*
X0086005Y0110988D01*
X0085999Y0111067D01*
X0085997Y0111146D01*
X0088421Y0111550D02*
X0088623Y0111550D01*
X0088421Y0111550D02*
X0088366Y0111548D01*
X0088311Y0111542D01*
X0088257Y0111533D01*
X0088203Y0111520D01*
X0088150Y0111503D01*
X0088099Y0111483D01*
X0088049Y0111459D01*
X0088001Y0111432D01*
X0087955Y0111402D01*
X0087911Y0111369D01*
X0087870Y0111333D01*
X0087830Y0111294D01*
X0087794Y0111252D01*
X0087761Y0111208D01*
X0087731Y0111162D01*
X0087704Y0111114D01*
X0087680Y0111064D01*
X0087660Y0111013D01*
X0087643Y0110960D01*
X0087630Y0110906D01*
X0087621Y0110852D01*
X0087615Y0110797D01*
X0087613Y0110742D01*
X0088623Y0111550D02*
X0088685Y0111548D01*
X0088747Y0111542D01*
X0088809Y0111533D01*
X0088869Y0111519D01*
X0088929Y0111502D01*
X0088988Y0111482D01*
X0089045Y0111458D01*
X0089101Y0111430D01*
X0089155Y0111399D01*
X0089207Y0111364D01*
X0089256Y0111327D01*
X0089303Y0111286D01*
X0089348Y0111243D01*
X0089390Y0111197D01*
X0089429Y0111149D01*
X0089465Y0111098D01*
X0089498Y0111045D01*
X0089527Y0110990D01*
X0089553Y0110934D01*
X0089576Y0110876D01*
X0089594Y0110816D01*
X0089610Y0110756D01*
X0089621Y0110695D01*
X0089629Y0110633D01*
X0089633Y0110571D01*
X0089633Y0110509D01*
X0089629Y0110447D01*
X0089621Y0110385D01*
X0089610Y0110324D01*
X0089594Y0110264D01*
X0089576Y0110204D01*
X0089553Y0110146D01*
X0089527Y0110090D01*
X0089498Y0110035D01*
X0089465Y0109982D01*
X0089429Y0109931D01*
X0089390Y0109883D01*
X0089348Y0109837D01*
X0089303Y0109794D01*
X0089256Y0109753D01*
X0089207Y0109716D01*
X0089155Y0109681D01*
X0089101Y0109650D01*
X0089045Y0109622D01*
X0088988Y0109598D01*
X0088929Y0109578D01*
X0088869Y0109561D01*
X0088809Y0109547D01*
X0088747Y0109538D01*
X0088685Y0109532D01*
X0088623Y0109530D01*
X0085888Y0097050D02*
X0084676Y0097050D01*
X0083330Y0097050D02*
X0082521Y0097050D01*
X0082466Y0097048D01*
X0082411Y0097042D01*
X0082357Y0097033D01*
X0082303Y0097020D01*
X0082250Y0097003D01*
X0082199Y0096983D01*
X0082149Y0096959D01*
X0082101Y0096932D01*
X0082055Y0096902D01*
X0082011Y0096869D01*
X0081969Y0096833D01*
X0081930Y0096793D01*
X0081894Y0096752D01*
X0081861Y0096708D01*
X0081831Y0096662D01*
X0081804Y0096614D01*
X0081780Y0096564D01*
X0081760Y0096513D01*
X0081743Y0096460D01*
X0081730Y0096406D01*
X0081721Y0096352D01*
X0081715Y0096297D01*
X0081713Y0096242D01*
X0081713Y0094221D01*
X0081715Y0094166D01*
X0081721Y0094111D01*
X0081730Y0094057D01*
X0081743Y0094003D01*
X0081760Y0093950D01*
X0081780Y0093899D01*
X0081804Y0093849D01*
X0081831Y0093801D01*
X0081861Y0093755D01*
X0081894Y0093711D01*
X0081930Y0093669D01*
X0081969Y0093630D01*
X0082011Y0093594D01*
X0082055Y0093561D01*
X0082101Y0093531D01*
X0082149Y0093504D01*
X0082199Y0093480D01*
X0082250Y0093460D01*
X0082303Y0093443D01*
X0082357Y0093430D01*
X0082411Y0093421D01*
X0082466Y0093415D01*
X0082521Y0093413D01*
X0083330Y0093413D01*
X0084676Y0093413D02*
X0085686Y0093413D01*
X0085748Y0093415D01*
X0085810Y0093421D01*
X0085872Y0093430D01*
X0085932Y0093444D01*
X0085992Y0093461D01*
X0086051Y0093481D01*
X0086108Y0093505D01*
X0086164Y0093533D01*
X0086218Y0093564D01*
X0086270Y0093599D01*
X0086319Y0093636D01*
X0086366Y0093677D01*
X0086411Y0093720D01*
X0086453Y0093766D01*
X0086492Y0093814D01*
X0086528Y0093865D01*
X0086561Y0093918D01*
X0086590Y0093973D01*
X0086616Y0094029D01*
X0086639Y0094087D01*
X0086657Y0094147D01*
X0086673Y0094207D01*
X0086684Y0094268D01*
X0086692Y0094330D01*
X0086696Y0094392D01*
X0086696Y0094454D01*
X0086692Y0094516D01*
X0086684Y0094578D01*
X0086673Y0094639D01*
X0086657Y0094699D01*
X0086639Y0094759D01*
X0086616Y0094817D01*
X0086590Y0094873D01*
X0086561Y0094928D01*
X0086528Y0094981D01*
X0086492Y0095032D01*
X0086453Y0095080D01*
X0086411Y0095126D01*
X0086366Y0095169D01*
X0086319Y0095210D01*
X0086270Y0095247D01*
X0086218Y0095282D01*
X0086164Y0095313D01*
X0086108Y0095341D01*
X0086051Y0095365D01*
X0085992Y0095385D01*
X0085932Y0095402D01*
X0085872Y0095416D01*
X0085810Y0095425D01*
X0085748Y0095431D01*
X0085686Y0095433D01*
X0085888Y0095434D02*
X0085080Y0095434D01*
X0085888Y0095434D02*
X0085943Y0095436D01*
X0085998Y0095442D01*
X0086052Y0095451D01*
X0086106Y0095464D01*
X0086159Y0095481D01*
X0086210Y0095501D01*
X0086260Y0095525D01*
X0086308Y0095552D01*
X0086354Y0095582D01*
X0086398Y0095615D01*
X0086440Y0095651D01*
X0086479Y0095690D01*
X0086515Y0095732D01*
X0086548Y0095776D01*
X0086578Y0095822D01*
X0086605Y0095870D01*
X0086629Y0095920D01*
X0086649Y0095971D01*
X0086666Y0096024D01*
X0086679Y0096078D01*
X0086688Y0096132D01*
X0086694Y0096187D01*
X0086696Y0096242D01*
X0086694Y0096297D01*
X0086688Y0096352D01*
X0086679Y0096406D01*
X0086666Y0096460D01*
X0086649Y0096513D01*
X0086629Y0096564D01*
X0086605Y0096614D01*
X0086578Y0096662D01*
X0086548Y0096708D01*
X0086515Y0096752D01*
X0086479Y0096794D01*
X0086440Y0096833D01*
X0086398Y0096869D01*
X0086354Y0096902D01*
X0086308Y0096932D01*
X0086260Y0096959D01*
X0086210Y0096983D01*
X0086159Y0097003D01*
X0086106Y0097020D01*
X0086052Y0097033D01*
X0085998Y0097042D01*
X0085943Y0097048D01*
X0085888Y0097050D01*
X0067470Y0103350D02*
X0068480Y0106987D01*
X0066459Y0106987D01*
X0066459Y0106583D01*
X0065113Y0106987D02*
X0064305Y0106987D01*
X0064250Y0106985D01*
X0064195Y0106979D01*
X0064141Y0106970D01*
X0064087Y0106957D01*
X0064034Y0106940D01*
X0063983Y0106920D01*
X0063933Y0106896D01*
X0063885Y0106869D01*
X0063839Y0106839D01*
X0063795Y0106806D01*
X0063753Y0106770D01*
X0063714Y0106730D01*
X0063678Y0106689D01*
X0063645Y0106645D01*
X0063615Y0106599D01*
X0063588Y0106551D01*
X0063564Y0106501D01*
X0063544Y0106450D01*
X0063527Y0106397D01*
X0063514Y0106343D01*
X0063505Y0106289D01*
X0063499Y0106234D01*
X0063497Y0106179D01*
X0063496Y0106179D02*
X0063496Y0104158D01*
X0063497Y0104158D02*
X0063499Y0104103D01*
X0063505Y0104048D01*
X0063514Y0103994D01*
X0063527Y0103940D01*
X0063544Y0103887D01*
X0063564Y0103836D01*
X0063588Y0103786D01*
X0063615Y0103738D01*
X0063645Y0103692D01*
X0063678Y0103648D01*
X0063714Y0103606D01*
X0063753Y0103567D01*
X0063795Y0103531D01*
X0063839Y0103498D01*
X0063885Y0103468D01*
X0063933Y0103441D01*
X0063983Y0103417D01*
X0064034Y0103397D01*
X0064087Y0103380D01*
X0064141Y0103367D01*
X0064195Y0103358D01*
X0064250Y0103352D01*
X0064305Y0103350D01*
X0065113Y0103350D01*
X0059038Y0103350D02*
X0057017Y0103350D01*
X0058735Y0105371D01*
X0058129Y0106987D02*
X0058062Y0106985D01*
X0057996Y0106979D01*
X0057930Y0106970D01*
X0057864Y0106957D01*
X0057800Y0106940D01*
X0057736Y0106919D01*
X0057674Y0106895D01*
X0057613Y0106867D01*
X0057554Y0106836D01*
X0057497Y0106801D01*
X0057442Y0106764D01*
X0057389Y0106723D01*
X0057339Y0106679D01*
X0057291Y0106633D01*
X0057246Y0106583D01*
X0057204Y0106532D01*
X0057164Y0106478D01*
X0057128Y0106421D01*
X0057096Y0106363D01*
X0057066Y0106303D01*
X0057040Y0106242D01*
X0057018Y0106179D01*
X0058735Y0105371D02*
X0058778Y0105414D01*
X0058817Y0105460D01*
X0058854Y0105508D01*
X0058888Y0105559D01*
X0058919Y0105611D01*
X0058947Y0105665D01*
X0058971Y0105721D01*
X0058991Y0105779D01*
X0059008Y0105837D01*
X0059021Y0105896D01*
X0059030Y0105957D01*
X0059036Y0106017D01*
X0059038Y0106078D01*
X0059036Y0106137D01*
X0059030Y0106197D01*
X0059021Y0106255D01*
X0059007Y0106313D01*
X0058990Y0106370D01*
X0058969Y0106426D01*
X0058944Y0106480D01*
X0058916Y0106533D01*
X0058885Y0106583D01*
X0058850Y0106631D01*
X0058812Y0106677D01*
X0058772Y0106721D01*
X0058728Y0106761D01*
X0058682Y0106799D01*
X0058634Y0106834D01*
X0058584Y0106865D01*
X0058531Y0106893D01*
X0058477Y0106918D01*
X0058421Y0106939D01*
X0058364Y0106956D01*
X0058306Y0106970D01*
X0058248Y0106979D01*
X0058188Y0106985D01*
X0058129Y0106987D01*
X0054507Y0106987D02*
X0053496Y0106987D01*
X0053496Y0103350D01*
X0053496Y0104966D02*
X0054507Y0104966D01*
X0054709Y0104966D02*
X0055517Y0103350D01*
X0054507Y0104967D02*
X0054569Y0104969D01*
X0054631Y0104975D01*
X0054693Y0104984D01*
X0054753Y0104998D01*
X0054813Y0105015D01*
X0054872Y0105035D01*
X0054929Y0105059D01*
X0054985Y0105087D01*
X0055039Y0105118D01*
X0055091Y0105153D01*
X0055140Y0105190D01*
X0055187Y0105231D01*
X0055232Y0105274D01*
X0055274Y0105320D01*
X0055313Y0105368D01*
X0055349Y0105419D01*
X0055382Y0105472D01*
X0055411Y0105527D01*
X0055437Y0105583D01*
X0055460Y0105641D01*
X0055478Y0105701D01*
X0055494Y0105761D01*
X0055505Y0105822D01*
X0055513Y0105884D01*
X0055517Y0105946D01*
X0055517Y0106008D01*
X0055513Y0106070D01*
X0055505Y0106132D01*
X0055494Y0106193D01*
X0055478Y0106253D01*
X0055460Y0106313D01*
X0055437Y0106371D01*
X0055411Y0106427D01*
X0055382Y0106482D01*
X0055349Y0106535D01*
X0055313Y0106586D01*
X0055274Y0106634D01*
X0055232Y0106680D01*
X0055187Y0106723D01*
X0055140Y0106764D01*
X0055091Y0106801D01*
X0055039Y0106836D01*
X0054985Y0106867D01*
X0054929Y0106895D01*
X0054872Y0106919D01*
X0054813Y0106939D01*
X0054753Y0106956D01*
X0054693Y0106970D01*
X0054631Y0106979D01*
X0054569Y0106985D01*
X0054507Y0106987D01*
X0048230Y0106987D02*
X0047017Y0106987D01*
X0048230Y0106987D02*
X0048285Y0106985D01*
X0048340Y0106979D01*
X0048394Y0106970D01*
X0048448Y0106957D01*
X0048501Y0106940D01*
X0048552Y0106920D01*
X0048602Y0106896D01*
X0048650Y0106869D01*
X0048696Y0106839D01*
X0048740Y0106806D01*
X0048782Y0106770D01*
X0048821Y0106731D01*
X0048857Y0106689D01*
X0048890Y0106645D01*
X0048920Y0106599D01*
X0048947Y0106551D01*
X0048971Y0106501D01*
X0048991Y0106450D01*
X0049008Y0106397D01*
X0049021Y0106343D01*
X0049030Y0106289D01*
X0049036Y0106234D01*
X0049038Y0106179D01*
X0049036Y0106124D01*
X0049030Y0106069D01*
X0049021Y0106015D01*
X0049008Y0105961D01*
X0048991Y0105908D01*
X0048971Y0105857D01*
X0048947Y0105807D01*
X0048920Y0105759D01*
X0048890Y0105713D01*
X0048857Y0105669D01*
X0048821Y0105627D01*
X0048782Y0105588D01*
X0048740Y0105552D01*
X0048696Y0105519D01*
X0048650Y0105489D01*
X0048602Y0105462D01*
X0048552Y0105438D01*
X0048501Y0105418D01*
X0048448Y0105401D01*
X0048394Y0105388D01*
X0048340Y0105379D01*
X0048285Y0105373D01*
X0048230Y0105371D01*
X0047422Y0105371D01*
X0048028Y0105370D02*
X0048090Y0105368D01*
X0048152Y0105362D01*
X0048214Y0105353D01*
X0048274Y0105339D01*
X0048334Y0105322D01*
X0048393Y0105302D01*
X0048450Y0105278D01*
X0048506Y0105250D01*
X0048560Y0105219D01*
X0048612Y0105184D01*
X0048661Y0105147D01*
X0048708Y0105106D01*
X0048753Y0105063D01*
X0048795Y0105017D01*
X0048834Y0104969D01*
X0048870Y0104918D01*
X0048903Y0104865D01*
X0048932Y0104810D01*
X0048958Y0104754D01*
X0048981Y0104696D01*
X0048999Y0104636D01*
X0049015Y0104576D01*
X0049026Y0104515D01*
X0049034Y0104453D01*
X0049038Y0104391D01*
X0049038Y0104329D01*
X0049034Y0104267D01*
X0049026Y0104205D01*
X0049015Y0104144D01*
X0048999Y0104084D01*
X0048981Y0104024D01*
X0048958Y0103966D01*
X0048932Y0103910D01*
X0048903Y0103855D01*
X0048870Y0103802D01*
X0048834Y0103751D01*
X0048795Y0103703D01*
X0048753Y0103657D01*
X0048708Y0103614D01*
X0048661Y0103573D01*
X0048612Y0103536D01*
X0048560Y0103501D01*
X0048506Y0103470D01*
X0048450Y0103442D01*
X0048393Y0103418D01*
X0048334Y0103398D01*
X0048274Y0103381D01*
X0048214Y0103367D01*
X0048152Y0103358D01*
X0048090Y0103352D01*
X0048028Y0103350D01*
X0047017Y0103350D01*
X0045517Y0103350D02*
X0044709Y0104966D01*
X0044507Y0104966D02*
X0043496Y0104966D01*
X0044507Y0104967D02*
X0044569Y0104969D01*
X0044631Y0104975D01*
X0044693Y0104984D01*
X0044753Y0104998D01*
X0044813Y0105015D01*
X0044872Y0105035D01*
X0044929Y0105059D01*
X0044985Y0105087D01*
X0045039Y0105118D01*
X0045091Y0105153D01*
X0045140Y0105190D01*
X0045187Y0105231D01*
X0045232Y0105274D01*
X0045274Y0105320D01*
X0045313Y0105368D01*
X0045349Y0105419D01*
X0045382Y0105472D01*
X0045411Y0105527D01*
X0045437Y0105583D01*
X0045460Y0105641D01*
X0045478Y0105701D01*
X0045494Y0105761D01*
X0045505Y0105822D01*
X0045513Y0105884D01*
X0045517Y0105946D01*
X0045517Y0106008D01*
X0045513Y0106070D01*
X0045505Y0106132D01*
X0045494Y0106193D01*
X0045478Y0106253D01*
X0045460Y0106313D01*
X0045437Y0106371D01*
X0045411Y0106427D01*
X0045382Y0106482D01*
X0045349Y0106535D01*
X0045313Y0106586D01*
X0045274Y0106634D01*
X0045232Y0106680D01*
X0045187Y0106723D01*
X0045140Y0106764D01*
X0045091Y0106801D01*
X0045039Y0106836D01*
X0044985Y0106867D01*
X0044929Y0106895D01*
X0044872Y0106919D01*
X0044813Y0106939D01*
X0044753Y0106956D01*
X0044693Y0106970D01*
X0044631Y0106979D01*
X0044569Y0106985D01*
X0044507Y0106987D01*
X0043496Y0106987D01*
X0043496Y0103350D01*
X0035113Y0081987D02*
X0034305Y0081987D01*
X0034250Y0081985D01*
X0034195Y0081979D01*
X0034141Y0081970D01*
X0034087Y0081957D01*
X0034034Y0081940D01*
X0033983Y0081920D01*
X0033933Y0081896D01*
X0033885Y0081869D01*
X0033839Y0081839D01*
X0033795Y0081806D01*
X0033753Y0081770D01*
X0033714Y0081730D01*
X0033678Y0081689D01*
X0033645Y0081645D01*
X0033615Y0081599D01*
X0033588Y0081551D01*
X0033564Y0081501D01*
X0033544Y0081450D01*
X0033527Y0081397D01*
X0033514Y0081343D01*
X0033505Y0081289D01*
X0033499Y0081234D01*
X0033497Y0081179D01*
X0033496Y0081179D02*
X0033496Y0079158D01*
X0033497Y0079158D02*
X0033499Y0079103D01*
X0033505Y0079048D01*
X0033514Y0078994D01*
X0033527Y0078940D01*
X0033544Y0078887D01*
X0033564Y0078836D01*
X0033588Y0078786D01*
X0033615Y0078738D01*
X0033645Y0078692D01*
X0033678Y0078648D01*
X0033714Y0078606D01*
X0033753Y0078567D01*
X0033795Y0078531D01*
X0033839Y0078498D01*
X0033885Y0078468D01*
X0033933Y0078441D01*
X0033983Y0078417D01*
X0034034Y0078397D01*
X0034087Y0078380D01*
X0034141Y0078367D01*
X0034195Y0078358D01*
X0034250Y0078352D01*
X0034305Y0078350D01*
X0035113Y0078350D01*
X0036459Y0079360D02*
X0036459Y0080371D01*
X0037672Y0080371D01*
X0036460Y0080371D02*
X0036462Y0080450D01*
X0036468Y0080529D01*
X0036477Y0080608D01*
X0036491Y0080686D01*
X0036508Y0080764D01*
X0036530Y0080840D01*
X0036554Y0080915D01*
X0036583Y0080989D01*
X0036615Y0081062D01*
X0036651Y0081133D01*
X0036690Y0081202D01*
X0036732Y0081269D01*
X0036778Y0081334D01*
X0036827Y0081396D01*
X0036879Y0081456D01*
X0036933Y0081514D01*
X0036991Y0081568D01*
X0037051Y0081620D01*
X0037113Y0081669D01*
X0037178Y0081715D01*
X0037245Y0081757D01*
X0037314Y0081796D01*
X0037385Y0081832D01*
X0037458Y0081864D01*
X0037532Y0081893D01*
X0037607Y0081917D01*
X0037683Y0081939D01*
X0037761Y0081956D01*
X0037839Y0081970D01*
X0037918Y0081979D01*
X0037997Y0081985D01*
X0038076Y0081987D01*
X0038480Y0079562D02*
X0038480Y0079360D01*
X0038480Y0079562D02*
X0038478Y0079617D01*
X0038472Y0079672D01*
X0038463Y0079726D01*
X0038450Y0079780D01*
X0038433Y0079833D01*
X0038413Y0079884D01*
X0038389Y0079934D01*
X0038362Y0079982D01*
X0038332Y0080028D01*
X0038299Y0080072D01*
X0038263Y0080114D01*
X0038224Y0080153D01*
X0038182Y0080189D01*
X0038138Y0080222D01*
X0038092Y0080252D01*
X0038044Y0080279D01*
X0037994Y0080303D01*
X0037943Y0080323D01*
X0037890Y0080340D01*
X0037836Y0080353D01*
X0037782Y0080362D01*
X0037727Y0080368D01*
X0037672Y0080370D01*
X0038480Y0079360D02*
X0038478Y0079298D01*
X0038472Y0079236D01*
X0038463Y0079174D01*
X0038449Y0079114D01*
X0038432Y0079054D01*
X0038412Y0078995D01*
X0038388Y0078938D01*
X0038360Y0078882D01*
X0038329Y0078828D01*
X0038294Y0078776D01*
X0038257Y0078727D01*
X0038216Y0078680D01*
X0038173Y0078635D01*
X0038127Y0078593D01*
X0038079Y0078554D01*
X0038028Y0078518D01*
X0037975Y0078485D01*
X0037920Y0078456D01*
X0037864Y0078430D01*
X0037806Y0078407D01*
X0037746Y0078389D01*
X0037686Y0078373D01*
X0037625Y0078362D01*
X0037563Y0078354D01*
X0037501Y0078350D01*
X0037439Y0078350D01*
X0037377Y0078354D01*
X0037315Y0078362D01*
X0037254Y0078373D01*
X0037194Y0078389D01*
X0037134Y0078407D01*
X0037076Y0078430D01*
X0037020Y0078456D01*
X0036965Y0078485D01*
X0036912Y0078518D01*
X0036861Y0078554D01*
X0036813Y0078593D01*
X0036767Y0078635D01*
X0036724Y0078680D01*
X0036683Y0078727D01*
X0036646Y0078776D01*
X0036611Y0078828D01*
X0036580Y0078882D01*
X0036552Y0078938D01*
X0036528Y0078995D01*
X0036508Y0079054D01*
X0036491Y0079114D01*
X0036477Y0079174D01*
X0036468Y0079236D01*
X0036462Y0079298D01*
X0036460Y0079360D01*
X0062264Y0061550D02*
X0062264Y0058923D01*
X0062265Y0058923D02*
X0062267Y0058861D01*
X0062273Y0058799D01*
X0062282Y0058737D01*
X0062296Y0058677D01*
X0062313Y0058617D01*
X0062333Y0058558D01*
X0062357Y0058501D01*
X0062385Y0058445D01*
X0062416Y0058391D01*
X0062451Y0058339D01*
X0062488Y0058290D01*
X0062529Y0058243D01*
X0062572Y0058198D01*
X0062618Y0058156D01*
X0062666Y0058117D01*
X0062717Y0058081D01*
X0062770Y0058048D01*
X0062825Y0058019D01*
X0062881Y0057993D01*
X0062939Y0057970D01*
X0062999Y0057952D01*
X0063059Y0057936D01*
X0063120Y0057925D01*
X0063182Y0057917D01*
X0063244Y0057913D01*
X0063306Y0057913D01*
X0063368Y0057917D01*
X0063430Y0057925D01*
X0063491Y0057936D01*
X0063551Y0057952D01*
X0063611Y0057970D01*
X0063669Y0057993D01*
X0063725Y0058019D01*
X0063780Y0058048D01*
X0063833Y0058081D01*
X0063884Y0058117D01*
X0063932Y0058156D01*
X0063978Y0058198D01*
X0064021Y0058243D01*
X0064062Y0058290D01*
X0064099Y0058339D01*
X0064134Y0058391D01*
X0064165Y0058445D01*
X0064193Y0058501D01*
X0064217Y0058558D01*
X0064237Y0058617D01*
X0064254Y0058677D01*
X0064268Y0058737D01*
X0064277Y0058799D01*
X0064283Y0058861D01*
X0064285Y0058923D01*
X0064285Y0061550D01*
X0065926Y0060742D02*
X0066936Y0061550D01*
X0066936Y0057913D01*
X0065926Y0057913D02*
X0067946Y0057913D01*
X0072155Y0047550D02*
X0073165Y0047550D01*
X0072155Y0047550D02*
X0072155Y0043913D01*
X0072155Y0045529D02*
X0073165Y0045529D01*
X0073367Y0045529D02*
X0074175Y0043913D01*
X0075676Y0043913D02*
X0076888Y0043913D01*
X0076943Y0043915D01*
X0076998Y0043921D01*
X0077052Y0043930D01*
X0077106Y0043943D01*
X0077159Y0043960D01*
X0077210Y0043980D01*
X0077260Y0044004D01*
X0077308Y0044031D01*
X0077354Y0044061D01*
X0077398Y0044094D01*
X0077439Y0044130D01*
X0077479Y0044169D01*
X0077515Y0044211D01*
X0077548Y0044255D01*
X0077578Y0044301D01*
X0077605Y0044349D01*
X0077629Y0044399D01*
X0077649Y0044450D01*
X0077666Y0044503D01*
X0077679Y0044557D01*
X0077688Y0044611D01*
X0077694Y0044666D01*
X0077696Y0044721D01*
X0077696Y0045125D01*
X0077694Y0045180D01*
X0077688Y0045235D01*
X0077679Y0045289D01*
X0077666Y0045343D01*
X0077649Y0045396D01*
X0077629Y0045447D01*
X0077605Y0045497D01*
X0077578Y0045545D01*
X0077548Y0045591D01*
X0077515Y0045635D01*
X0077479Y0045677D01*
X0077440Y0045716D01*
X0077398Y0045752D01*
X0077354Y0045785D01*
X0077308Y0045815D01*
X0077260Y0045842D01*
X0077210Y0045866D01*
X0077159Y0045886D01*
X0077106Y0045903D01*
X0077052Y0045916D01*
X0076998Y0045925D01*
X0076943Y0045931D01*
X0076888Y0045933D01*
X0076888Y0045934D02*
X0075676Y0045934D01*
X0075676Y0047550D01*
X0077696Y0047550D01*
X0073165Y0047550D02*
X0073227Y0047548D01*
X0073289Y0047542D01*
X0073351Y0047533D01*
X0073411Y0047519D01*
X0073471Y0047502D01*
X0073530Y0047482D01*
X0073587Y0047458D01*
X0073643Y0047430D01*
X0073697Y0047399D01*
X0073749Y0047364D01*
X0073798Y0047327D01*
X0073845Y0047286D01*
X0073890Y0047243D01*
X0073932Y0047197D01*
X0073971Y0047149D01*
X0074007Y0047098D01*
X0074040Y0047045D01*
X0074069Y0046990D01*
X0074095Y0046934D01*
X0074118Y0046876D01*
X0074136Y0046816D01*
X0074152Y0046756D01*
X0074163Y0046695D01*
X0074171Y0046633D01*
X0074175Y0046571D01*
X0074175Y0046509D01*
X0074171Y0046447D01*
X0074163Y0046385D01*
X0074152Y0046324D01*
X0074136Y0046264D01*
X0074118Y0046204D01*
X0074095Y0046146D01*
X0074069Y0046090D01*
X0074040Y0046035D01*
X0074007Y0045982D01*
X0073971Y0045931D01*
X0073932Y0045883D01*
X0073890Y0045837D01*
X0073845Y0045794D01*
X0073798Y0045753D01*
X0073749Y0045716D01*
X0073697Y0045681D01*
X0073643Y0045650D01*
X0073587Y0045622D01*
X0073530Y0045598D01*
X0073471Y0045578D01*
X0073411Y0045561D01*
X0073351Y0045547D01*
X0073289Y0045538D01*
X0073227Y0045532D01*
X0073165Y0045530D01*
X0077496Y0037487D02*
X0079517Y0037487D01*
X0078507Y0037487D02*
X0078507Y0033850D01*
X0080601Y0033850D02*
X0083026Y0037487D01*
X0080601Y0037487D02*
X0083026Y0033850D01*
X0083240Y0029987D02*
X0080815Y0026350D01*
X0079517Y0026350D02*
X0078709Y0027966D01*
X0078507Y0027966D02*
X0077496Y0027966D01*
X0078507Y0027967D02*
X0078569Y0027969D01*
X0078631Y0027975D01*
X0078693Y0027984D01*
X0078753Y0027998D01*
X0078813Y0028015D01*
X0078872Y0028035D01*
X0078929Y0028059D01*
X0078985Y0028087D01*
X0079039Y0028118D01*
X0079091Y0028153D01*
X0079140Y0028190D01*
X0079187Y0028231D01*
X0079232Y0028274D01*
X0079274Y0028320D01*
X0079313Y0028368D01*
X0079349Y0028419D01*
X0079382Y0028472D01*
X0079411Y0028527D01*
X0079437Y0028583D01*
X0079460Y0028641D01*
X0079478Y0028701D01*
X0079494Y0028761D01*
X0079505Y0028822D01*
X0079513Y0028884D01*
X0079517Y0028946D01*
X0079517Y0029008D01*
X0079513Y0029070D01*
X0079505Y0029132D01*
X0079494Y0029193D01*
X0079478Y0029253D01*
X0079460Y0029313D01*
X0079437Y0029371D01*
X0079411Y0029427D01*
X0079382Y0029482D01*
X0079349Y0029535D01*
X0079313Y0029586D01*
X0079274Y0029634D01*
X0079232Y0029680D01*
X0079187Y0029723D01*
X0079140Y0029764D01*
X0079091Y0029801D01*
X0079039Y0029836D01*
X0078985Y0029867D01*
X0078929Y0029895D01*
X0078872Y0029919D01*
X0078813Y0029939D01*
X0078753Y0029956D01*
X0078693Y0029970D01*
X0078631Y0029979D01*
X0078569Y0029985D01*
X0078507Y0029987D01*
X0077496Y0029987D01*
X0077496Y0026350D01*
X0080815Y0029987D02*
X0083240Y0026350D01*
X0109496Y0029875D02*
X0109496Y0030683D01*
X0109497Y0029875D02*
X0109499Y0029820D01*
X0109505Y0029765D01*
X0109514Y0029711D01*
X0109527Y0029657D01*
X0109544Y0029604D01*
X0109564Y0029553D01*
X0109588Y0029503D01*
X0109615Y0029455D01*
X0109645Y0029409D01*
X0109678Y0029365D01*
X0109714Y0029323D01*
X0109754Y0029284D01*
X0109795Y0029248D01*
X0109839Y0029215D01*
X0109885Y0029185D01*
X0109933Y0029158D01*
X0109983Y0029134D01*
X0110034Y0029114D01*
X0110087Y0029097D01*
X0110141Y0029084D01*
X0110195Y0029075D01*
X0110250Y0029069D01*
X0110305Y0029067D01*
X0112325Y0029067D01*
X0112380Y0029069D01*
X0112435Y0029075D01*
X0112489Y0029084D01*
X0112543Y0029097D01*
X0112596Y0029114D01*
X0112647Y0029134D01*
X0112697Y0029158D01*
X0112745Y0029185D01*
X0112791Y0029215D01*
X0112835Y0029248D01*
X0112877Y0029284D01*
X0112916Y0029323D01*
X0112952Y0029365D01*
X0112985Y0029409D01*
X0113015Y0029455D01*
X0113042Y0029503D01*
X0113066Y0029553D01*
X0113086Y0029604D01*
X0113103Y0029657D01*
X0113116Y0029711D01*
X0113125Y0029765D01*
X0113131Y0029820D01*
X0113133Y0029875D01*
X0113133Y0030683D01*
X0112123Y0032030D02*
X0112185Y0032032D01*
X0112247Y0032038D01*
X0112309Y0032047D01*
X0112369Y0032061D01*
X0112429Y0032078D01*
X0112488Y0032098D01*
X0112545Y0032122D01*
X0112601Y0032150D01*
X0112655Y0032181D01*
X0112707Y0032216D01*
X0112756Y0032253D01*
X0112803Y0032294D01*
X0112848Y0032337D01*
X0112890Y0032383D01*
X0112929Y0032431D01*
X0112965Y0032482D01*
X0112998Y0032535D01*
X0113027Y0032590D01*
X0113053Y0032646D01*
X0113076Y0032704D01*
X0113094Y0032764D01*
X0113110Y0032824D01*
X0113121Y0032885D01*
X0113129Y0032947D01*
X0113133Y0033009D01*
X0113133Y0033071D01*
X0113129Y0033133D01*
X0113121Y0033195D01*
X0113110Y0033256D01*
X0113094Y0033316D01*
X0113076Y0033376D01*
X0113053Y0033434D01*
X0113027Y0033490D01*
X0112998Y0033545D01*
X0112965Y0033598D01*
X0112929Y0033649D01*
X0112890Y0033697D01*
X0112848Y0033743D01*
X0112803Y0033786D01*
X0112756Y0033827D01*
X0112707Y0033864D01*
X0112655Y0033899D01*
X0112601Y0033930D01*
X0112545Y0033958D01*
X0112488Y0033982D01*
X0112429Y0034002D01*
X0112369Y0034019D01*
X0112309Y0034033D01*
X0112247Y0034042D01*
X0112185Y0034048D01*
X0112123Y0034050D01*
X0112061Y0034048D01*
X0111999Y0034042D01*
X0111937Y0034033D01*
X0111877Y0034019D01*
X0111817Y0034002D01*
X0111758Y0033982D01*
X0111701Y0033958D01*
X0111645Y0033930D01*
X0111591Y0033899D01*
X0111539Y0033864D01*
X0111490Y0033827D01*
X0111443Y0033786D01*
X0111398Y0033743D01*
X0111356Y0033697D01*
X0111317Y0033649D01*
X0111281Y0033598D01*
X0111248Y0033545D01*
X0111219Y0033490D01*
X0111193Y0033434D01*
X0111170Y0033376D01*
X0111152Y0033316D01*
X0111136Y0033256D01*
X0111125Y0033195D01*
X0111117Y0033133D01*
X0111113Y0033071D01*
X0111113Y0033009D01*
X0111117Y0032947D01*
X0111125Y0032885D01*
X0111136Y0032824D01*
X0111152Y0032764D01*
X0111170Y0032704D01*
X0111193Y0032646D01*
X0111219Y0032590D01*
X0111248Y0032535D01*
X0111281Y0032482D01*
X0111317Y0032431D01*
X0111356Y0032383D01*
X0111398Y0032337D01*
X0111443Y0032294D01*
X0111490Y0032253D01*
X0111539Y0032216D01*
X0111591Y0032181D01*
X0111645Y0032150D01*
X0111701Y0032122D01*
X0111758Y0032098D01*
X0111817Y0032078D01*
X0111877Y0032061D01*
X0111937Y0032047D01*
X0111999Y0032038D01*
X0112061Y0032032D01*
X0112123Y0032030D01*
X0110305Y0032232D02*
X0110360Y0032234D01*
X0110415Y0032240D01*
X0110469Y0032249D01*
X0110523Y0032262D01*
X0110576Y0032279D01*
X0110627Y0032299D01*
X0110677Y0032323D01*
X0110725Y0032350D01*
X0110771Y0032380D01*
X0110815Y0032413D01*
X0110857Y0032449D01*
X0110896Y0032488D01*
X0110932Y0032530D01*
X0110965Y0032574D01*
X0110995Y0032620D01*
X0111022Y0032668D01*
X0111046Y0032718D01*
X0111066Y0032769D01*
X0111083Y0032822D01*
X0111096Y0032876D01*
X0111105Y0032930D01*
X0111111Y0032985D01*
X0111113Y0033040D01*
X0111111Y0033095D01*
X0111105Y0033150D01*
X0111096Y0033204D01*
X0111083Y0033258D01*
X0111066Y0033311D01*
X0111046Y0033362D01*
X0111022Y0033412D01*
X0110995Y0033460D01*
X0110965Y0033506D01*
X0110932Y0033550D01*
X0110896Y0033592D01*
X0110857Y0033631D01*
X0110815Y0033667D01*
X0110771Y0033700D01*
X0110725Y0033730D01*
X0110677Y0033757D01*
X0110627Y0033781D01*
X0110576Y0033801D01*
X0110523Y0033818D01*
X0110469Y0033831D01*
X0110415Y0033840D01*
X0110360Y0033846D01*
X0110305Y0033848D01*
X0110250Y0033846D01*
X0110195Y0033840D01*
X0110141Y0033831D01*
X0110087Y0033818D01*
X0110034Y0033801D01*
X0109983Y0033781D01*
X0109933Y0033757D01*
X0109885Y0033730D01*
X0109839Y0033700D01*
X0109795Y0033667D01*
X0109753Y0033631D01*
X0109714Y0033592D01*
X0109678Y0033550D01*
X0109645Y0033506D01*
X0109615Y0033460D01*
X0109588Y0033412D01*
X0109564Y0033362D01*
X0109544Y0033311D01*
X0109527Y0033258D01*
X0109514Y0033204D01*
X0109505Y0033150D01*
X0109499Y0033095D01*
X0109497Y0033040D01*
X0109499Y0032985D01*
X0109505Y0032930D01*
X0109514Y0032876D01*
X0109527Y0032822D01*
X0109544Y0032769D01*
X0109564Y0032718D01*
X0109588Y0032668D01*
X0109615Y0032620D01*
X0109645Y0032574D01*
X0109678Y0032530D01*
X0109714Y0032488D01*
X0109753Y0032449D01*
X0109795Y0032413D01*
X0109839Y0032380D01*
X0109885Y0032350D01*
X0109933Y0032323D01*
X0109983Y0032299D01*
X0110034Y0032279D01*
X0110087Y0032262D01*
X0110141Y0032249D01*
X0110195Y0032240D01*
X0110250Y0032234D01*
X0110305Y0032232D01*
X0111017Y0043850D02*
X0110209Y0045466D01*
X0110007Y0045466D02*
X0108996Y0045466D01*
X0110007Y0045467D02*
X0110069Y0045469D01*
X0110131Y0045475D01*
X0110193Y0045484D01*
X0110253Y0045498D01*
X0110313Y0045515D01*
X0110372Y0045535D01*
X0110429Y0045559D01*
X0110485Y0045587D01*
X0110539Y0045618D01*
X0110591Y0045653D01*
X0110640Y0045690D01*
X0110687Y0045731D01*
X0110732Y0045774D01*
X0110774Y0045820D01*
X0110813Y0045868D01*
X0110849Y0045919D01*
X0110882Y0045972D01*
X0110911Y0046027D01*
X0110937Y0046083D01*
X0110960Y0046141D01*
X0110978Y0046201D01*
X0110994Y0046261D01*
X0111005Y0046322D01*
X0111013Y0046384D01*
X0111017Y0046446D01*
X0111017Y0046508D01*
X0111013Y0046570D01*
X0111005Y0046632D01*
X0110994Y0046693D01*
X0110978Y0046753D01*
X0110960Y0046813D01*
X0110937Y0046871D01*
X0110911Y0046927D01*
X0110882Y0046982D01*
X0110849Y0047035D01*
X0110813Y0047086D01*
X0110774Y0047134D01*
X0110732Y0047180D01*
X0110687Y0047223D01*
X0110640Y0047264D01*
X0110591Y0047301D01*
X0110539Y0047336D01*
X0110485Y0047367D01*
X0110429Y0047395D01*
X0110372Y0047419D01*
X0110313Y0047439D01*
X0110253Y0047456D01*
X0110193Y0047470D01*
X0110131Y0047479D01*
X0110069Y0047485D01*
X0110007Y0047487D01*
X0108996Y0047487D01*
X0108996Y0043850D01*
X0112517Y0044658D02*
X0113326Y0047487D01*
X0113932Y0045466D02*
X0113932Y0043850D01*
X0114538Y0044658D02*
X0112517Y0044658D01*
X0175496Y0030996D02*
X0176305Y0029986D01*
X0175496Y0030996D02*
X0179133Y0030996D01*
X0179133Y0029986D02*
X0179133Y0032007D01*
X0178628Y0035247D02*
X0178534Y0035291D01*
X0178437Y0035332D01*
X0178340Y0035369D01*
X0178241Y0035403D01*
X0178141Y0035434D01*
X0178040Y0035461D01*
X0177938Y0035485D01*
X0177835Y0035505D01*
X0177732Y0035521D01*
X0177628Y0035534D01*
X0177524Y0035543D01*
X0177420Y0035548D01*
X0177315Y0035550D01*
X0177315Y0033530D02*
X0177210Y0033532D01*
X0177106Y0033537D01*
X0177002Y0033546D01*
X0176898Y0033559D01*
X0176795Y0033575D01*
X0176692Y0033595D01*
X0176590Y0033619D01*
X0176489Y0033646D01*
X0176389Y0033677D01*
X0176290Y0033711D01*
X0176193Y0033748D01*
X0176097Y0033789D01*
X0176002Y0033833D01*
X0175496Y0034540D02*
X0175498Y0034595D01*
X0175504Y0034649D01*
X0175514Y0034702D01*
X0175528Y0034755D01*
X0175545Y0034807D01*
X0175567Y0034857D01*
X0175591Y0034906D01*
X0175620Y0034952D01*
X0175652Y0034997D01*
X0175686Y0035039D01*
X0175724Y0035078D01*
X0175765Y0035114D01*
X0175808Y0035148D01*
X0175854Y0035178D01*
X0175901Y0035205D01*
X0175950Y0035228D01*
X0176001Y0035248D01*
X0176305Y0035348D02*
X0178325Y0033731D01*
X0179134Y0034540D02*
X0179132Y0034595D01*
X0179126Y0034649D01*
X0179116Y0034702D01*
X0179102Y0034755D01*
X0179085Y0034807D01*
X0179063Y0034857D01*
X0179039Y0034906D01*
X0179010Y0034952D01*
X0178978Y0034997D01*
X0178944Y0035039D01*
X0178906Y0035078D01*
X0178865Y0035114D01*
X0178822Y0035148D01*
X0178776Y0035178D01*
X0178729Y0035205D01*
X0178680Y0035228D01*
X0178629Y0035248D01*
X0179134Y0034540D02*
X0179132Y0034485D01*
X0179126Y0034431D01*
X0179116Y0034378D01*
X0179102Y0034325D01*
X0179085Y0034273D01*
X0179063Y0034223D01*
X0179039Y0034174D01*
X0179010Y0034128D01*
X0178978Y0034083D01*
X0178944Y0034041D01*
X0178906Y0034002D01*
X0178865Y0033966D01*
X0178822Y0033932D01*
X0178776Y0033902D01*
X0178729Y0033875D01*
X0178680Y0033852D01*
X0178629Y0033832D01*
X0177315Y0035550D02*
X0177210Y0035548D01*
X0177106Y0035543D01*
X0177002Y0035534D01*
X0176898Y0035521D01*
X0176795Y0035505D01*
X0176692Y0035485D01*
X0176590Y0035461D01*
X0176489Y0035434D01*
X0176389Y0035403D01*
X0176290Y0035369D01*
X0176193Y0035332D01*
X0176096Y0035291D01*
X0176002Y0035247D01*
X0175496Y0034540D02*
X0175498Y0034485D01*
X0175504Y0034431D01*
X0175514Y0034378D01*
X0175528Y0034325D01*
X0175545Y0034273D01*
X0175567Y0034223D01*
X0175591Y0034174D01*
X0175620Y0034128D01*
X0175652Y0034083D01*
X0175686Y0034041D01*
X0175724Y0034002D01*
X0175765Y0033966D01*
X0175808Y0033932D01*
X0175854Y0033902D01*
X0175901Y0033875D01*
X0175950Y0033852D01*
X0176001Y0033832D01*
X0177315Y0033530D02*
X0177420Y0033532D01*
X0177524Y0033537D01*
X0177628Y0033546D01*
X0177732Y0033559D01*
X0177835Y0033575D01*
X0177938Y0033595D01*
X0178040Y0033619D01*
X0178141Y0033646D01*
X0178241Y0033677D01*
X0178340Y0033711D01*
X0178437Y0033748D01*
X0178533Y0033789D01*
X0178628Y0033833D01*
X0179133Y0028486D02*
X0177517Y0027677D01*
X0177517Y0027475D02*
X0177517Y0026465D01*
X0177517Y0027475D02*
X0177515Y0027537D01*
X0177509Y0027599D01*
X0177500Y0027661D01*
X0177486Y0027721D01*
X0177469Y0027781D01*
X0177449Y0027840D01*
X0177425Y0027897D01*
X0177397Y0027953D01*
X0177366Y0028007D01*
X0177331Y0028059D01*
X0177294Y0028108D01*
X0177253Y0028155D01*
X0177210Y0028200D01*
X0177164Y0028242D01*
X0177116Y0028281D01*
X0177065Y0028317D01*
X0177012Y0028350D01*
X0176957Y0028379D01*
X0176901Y0028405D01*
X0176843Y0028428D01*
X0176783Y0028446D01*
X0176723Y0028462D01*
X0176662Y0028473D01*
X0176600Y0028481D01*
X0176538Y0028485D01*
X0176476Y0028485D01*
X0176414Y0028481D01*
X0176352Y0028473D01*
X0176291Y0028462D01*
X0176231Y0028446D01*
X0176171Y0028428D01*
X0176113Y0028405D01*
X0176057Y0028379D01*
X0176002Y0028350D01*
X0175949Y0028317D01*
X0175898Y0028281D01*
X0175850Y0028242D01*
X0175804Y0028200D01*
X0175761Y0028155D01*
X0175720Y0028108D01*
X0175683Y0028059D01*
X0175648Y0028007D01*
X0175617Y0027953D01*
X0175589Y0027897D01*
X0175565Y0027840D01*
X0175545Y0027781D01*
X0175528Y0027721D01*
X0175514Y0027661D01*
X0175505Y0027599D01*
X0175499Y0027537D01*
X0175497Y0027475D01*
X0175496Y0027475D02*
X0175496Y0026465D01*
X0179133Y0026465D01*
X0180996Y0108350D02*
X0180996Y0111987D01*
X0182007Y0111987D01*
X0182069Y0111985D01*
X0182131Y0111979D01*
X0182193Y0111970D01*
X0182253Y0111956D01*
X0182313Y0111939D01*
X0182372Y0111919D01*
X0182429Y0111895D01*
X0182485Y0111867D01*
X0182539Y0111836D01*
X0182591Y0111801D01*
X0182640Y0111764D01*
X0182687Y0111723D01*
X0182732Y0111680D01*
X0182774Y0111634D01*
X0182813Y0111586D01*
X0182849Y0111535D01*
X0182882Y0111482D01*
X0182911Y0111427D01*
X0182937Y0111371D01*
X0182960Y0111313D01*
X0182978Y0111253D01*
X0182994Y0111193D01*
X0183005Y0111132D01*
X0183013Y0111070D01*
X0183017Y0111008D01*
X0183017Y0110946D01*
X0183013Y0110884D01*
X0183005Y0110822D01*
X0182994Y0110761D01*
X0182978Y0110701D01*
X0182960Y0110641D01*
X0182937Y0110583D01*
X0182911Y0110527D01*
X0182882Y0110472D01*
X0182849Y0110419D01*
X0182813Y0110368D01*
X0182774Y0110320D01*
X0182732Y0110274D01*
X0182687Y0110231D01*
X0182640Y0110190D01*
X0182591Y0110153D01*
X0182539Y0110118D01*
X0182485Y0110087D01*
X0182429Y0110059D01*
X0182372Y0110035D01*
X0182313Y0110015D01*
X0182253Y0109998D01*
X0182193Y0109984D01*
X0182131Y0109975D01*
X0182069Y0109969D01*
X0182007Y0109967D01*
X0182007Y0109966D02*
X0180996Y0109966D01*
X0182209Y0109966D02*
X0183017Y0108350D01*
X0184517Y0108350D02*
X0186538Y0108350D01*
X0185528Y0108350D02*
X0185528Y0111987D01*
X0184517Y0111179D01*
D15*
X0033157Y0072448D02*
X0033157Y0068511D01*
X0033086Y0072420D02*
X0029220Y0072420D01*
X0029220Y0072448D01*
X0017409Y0072448D02*
X0013472Y0072448D01*
X0033157Y0044889D02*
X0033157Y0040952D01*
X0029220Y0040952D01*
X0017409Y0040952D02*
X0013472Y0040952D01*
D16*
X0033346Y0040700D02*
X0033346Y0035700D01*
X0035846Y0033200D01*
X0040846Y0033200D01*
X0043346Y0035700D01*
X0045846Y0033200D01*
X0050846Y0033200D01*
X0053346Y0035700D01*
X0055846Y0033200D01*
X0060846Y0033200D01*
X0063346Y0035700D01*
X0065846Y0033200D01*
X0070846Y0033200D01*
X0073346Y0035700D01*
X0073346Y0040700D01*
X0070846Y0043200D01*
X0065846Y0043200D01*
X0063346Y0040700D01*
X0060846Y0043200D01*
X0055846Y0043200D01*
X0053346Y0040700D01*
X0050846Y0043200D01*
X0045846Y0043200D01*
X0043346Y0040700D01*
X0040846Y0043200D01*
X0035846Y0043200D01*
X0033346Y0040700D01*
X0040446Y0064200D02*
X0066246Y0064200D01*
X0066246Y0077200D01*
X0040446Y0077200D01*
X0040446Y0064200D01*
X0035846Y0088200D02*
X0030846Y0088200D01*
X0028346Y0090700D01*
X0028346Y0095700D01*
X0030846Y0098200D01*
X0028346Y0100700D01*
X0028346Y0105700D01*
X0030846Y0108200D01*
X0035846Y0108200D01*
X0038346Y0105700D01*
X0038346Y0100700D01*
X0035846Y0098200D01*
X0038346Y0095700D01*
X0038346Y0090700D01*
X0035846Y0088200D01*
X0028346Y0090700D02*
X0028346Y0095700D01*
X0025846Y0098200D01*
X0028346Y0100700D01*
X0028346Y0105700D01*
X0025846Y0108200D01*
X0020846Y0108200D01*
X0018346Y0105700D01*
X0018346Y0100700D01*
X0020846Y0098200D01*
X0018346Y0095700D01*
X0018346Y0090700D01*
X0020846Y0088200D01*
X0025846Y0088200D01*
X0028346Y0090700D01*
X0115846Y0088200D02*
X0115846Y0040562D01*
X0122146Y0034657D02*
X0155217Y0034657D01*
X0155216Y0034657D02*
X0155342Y0034652D01*
X0155467Y0034643D01*
X0155592Y0034630D01*
X0155716Y0034613D01*
X0155840Y0034593D01*
X0155963Y0034569D01*
X0156085Y0034541D01*
X0156206Y0034509D01*
X0156326Y0034473D01*
X0156445Y0034434D01*
X0156563Y0034391D01*
X0156679Y0034344D01*
X0156794Y0034294D01*
X0156908Y0034240D01*
X0157019Y0034182D01*
X0157129Y0034122D01*
X0157236Y0034057D01*
X0157342Y0033990D01*
X0157446Y0033919D01*
X0157547Y0033845D01*
X0157646Y0033768D01*
X0157743Y0033688D01*
X0157837Y0033605D01*
X0157928Y0033520D01*
X0158017Y0033431D01*
X0158102Y0033340D01*
X0158185Y0033246D01*
X0158265Y0033149D01*
X0158342Y0033050D01*
X0158416Y0032949D01*
X0158487Y0032845D01*
X0158554Y0032739D01*
X0158619Y0032632D01*
X0158679Y0032522D01*
X0158737Y0032411D01*
X0158791Y0032297D01*
X0158841Y0032182D01*
X0158888Y0032066D01*
X0158931Y0031948D01*
X0158970Y0031829D01*
X0159006Y0031709D01*
X0159038Y0031588D01*
X0159066Y0031466D01*
X0159090Y0031343D01*
X0159110Y0031219D01*
X0159127Y0031095D01*
X0159140Y0030970D01*
X0159149Y0030845D01*
X0159154Y0030719D01*
X0159154Y0030720D02*
X0159148Y0030619D01*
X0159146Y0030519D01*
X0159148Y0030418D01*
X0159154Y0030318D01*
X0159164Y0030218D01*
X0159178Y0030118D01*
X0159196Y0030019D01*
X0159218Y0029921D01*
X0159243Y0029824D01*
X0159272Y0029727D01*
X0159305Y0029632D01*
X0159342Y0029539D01*
X0159383Y0029447D01*
X0159427Y0029356D01*
X0159474Y0029267D01*
X0159525Y0029181D01*
X0159579Y0029096D01*
X0159637Y0029013D01*
X0159697Y0028933D01*
X0159761Y0028856D01*
X0159828Y0028780D01*
X0159898Y0028708D01*
X0159970Y0028638D01*
X0160046Y0028571D01*
X0160123Y0028507D01*
X0160203Y0028447D01*
X0160286Y0028389D01*
X0160371Y0028335D01*
X0160457Y0028284D01*
X0160546Y0028237D01*
X0160637Y0028193D01*
X0160729Y0028152D01*
X0160822Y0028115D01*
X0160917Y0028082D01*
X0161014Y0028053D01*
X0161111Y0028028D01*
X0161209Y0028006D01*
X0161308Y0027988D01*
X0161408Y0027974D01*
X0161508Y0027964D01*
X0161608Y0027958D01*
X0161709Y0027956D01*
X0161809Y0027958D01*
X0161910Y0027964D01*
X0161909Y0027964D02*
X0165059Y0027964D01*
X0170965Y0036231D02*
X0170965Y0088200D01*
X0151673Y0088200D01*
X0141043Y0088200D02*
X0129232Y0088200D01*
X0118602Y0088200D02*
X0115846Y0088200D01*
X0183346Y0086950D02*
X0183346Y0091950D01*
X0185846Y0094450D01*
X0183346Y0096950D01*
X0183346Y0101950D01*
X0185846Y0104450D01*
X0190846Y0104450D01*
X0193346Y0101950D01*
X0193346Y0096950D01*
X0190846Y0094450D01*
X0193346Y0091950D01*
X0193346Y0086950D01*
X0190846Y0084450D01*
X0185846Y0084450D01*
X0183346Y0086950D01*
X0185846Y0084450D02*
X0183346Y0081950D01*
X0183346Y0076950D01*
X0185846Y0074450D01*
X0183346Y0071950D01*
X0183346Y0066950D01*
X0185846Y0064450D01*
X0183346Y0061950D01*
X0183346Y0056950D01*
X0185846Y0054450D01*
X0183346Y0051950D01*
X0183346Y0046950D01*
X0185846Y0044450D01*
X0190846Y0044450D01*
X0193346Y0046950D01*
X0193346Y0051950D01*
X0190846Y0054450D01*
X0193346Y0056950D01*
X0193346Y0061950D01*
X0190846Y0064450D01*
X0185846Y0064450D01*
X0190846Y0064450D01*
X0193346Y0066950D01*
X0193346Y0071950D01*
X0190846Y0074450D01*
X0193346Y0076950D01*
X0193346Y0081950D01*
X0190846Y0084450D01*
X0185846Y0084450D01*
D17*
X0090453Y0035700D03*
X0091240Y0028200D03*
D18*
X0108957Y0059184D02*
X0111319Y0059184D01*
X0111319Y0082216D01*
X0108957Y0082216D01*
X0072736Y0082216D02*
X0070374Y0082216D01*
X0070374Y0059184D01*
X0072736Y0059184D01*
D19*
X0110531Y0084873D03*
M02*
