G75*
%MOIN*%
%OFA0B0*%
%FSLAX25Y25*%
%IPPOS*%
%LPD*%
%AMOC8*
5,1,8,0,0,1.08239X$1,22.5*
%
%ADD10R,0.05906X0.05118*%
%ADD11R,0.05118X0.05906*%
%ADD12R,0.05709X0.01575*%
%ADD13R,0.05906X0.07087*%
%ADD14R,0.05906X0.09843*%
%ADD15R,0.07087X0.05512*%
%ADD16R,0.05512X0.07480*%
%ADD17R,0.03150X0.05906*%
%ADD18C,0.07400*%
%ADD19R,0.04724X0.04724*%
%ADD20R,0.01370X0.05500*%
%ADD21R,0.04800X0.08800*%
%ADD22R,0.14173X0.08661*%
%ADD23C,0.01000*%
%ADD24C,0.02378*%
%ADD25C,0.00800*%
D10*
X0105846Y0026960D03*
X0105846Y0034440D03*
X0177846Y0038960D03*
X0177846Y0046440D03*
X0175846Y0101960D03*
X0175846Y0109440D03*
X0128346Y0111940D03*
X0128346Y0104460D03*
X0118346Y0104460D03*
X0118346Y0111940D03*
X0093346Y0111940D03*
X0093346Y0104460D03*
X0065846Y0099440D03*
X0055846Y0099440D03*
X0045846Y0099440D03*
X0045846Y0091960D03*
X0055846Y0091960D03*
X0065846Y0091960D03*
D11*
X0092106Y0095700D03*
X0099587Y0095700D03*
X0102106Y0108200D03*
X0109587Y0108200D03*
X0029587Y0083200D03*
X0022106Y0083200D03*
X0082106Y0045700D03*
X0089587Y0045700D03*
X0098606Y0045700D03*
X0106087Y0045700D03*
D12*
X0032075Y0051582D03*
X0032075Y0054141D03*
X0032075Y0056700D03*
X0032075Y0059259D03*
X0032075Y0061818D03*
D13*
X0021346Y0071208D03*
X0021346Y0042192D03*
D14*
X0021346Y0056700D03*
D15*
X0123917Y0086625D03*
X0146358Y0086625D03*
D16*
X0117618Y0034854D03*
X0169390Y0030917D03*
D17*
X0151043Y0046074D03*
X0146713Y0047649D03*
X0142382Y0046074D03*
X0138051Y0045287D03*
X0133720Y0046074D03*
X0129390Y0045287D03*
X0125059Y0046074D03*
X0120728Y0046074D03*
D18*
X0068346Y0038200D03*
X0058346Y0038200D03*
X0048346Y0038200D03*
X0038346Y0038200D03*
X0033346Y0093200D03*
X0023346Y0093200D03*
X0023346Y0103200D03*
X0033346Y0103200D03*
X0145846Y0100700D03*
X0155846Y0100700D03*
X0165846Y0100700D03*
X0165846Y0110700D03*
X0155846Y0110700D03*
X0145846Y0110700D03*
X0188346Y0099450D03*
X0188346Y0089450D03*
X0188346Y0079450D03*
X0188346Y0069450D03*
X0188346Y0059450D03*
X0188346Y0049450D03*
D19*
X0094980Y0035700D03*
X0086713Y0035700D03*
X0086713Y0028200D03*
X0094980Y0028200D03*
D20*
X0094685Y0056306D03*
X0092126Y0056306D03*
X0089567Y0056306D03*
X0087008Y0056306D03*
X0084449Y0056306D03*
X0081890Y0056306D03*
X0079331Y0056306D03*
X0076772Y0056306D03*
X0074213Y0056306D03*
X0097244Y0056306D03*
X0099803Y0056306D03*
X0102362Y0056306D03*
X0104921Y0056306D03*
X0107480Y0056306D03*
X0107480Y0085094D03*
X0104921Y0085094D03*
X0102362Y0085094D03*
X0099803Y0085094D03*
X0097244Y0085094D03*
X0094685Y0085094D03*
X0092126Y0085094D03*
X0089567Y0085094D03*
X0087008Y0085094D03*
X0084449Y0085094D03*
X0081890Y0085094D03*
X0079331Y0085094D03*
X0076772Y0085094D03*
X0074213Y0085094D03*
D21*
X0062446Y0082900D03*
X0053346Y0082900D03*
X0044246Y0082900D03*
D22*
X0053346Y0058499D03*
D23*
X0015346Y0020200D02*
X0015346Y0128700D01*
X0196268Y0128700D01*
X0196268Y0020200D01*
X0015346Y0020200D01*
X0015346Y0021196D02*
X0019599Y0021196D01*
X0018868Y0021498D02*
X0021774Y0020294D01*
X0024919Y0020294D01*
X0027825Y0021498D01*
X0030048Y0023722D01*
X0031252Y0026627D01*
X0031252Y0029773D01*
X0030048Y0032678D01*
X0027825Y0034902D01*
X0024919Y0036105D01*
X0021774Y0036105D01*
X0018868Y0034902D01*
X0016644Y0032678D01*
X0015441Y0029773D01*
X0015441Y0026627D01*
X0016644Y0023722D01*
X0018868Y0021498D01*
X0018172Y0022194D02*
X0015346Y0022194D01*
X0015346Y0023193D02*
X0017174Y0023193D01*
X0016450Y0024191D02*
X0015346Y0024191D01*
X0015346Y0025190D02*
X0016037Y0025190D01*
X0015623Y0026188D02*
X0015346Y0026188D01*
X0015346Y0027187D02*
X0015441Y0027187D01*
X0015441Y0028185D02*
X0015346Y0028185D01*
X0015346Y0029184D02*
X0015441Y0029184D01*
X0015346Y0030182D02*
X0015611Y0030182D01*
X0015346Y0031181D02*
X0016024Y0031181D01*
X0016438Y0032179D02*
X0015346Y0032179D01*
X0015346Y0033178D02*
X0017144Y0033178D01*
X0018143Y0034176D02*
X0015346Y0034176D01*
X0015346Y0035175D02*
X0019527Y0035175D01*
X0017690Y0036949D02*
X0025003Y0036949D01*
X0025999Y0037945D01*
X0025999Y0046440D01*
X0025003Y0047435D01*
X0017690Y0047435D01*
X0016694Y0046440D01*
X0016694Y0037945D01*
X0017690Y0036949D01*
X0017467Y0037172D02*
X0015346Y0037172D01*
X0015346Y0038170D02*
X0016694Y0038170D01*
X0016694Y0039169D02*
X0015346Y0039169D01*
X0015346Y0040167D02*
X0016694Y0040167D01*
X0016694Y0041166D02*
X0015346Y0041166D01*
X0015346Y0042164D02*
X0016694Y0042164D01*
X0016694Y0043163D02*
X0015346Y0043163D01*
X0015346Y0044161D02*
X0016694Y0044161D01*
X0016694Y0045160D02*
X0015346Y0045160D01*
X0015346Y0046158D02*
X0016694Y0046158D01*
X0017411Y0047157D02*
X0015346Y0047157D01*
X0015346Y0048155D02*
X0026473Y0048155D01*
X0026335Y0048489D02*
X0026335Y0049950D01*
X0026894Y0051300D01*
X0027720Y0052127D01*
X0027720Y0052449D01*
X0027520Y0052649D01*
X0027520Y0061473D01*
X0026894Y0062100D01*
X0026335Y0063450D01*
X0026335Y0064911D01*
X0026894Y0066261D01*
X0027927Y0067294D01*
X0029277Y0067854D01*
X0030739Y0067854D01*
X0032089Y0067294D01*
X0033122Y0066261D01*
X0033681Y0064911D01*
X0033681Y0064305D01*
X0033982Y0064305D01*
X0035457Y0065781D01*
X0035457Y0066275D01*
X0035897Y0067336D01*
X0036710Y0068149D01*
X0037772Y0068589D01*
X0038266Y0068589D01*
X0042146Y0072470D01*
X0042146Y0076800D01*
X0041142Y0076800D01*
X0040146Y0077796D01*
X0040146Y0080914D01*
X0039983Y0080751D01*
X0038921Y0080311D01*
X0037772Y0080311D01*
X0036710Y0080751D01*
X0035897Y0081564D01*
X0035457Y0082625D01*
X0035457Y0083775D01*
X0035897Y0084836D01*
X0036710Y0085649D01*
X0037772Y0086089D01*
X0038921Y0086089D01*
X0039983Y0085649D01*
X0040146Y0085486D01*
X0040146Y0088004D01*
X0041142Y0089000D01*
X0041194Y0089000D01*
X0041194Y0091100D01*
X0038322Y0091100D01*
X0037924Y0090141D01*
X0036405Y0088622D01*
X0035446Y0088225D01*
X0035446Y0086090D01*
X0033846Y0084489D01*
X0033846Y0079543D01*
X0032850Y0078547D01*
X0026323Y0078547D01*
X0025705Y0079166D01*
X0025586Y0079047D01*
X0025244Y0078849D01*
X0024863Y0078747D01*
X0022606Y0078747D01*
X0022606Y0082700D01*
X0021606Y0082700D01*
X0018047Y0082700D01*
X0018047Y0080050D01*
X0018149Y0079668D01*
X0018347Y0079326D01*
X0018626Y0079047D01*
X0018968Y0078849D01*
X0019350Y0078747D01*
X0021606Y0078747D01*
X0021606Y0082700D01*
X0021606Y0083700D01*
X0018047Y0083700D01*
X0018047Y0086350D01*
X0018149Y0086732D01*
X0018347Y0087074D01*
X0018626Y0087353D01*
X0018968Y0087551D01*
X0019350Y0087653D01*
X0021606Y0087653D01*
X0021606Y0083700D01*
X0022606Y0083700D01*
X0022606Y0087653D01*
X0024863Y0087653D01*
X0025244Y0087551D01*
X0025586Y0087353D01*
X0025705Y0087234D01*
X0026323Y0087853D01*
X0031246Y0087853D01*
X0031246Y0088225D01*
X0030288Y0088622D01*
X0028769Y0090141D01*
X0028237Y0091424D01*
X0028165Y0091204D01*
X0027794Y0090475D01*
X0027313Y0089812D01*
X0026734Y0089234D01*
X0026072Y0088753D01*
X0025343Y0088381D01*
X0024564Y0088128D01*
X0023846Y0088014D01*
X0023846Y0092700D01*
X0022846Y0092700D01*
X0018161Y0092700D01*
X0018274Y0091982D01*
X0018527Y0091204D01*
X0018899Y0090475D01*
X0019380Y0089812D01*
X0019959Y0089234D01*
X0020621Y0088753D01*
X0021350Y0088381D01*
X0022129Y0088128D01*
X0022846Y0088014D01*
X0022846Y0092700D01*
X0022846Y0093700D01*
X0018161Y0093700D01*
X0018274Y0094418D01*
X0018527Y0095196D01*
X0018899Y0095925D01*
X0019380Y0096588D01*
X0019959Y0097166D01*
X0020621Y0097647D01*
X0021350Y0098019D01*
X0021571Y0098091D01*
X0020288Y0098622D01*
X0018769Y0100141D01*
X0017946Y0102126D01*
X0017946Y0104274D01*
X0018769Y0106259D01*
X0020288Y0107778D01*
X0022272Y0108600D01*
X0024421Y0108600D01*
X0025379Y0108203D01*
X0029987Y0112810D01*
X0031217Y0114040D01*
X0088694Y0114040D01*
X0088694Y0115203D01*
X0089690Y0116199D01*
X0097003Y0116199D01*
X0097999Y0115203D01*
X0097999Y0112009D01*
X0098843Y0112853D01*
X0103779Y0112853D01*
X0104996Y0114070D01*
X0106227Y0115300D01*
X0113790Y0115300D01*
X0114690Y0116199D01*
X0122003Y0116199D01*
X0122999Y0115203D01*
X0122999Y0114040D01*
X0123694Y0114040D01*
X0123694Y0115203D01*
X0124690Y0116199D01*
X0126246Y0116199D01*
X0126246Y0116570D01*
X0128746Y0119070D01*
X0129977Y0120300D01*
X0131361Y0120300D01*
X0131710Y0120649D01*
X0132772Y0121089D01*
X0133921Y0121089D01*
X0134983Y0120649D01*
X0135796Y0119836D01*
X0136235Y0118775D01*
X0136235Y0117625D01*
X0135796Y0116564D01*
X0134983Y0115751D01*
X0133921Y0115311D01*
X0132892Y0115311D01*
X0132999Y0115203D01*
X0132999Y0108677D01*
X0132522Y0108200D01*
X0132999Y0107723D01*
X0132999Y0101197D01*
X0132003Y0100201D01*
X0130446Y0100201D01*
X0130446Y0090184D01*
X0129161Y0088899D01*
X0129161Y0083165D01*
X0128165Y0082169D01*
X0120446Y0082169D01*
X0120446Y0050727D01*
X0122959Y0050727D01*
X0122959Y0050782D01*
X0132496Y0060320D01*
X0132496Y0087820D01*
X0133727Y0089050D01*
X0141793Y0097117D01*
X0141269Y0097641D01*
X0140446Y0099626D01*
X0140446Y0101774D01*
X0141269Y0103759D01*
X0142788Y0105278D01*
X0143807Y0105700D01*
X0142788Y0106122D01*
X0141269Y0107641D01*
X0140446Y0109626D01*
X0140446Y0111774D01*
X0141269Y0113759D01*
X0142788Y0115278D01*
X0144772Y0116100D01*
X0146921Y0116100D01*
X0148905Y0115278D01*
X0150424Y0113759D01*
X0150846Y0112740D01*
X0151269Y0113759D01*
X0152788Y0115278D01*
X0154772Y0116100D01*
X0156921Y0116100D01*
X0158905Y0115278D01*
X0160424Y0113759D01*
X0160956Y0112476D01*
X0161027Y0112696D01*
X0161399Y0113425D01*
X0161880Y0114088D01*
X0162459Y0114666D01*
X0163121Y0115147D01*
X0163850Y0115519D01*
X0164629Y0115772D01*
X0165346Y0115886D01*
X0165346Y0111200D01*
X0166346Y0111200D01*
X0166346Y0115886D01*
X0167064Y0115772D01*
X0167843Y0115519D01*
X0168572Y0115147D01*
X0169234Y0114666D01*
X0169813Y0114088D01*
X0170294Y0113425D01*
X0170665Y0112696D01*
X0170918Y0111918D01*
X0171032Y0111200D01*
X0166347Y0111200D01*
X0166347Y0110200D01*
X0171032Y0110200D01*
X0170918Y0109482D01*
X0170665Y0108704D01*
X0170442Y0108265D01*
X0171194Y0109017D01*
X0171194Y0112703D01*
X0172190Y0113699D01*
X0179503Y0113699D01*
X0180499Y0112703D01*
X0180499Y0106177D01*
X0180022Y0105700D01*
X0180499Y0105223D01*
X0180499Y0100277D01*
X0183741Y0097036D01*
X0183527Y0097454D01*
X0183274Y0098232D01*
X0183161Y0098950D01*
X0187846Y0098950D01*
X0187846Y0099950D01*
X0183161Y0099950D01*
X0183274Y0100668D01*
X0183527Y0101446D01*
X0183899Y0102175D01*
X0184380Y0102838D01*
X0184959Y0103416D01*
X0185621Y0103897D01*
X0186350Y0104269D01*
X0187129Y0104522D01*
X0187846Y0104636D01*
X0187846Y0099950D01*
X0188846Y0099950D01*
X0188846Y0104636D01*
X0189564Y0104522D01*
X0190343Y0104269D01*
X0191072Y0103897D01*
X0191734Y0103416D01*
X0192313Y0102838D01*
X0192794Y0102175D01*
X0193165Y0101446D01*
X0193418Y0100668D01*
X0193532Y0099950D01*
X0188847Y0099950D01*
X0188847Y0098950D01*
X0193532Y0098950D01*
X0193418Y0098232D01*
X0193165Y0097454D01*
X0192794Y0096725D01*
X0192313Y0096062D01*
X0191734Y0095484D01*
X0191072Y0095003D01*
X0190343Y0094631D01*
X0190122Y0094559D01*
X0191405Y0094028D01*
X0192924Y0092509D01*
X0193573Y0090944D01*
X0194216Y0090300D01*
X0195446Y0089070D01*
X0195446Y0042330D01*
X0190446Y0037330D01*
X0189222Y0036105D01*
X0189919Y0036105D01*
X0192825Y0034902D01*
X0195048Y0032678D01*
X0196252Y0029773D01*
X0196252Y0026627D01*
X0195048Y0023722D01*
X0192825Y0021498D01*
X0189919Y0020294D01*
X0186774Y0020294D01*
X0183868Y0021498D01*
X0181644Y0023722D01*
X0180441Y0026627D01*
X0180441Y0029773D01*
X0181644Y0032678D01*
X0183868Y0034902D01*
X0186761Y0036100D01*
X0182499Y0036100D01*
X0182499Y0035697D01*
X0181503Y0034701D01*
X0174190Y0034701D01*
X0173391Y0035499D01*
X0173543Y0035236D01*
X0173646Y0034854D01*
X0173646Y0031416D01*
X0169890Y0031416D01*
X0169890Y0030417D01*
X0173646Y0030417D01*
X0173646Y0026979D01*
X0173543Y0026597D01*
X0173346Y0026255D01*
X0173067Y0025976D01*
X0172725Y0025779D01*
X0172343Y0025676D01*
X0169890Y0025676D01*
X0169890Y0030416D01*
X0168890Y0030416D01*
X0168890Y0025676D01*
X0166436Y0025676D01*
X0166055Y0025779D01*
X0165713Y0025976D01*
X0165434Y0026255D01*
X0165236Y0026597D01*
X0165134Y0026979D01*
X0165134Y0030417D01*
X0168890Y0030417D01*
X0168890Y0031416D01*
X0165134Y0031416D01*
X0165134Y0034854D01*
X0165236Y0035236D01*
X0165434Y0035578D01*
X0165713Y0035857D01*
X0166055Y0036054D01*
X0166225Y0036100D01*
X0140151Y0036100D01*
X0140151Y0032981D01*
X0140796Y0032336D01*
X0141235Y0031275D01*
X0141235Y0030125D01*
X0140796Y0029064D01*
X0140446Y0028714D01*
X0140446Y0027330D01*
X0137946Y0024830D01*
X0136716Y0023600D01*
X0110403Y0023600D01*
X0109503Y0022701D01*
X0104557Y0022701D01*
X0104187Y0022330D01*
X0102956Y0021100D01*
X0090843Y0021100D01*
X0089613Y0022330D01*
X0087805Y0024138D01*
X0083646Y0024138D01*
X0082650Y0025134D01*
X0082650Y0031266D01*
X0083334Y0031950D01*
X0082650Y0032634D01*
X0082650Y0036792D01*
X0080006Y0039436D01*
X0080006Y0041047D01*
X0078843Y0041047D01*
X0077847Y0042043D01*
X0077847Y0049357D01*
X0078843Y0050353D01*
X0085370Y0050353D01*
X0085846Y0049876D01*
X0086323Y0050353D01*
X0090026Y0050353D01*
X0090026Y0052056D01*
X0089567Y0052056D01*
X0089567Y0056306D01*
X0089567Y0056306D01*
X0089567Y0052056D01*
X0088684Y0052056D01*
X0088616Y0052075D01*
X0088397Y0051856D01*
X0083060Y0051856D01*
X0082841Y0052075D01*
X0082772Y0052056D01*
X0081890Y0052056D01*
X0081890Y0056306D01*
X0081890Y0056306D01*
X0081890Y0052056D01*
X0081007Y0052056D01*
X0080938Y0052075D01*
X0080720Y0051856D01*
X0078473Y0051856D01*
X0069809Y0043192D01*
X0070343Y0043019D01*
X0071072Y0042647D01*
X0071734Y0042166D01*
X0072313Y0041588D01*
X0072794Y0040925D01*
X0073165Y0040196D01*
X0073418Y0039418D01*
X0073532Y0038700D01*
X0068847Y0038700D01*
X0068847Y0037700D01*
X0073532Y0037700D01*
X0073418Y0036982D01*
X0073165Y0036204D01*
X0072794Y0035475D01*
X0072313Y0034812D01*
X0071734Y0034234D01*
X0071072Y0033753D01*
X0070343Y0033381D01*
X0069564Y0033128D01*
X0068846Y0033014D01*
X0068846Y0037700D01*
X0067846Y0037700D01*
X0067846Y0033014D01*
X0067129Y0033128D01*
X0066350Y0033381D01*
X0065621Y0033753D01*
X0064959Y0034234D01*
X0064380Y0034812D01*
X0063899Y0035475D01*
X0063527Y0036204D01*
X0063456Y0036424D01*
X0062924Y0035141D01*
X0061405Y0033622D01*
X0059421Y0032800D01*
X0057272Y0032800D01*
X0056313Y0033197D01*
X0055446Y0032330D01*
X0054216Y0031100D01*
X0044977Y0031100D01*
X0042477Y0033600D01*
X0041930Y0034147D01*
X0041405Y0033622D01*
X0039421Y0032800D01*
X0037272Y0032800D01*
X0035288Y0033622D01*
X0033769Y0035141D01*
X0032946Y0037126D01*
X0032946Y0039274D01*
X0033769Y0041259D01*
X0035288Y0042778D01*
X0037272Y0043600D01*
X0037477Y0043600D01*
X0036246Y0044830D01*
X0036246Y0050076D01*
X0036129Y0049873D01*
X0035850Y0049594D01*
X0035508Y0049397D01*
X0035127Y0049294D01*
X0033681Y0049294D01*
X0033681Y0048489D01*
X0033122Y0047139D01*
X0032089Y0046106D01*
X0030739Y0045546D01*
X0029277Y0045546D01*
X0027927Y0046106D01*
X0026894Y0047139D01*
X0026335Y0048489D01*
X0026335Y0049154D02*
X0015346Y0049154D01*
X0015346Y0050152D02*
X0017616Y0050152D01*
X0017690Y0050079D02*
X0025003Y0050079D01*
X0025999Y0051075D01*
X0025999Y0062325D01*
X0025003Y0063321D01*
X0017690Y0063321D01*
X0016694Y0062325D01*
X0016694Y0051075D01*
X0017690Y0050079D01*
X0016694Y0051151D02*
X0015346Y0051151D01*
X0015346Y0052149D02*
X0016694Y0052149D01*
X0016694Y0053148D02*
X0015346Y0053148D01*
X0015346Y0054146D02*
X0016694Y0054146D01*
X0016694Y0055145D02*
X0015346Y0055145D01*
X0015346Y0056143D02*
X0016694Y0056143D01*
X0016694Y0057142D02*
X0015346Y0057142D01*
X0015346Y0058140D02*
X0016694Y0058140D01*
X0016694Y0059139D02*
X0015346Y0059139D01*
X0015346Y0060137D02*
X0016694Y0060137D01*
X0016694Y0061136D02*
X0015346Y0061136D01*
X0015346Y0062134D02*
X0016694Y0062134D01*
X0017501Y0063133D02*
X0015346Y0063133D01*
X0015346Y0064132D02*
X0026335Y0064132D01*
X0026425Y0065130D02*
X0015346Y0065130D01*
X0015346Y0066129D02*
X0017526Y0066129D01*
X0017690Y0065965D02*
X0016694Y0066960D01*
X0016694Y0075455D01*
X0017690Y0076451D01*
X0025003Y0076451D01*
X0025999Y0075455D01*
X0025999Y0066960D01*
X0025003Y0065965D01*
X0017690Y0065965D01*
X0016694Y0067127D02*
X0015346Y0067127D01*
X0015346Y0068126D02*
X0016694Y0068126D01*
X0016694Y0069124D02*
X0015346Y0069124D01*
X0015346Y0070123D02*
X0016694Y0070123D01*
X0016694Y0071121D02*
X0015346Y0071121D01*
X0015346Y0072120D02*
X0016694Y0072120D01*
X0016694Y0073118D02*
X0015346Y0073118D01*
X0015346Y0074117D02*
X0016694Y0074117D01*
X0016694Y0075115D02*
X0015346Y0075115D01*
X0015346Y0076114D02*
X0017352Y0076114D01*
X0015346Y0077112D02*
X0040830Y0077112D01*
X0040146Y0078111D02*
X0015346Y0078111D01*
X0015346Y0079109D02*
X0018564Y0079109D01*
X0018047Y0080108D02*
X0015346Y0080108D01*
X0015346Y0081106D02*
X0018047Y0081106D01*
X0018047Y0082105D02*
X0015346Y0082105D01*
X0015346Y0083103D02*
X0021606Y0083103D01*
X0021606Y0082105D02*
X0022606Y0082105D01*
X0022606Y0081106D02*
X0021606Y0081106D01*
X0021606Y0080108D02*
X0022606Y0080108D01*
X0022606Y0079109D02*
X0021606Y0079109D01*
X0025649Y0079109D02*
X0025761Y0079109D01*
X0025341Y0076114D02*
X0042146Y0076114D01*
X0042146Y0075115D02*
X0025999Y0075115D01*
X0025999Y0074117D02*
X0042146Y0074117D01*
X0042146Y0073118D02*
X0025999Y0073118D01*
X0025999Y0072120D02*
X0041796Y0072120D01*
X0040798Y0071121D02*
X0025999Y0071121D01*
X0025999Y0070123D02*
X0039799Y0070123D01*
X0038801Y0069124D02*
X0025999Y0069124D01*
X0025999Y0068126D02*
X0036686Y0068126D01*
X0035811Y0067127D02*
X0032256Y0067127D01*
X0033177Y0066129D02*
X0035457Y0066129D01*
X0034807Y0065130D02*
X0033590Y0065130D01*
X0027760Y0067127D02*
X0025999Y0067127D01*
X0025167Y0066129D02*
X0026839Y0066129D01*
X0026466Y0063133D02*
X0025192Y0063133D01*
X0025999Y0062134D02*
X0026879Y0062134D01*
X0027520Y0061136D02*
X0025999Y0061136D01*
X0025999Y0060137D02*
X0027520Y0060137D01*
X0027520Y0059139D02*
X0025999Y0059139D01*
X0025999Y0058140D02*
X0027520Y0058140D01*
X0027520Y0057142D02*
X0025999Y0057142D01*
X0025999Y0056143D02*
X0027520Y0056143D01*
X0027520Y0055145D02*
X0025999Y0055145D01*
X0025999Y0054146D02*
X0027520Y0054146D01*
X0027520Y0053148D02*
X0025999Y0053148D01*
X0025999Y0052149D02*
X0027720Y0052149D01*
X0026832Y0051151D02*
X0025999Y0051151D01*
X0026418Y0050152D02*
X0025077Y0050152D01*
X0025282Y0047157D02*
X0026886Y0047157D01*
X0025999Y0046158D02*
X0027875Y0046158D01*
X0025999Y0045160D02*
X0036246Y0045160D01*
X0036246Y0046158D02*
X0032141Y0046158D01*
X0033129Y0047157D02*
X0036246Y0047157D01*
X0036246Y0048155D02*
X0033543Y0048155D01*
X0033681Y0049154D02*
X0036246Y0049154D01*
X0036246Y0051582D02*
X0032840Y0051582D01*
X0036246Y0051582D01*
X0036246Y0051582D01*
X0032840Y0051582D02*
X0032840Y0051582D01*
X0036915Y0044161D02*
X0025999Y0044161D01*
X0025999Y0043163D02*
X0036217Y0043163D01*
X0034674Y0042164D02*
X0025999Y0042164D01*
X0025999Y0041166D02*
X0033730Y0041166D01*
X0033316Y0040167D02*
X0025999Y0040167D01*
X0025999Y0039169D02*
X0032946Y0039169D01*
X0032946Y0038170D02*
X0025999Y0038170D01*
X0025226Y0037172D02*
X0032946Y0037172D01*
X0033341Y0036173D02*
X0015346Y0036173D01*
X0027166Y0035175D02*
X0033755Y0035175D01*
X0034734Y0034176D02*
X0028550Y0034176D01*
X0029549Y0033178D02*
X0036361Y0033178D01*
X0040332Y0033178D02*
X0042899Y0033178D01*
X0043897Y0032179D02*
X0030255Y0032179D01*
X0030669Y0031181D02*
X0044896Y0031181D01*
X0054297Y0031181D02*
X0082650Y0031181D01*
X0082650Y0030182D02*
X0031082Y0030182D01*
X0031252Y0029184D02*
X0082650Y0029184D01*
X0082650Y0028185D02*
X0031252Y0028185D01*
X0031252Y0027187D02*
X0082650Y0027187D01*
X0082650Y0026188D02*
X0031070Y0026188D01*
X0030656Y0025190D02*
X0082650Y0025190D01*
X0083593Y0024191D02*
X0030243Y0024191D01*
X0029519Y0023193D02*
X0088750Y0023193D01*
X0089749Y0022194D02*
X0028521Y0022194D01*
X0027094Y0021196D02*
X0090747Y0021196D01*
X0103052Y0021196D02*
X0184599Y0021196D01*
X0183172Y0022194D02*
X0104051Y0022194D01*
X0109995Y0023193D02*
X0182174Y0023193D01*
X0181450Y0024191D02*
X0137307Y0024191D01*
X0138306Y0025190D02*
X0181037Y0025190D01*
X0180623Y0026188D02*
X0173279Y0026188D01*
X0173646Y0027187D02*
X0180441Y0027187D01*
X0180441Y0028185D02*
X0173646Y0028185D01*
X0173646Y0029184D02*
X0180441Y0029184D01*
X0180611Y0030182D02*
X0173646Y0030182D01*
X0173646Y0032179D02*
X0181438Y0032179D01*
X0181024Y0031181D02*
X0169890Y0031181D01*
X0169890Y0030182D02*
X0168890Y0030182D01*
X0168890Y0029184D02*
X0169890Y0029184D01*
X0169890Y0028185D02*
X0168890Y0028185D01*
X0168890Y0027187D02*
X0169890Y0027187D01*
X0169890Y0026188D02*
X0168890Y0026188D01*
X0165501Y0026188D02*
X0139304Y0026188D01*
X0140303Y0027187D02*
X0165134Y0027187D01*
X0165134Y0028185D02*
X0140446Y0028185D01*
X0140845Y0029184D02*
X0165134Y0029184D01*
X0165134Y0030182D02*
X0141235Y0030182D01*
X0141235Y0031181D02*
X0168890Y0031181D01*
X0165134Y0032179D02*
X0140861Y0032179D01*
X0140151Y0033178D02*
X0165134Y0033178D01*
X0165134Y0034176D02*
X0140151Y0034176D01*
X0140151Y0035175D02*
X0165220Y0035175D01*
X0173560Y0035175D02*
X0173716Y0035175D01*
X0173646Y0034176D02*
X0183143Y0034176D01*
X0182144Y0033178D02*
X0173646Y0033178D01*
X0181977Y0035175D02*
X0184527Y0035175D01*
X0189289Y0036173D02*
X0196268Y0036173D01*
X0196268Y0035175D02*
X0192166Y0035175D01*
X0193550Y0034176D02*
X0196268Y0034176D01*
X0196268Y0033178D02*
X0194549Y0033178D01*
X0195255Y0032179D02*
X0196268Y0032179D01*
X0196268Y0031181D02*
X0195669Y0031181D01*
X0196082Y0030182D02*
X0196268Y0030182D01*
X0196252Y0029184D02*
X0196268Y0029184D01*
X0196252Y0028185D02*
X0196268Y0028185D01*
X0196252Y0027187D02*
X0196268Y0027187D01*
X0196268Y0026188D02*
X0196070Y0026188D01*
X0196268Y0025190D02*
X0195656Y0025190D01*
X0195243Y0024191D02*
X0196268Y0024191D01*
X0196268Y0023193D02*
X0194519Y0023193D01*
X0193521Y0022194D02*
X0196268Y0022194D01*
X0196268Y0021196D02*
X0192094Y0021196D01*
X0190288Y0037172D02*
X0196268Y0037172D01*
X0196268Y0038170D02*
X0191287Y0038170D01*
X0192285Y0039169D02*
X0196268Y0039169D01*
X0196268Y0040167D02*
X0193284Y0040167D01*
X0194282Y0041166D02*
X0196268Y0041166D01*
X0196268Y0042164D02*
X0195281Y0042164D01*
X0195446Y0043163D02*
X0196268Y0043163D01*
X0196268Y0044161D02*
X0195446Y0044161D01*
X0195446Y0045160D02*
X0196268Y0045160D01*
X0196268Y0046158D02*
X0195446Y0046158D01*
X0195446Y0047157D02*
X0196268Y0047157D01*
X0196268Y0048155D02*
X0195446Y0048155D01*
X0195446Y0049154D02*
X0196268Y0049154D01*
X0196268Y0050152D02*
X0195446Y0050152D01*
X0195446Y0051151D02*
X0196268Y0051151D01*
X0196268Y0052149D02*
X0195446Y0052149D01*
X0195446Y0053148D02*
X0196268Y0053148D01*
X0196268Y0054146D02*
X0195446Y0054146D01*
X0195446Y0055145D02*
X0196268Y0055145D01*
X0196268Y0056143D02*
X0195446Y0056143D01*
X0195446Y0057142D02*
X0196268Y0057142D01*
X0196268Y0058140D02*
X0195446Y0058140D01*
X0195446Y0059139D02*
X0196268Y0059139D01*
X0196268Y0060137D02*
X0195446Y0060137D01*
X0195446Y0061136D02*
X0196268Y0061136D01*
X0196268Y0062134D02*
X0195446Y0062134D01*
X0195446Y0063133D02*
X0196268Y0063133D01*
X0196268Y0064132D02*
X0195446Y0064132D01*
X0195446Y0065130D02*
X0196268Y0065130D01*
X0196268Y0066129D02*
X0195446Y0066129D01*
X0195446Y0067127D02*
X0196268Y0067127D01*
X0196268Y0068126D02*
X0195446Y0068126D01*
X0195446Y0069124D02*
X0196268Y0069124D01*
X0196268Y0070123D02*
X0195446Y0070123D01*
X0195446Y0071121D02*
X0196268Y0071121D01*
X0196268Y0072120D02*
X0195446Y0072120D01*
X0195446Y0073118D02*
X0196268Y0073118D01*
X0196268Y0074117D02*
X0195446Y0074117D01*
X0195446Y0075115D02*
X0196268Y0075115D01*
X0196268Y0076114D02*
X0195446Y0076114D01*
X0195446Y0077112D02*
X0196268Y0077112D01*
X0196268Y0078111D02*
X0195446Y0078111D01*
X0195446Y0079109D02*
X0196268Y0079109D01*
X0196268Y0080108D02*
X0195446Y0080108D01*
X0195446Y0081106D02*
X0196268Y0081106D01*
X0196268Y0082105D02*
X0195446Y0082105D01*
X0195446Y0083103D02*
X0196268Y0083103D01*
X0196268Y0084102D02*
X0195446Y0084102D01*
X0195446Y0085100D02*
X0196268Y0085100D01*
X0196268Y0086099D02*
X0195446Y0086099D01*
X0195446Y0087097D02*
X0196268Y0087097D01*
X0196268Y0088096D02*
X0195446Y0088096D01*
X0195422Y0089094D02*
X0196268Y0089094D01*
X0196268Y0090093D02*
X0194423Y0090093D01*
X0193512Y0091091D02*
X0196268Y0091091D01*
X0196268Y0092090D02*
X0193098Y0092090D01*
X0192345Y0093088D02*
X0196268Y0093088D01*
X0196268Y0094087D02*
X0191263Y0094087D01*
X0191186Y0095085D02*
X0196268Y0095085D01*
X0196268Y0096084D02*
X0192328Y0096084D01*
X0192976Y0097082D02*
X0196268Y0097082D01*
X0196268Y0098081D02*
X0193369Y0098081D01*
X0193512Y0100078D02*
X0196268Y0100078D01*
X0196268Y0101076D02*
X0193286Y0101076D01*
X0192845Y0102075D02*
X0196268Y0102075D01*
X0196268Y0103073D02*
X0192077Y0103073D01*
X0190729Y0104072D02*
X0196268Y0104072D01*
X0196268Y0105070D02*
X0180499Y0105070D01*
X0180499Y0104072D02*
X0185964Y0104072D01*
X0184616Y0103073D02*
X0180499Y0103073D01*
X0180499Y0102075D02*
X0183848Y0102075D01*
X0183407Y0101076D02*
X0180499Y0101076D01*
X0180698Y0100078D02*
X0183181Y0100078D01*
X0181697Y0099079D02*
X0187846Y0099079D01*
X0187846Y0100078D02*
X0188846Y0100078D01*
X0188846Y0101076D02*
X0187846Y0101076D01*
X0187846Y0102075D02*
X0188846Y0102075D01*
X0188846Y0103073D02*
X0187846Y0103073D01*
X0187846Y0104072D02*
X0188846Y0104072D01*
X0196268Y0106069D02*
X0180391Y0106069D01*
X0180499Y0107068D02*
X0196268Y0107068D01*
X0196268Y0108066D02*
X0180499Y0108066D01*
X0180499Y0109065D02*
X0196268Y0109065D01*
X0196268Y0110063D02*
X0180499Y0110063D01*
X0180499Y0111062D02*
X0196268Y0111062D01*
X0196268Y0112060D02*
X0180499Y0112060D01*
X0180144Y0113059D02*
X0186136Y0113059D01*
X0186774Y0112794D02*
X0183868Y0113998D01*
X0181644Y0116222D01*
X0180441Y0119127D01*
X0180441Y0122273D01*
X0181644Y0125178D01*
X0183868Y0127402D01*
X0186774Y0128605D01*
X0189919Y0128605D01*
X0192825Y0127402D01*
X0195048Y0125178D01*
X0196252Y0122273D01*
X0196252Y0119127D01*
X0195048Y0116222D01*
X0192825Y0113998D01*
X0189919Y0112794D01*
X0186774Y0112794D01*
X0190557Y0113059D02*
X0196268Y0113059D01*
X0196268Y0114057D02*
X0192884Y0114057D01*
X0193882Y0115056D02*
X0196268Y0115056D01*
X0196268Y0116054D02*
X0194881Y0116054D01*
X0195393Y0117053D02*
X0196268Y0117053D01*
X0196268Y0118051D02*
X0195806Y0118051D01*
X0196220Y0119050D02*
X0196268Y0119050D01*
X0196252Y0120048D02*
X0196268Y0120048D01*
X0196252Y0121047D02*
X0196268Y0121047D01*
X0196252Y0122045D02*
X0196268Y0122045D01*
X0196268Y0123044D02*
X0195933Y0123044D01*
X0196268Y0124042D02*
X0195519Y0124042D01*
X0195105Y0125041D02*
X0196268Y0125041D01*
X0196268Y0126039D02*
X0194187Y0126039D01*
X0193189Y0127038D02*
X0196268Y0127038D01*
X0196268Y0128036D02*
X0191293Y0128036D01*
X0185400Y0128036D02*
X0026293Y0128036D01*
X0024919Y0128605D02*
X0021774Y0128605D01*
X0018868Y0127402D01*
X0016644Y0125178D01*
X0015441Y0122273D01*
X0015441Y0119127D01*
X0016644Y0116222D01*
X0018868Y0113998D01*
X0021774Y0112794D01*
X0024919Y0112794D01*
X0027825Y0113998D01*
X0030048Y0116222D01*
X0031252Y0119127D01*
X0031252Y0122273D01*
X0030048Y0125178D01*
X0027825Y0127402D01*
X0024919Y0128605D01*
X0028189Y0127038D02*
X0183504Y0127038D01*
X0182506Y0126039D02*
X0029187Y0126039D01*
X0030105Y0125041D02*
X0181588Y0125041D01*
X0181174Y0124042D02*
X0030519Y0124042D01*
X0030933Y0123044D02*
X0180760Y0123044D01*
X0180441Y0122045D02*
X0031252Y0122045D01*
X0031252Y0121047D02*
X0132670Y0121047D01*
X0134023Y0121047D02*
X0180441Y0121047D01*
X0180441Y0120048D02*
X0135584Y0120048D01*
X0136122Y0119050D02*
X0180473Y0119050D01*
X0180887Y0118051D02*
X0136235Y0118051D01*
X0135998Y0117053D02*
X0181300Y0117053D01*
X0181812Y0116054D02*
X0157031Y0116054D01*
X0159128Y0115056D02*
X0162995Y0115056D01*
X0161858Y0114057D02*
X0160126Y0114057D01*
X0160714Y0113059D02*
X0161212Y0113059D01*
X0165346Y0113059D02*
X0166346Y0113059D01*
X0166346Y0114057D02*
X0165346Y0114057D01*
X0165346Y0115056D02*
X0166346Y0115056D01*
X0168698Y0115056D02*
X0182811Y0115056D01*
X0183809Y0114057D02*
X0169835Y0114057D01*
X0170481Y0113059D02*
X0171549Y0113059D01*
X0171194Y0112060D02*
X0170872Y0112060D01*
X0171194Y0111062D02*
X0166347Y0111062D01*
X0166346Y0112060D02*
X0165346Y0112060D01*
X0171010Y0110063D02*
X0171194Y0110063D01*
X0171194Y0109065D02*
X0170783Y0109065D01*
X0171194Y0099499D02*
X0171194Y0098697D01*
X0172190Y0097701D01*
X0177136Y0097701D01*
X0183347Y0091490D01*
X0182946Y0090524D01*
X0182946Y0088376D01*
X0183769Y0086391D01*
X0185288Y0084872D01*
X0186571Y0084341D01*
X0186350Y0084269D01*
X0185621Y0083897D01*
X0184959Y0083416D01*
X0184380Y0082838D01*
X0183899Y0082175D01*
X0183527Y0081446D01*
X0183274Y0080668D01*
X0183161Y0079950D01*
X0187846Y0079950D01*
X0187846Y0078950D01*
X0183161Y0078950D01*
X0183274Y0078232D01*
X0183527Y0077454D01*
X0183899Y0076725D01*
X0184380Y0076062D01*
X0184959Y0075484D01*
X0185621Y0075003D01*
X0186350Y0074631D01*
X0186571Y0074559D01*
X0185288Y0074028D01*
X0183769Y0072509D01*
X0183371Y0071550D01*
X0156582Y0071550D01*
X0156233Y0071899D01*
X0155171Y0072339D01*
X0154022Y0072339D01*
X0152960Y0071899D01*
X0152147Y0071086D01*
X0151707Y0070025D01*
X0151707Y0068875D01*
X0152147Y0067814D01*
X0152960Y0067001D01*
X0154022Y0066561D01*
X0155171Y0066561D01*
X0156233Y0067001D01*
X0156582Y0067350D01*
X0183371Y0067350D01*
X0183769Y0066391D01*
X0185288Y0064872D01*
X0186571Y0064341D01*
X0186350Y0064269D01*
X0185621Y0063897D01*
X0184959Y0063416D01*
X0184380Y0062838D01*
X0183899Y0062175D01*
X0183527Y0061446D01*
X0183274Y0060668D01*
X0183161Y0059950D01*
X0187846Y0059950D01*
X0187846Y0058950D01*
X0183161Y0058950D01*
X0183274Y0058232D01*
X0183527Y0057454D01*
X0183899Y0056725D01*
X0184380Y0056062D01*
X0184959Y0055484D01*
X0185621Y0055003D01*
X0186350Y0054631D01*
X0186571Y0054559D01*
X0185288Y0054028D01*
X0183769Y0052509D01*
X0183371Y0051550D01*
X0182966Y0051550D01*
X0177946Y0056570D01*
X0176716Y0057800D01*
X0156716Y0057800D01*
X0150446Y0064070D01*
X0150446Y0071214D01*
X0150796Y0071564D01*
X0151235Y0072625D01*
X0151235Y0073775D01*
X0150796Y0074836D01*
X0149983Y0075649D01*
X0148921Y0076089D01*
X0147955Y0076089D01*
X0155446Y0083580D01*
X0155446Y0089830D01*
X0162263Y0096647D01*
X0162788Y0096122D01*
X0164772Y0095300D01*
X0166921Y0095300D01*
X0168905Y0096122D01*
X0170424Y0097641D01*
X0171194Y0099499D01*
X0171194Y0099079D02*
X0171020Y0099079D01*
X0170606Y0098081D02*
X0171809Y0098081D01*
X0169866Y0097082D02*
X0177754Y0097082D01*
X0178753Y0096084D02*
X0168813Y0096084D01*
X0162880Y0096084D02*
X0161700Y0096084D01*
X0160702Y0095085D02*
X0179751Y0095085D01*
X0180750Y0094087D02*
X0159703Y0094087D01*
X0158705Y0093088D02*
X0181748Y0093088D01*
X0182747Y0092090D02*
X0157706Y0092090D01*
X0156708Y0091091D02*
X0183181Y0091091D01*
X0182946Y0090093D02*
X0155709Y0090093D01*
X0155446Y0089094D02*
X0182946Y0089094D01*
X0183062Y0088096D02*
X0155446Y0088096D01*
X0155446Y0087097D02*
X0183476Y0087097D01*
X0184061Y0086099D02*
X0155446Y0086099D01*
X0155446Y0085100D02*
X0185059Y0085100D01*
X0186022Y0084102D02*
X0155446Y0084102D01*
X0154970Y0083103D02*
X0184646Y0083103D01*
X0183863Y0082105D02*
X0153971Y0082105D01*
X0152973Y0081106D02*
X0183417Y0081106D01*
X0183186Y0080108D02*
X0151974Y0080108D01*
X0150975Y0079109D02*
X0187846Y0079109D01*
X0183702Y0077112D02*
X0148978Y0077112D01*
X0147980Y0076114D02*
X0184343Y0076114D01*
X0185466Y0075115D02*
X0150517Y0075115D01*
X0151094Y0074117D02*
X0185502Y0074117D01*
X0184378Y0073118D02*
X0151235Y0073118D01*
X0151026Y0072120D02*
X0153492Y0072120D01*
X0152182Y0071121D02*
X0150446Y0071121D01*
X0150446Y0070123D02*
X0151748Y0070123D01*
X0151707Y0069124D02*
X0150446Y0069124D01*
X0150446Y0068126D02*
X0152018Y0068126D01*
X0152834Y0067127D02*
X0150446Y0067127D01*
X0150446Y0066129D02*
X0184031Y0066129D01*
X0183464Y0067127D02*
X0156359Y0067127D01*
X0150446Y0065130D02*
X0185030Y0065130D01*
X0186080Y0064132D02*
X0150446Y0064132D01*
X0151383Y0063133D02*
X0184676Y0063133D01*
X0183878Y0062134D02*
X0152382Y0062134D01*
X0153380Y0061136D02*
X0183427Y0061136D01*
X0183191Y0060137D02*
X0154379Y0060137D01*
X0155377Y0059139D02*
X0187846Y0059139D01*
X0183686Y0057142D02*
X0177374Y0057142D01*
X0178373Y0056143D02*
X0184321Y0056143D01*
X0185425Y0055145D02*
X0179371Y0055145D01*
X0180370Y0054146D02*
X0185574Y0054146D01*
X0184408Y0053148D02*
X0181368Y0053148D01*
X0182367Y0052149D02*
X0183620Y0052149D01*
X0183304Y0058140D02*
X0156376Y0058140D01*
X0155701Y0072120D02*
X0183607Y0072120D01*
X0183314Y0078111D02*
X0149977Y0078111D01*
X0132496Y0078111D02*
X0120446Y0078111D01*
X0120446Y0079109D02*
X0132496Y0079109D01*
X0132496Y0080108D02*
X0120446Y0080108D01*
X0120446Y0081106D02*
X0132496Y0081106D01*
X0132496Y0082105D02*
X0120446Y0082105D01*
X0116246Y0082105D02*
X0109912Y0082105D01*
X0109865Y0082151D02*
X0109865Y0088548D01*
X0109580Y0088833D01*
X0109580Y0103547D01*
X0112850Y0103547D01*
X0113694Y0104391D01*
X0113694Y0101197D01*
X0114690Y0100201D01*
X0116246Y0100201D01*
X0116246Y0047586D01*
X0117454Y0046379D01*
X0117454Y0042417D01*
X0118449Y0041421D01*
X0126610Y0041421D01*
X0126615Y0041413D01*
X0126894Y0041134D01*
X0127236Y0040936D01*
X0127617Y0040834D01*
X0129102Y0040834D01*
X0129102Y0044999D01*
X0129677Y0044999D01*
X0129677Y0040834D01*
X0131162Y0040834D01*
X0131544Y0040936D01*
X0131886Y0041134D01*
X0132165Y0041413D01*
X0132170Y0041421D01*
X0134985Y0041421D01*
X0135772Y0040634D01*
X0135951Y0040634D01*
X0135951Y0032390D01*
X0135897Y0032336D01*
X0135457Y0031275D01*
X0135457Y0030125D01*
X0135897Y0029064D01*
X0136069Y0028892D01*
X0134977Y0027800D01*
X0110499Y0027800D01*
X0110499Y0030223D01*
X0109881Y0030841D01*
X0109999Y0030960D01*
X0110197Y0031302D01*
X0110299Y0031684D01*
X0110299Y0033940D01*
X0106346Y0033940D01*
X0106346Y0034940D01*
X0105346Y0034940D01*
X0105346Y0038499D01*
X0102696Y0038499D01*
X0102315Y0038397D01*
X0101973Y0038199D01*
X0101696Y0037923D01*
X0101696Y0038340D01*
X0104404Y0041047D01*
X0109350Y0041047D01*
X0110346Y0042043D01*
X0110346Y0049357D01*
X0109350Y0050353D01*
X0102823Y0050353D01*
X0102346Y0049876D01*
X0101870Y0050353D01*
X0096923Y0050353D01*
X0096785Y0050491D01*
X0096785Y0051856D01*
X0098633Y0051856D01*
X0098852Y0052075D01*
X0098921Y0052056D01*
X0099803Y0052056D01*
X0099803Y0056306D01*
X0099803Y0056306D01*
X0099803Y0052056D01*
X0100686Y0052056D01*
X0101067Y0052159D01*
X0101083Y0052167D01*
X0101098Y0052159D01*
X0101480Y0052056D01*
X0102362Y0052056D01*
X0102362Y0056306D01*
X0102362Y0056306D01*
X0099803Y0056306D01*
X0099803Y0056306D01*
X0099803Y0060556D01*
X0098921Y0060556D01*
X0098852Y0060538D01*
X0098633Y0060756D01*
X0090737Y0060756D01*
X0090518Y0060538D01*
X0090449Y0060556D01*
X0089567Y0060556D01*
X0089567Y0056306D01*
X0089567Y0056306D01*
X0089567Y0060556D01*
X0088946Y0060556D01*
X0088946Y0063714D01*
X0089296Y0064064D01*
X0089735Y0065125D01*
X0089735Y0066275D01*
X0089296Y0067336D01*
X0088946Y0067686D01*
X0088946Y0075016D01*
X0103561Y0075016D01*
X0105457Y0073119D01*
X0105457Y0072625D01*
X0105897Y0071564D01*
X0106710Y0070751D01*
X0107772Y0070311D01*
X0108921Y0070311D01*
X0109983Y0070751D01*
X0110796Y0071564D01*
X0111235Y0072625D01*
X0111235Y0073775D01*
X0110796Y0074836D01*
X0109983Y0075649D01*
X0108921Y0076089D01*
X0108427Y0076089D01*
X0105301Y0079216D01*
X0101903Y0079216D01*
X0101903Y0080644D01*
X0105433Y0080644D01*
X0106610Y0079466D01*
X0111246Y0074830D01*
X0111246Y0052686D01*
X0110897Y0052336D01*
X0110457Y0051275D01*
X0110457Y0050125D01*
X0110897Y0049064D01*
X0111710Y0048251D01*
X0112772Y0047811D01*
X0113921Y0047811D01*
X0114983Y0048251D01*
X0115796Y0049064D01*
X0116235Y0050125D01*
X0116235Y0051275D01*
X0115796Y0052336D01*
X0115446Y0052686D01*
X0115446Y0076570D01*
X0109865Y0082151D01*
X0109865Y0083103D02*
X0116246Y0083103D01*
X0116246Y0084102D02*
X0109865Y0084102D01*
X0109865Y0085100D02*
X0116246Y0085100D01*
X0116246Y0086099D02*
X0109865Y0086099D01*
X0109865Y0087097D02*
X0116246Y0087097D01*
X0116246Y0088096D02*
X0109865Y0088096D01*
X0109580Y0089094D02*
X0116246Y0089094D01*
X0116246Y0090093D02*
X0109580Y0090093D01*
X0109580Y0091091D02*
X0116246Y0091091D01*
X0116246Y0092090D02*
X0109580Y0092090D01*
X0109580Y0093088D02*
X0116246Y0093088D01*
X0116246Y0094087D02*
X0109580Y0094087D01*
X0109580Y0095085D02*
X0116246Y0095085D01*
X0116246Y0096084D02*
X0109580Y0096084D01*
X0109580Y0097082D02*
X0116246Y0097082D01*
X0116246Y0098081D02*
X0109580Y0098081D01*
X0109580Y0099079D02*
X0116246Y0099079D01*
X0116246Y0100078D02*
X0109580Y0100078D01*
X0109580Y0101076D02*
X0113814Y0101076D01*
X0113694Y0102075D02*
X0109580Y0102075D01*
X0109580Y0103073D02*
X0113694Y0103073D01*
X0113694Y0104072D02*
X0113375Y0104072D01*
X0103985Y0113059D02*
X0097999Y0113059D01*
X0097999Y0114057D02*
X0104984Y0114057D01*
X0105982Y0115056D02*
X0097999Y0115056D01*
X0097148Y0116054D02*
X0114544Y0116054D01*
X0122148Y0116054D02*
X0124544Y0116054D01*
X0123694Y0115056D02*
X0122999Y0115056D01*
X0122999Y0114057D02*
X0123694Y0114057D01*
X0126729Y0117053D02*
X0030393Y0117053D01*
X0030806Y0118051D02*
X0127728Y0118051D01*
X0128726Y0119050D02*
X0031220Y0119050D01*
X0031252Y0120048D02*
X0129725Y0120048D01*
X0132999Y0115056D02*
X0142565Y0115056D01*
X0141567Y0114057D02*
X0132999Y0114057D01*
X0132999Y0113059D02*
X0140978Y0113059D01*
X0140565Y0112060D02*
X0132999Y0112060D01*
X0132999Y0111062D02*
X0140446Y0111062D01*
X0140446Y0110063D02*
X0132999Y0110063D01*
X0132999Y0109065D02*
X0140679Y0109065D01*
X0141093Y0108066D02*
X0132656Y0108066D01*
X0132999Y0107068D02*
X0141842Y0107068D01*
X0142916Y0106069D02*
X0132999Y0106069D01*
X0132999Y0105070D02*
X0142580Y0105070D01*
X0141582Y0104072D02*
X0132999Y0104072D01*
X0132999Y0103073D02*
X0140985Y0103073D01*
X0140571Y0102075D02*
X0132999Y0102075D01*
X0132879Y0101076D02*
X0140446Y0101076D01*
X0140446Y0100078D02*
X0130446Y0100078D01*
X0130446Y0099079D02*
X0140673Y0099079D01*
X0141086Y0098081D02*
X0130446Y0098081D01*
X0130446Y0097082D02*
X0141759Y0097082D01*
X0140761Y0096084D02*
X0130446Y0096084D01*
X0130446Y0095085D02*
X0139762Y0095085D01*
X0138763Y0094087D02*
X0130446Y0094087D01*
X0130446Y0093088D02*
X0137765Y0093088D01*
X0136766Y0092090D02*
X0130446Y0092090D01*
X0130446Y0091091D02*
X0135768Y0091091D01*
X0134769Y0090093D02*
X0130355Y0090093D01*
X0129356Y0089094D02*
X0133771Y0089094D01*
X0132772Y0088096D02*
X0129161Y0088096D01*
X0129161Y0087097D02*
X0132496Y0087097D01*
X0132496Y0086099D02*
X0129161Y0086099D01*
X0129161Y0085100D02*
X0132496Y0085100D01*
X0132496Y0084102D02*
X0129161Y0084102D01*
X0129099Y0083103D02*
X0132496Y0083103D01*
X0132496Y0077112D02*
X0120446Y0077112D01*
X0120446Y0076114D02*
X0132496Y0076114D01*
X0132496Y0075115D02*
X0120446Y0075115D01*
X0120446Y0074117D02*
X0132496Y0074117D01*
X0132496Y0073118D02*
X0120446Y0073118D01*
X0120446Y0072120D02*
X0132496Y0072120D01*
X0132496Y0071121D02*
X0120446Y0071121D01*
X0120446Y0070123D02*
X0132496Y0070123D01*
X0132496Y0069124D02*
X0120446Y0069124D01*
X0120446Y0068126D02*
X0132496Y0068126D01*
X0132496Y0067127D02*
X0120446Y0067127D01*
X0120446Y0066129D02*
X0132496Y0066129D01*
X0132496Y0065130D02*
X0120446Y0065130D01*
X0120446Y0064132D02*
X0132496Y0064132D01*
X0132496Y0063133D02*
X0120446Y0063133D01*
X0120446Y0062134D02*
X0132496Y0062134D01*
X0132496Y0061136D02*
X0120446Y0061136D01*
X0120446Y0060137D02*
X0132314Y0060137D01*
X0131316Y0059139D02*
X0120446Y0059139D01*
X0120446Y0058140D02*
X0130317Y0058140D01*
X0129319Y0057142D02*
X0120446Y0057142D01*
X0120446Y0056143D02*
X0128320Y0056143D01*
X0127322Y0055145D02*
X0120446Y0055145D01*
X0120446Y0054146D02*
X0126323Y0054146D01*
X0125325Y0053148D02*
X0120446Y0053148D01*
X0120446Y0052149D02*
X0124326Y0052149D01*
X0123327Y0051151D02*
X0120446Y0051151D01*
X0116246Y0051151D02*
X0116235Y0051151D01*
X0116246Y0052149D02*
X0115873Y0052149D01*
X0116246Y0053148D02*
X0115446Y0053148D01*
X0115446Y0054146D02*
X0116246Y0054146D01*
X0116246Y0055145D02*
X0115446Y0055145D01*
X0115446Y0056143D02*
X0116246Y0056143D01*
X0116246Y0057142D02*
X0115446Y0057142D01*
X0115446Y0058140D02*
X0116246Y0058140D01*
X0116246Y0059139D02*
X0115446Y0059139D01*
X0115446Y0060137D02*
X0116246Y0060137D01*
X0116246Y0061136D02*
X0115446Y0061136D01*
X0115446Y0062134D02*
X0116246Y0062134D01*
X0116246Y0063133D02*
X0115446Y0063133D01*
X0115446Y0064132D02*
X0116246Y0064132D01*
X0116246Y0065130D02*
X0115446Y0065130D01*
X0115446Y0066129D02*
X0116246Y0066129D01*
X0116246Y0067127D02*
X0115446Y0067127D01*
X0115446Y0068126D02*
X0116246Y0068126D01*
X0116246Y0069124D02*
X0115446Y0069124D01*
X0115446Y0070123D02*
X0116246Y0070123D01*
X0116246Y0071121D02*
X0115446Y0071121D01*
X0115446Y0072120D02*
X0116246Y0072120D01*
X0116246Y0073118D02*
X0115446Y0073118D01*
X0115446Y0074117D02*
X0116246Y0074117D01*
X0116246Y0075115D02*
X0115446Y0075115D01*
X0115446Y0076114D02*
X0116246Y0076114D01*
X0116246Y0077112D02*
X0114904Y0077112D01*
X0113906Y0078111D02*
X0116246Y0078111D01*
X0116246Y0079109D02*
X0112907Y0079109D01*
X0111909Y0080108D02*
X0116246Y0080108D01*
X0116246Y0081106D02*
X0110910Y0081106D01*
X0107966Y0078111D02*
X0106406Y0078111D01*
X0106967Y0079109D02*
X0105407Y0079109D01*
X0105969Y0080108D02*
X0101903Y0080108D01*
X0107404Y0077112D02*
X0108964Y0077112D01*
X0108403Y0076114D02*
X0109963Y0076114D01*
X0110517Y0075115D02*
X0110961Y0075115D01*
X0111094Y0074117D02*
X0111246Y0074117D01*
X0111235Y0073118D02*
X0111246Y0073118D01*
X0111246Y0072120D02*
X0111026Y0072120D01*
X0111246Y0071121D02*
X0110353Y0071121D01*
X0111246Y0070123D02*
X0088946Y0070123D01*
X0088946Y0071121D02*
X0106340Y0071121D01*
X0105667Y0072120D02*
X0088946Y0072120D01*
X0088946Y0073118D02*
X0105457Y0073118D01*
X0104460Y0074117D02*
X0088946Y0074117D01*
X0084746Y0074117D02*
X0046346Y0074117D01*
X0046346Y0075115D02*
X0053461Y0075115D01*
X0053561Y0075016D02*
X0084746Y0075016D01*
X0084746Y0067686D01*
X0084397Y0067336D01*
X0083957Y0066275D01*
X0083957Y0065125D01*
X0084397Y0064064D01*
X0084746Y0063714D01*
X0084746Y0060756D01*
X0083060Y0060756D01*
X0082841Y0060538D01*
X0082772Y0060556D01*
X0081890Y0060556D01*
X0081890Y0056306D01*
X0081890Y0056306D01*
X0081890Y0060556D01*
X0081007Y0060556D01*
X0080938Y0060538D01*
X0080720Y0060756D01*
X0078760Y0060756D01*
X0070446Y0069070D01*
X0069216Y0070300D01*
X0045916Y0070300D01*
X0046346Y0070730D01*
X0046346Y0076800D01*
X0047351Y0076800D01*
X0048346Y0077796D01*
X0048346Y0086490D01*
X0049246Y0085590D01*
X0049246Y0077796D01*
X0050242Y0076800D01*
X0051777Y0076800D01*
X0053561Y0075016D01*
X0052463Y0076114D02*
X0046346Y0076114D01*
X0047663Y0077112D02*
X0049930Y0077112D01*
X0049246Y0078111D02*
X0048346Y0078111D01*
X0048346Y0079109D02*
X0049246Y0079109D01*
X0049246Y0080108D02*
X0048346Y0080108D01*
X0048346Y0081106D02*
X0049246Y0081106D01*
X0049246Y0082105D02*
X0048346Y0082105D01*
X0048346Y0083103D02*
X0049246Y0083103D01*
X0049246Y0084102D02*
X0048346Y0084102D01*
X0048346Y0085100D02*
X0049246Y0085100D01*
X0048738Y0086099D02*
X0048346Y0086099D01*
X0041194Y0089094D02*
X0036878Y0089094D01*
X0037876Y0090093D02*
X0041194Y0090093D01*
X0041194Y0091091D02*
X0038318Y0091091D01*
X0040238Y0088096D02*
X0035446Y0088096D01*
X0035446Y0087097D02*
X0040146Y0087097D01*
X0040146Y0086099D02*
X0035446Y0086099D01*
X0036161Y0085100D02*
X0034457Y0085100D01*
X0033846Y0084102D02*
X0035593Y0084102D01*
X0035457Y0083103D02*
X0033846Y0083103D01*
X0033846Y0082105D02*
X0035673Y0082105D01*
X0036355Y0081106D02*
X0033846Y0081106D01*
X0033846Y0080108D02*
X0040146Y0080108D01*
X0040146Y0079109D02*
X0033412Y0079109D01*
X0022606Y0084102D02*
X0021606Y0084102D01*
X0021606Y0085100D02*
X0022606Y0085100D01*
X0022606Y0086099D02*
X0021606Y0086099D01*
X0021606Y0087097D02*
X0022606Y0087097D01*
X0022846Y0088096D02*
X0023846Y0088096D01*
X0024361Y0088096D02*
X0031246Y0088096D01*
X0029815Y0089094D02*
X0026542Y0089094D01*
X0027516Y0090093D02*
X0028817Y0090093D01*
X0028375Y0091091D02*
X0028108Y0091091D01*
X0023846Y0091091D02*
X0022846Y0091091D01*
X0022846Y0090093D02*
X0023846Y0090093D01*
X0023846Y0089094D02*
X0022846Y0089094D01*
X0022332Y0088096D02*
X0015346Y0088096D01*
X0015346Y0089094D02*
X0020151Y0089094D01*
X0019176Y0090093D02*
X0015346Y0090093D01*
X0015346Y0091091D02*
X0018585Y0091091D01*
X0018257Y0092090D02*
X0015346Y0092090D01*
X0015346Y0093088D02*
X0022846Y0093088D01*
X0022846Y0092090D02*
X0023846Y0092090D01*
X0018491Y0095085D02*
X0015346Y0095085D01*
X0015346Y0094087D02*
X0018222Y0094087D01*
X0019014Y0096084D02*
X0015346Y0096084D01*
X0015346Y0097082D02*
X0019875Y0097082D01*
X0021541Y0098081D02*
X0015346Y0098081D01*
X0015346Y0099079D02*
X0019830Y0099079D01*
X0018832Y0100078D02*
X0015346Y0100078D01*
X0015346Y0101076D02*
X0018381Y0101076D01*
X0017968Y0102075D02*
X0015346Y0102075D01*
X0015346Y0103073D02*
X0017946Y0103073D01*
X0017946Y0104072D02*
X0015346Y0104072D01*
X0015346Y0105070D02*
X0018276Y0105070D01*
X0018690Y0106069D02*
X0015346Y0106069D01*
X0015346Y0107068D02*
X0019577Y0107068D01*
X0020983Y0108066D02*
X0015346Y0108066D01*
X0015346Y0109065D02*
X0026241Y0109065D01*
X0027240Y0110063D02*
X0015346Y0110063D01*
X0015346Y0111062D02*
X0028238Y0111062D01*
X0029237Y0112060D02*
X0015346Y0112060D01*
X0015346Y0113059D02*
X0021136Y0113059D01*
X0018809Y0114057D02*
X0015346Y0114057D01*
X0015346Y0115056D02*
X0017811Y0115056D01*
X0016812Y0116054D02*
X0015346Y0116054D01*
X0015346Y0117053D02*
X0016300Y0117053D01*
X0015887Y0118051D02*
X0015346Y0118051D01*
X0015346Y0119050D02*
X0015473Y0119050D01*
X0015441Y0120048D02*
X0015346Y0120048D01*
X0015346Y0121047D02*
X0015441Y0121047D01*
X0015441Y0122045D02*
X0015346Y0122045D01*
X0015346Y0123044D02*
X0015760Y0123044D01*
X0015346Y0124042D02*
X0016174Y0124042D01*
X0016588Y0125041D02*
X0015346Y0125041D01*
X0015346Y0126039D02*
X0017506Y0126039D01*
X0018504Y0127038D02*
X0015346Y0127038D01*
X0015346Y0128036D02*
X0020400Y0128036D01*
X0029881Y0116054D02*
X0089544Y0116054D01*
X0088694Y0115056D02*
X0028882Y0115056D01*
X0027884Y0114057D02*
X0088694Y0114057D01*
X0097999Y0112060D02*
X0098050Y0112060D01*
X0088694Y0106100D02*
X0088694Y0101197D01*
X0089690Y0100201D01*
X0093928Y0100201D01*
X0093928Y0100153D01*
X0092606Y0100153D01*
X0092606Y0096200D01*
X0091606Y0096200D01*
X0091606Y0095200D01*
X0088047Y0095200D01*
X0088047Y0092550D01*
X0088149Y0092168D01*
X0088347Y0091826D01*
X0088626Y0091547D01*
X0088968Y0091349D01*
X0089350Y0091247D01*
X0091606Y0091247D01*
X0091606Y0095200D01*
X0092606Y0095200D01*
X0092606Y0091247D01*
X0093928Y0091247D01*
X0093928Y0090213D01*
X0094597Y0089544D01*
X0093296Y0089544D01*
X0093077Y0089325D01*
X0093009Y0089344D01*
X0092126Y0089344D01*
X0091243Y0089344D01*
X0091175Y0089325D01*
X0090956Y0089544D01*
X0072823Y0089544D01*
X0071828Y0088548D01*
X0071828Y0081640D01*
X0072823Y0080644D01*
X0083274Y0080644D01*
X0082957Y0079879D01*
X0082957Y0079216D01*
X0070446Y0079216D01*
X0070446Y0088644D01*
X0070499Y0088697D01*
X0070499Y0095223D01*
X0069881Y0095841D01*
X0069999Y0095960D01*
X0070197Y0096302D01*
X0070299Y0096684D01*
X0070299Y0098940D01*
X0066346Y0098940D01*
X0066346Y0099940D01*
X0065346Y0099940D01*
X0065346Y0098940D01*
X0061394Y0098940D01*
X0061394Y0096684D01*
X0061496Y0096302D01*
X0061693Y0095960D01*
X0061812Y0095841D01*
X0061194Y0095223D01*
X0061194Y0089582D01*
X0060499Y0090277D01*
X0060499Y0095223D01*
X0059881Y0095841D01*
X0059999Y0095960D01*
X0060197Y0096302D01*
X0060299Y0096684D01*
X0060299Y0098940D01*
X0056346Y0098940D01*
X0056346Y0099940D01*
X0055346Y0099940D01*
X0055346Y0098940D01*
X0051394Y0098940D01*
X0051394Y0098123D01*
X0050499Y0099017D01*
X0050499Y0102703D01*
X0049503Y0103699D01*
X0042190Y0103699D01*
X0041194Y0102703D01*
X0041194Y0096177D01*
X0041671Y0095700D01*
X0041271Y0095300D01*
X0038322Y0095300D01*
X0037924Y0096259D01*
X0036405Y0097778D01*
X0035386Y0098200D01*
X0036405Y0098622D01*
X0037924Y0100141D01*
X0038746Y0102126D01*
X0038746Y0104274D01*
X0038349Y0105233D01*
X0039216Y0106100D01*
X0088694Y0106100D01*
X0088694Y0106069D02*
X0039185Y0106069D01*
X0038417Y0105070D02*
X0088694Y0105070D01*
X0088694Y0104072D02*
X0038746Y0104072D01*
X0038746Y0103073D02*
X0041564Y0103073D01*
X0041194Y0102075D02*
X0038725Y0102075D01*
X0038312Y0101076D02*
X0041194Y0101076D01*
X0041194Y0100078D02*
X0037861Y0100078D01*
X0036863Y0099079D02*
X0041194Y0099079D01*
X0041194Y0098081D02*
X0035674Y0098081D01*
X0037101Y0097082D02*
X0041194Y0097082D01*
X0041287Y0096084D02*
X0037997Y0096084D01*
X0050499Y0099079D02*
X0055346Y0099079D01*
X0055346Y0099940D02*
X0051394Y0099940D01*
X0051394Y0102197D01*
X0051496Y0102578D01*
X0051693Y0102920D01*
X0051973Y0103199D01*
X0052315Y0103397D01*
X0052696Y0103499D01*
X0055346Y0103499D01*
X0055346Y0099940D01*
X0055346Y0100078D02*
X0056346Y0100078D01*
X0056346Y0099940D02*
X0056346Y0103499D01*
X0058997Y0103499D01*
X0059378Y0103397D01*
X0059720Y0103199D01*
X0059999Y0102920D01*
X0060197Y0102578D01*
X0060299Y0102197D01*
X0060299Y0099940D01*
X0056346Y0099940D01*
X0056346Y0099079D02*
X0065346Y0099079D01*
X0065346Y0099940D02*
X0061394Y0099940D01*
X0061394Y0102197D01*
X0061496Y0102578D01*
X0061693Y0102920D01*
X0061973Y0103199D01*
X0062315Y0103397D01*
X0062696Y0103499D01*
X0065346Y0103499D01*
X0065346Y0099940D01*
X0065346Y0100078D02*
X0066346Y0100078D01*
X0066346Y0099940D02*
X0066346Y0103499D01*
X0068997Y0103499D01*
X0069378Y0103397D01*
X0069720Y0103199D01*
X0069999Y0102920D01*
X0070197Y0102578D01*
X0070299Y0102197D01*
X0070299Y0099940D01*
X0066346Y0099940D01*
X0066346Y0099079D02*
X0088109Y0099079D01*
X0088149Y0099232D02*
X0088047Y0098850D01*
X0088047Y0096200D01*
X0091606Y0096200D01*
X0091606Y0100153D01*
X0089350Y0100153D01*
X0088968Y0100051D01*
X0088626Y0099853D01*
X0088347Y0099574D01*
X0088149Y0099232D01*
X0088047Y0098081D02*
X0070299Y0098081D01*
X0070299Y0097082D02*
X0088047Y0097082D01*
X0088047Y0095085D02*
X0070499Y0095085D01*
X0070499Y0094087D02*
X0088047Y0094087D01*
X0088047Y0093088D02*
X0070499Y0093088D01*
X0070499Y0092090D02*
X0088195Y0092090D01*
X0091606Y0092090D02*
X0092606Y0092090D01*
X0092606Y0093088D02*
X0091606Y0093088D01*
X0091606Y0094087D02*
X0092606Y0094087D01*
X0092606Y0095085D02*
X0091606Y0095085D01*
X0091606Y0096084D02*
X0070071Y0096084D01*
X0070299Y0100078D02*
X0089071Y0100078D01*
X0088814Y0101076D02*
X0070299Y0101076D01*
X0070299Y0102075D02*
X0088694Y0102075D01*
X0088694Y0103073D02*
X0069846Y0103073D01*
X0066346Y0103073D02*
X0065346Y0103073D01*
X0065346Y0102075D02*
X0066346Y0102075D01*
X0066346Y0101076D02*
X0065346Y0101076D01*
X0061394Y0101076D02*
X0060299Y0101076D01*
X0060299Y0100078D02*
X0061394Y0100078D01*
X0061394Y0098081D02*
X0060299Y0098081D01*
X0060299Y0097082D02*
X0061394Y0097082D01*
X0061622Y0096084D02*
X0060071Y0096084D01*
X0060499Y0095085D02*
X0061194Y0095085D01*
X0061194Y0094087D02*
X0060499Y0094087D01*
X0060499Y0093088D02*
X0061194Y0093088D01*
X0061194Y0092090D02*
X0060499Y0092090D01*
X0060499Y0091091D02*
X0061194Y0091091D01*
X0061194Y0090093D02*
X0060683Y0090093D01*
X0070499Y0090093D02*
X0094048Y0090093D01*
X0093928Y0091091D02*
X0070499Y0091091D01*
X0070499Y0089094D02*
X0072374Y0089094D01*
X0071828Y0088096D02*
X0070446Y0088096D01*
X0070446Y0087097D02*
X0071828Y0087097D01*
X0071828Y0086099D02*
X0070446Y0086099D01*
X0070446Y0085100D02*
X0071828Y0085100D01*
X0071828Y0084102D02*
X0070446Y0084102D01*
X0070446Y0083103D02*
X0071828Y0083103D01*
X0071828Y0082105D02*
X0070446Y0082105D01*
X0070446Y0081106D02*
X0072361Y0081106D01*
X0070446Y0080108D02*
X0083052Y0080108D01*
X0084746Y0073118D02*
X0046346Y0073118D01*
X0046346Y0072120D02*
X0084746Y0072120D01*
X0084746Y0071121D02*
X0046346Y0071121D01*
X0069394Y0070123D02*
X0084746Y0070123D01*
X0084746Y0069124D02*
X0070392Y0069124D01*
X0071391Y0068126D02*
X0084746Y0068126D01*
X0084311Y0067127D02*
X0072389Y0067127D01*
X0073388Y0066129D02*
X0083957Y0066129D01*
X0083957Y0065130D02*
X0074386Y0065130D01*
X0075385Y0064132D02*
X0084369Y0064132D01*
X0084746Y0063133D02*
X0076383Y0063133D01*
X0077382Y0062134D02*
X0084746Y0062134D01*
X0084746Y0061136D02*
X0078380Y0061136D01*
X0081890Y0060137D02*
X0081890Y0060137D01*
X0081890Y0059139D02*
X0081890Y0059139D01*
X0081890Y0058140D02*
X0081890Y0058140D01*
X0081890Y0057142D02*
X0081890Y0057142D01*
X0081890Y0056143D02*
X0081890Y0056143D01*
X0081890Y0055145D02*
X0081890Y0055145D01*
X0081890Y0054146D02*
X0081890Y0054146D01*
X0081890Y0053148D02*
X0081890Y0053148D01*
X0081890Y0052149D02*
X0081890Y0052149D01*
X0078643Y0050152D02*
X0076769Y0050152D01*
X0075770Y0049154D02*
X0077847Y0049154D01*
X0077847Y0048155D02*
X0074772Y0048155D01*
X0073773Y0047157D02*
X0077847Y0047157D01*
X0077847Y0046158D02*
X0072775Y0046158D01*
X0071776Y0045160D02*
X0077847Y0045160D01*
X0077847Y0044161D02*
X0070778Y0044161D01*
X0069900Y0043163D02*
X0077847Y0043163D01*
X0077847Y0042164D02*
X0071736Y0042164D01*
X0072619Y0041166D02*
X0078725Y0041166D01*
X0080006Y0040167D02*
X0073175Y0040167D01*
X0073458Y0039169D02*
X0080274Y0039169D01*
X0081273Y0038170D02*
X0068847Y0038170D01*
X0068846Y0037172D02*
X0067846Y0037172D01*
X0067846Y0036173D02*
X0068846Y0036173D01*
X0068846Y0035175D02*
X0067846Y0035175D01*
X0067846Y0034176D02*
X0068846Y0034176D01*
X0068846Y0033178D02*
X0067846Y0033178D01*
X0066976Y0033178D02*
X0060332Y0033178D01*
X0061959Y0034176D02*
X0065038Y0034176D01*
X0064117Y0035175D02*
X0062938Y0035175D01*
X0063352Y0036173D02*
X0063543Y0036173D01*
X0069717Y0033178D02*
X0082650Y0033178D01*
X0082650Y0034176D02*
X0071655Y0034176D01*
X0072576Y0035175D02*
X0082650Y0035175D01*
X0082650Y0036173D02*
X0073150Y0036173D01*
X0073448Y0037172D02*
X0082271Y0037172D01*
X0083105Y0032179D02*
X0055295Y0032179D01*
X0056294Y0033178D02*
X0056361Y0033178D01*
X0077767Y0051151D02*
X0090026Y0051151D01*
X0089567Y0052149D02*
X0089567Y0052149D01*
X0089567Y0053148D02*
X0089567Y0053148D01*
X0089567Y0054146D02*
X0089567Y0054146D01*
X0089567Y0055145D02*
X0089567Y0055145D01*
X0089567Y0056143D02*
X0089567Y0056143D01*
X0089567Y0057142D02*
X0089567Y0057142D01*
X0089567Y0058140D02*
X0089567Y0058140D01*
X0089567Y0059139D02*
X0089567Y0059139D01*
X0089567Y0060137D02*
X0089567Y0060137D01*
X0088946Y0061136D02*
X0111246Y0061136D01*
X0111246Y0062134D02*
X0088946Y0062134D01*
X0088946Y0063133D02*
X0111246Y0063133D01*
X0111246Y0064132D02*
X0089324Y0064132D01*
X0089735Y0065130D02*
X0111246Y0065130D01*
X0111246Y0066129D02*
X0089735Y0066129D01*
X0089382Y0067127D02*
X0111246Y0067127D01*
X0111246Y0068126D02*
X0088946Y0068126D01*
X0088946Y0069124D02*
X0111246Y0069124D01*
X0108870Y0060756D02*
X0103532Y0060756D01*
X0103314Y0060538D01*
X0103245Y0060556D01*
X0102362Y0060556D01*
X0101480Y0060556D01*
X0101098Y0060454D01*
X0101083Y0060445D01*
X0101067Y0060454D01*
X0100686Y0060556D01*
X0099803Y0060556D01*
X0099803Y0056306D01*
X0099803Y0056306D01*
X0101988Y0056306D01*
X0102362Y0056306D01*
X0102362Y0056306D01*
X0102362Y0052056D01*
X0103245Y0052056D01*
X0103314Y0052075D01*
X0103532Y0051856D01*
X0108870Y0051856D01*
X0109865Y0052852D01*
X0109865Y0059760D01*
X0108870Y0060756D01*
X0109488Y0060137D02*
X0111246Y0060137D01*
X0111246Y0059139D02*
X0109865Y0059139D01*
X0109865Y0058140D02*
X0111246Y0058140D01*
X0111246Y0057142D02*
X0109865Y0057142D01*
X0109865Y0056143D02*
X0111246Y0056143D01*
X0111246Y0055145D02*
X0109865Y0055145D01*
X0109865Y0054146D02*
X0111246Y0054146D01*
X0111246Y0053148D02*
X0109865Y0053148D01*
X0109163Y0052149D02*
X0110820Y0052149D01*
X0110457Y0051151D02*
X0096785Y0051151D01*
X0099803Y0052149D02*
X0099803Y0052149D01*
X0099803Y0053148D02*
X0099803Y0053148D01*
X0099803Y0054146D02*
X0099803Y0054146D01*
X0099803Y0055145D02*
X0099803Y0055145D01*
X0099803Y0056143D02*
X0099803Y0056143D01*
X0099803Y0057142D02*
X0099803Y0057142D01*
X0099803Y0058140D02*
X0099803Y0058140D01*
X0099803Y0059139D02*
X0099803Y0059139D01*
X0099803Y0060137D02*
X0099803Y0060137D01*
X0102362Y0060137D02*
X0102362Y0060137D01*
X0102362Y0060556D02*
X0102362Y0056306D01*
X0102362Y0060556D01*
X0102362Y0059139D02*
X0102362Y0059139D01*
X0102362Y0058140D02*
X0102362Y0058140D01*
X0102362Y0057142D02*
X0102362Y0057142D01*
X0102362Y0056306D02*
X0102362Y0056306D01*
X0102362Y0056143D02*
X0102362Y0056143D01*
X0102362Y0055145D02*
X0102362Y0055145D01*
X0102362Y0054146D02*
X0102362Y0054146D01*
X0102362Y0053148D02*
X0102362Y0053148D01*
X0102362Y0052149D02*
X0102362Y0052149D01*
X0101132Y0052149D02*
X0101033Y0052149D01*
X0102070Y0050152D02*
X0102623Y0050152D01*
X0109550Y0050152D02*
X0110457Y0050152D01*
X0110346Y0049154D02*
X0110860Y0049154D01*
X0110346Y0048155D02*
X0111941Y0048155D01*
X0110346Y0047157D02*
X0116676Y0047157D01*
X0116246Y0048155D02*
X0114752Y0048155D01*
X0115833Y0049154D02*
X0116246Y0049154D01*
X0116235Y0050152D02*
X0116246Y0050152D01*
X0117454Y0046158D02*
X0110346Y0046158D01*
X0110346Y0045160D02*
X0117454Y0045160D01*
X0117454Y0044161D02*
X0110346Y0044161D01*
X0110346Y0043163D02*
X0117454Y0043163D01*
X0117706Y0042164D02*
X0110346Y0042164D01*
X0109468Y0041166D02*
X0126862Y0041166D01*
X0129102Y0041166D02*
X0129677Y0041166D01*
X0129677Y0042164D02*
X0129102Y0042164D01*
X0129102Y0043163D02*
X0129677Y0043163D01*
X0129677Y0044161D02*
X0129102Y0044161D01*
X0129102Y0045574D02*
X0129102Y0049739D01*
X0128325Y0049739D01*
X0128091Y0049974D01*
X0135183Y0057067D01*
X0135183Y0055133D01*
X0131620Y0051570D01*
X0131620Y0050727D01*
X0131441Y0050727D01*
X0130454Y0049739D01*
X0129677Y0049739D01*
X0129677Y0045574D01*
X0129102Y0045574D01*
X0129102Y0046158D02*
X0129677Y0046158D01*
X0129677Y0047157D02*
X0129102Y0047157D01*
X0129102Y0048155D02*
X0129677Y0048155D01*
X0129677Y0049154D02*
X0129102Y0049154D01*
X0128269Y0050152D02*
X0130867Y0050152D01*
X0131620Y0051151D02*
X0129267Y0051151D01*
X0130266Y0052149D02*
X0132200Y0052149D01*
X0131264Y0053148D02*
X0133199Y0053148D01*
X0132263Y0054146D02*
X0134197Y0054146D01*
X0133261Y0055145D02*
X0135183Y0055145D01*
X0135183Y0056143D02*
X0134260Y0056143D01*
X0135240Y0041166D02*
X0131918Y0041166D01*
X0135951Y0040167D02*
X0103524Y0040167D01*
X0102525Y0039169D02*
X0113463Y0039169D01*
X0113464Y0039173D02*
X0113362Y0038791D01*
X0113362Y0035354D01*
X0117118Y0035354D01*
X0117118Y0040094D01*
X0114665Y0040094D01*
X0114283Y0039991D01*
X0113941Y0039794D01*
X0113662Y0039515D01*
X0113464Y0039173D01*
X0113362Y0038170D02*
X0109749Y0038170D01*
X0109720Y0038199D02*
X0109378Y0038397D01*
X0108997Y0038499D01*
X0106346Y0038499D01*
X0106346Y0034940D01*
X0110299Y0034940D01*
X0110299Y0037197D01*
X0110197Y0037578D01*
X0109999Y0037920D01*
X0109720Y0038199D01*
X0110299Y0037172D02*
X0113362Y0037172D01*
X0113362Y0036173D02*
X0110299Y0036173D01*
X0110299Y0035175D02*
X0117118Y0035175D01*
X0117118Y0035354D02*
X0117118Y0034354D01*
X0113362Y0034354D01*
X0113362Y0030916D01*
X0113464Y0030534D01*
X0113662Y0030192D01*
X0113941Y0029913D01*
X0114283Y0029716D01*
X0114665Y0029613D01*
X0117118Y0029613D01*
X0117118Y0034353D01*
X0118118Y0034353D01*
X0118118Y0029613D01*
X0120571Y0029613D01*
X0120953Y0029716D01*
X0121295Y0029913D01*
X0121574Y0030192D01*
X0121772Y0030534D01*
X0121874Y0030916D01*
X0121874Y0034354D01*
X0118118Y0034354D01*
X0118118Y0035354D01*
X0117118Y0035354D01*
X0117118Y0036173D02*
X0118118Y0036173D01*
X0118118Y0035354D02*
X0118118Y0040094D01*
X0120571Y0040094D01*
X0120953Y0039991D01*
X0121295Y0039794D01*
X0121574Y0039515D01*
X0121772Y0039173D01*
X0121874Y0038791D01*
X0121874Y0035354D01*
X0118118Y0035354D01*
X0118118Y0035175D02*
X0135951Y0035175D01*
X0135951Y0036173D02*
X0121874Y0036173D01*
X0121874Y0037172D02*
X0135951Y0037172D01*
X0135951Y0038170D02*
X0121874Y0038170D01*
X0121773Y0039169D02*
X0135951Y0039169D01*
X0135951Y0034176D02*
X0121874Y0034176D01*
X0121874Y0033178D02*
X0135951Y0033178D01*
X0135832Y0032179D02*
X0121874Y0032179D01*
X0121874Y0031181D02*
X0135457Y0031181D01*
X0135457Y0030182D02*
X0121564Y0030182D01*
X0118118Y0030182D02*
X0117118Y0030182D01*
X0117118Y0031181D02*
X0118118Y0031181D01*
X0118118Y0032179D02*
X0117118Y0032179D01*
X0117118Y0033178D02*
X0118118Y0033178D01*
X0118118Y0034176D02*
X0117118Y0034176D01*
X0113362Y0034176D02*
X0106346Y0034176D01*
X0106346Y0035175D02*
X0105346Y0035175D01*
X0105346Y0036173D02*
X0106346Y0036173D01*
X0106346Y0037172D02*
X0105346Y0037172D01*
X0105346Y0038170D02*
X0106346Y0038170D01*
X0101943Y0038170D02*
X0101696Y0038170D01*
X0110299Y0033178D02*
X0113362Y0033178D01*
X0113362Y0032179D02*
X0110299Y0032179D01*
X0110127Y0031181D02*
X0113362Y0031181D01*
X0113672Y0030182D02*
X0110499Y0030182D01*
X0110499Y0029184D02*
X0135848Y0029184D01*
X0135362Y0028185D02*
X0110499Y0028185D01*
X0117118Y0037172D02*
X0118118Y0037172D01*
X0118118Y0038170D02*
X0117118Y0038170D01*
X0117118Y0039169D02*
X0118118Y0039169D01*
X0086123Y0050152D02*
X0085570Y0050152D01*
X0092126Y0085094D02*
X0092126Y0089344D01*
X0092126Y0085094D01*
X0092126Y0085094D01*
X0092126Y0085100D02*
X0092126Y0085100D01*
X0092126Y0086099D02*
X0092126Y0086099D01*
X0092126Y0087097D02*
X0092126Y0087097D01*
X0092126Y0088096D02*
X0092126Y0088096D01*
X0092126Y0089094D02*
X0092126Y0089094D01*
X0092606Y0097082D02*
X0091606Y0097082D01*
X0091606Y0098081D02*
X0092606Y0098081D01*
X0092606Y0099079D02*
X0091606Y0099079D01*
X0091606Y0100078D02*
X0092606Y0100078D01*
X0061847Y0103073D02*
X0059846Y0103073D01*
X0060299Y0102075D02*
X0061394Y0102075D01*
X0056346Y0102075D02*
X0055346Y0102075D01*
X0055346Y0103073D02*
X0056346Y0103073D01*
X0056346Y0101076D02*
X0055346Y0101076D01*
X0051394Y0101076D02*
X0050499Y0101076D01*
X0050499Y0100078D02*
X0051394Y0100078D01*
X0051394Y0102075D02*
X0050499Y0102075D01*
X0050129Y0103073D02*
X0051847Y0103073D01*
X0030235Y0113059D02*
X0025557Y0113059D01*
X0018370Y0087097D02*
X0015346Y0087097D01*
X0015346Y0086099D02*
X0018047Y0086099D01*
X0018047Y0085100D02*
X0015346Y0085100D01*
X0015346Y0084102D02*
X0018047Y0084102D01*
X0135286Y0116054D02*
X0144662Y0116054D01*
X0147031Y0116054D02*
X0154662Y0116054D01*
X0152565Y0115056D02*
X0149128Y0115056D01*
X0150126Y0114057D02*
X0151567Y0114057D01*
X0150979Y0113059D02*
X0150714Y0113059D01*
X0182695Y0098081D02*
X0183324Y0098081D01*
X0183694Y0097082D02*
X0183717Y0097082D01*
X0188847Y0099079D02*
X0196268Y0099079D01*
D24*
X0154596Y0069450D03*
X0148346Y0073200D03*
X0143346Y0080700D03*
X0143346Y0063200D03*
X0113346Y0050700D03*
X0090846Y0065700D03*
X0086846Y0065700D03*
X0085846Y0079305D03*
X0080846Y0091950D03*
X0108346Y0073200D03*
X0064346Y0071700D03*
X0038346Y0065700D03*
X0038346Y0083200D03*
X0133346Y0118200D03*
X0138346Y0030700D03*
D25*
X0138051Y0030995D01*
X0138051Y0038200D01*
X0177087Y0038200D01*
X0177717Y0038830D01*
X0178346Y0038200D01*
X0188346Y0038200D01*
X0193346Y0043200D01*
X0193346Y0088200D01*
X0192096Y0089450D01*
X0188346Y0089450D01*
X0188346Y0089460D01*
X0175846Y0101960D01*
X0175846Y0109440D02*
X0174587Y0109440D01*
X0165846Y0100700D01*
X0160846Y0098200D02*
X0153346Y0090700D01*
X0153346Y0084450D01*
X0140846Y0071950D01*
X0140846Y0060700D01*
X0142382Y0059165D01*
X0142382Y0046074D01*
X0138051Y0045287D02*
X0138051Y0038200D01*
X0138346Y0030700D02*
X0138346Y0028200D01*
X0135846Y0025700D01*
X0105846Y0025700D01*
X0105217Y0026330D01*
X0102087Y0023200D01*
X0091713Y0023200D01*
X0086713Y0028200D01*
X0094213Y0035700D01*
X0094980Y0035700D01*
X0099596Y0039210D02*
X0099596Y0031950D01*
X0095846Y0028200D01*
X0094980Y0028200D01*
X0105217Y0026330D02*
X0105846Y0026960D01*
X0099596Y0039210D02*
X0106087Y0045700D01*
X0098606Y0045700D02*
X0094685Y0049621D01*
X0094685Y0050700D01*
X0094685Y0050621D01*
X0094685Y0050700D02*
X0094685Y0056306D01*
X0092126Y0056306D02*
X0092126Y0048239D01*
X0089587Y0045700D01*
X0082106Y0045700D02*
X0082106Y0040306D01*
X0086713Y0035700D01*
X0073846Y0047700D02*
X0077846Y0051700D01*
X0081346Y0051700D01*
X0081890Y0052243D01*
X0081890Y0056306D01*
X0086846Y0055861D02*
X0087008Y0055700D01*
X0087008Y0056306D01*
X0086846Y0055861D02*
X0086846Y0065700D01*
X0086846Y0076866D01*
X0087096Y0077116D01*
X0099596Y0077116D01*
X0099803Y0077322D01*
X0099803Y0085094D01*
X0099803Y0095483D01*
X0099587Y0095700D01*
X0105846Y0101960D01*
X0105846Y0111950D01*
X0107096Y0113200D01*
X0115846Y0113200D01*
X0117106Y0111940D01*
X0118346Y0111940D01*
X0128346Y0111940D01*
X0128346Y0115700D01*
X0130846Y0118200D01*
X0133346Y0118200D01*
X0128346Y0111940D02*
X0129587Y0110700D01*
X0128346Y0104460D02*
X0128346Y0091054D01*
X0123917Y0086625D01*
X0134596Y0086950D02*
X0134596Y0059450D01*
X0125059Y0049913D01*
X0125059Y0046074D01*
X0120728Y0046074D02*
X0118346Y0048456D01*
X0118346Y0104460D01*
X0109587Y0108200D02*
X0107480Y0106094D01*
X0107480Y0103594D01*
X0107480Y0103200D01*
X0107480Y0085094D01*
X0107480Y0081566D01*
X0113346Y0075700D01*
X0113346Y0050700D01*
X0133720Y0050700D02*
X0133720Y0046074D01*
X0133720Y0050700D02*
X0137283Y0054263D01*
X0137283Y0086763D01*
X0143720Y0093200D01*
X0150846Y0093200D01*
X0155846Y0098200D01*
X0155846Y0100700D01*
X0160846Y0098200D02*
X0160846Y0105700D01*
X0155846Y0110700D01*
X0145846Y0100700D02*
X0145846Y0098200D01*
X0134596Y0086950D01*
X0143346Y0080700D02*
X0146358Y0083712D01*
X0146358Y0086625D01*
X0148346Y0073200D02*
X0148346Y0063200D01*
X0155846Y0055700D01*
X0175846Y0055700D01*
X0182096Y0049450D01*
X0188346Y0049450D01*
X0177846Y0046440D02*
X0177480Y0046074D01*
X0151043Y0046074D01*
X0146713Y0047649D02*
X0146713Y0059834D01*
X0143346Y0063200D01*
X0154596Y0069450D02*
X0188346Y0069450D01*
X0177846Y0038960D02*
X0177717Y0038830D01*
X0108346Y0073200D02*
X0104431Y0077116D01*
X0099596Y0077116D01*
X0097244Y0082098D02*
X0094451Y0079305D01*
X0085846Y0079305D01*
X0087096Y0077116D02*
X0068346Y0077116D01*
X0054431Y0077116D01*
X0053346Y0078200D01*
X0053346Y0082900D01*
X0053346Y0084460D01*
X0045846Y0091960D01*
X0044606Y0093200D01*
X0033346Y0093200D01*
X0033346Y0086960D01*
X0029587Y0083200D01*
X0038346Y0083200D02*
X0043946Y0083200D01*
X0044246Y0082900D01*
X0044246Y0071600D01*
X0038346Y0065700D01*
X0034465Y0061818D01*
X0032075Y0061818D01*
X0032075Y0059259D02*
X0036906Y0059259D01*
X0045846Y0068200D01*
X0068346Y0068200D01*
X0076772Y0059775D01*
X0076772Y0056306D01*
X0076772Y0053125D01*
X0066846Y0043200D01*
X0053346Y0043200D01*
X0048346Y0038200D01*
X0043346Y0040700D02*
X0038346Y0045700D01*
X0038346Y0056700D01*
X0038346Y0058200D01*
X0046476Y0066330D01*
X0067717Y0066330D01*
X0074213Y0059834D01*
X0074213Y0056306D01*
X0072096Y0056529D02*
X0040846Y0056529D01*
X0040846Y0057327D02*
X0072096Y0057327D01*
X0072096Y0058126D02*
X0040846Y0058126D01*
X0040846Y0058200D02*
X0047096Y0064450D01*
X0067096Y0064450D01*
X0072096Y0059450D01*
X0072096Y0050700D01*
X0067096Y0045700D01*
X0053346Y0045700D01*
X0050846Y0043200D01*
X0043346Y0043200D01*
X0040846Y0045700D01*
X0040846Y0058200D01*
X0041571Y0058924D02*
X0072096Y0058924D01*
X0071824Y0059723D02*
X0042369Y0059723D01*
X0043168Y0060521D02*
X0071025Y0060521D01*
X0070227Y0061320D02*
X0043966Y0061320D01*
X0044765Y0062118D02*
X0069428Y0062118D01*
X0068630Y0062917D02*
X0045563Y0062917D01*
X0046362Y0063715D02*
X0067831Y0063715D01*
X0072096Y0055730D02*
X0040846Y0055730D01*
X0040846Y0054932D02*
X0072096Y0054932D01*
X0072096Y0054133D02*
X0040846Y0054133D01*
X0040846Y0053334D02*
X0072096Y0053334D01*
X0072096Y0052536D02*
X0040846Y0052536D01*
X0040846Y0051737D02*
X0072096Y0051737D01*
X0072096Y0050939D02*
X0040846Y0050939D01*
X0040846Y0050140D02*
X0071537Y0050140D01*
X0070738Y0049342D02*
X0040846Y0049342D01*
X0040846Y0048543D02*
X0069940Y0048543D01*
X0069141Y0047745D02*
X0040846Y0047745D01*
X0040846Y0046946D02*
X0068343Y0046946D01*
X0067544Y0046148D02*
X0040846Y0046148D01*
X0041197Y0045349D02*
X0052996Y0045349D01*
X0052197Y0044551D02*
X0041996Y0044551D01*
X0042794Y0043752D02*
X0051399Y0043752D01*
X0043346Y0040700D02*
X0043346Y0035700D01*
X0045846Y0033200D01*
X0053346Y0033200D01*
X0058346Y0038200D01*
X0063346Y0030700D02*
X0068346Y0035700D01*
X0068346Y0038200D01*
X0063346Y0030700D02*
X0035846Y0030700D01*
X0033346Y0033200D01*
X0033346Y0043200D01*
X0035846Y0045700D01*
X0035846Y0050700D01*
X0034965Y0051582D01*
X0032075Y0051582D01*
X0032075Y0056700D02*
X0038346Y0056700D01*
X0068346Y0077116D02*
X0068346Y0089460D01*
X0065846Y0091960D01*
X0062446Y0085360D02*
X0055846Y0091960D01*
X0054606Y0093200D01*
X0053346Y0093200D01*
X0047106Y0099440D01*
X0045846Y0099440D01*
X0038346Y0108200D02*
X0102106Y0108200D01*
X0096028Y0104279D02*
X0096028Y0091083D01*
X0097244Y0089866D01*
X0097244Y0085094D01*
X0097244Y0082098D01*
X0096028Y0104279D02*
X0093346Y0104460D01*
X0093346Y0111940D02*
X0032087Y0111940D01*
X0023346Y0103200D01*
X0033346Y0103200D02*
X0038346Y0108200D01*
X0062446Y0085360D02*
X0062446Y0082900D01*
M02*
