G75*
%MOIN*%
%OFA0B0*%
%FSLAX25Y25*%
%IPPOS*%
%LPD*%
%AMOC8*
5,1,8,0,0,1.08239X$1,22.5*
%
%ADD10R,0.05906X0.05118*%
%ADD11R,0.05118X0.05906*%
%ADD12R,0.05709X0.01575*%
%ADD13R,0.05906X0.07087*%
%ADD14R,0.02756X0.05906*%
%ADD15R,0.07087X0.05512*%
%ADD16R,0.05512X0.07480*%
%ADD17R,0.03150X0.05906*%
%ADD18R,0.04724X0.04724*%
%ADD19R,0.01370X0.05500*%
%ADD20R,0.04800X0.08800*%
%ADD21R,0.14173X0.08661*%
D10*
X0105846Y0026960D03*
X0105846Y0034440D03*
X0177846Y0038960D03*
X0177846Y0046440D03*
X0175846Y0101960D03*
X0175846Y0109440D03*
X0128346Y0111940D03*
X0128346Y0104460D03*
X0118346Y0104460D03*
X0118346Y0111940D03*
X0093346Y0111940D03*
X0093346Y0104460D03*
X0065846Y0099440D03*
X0055846Y0099440D03*
X0045846Y0099440D03*
X0045846Y0091960D03*
X0055846Y0091960D03*
X0065846Y0091960D03*
D11*
X0092106Y0095700D03*
X0099587Y0095700D03*
X0102106Y0108200D03*
X0109587Y0108200D03*
X0029587Y0083200D03*
X0022106Y0083200D03*
X0082106Y0045700D03*
X0089587Y0045700D03*
X0098606Y0045700D03*
X0106087Y0045700D03*
D12*
X0032075Y0051582D03*
X0032075Y0054141D03*
X0032075Y0056700D03*
X0032075Y0059259D03*
X0032075Y0061818D03*
D13*
X0021346Y0042196D03*
X0021346Y0071204D03*
D14*
X0021346Y0056700D03*
D15*
X0123917Y0086625D03*
X0146358Y0086625D03*
D16*
X0117618Y0034854D03*
X0169390Y0030917D03*
D17*
X0151043Y0046074D03*
X0146713Y0047649D03*
X0142382Y0046074D03*
X0138051Y0045287D03*
X0133720Y0046074D03*
X0129390Y0045287D03*
X0125059Y0046074D03*
X0120728Y0046074D03*
D18*
X0094980Y0035700D03*
X0086713Y0035700D03*
X0086713Y0028200D03*
X0094980Y0028200D03*
D19*
X0094685Y0056306D03*
X0092126Y0056306D03*
X0089567Y0056306D03*
X0087008Y0056306D03*
X0084449Y0056306D03*
X0081890Y0056306D03*
X0079331Y0056306D03*
X0076772Y0056306D03*
X0074213Y0056306D03*
X0097244Y0056306D03*
X0099803Y0056306D03*
X0102362Y0056306D03*
X0104921Y0056306D03*
X0107480Y0056306D03*
X0107480Y0085094D03*
X0104921Y0085094D03*
X0102362Y0085094D03*
X0099803Y0085094D03*
X0097244Y0085094D03*
X0094685Y0085094D03*
X0092126Y0085094D03*
X0089567Y0085094D03*
X0087008Y0085094D03*
X0084449Y0085094D03*
X0081890Y0085094D03*
X0079331Y0085094D03*
X0076772Y0085094D03*
X0074213Y0085094D03*
D20*
X0062446Y0082900D03*
X0053346Y0082900D03*
X0044246Y0082900D03*
D21*
X0053346Y0058499D03*
M02*
